<?xml version="1.0" encoding="utf-8" standalone="no"?>
<!DOCTYPE svg PUBLIC "-//W3C//DTD SVG 1.1//EN"
  "http://www.w3.org/Graphics/SVG/1.1/DTD/svg11.dtd">
<svg xmlns:xlink="http://www.w3.org/1999/xlink" width="230.844782pt" height="169.962944pt" viewBox="0 0 230.844782 169.962944" xmlns="http://www.w3.org/2000/svg" version="1.1">
 <metadata>
  <rdf:RDF xmlns:dc="http://purl.org/dc/elements/1.1/" xmlns:cc="http://creativecommons.org/ns#" xmlns:rdf="http://www.w3.org/1999/02/22-rdf-syntax-ns#">
   <cc:Work>
    <dc:type rdf:resource="http://purl.org/dc/dcmitype/StillImage"/>
    <dc:date>2025-12-23T08:41:53.040529</dc:date>
    <dc:format>image/svg+xml</dc:format>
    <dc:creator>
     <cc:Agent>
      <dc:title>Matplotlib v3.7.0, https://matplotlib.org/</dc:title>
     </cc:Agent>
    </dc:creator>
   </cc:Work>
  </rdf:RDF>
 </metadata>
 <defs>
  <style type="text/css">*{stroke-linejoin: round; stroke-linecap: butt}</style>
 </defs>
 <g id="figure_1">
  <g id="patch_1">
   <path d="M 0 169.962944 
L 230.844782 169.962944 
L 230.844782 -0 
L 0 -0 
z
" style="fill: #ffffff"/>
  </g>
  <g id="axes_1">
   <g id="patch_2">
    <path d="M 10.7 45.694597 
L 109.73772 45.694597 
L 109.73772 7.2 
L 10.7 7.2 
z
" style="fill: #ffffff"/>
   </g>
   <g id="matplotlib.axis_1">
    <g id="xtick_1">
     <g id="line2d_1">
      <path d="M 30.18047 45.694597 
L 30.18047 7.2 
" clip-path="url(#p9338aeb63b)" style="fill: none; stroke: #d3d3d3; stroke-width: 0.5; stroke-linecap: square"/>
     </g>
     <g id="line2d_2">
      <defs>
       <path id="m1466133651" d="M 0 0 
L 0 3.5 
" style="stroke: #000000; stroke-width: 0.8"/>
      </defs>
      <g>
       <use xlink:href="#m1466133651" x="30.18047" y="45.694597" style="stroke: #000000; stroke-width: 0.8"/>
      </g>
     </g>
     <g id="text_1">
      <!-- 750 -->
      <g transform="translate(24.45422 56.25366) scale(0.06 -0.06)">
       <defs>
        <path id="DejaVuSerif-37" d="M 3609 4347 
L 1784 0 
L 1319 0 
L 3059 4153 
L 903 4153 
L 903 3578 
L 538 3578 
L 538 4666 
L 3609 4666 
L 3609 4347 
z
" transform="scale(0.015625)"/>
        <path id="DejaVuSerif-35" d="M 3219 4666 
L 3219 4153 
L 1081 4153 
L 1081 2816 
Q 1244 2928 1461 2984 
Q 1678 3041 1947 3041 
Q 2703 3041 3140 2622 
Q 3578 2203 3578 1478 
Q 3578 738 3136 323 
Q 2694 -91 1894 -91 
Q 1572 -91 1234 -12 
Q 897 66 544 225 
L 544 1131 
L 897 1131 
Q 925 688 1179 453 
Q 1434 219 1894 219 
Q 2388 219 2653 544 
Q 2919 869 2919 1478 
Q 2919 2084 2655 2407 
Q 2391 2731 1894 2731 
Q 1613 2731 1398 2631 
Q 1184 2531 1019 2322 
L 750 2322 
L 750 4666 
L 3219 4666 
z
" transform="scale(0.015625)"/>
        <path id="DejaVuSerif-30" d="M 2034 219 
Q 2513 219 2750 744 
Q 2988 1269 2988 2328 
Q 2988 3391 2750 3916 
Q 2513 4441 2034 4441 
Q 1556 4441 1318 3916 
Q 1081 3391 1081 2328 
Q 1081 1269 1318 744 
Q 1556 219 2034 219 
z
M 2034 -91 
Q 1275 -91 848 546 
Q 422 1184 422 2328 
Q 422 3475 848 4112 
Q 1275 4750 2034 4750 
Q 2797 4750 3222 4112 
Q 3647 3475 3647 2328 
Q 3647 1184 3222 546 
Q 2797 -91 2034 -91 
z
" transform="scale(0.015625)"/>
       </defs>
       <use xlink:href="#DejaVuSerif-37"/>
       <use xlink:href="#DejaVuSerif-35" x="63.623047"/>
       <use xlink:href="#DejaVuSerif-30" x="127.246094"/>
      </g>
     </g>
    </g>
    <g id="xtick_2">
     <g id="line2d_3">
      <path d="M 50.845436 45.694597 
L 50.845436 7.2 
" clip-path="url(#p9338aeb63b)" style="fill: none; stroke: #d3d3d3; stroke-width: 0.5; stroke-linecap: square"/>
     </g>
     <g id="line2d_4">
      <g>
       <use xlink:href="#m1466133651" x="50.845436" y="45.694597" style="stroke: #000000; stroke-width: 0.8"/>
      </g>
     </g>
     <g id="text_2">
      <!-- 800 -->
      <g transform="translate(45.119186 56.25366) scale(0.06 -0.06)">
       <defs>
        <path id="DejaVuSerif-38" d="M 2981 1275 
Q 2981 1775 2732 2051 
Q 2484 2328 2034 2328 
Q 1584 2328 1336 2051 
Q 1088 1775 1088 1275 
Q 1088 772 1336 495 
Q 1584 219 2034 219 
Q 2484 219 2732 495 
Q 2981 772 2981 1275 
z
M 2853 3541 
Q 2853 3966 2637 4203 
Q 2422 4441 2034 4441 
Q 1650 4441 1433 4203 
Q 1216 3966 1216 3541 
Q 1216 3113 1433 2875 
Q 1650 2638 2034 2638 
Q 2422 2638 2637 2875 
Q 2853 3113 2853 3541 
z
M 2516 2484 
Q 3047 2413 3344 2092 
Q 3641 1772 3641 1275 
Q 3641 619 3225 264 
Q 2809 -91 2034 -91 
Q 1263 -91 845 264 
Q 428 619 428 1275 
Q 428 1772 725 2092 
Q 1022 2413 1556 2484 
Q 1084 2569 832 2842 
Q 581 3116 581 3541 
Q 581 4103 968 4426 
Q 1356 4750 2034 4750 
Q 2713 4750 3100 4426 
Q 3488 4103 3488 3541 
Q 3488 3116 3236 2842 
Q 2984 2569 2516 2484 
z
" transform="scale(0.015625)"/>
       </defs>
       <use xlink:href="#DejaVuSerif-38"/>
       <use xlink:href="#DejaVuSerif-30" x="63.623047"/>
       <use xlink:href="#DejaVuSerif-30" x="127.246094"/>
      </g>
     </g>
    </g>
    <g id="xtick_3">
     <g id="line2d_5">
      <path d="M 71.510403 45.694597 
L 71.510403 7.2 
" clip-path="url(#p9338aeb63b)" style="fill: none; stroke: #d3d3d3; stroke-width: 0.5; stroke-linecap: square"/>
     </g>
     <g id="line2d_6">
      <g>
       <use xlink:href="#m1466133651" x="71.510403" y="45.694597" style="stroke: #000000; stroke-width: 0.8"/>
      </g>
     </g>
     <g id="text_3">
      <!-- 850 -->
      <g transform="translate(65.784153 56.25366) scale(0.06 -0.06)">
       <use xlink:href="#DejaVuSerif-38"/>
       <use xlink:href="#DejaVuSerif-35" x="63.623047"/>
       <use xlink:href="#DejaVuSerif-30" x="127.246094"/>
      </g>
     </g>
    </g>
    <g id="xtick_4">
     <g id="line2d_7">
      <path d="M 92.17537 45.694597 
L 92.17537 7.2 
" clip-path="url(#p9338aeb63b)" style="fill: none; stroke: #d3d3d3; stroke-width: 0.5; stroke-linecap: square"/>
     </g>
     <g id="line2d_8">
      <g>
       <use xlink:href="#m1466133651" x="92.17537" y="45.694597" style="stroke: #000000; stroke-width: 0.8"/>
      </g>
     </g>
     <g id="text_4">
      <!-- 900 -->
      <g transform="translate(86.44912 56.25366) scale(0.06 -0.06)">
       <defs>
        <path id="DejaVuSerif-39" d="M 2994 2091 
Q 2784 1856 2512 1740 
Q 2241 1625 1900 1625 
Q 1206 1625 804 2044 
Q 403 2463 403 3188 
Q 403 3897 839 4323 
Q 1275 4750 2003 4750 
Q 2794 4750 3217 4161 
Q 3641 3572 3641 2478 
Q 3641 1253 3137 581 
Q 2634 -91 1722 -91 
Q 1475 -91 1203 -44 
Q 931 3 647 97 
L 647 872 
L 997 872 
Q 1038 556 1241 387 
Q 1444 219 1784 219 
Q 2391 219 2687 676 
Q 2984 1134 2994 2091 
z
M 1978 4441 
Q 1534 4441 1298 4117 
Q 1063 3794 1063 3188 
Q 1063 2581 1298 2256 
Q 1534 1931 1978 1931 
Q 2422 1931 2658 2245 
Q 2894 2559 2894 3150 
Q 2894 3772 2656 4106 
Q 2419 4441 1978 4441 
z
" transform="scale(0.015625)"/>
       </defs>
       <use xlink:href="#DejaVuSerif-39"/>
       <use xlink:href="#DejaVuSerif-30" x="63.623047"/>
       <use xlink:href="#DejaVuSerif-30" x="127.246094"/>
      </g>
     </g>
    </g>
    <g id="text_5">
     <!-- Cloud top height [m] -->
     <g transform="translate(28.601204 66.060535) scale(0.06 -0.06)">
      <defs>
       <path id="DejaVuSerif-43" d="M 4513 1234 
Q 4306 581 3820 245 
Q 3334 -91 2591 -91 
Q 2134 -91 1743 65 
Q 1353 222 1050 525 
Q 700 875 529 1320 
Q 359 1766 359 2328 
Q 359 3416 987 4083 
Q 1616 4750 2644 4750 
Q 3025 4750 3456 4650 
Q 3888 4550 4384 4347 
L 4384 3272 
L 4031 3272 
Q 3916 3859 3567 4137 
Q 3219 4416 2591 4416 
Q 1844 4416 1459 3886 
Q 1075 3356 1075 2328 
Q 1075 1303 1459 773 
Q 1844 244 2591 244 
Q 3113 244 3450 492 
Q 3788 741 3938 1234 
L 4513 1234 
z
" transform="scale(0.015625)"/>
       <path id="DejaVuSerif-6c" d="M 1313 331 
L 1856 331 
L 1856 0 
L 184 0 
L 184 331 
L 738 331 
L 738 4531 
L 184 4531 
L 184 4863 
L 1313 4863 
L 1313 331 
z
" transform="scale(0.015625)"/>
       <path id="DejaVuSerif-6f" d="M 1925 219 
Q 2388 219 2623 584 
Q 2859 950 2859 1663 
Q 2859 2375 2623 2739 
Q 2388 3103 1925 3103 
Q 1463 3103 1227 2739 
Q 991 2375 991 1663 
Q 991 950 1228 584 
Q 1466 219 1925 219 
z
M 1925 -91 
Q 1200 -91 759 389 
Q 319 869 319 1663 
Q 319 2456 758 2934 
Q 1197 3413 1925 3413 
Q 2653 3413 3092 2934 
Q 3531 2456 3531 1663 
Q 3531 869 3092 389 
Q 2653 -91 1925 -91 
z
" transform="scale(0.015625)"/>
       <path id="DejaVuSerif-75" d="M 2266 3322 
L 3341 3322 
L 3341 331 
L 3884 331 
L 3884 0 
L 2766 0 
L 2766 588 
Q 2606 256 2353 82 
Q 2100 -91 1766 -91 
Q 1213 -91 952 223 
Q 691 538 691 1209 
L 691 2988 
L 172 2988 
L 172 3322 
L 1269 3322 
L 1269 1388 
Q 1269 781 1417 556 
Q 1566 331 1947 331 
Q 2347 331 2556 625 
Q 2766 919 2766 1478 
L 2766 2988 
L 2266 2988 
L 2266 3322 
z
" transform="scale(0.015625)"/>
       <path id="DejaVuSerif-64" d="M 3359 331 
L 3909 331 
L 3909 0 
L 2784 0 
L 2784 519 
Q 2616 206 2355 57 
Q 2094 -91 1709 -91 
Q 1097 -91 708 395 
Q 319 881 319 1663 
Q 319 2444 706 2928 
Q 1094 3413 1709 3413 
Q 2094 3413 2355 3264 
Q 2616 3116 2784 2803 
L 2784 4531 
L 2241 4531 
L 2241 4863 
L 3359 4863 
L 3359 331 
z
M 2784 1497 
L 2784 1825 
Q 2784 2422 2554 2737 
Q 2325 3053 1888 3053 
Q 1444 3053 1217 2703 
Q 991 2353 991 1663 
Q 991 975 1217 622 
Q 1444 269 1888 269 
Q 2325 269 2554 583 
Q 2784 897 2784 1497 
z
" transform="scale(0.015625)"/>
       <path id="DejaVuSerif-20" transform="scale(0.015625)"/>
       <path id="DejaVuSerif-74" d="M 691 2988 
L 184 2988 
L 184 3322 
L 691 3322 
L 691 4353 
L 1269 4353 
L 1269 3322 
L 2350 3322 
L 2350 2988 
L 1269 2988 
L 1269 878 
Q 1269 456 1350 337 
Q 1431 219 1650 219 
Q 1875 219 1978 351 
Q 2081 484 2088 781 
L 2522 781 
Q 2497 328 2275 118 
Q 2053 -91 1600 -91 
Q 1103 -91 897 129 
Q 691 350 691 878 
L 691 2988 
z
" transform="scale(0.015625)"/>
       <path id="DejaVuSerif-70" d="M 1313 1825 
L 1313 1497 
Q 1313 897 1542 583 
Q 1772 269 2209 269 
Q 2650 269 2876 622 
Q 3103 975 3103 1663 
Q 3103 2353 2876 2703 
Q 2650 3053 2209 3053 
Q 1772 3053 1542 2737 
Q 1313 2422 1313 1825 
z
M 738 2988 
L 184 2988 
L 184 3322 
L 1313 3322 
L 1313 2803 
Q 1481 3116 1742 3264 
Q 2003 3413 2388 3413 
Q 3000 3413 3387 2928 
Q 3775 2444 3775 1663 
Q 3775 881 3387 395 
Q 3000 -91 2388 -91 
Q 2003 -91 1742 57 
Q 1481 206 1313 519 
L 1313 -997 
L 1856 -997 
L 1856 -1331 
L 184 -1331 
L 184 -997 
L 738 -997 
L 738 2988 
z
" transform="scale(0.015625)"/>
       <path id="DejaVuSerif-68" d="M 263 0 
L 263 331 
L 781 331 
L 781 4531 
L 231 4531 
L 231 4863 
L 1356 4863 
L 1356 2731 
Q 1516 3069 1770 3241 
Q 2025 3413 2363 3413 
Q 2913 3413 3172 3097 
Q 3431 2781 3431 2113 
L 3431 331 
L 3944 331 
L 3944 0 
L 2356 0 
L 2356 331 
L 2853 331 
L 2853 1931 
Q 2853 2541 2704 2764 
Q 2556 2988 2175 2988 
Q 1775 2988 1565 2697 
Q 1356 2406 1356 1850 
L 1356 331 
L 1856 331 
L 1856 0 
L 263 0 
z
" transform="scale(0.015625)"/>
       <path id="DejaVuSerif-65" d="M 3469 1600 
L 991 1600 
L 991 1575 
Q 991 903 1244 561 
Q 1497 219 1991 219 
Q 2369 219 2611 417 
Q 2853 616 2950 1006 
L 3413 1006 
Q 3275 459 2904 184 
Q 2534 -91 1931 -91 
Q 1203 -91 761 389 
Q 319 869 319 1663 
Q 319 2450 753 2931 
Q 1188 3413 1894 3413 
Q 2647 3413 3050 2948 
Q 3453 2484 3469 1600 
z
M 2791 1931 
Q 2772 2513 2545 2808 
Q 2319 3103 1894 3103 
Q 1497 3103 1269 2806 
Q 1041 2509 991 1931 
L 2791 1931 
z
" transform="scale(0.015625)"/>
       <path id="DejaVuSerif-69" d="M 622 4353 
Q 622 4497 726 4603 
Q 831 4709 978 4709 
Q 1122 4709 1226 4603 
Q 1331 4497 1331 4353 
Q 1331 4206 1228 4103 
Q 1125 4000 978 4000 
Q 831 4000 726 4103 
Q 622 4206 622 4353 
z
M 1356 331 
L 1900 331 
L 1900 0 
L 231 0 
L 231 331 
L 781 331 
L 781 2988 
L 231 2988 
L 231 3322 
L 1356 3322 
L 1356 331 
z
" transform="scale(0.015625)"/>
       <path id="DejaVuSerif-67" d="M 3359 2988 
L 3359 72 
Q 3359 -644 2965 -1033 
Q 2572 -1422 1844 -1422 
Q 1516 -1422 1216 -1362 
Q 916 -1303 641 -1184 
L 641 -488 
L 941 -488 
Q 997 -813 1206 -963 
Q 1416 -1113 1806 -1113 
Q 2313 -1113 2548 -827 
Q 2784 -541 2784 72 
L 2784 519 
Q 2616 206 2355 57 
Q 2094 -91 1709 -91 
Q 1097 -91 708 395 
Q 319 881 319 1663 
Q 319 2444 706 2928 
Q 1094 3413 1709 3413 
Q 2094 3413 2355 3264 
Q 2616 3116 2784 2803 
L 2784 3322 
L 3909 3322 
L 3909 2988 
L 3359 2988 
z
M 2784 1825 
Q 2784 2422 2554 2737 
Q 2325 3053 1888 3053 
Q 1444 3053 1217 2703 
Q 991 2353 991 1663 
Q 991 975 1217 622 
Q 1444 269 1888 269 
Q 2325 269 2554 583 
Q 2784 897 2784 1497 
L 2784 1825 
z
" transform="scale(0.015625)"/>
       <path id="DejaVuSerif-5b" d="M 550 4863 
L 2003 4863 
L 2003 4531 
L 1147 4531 
L 1147 -513 
L 2003 -513 
L 2003 -844 
L 550 -844 
L 550 4863 
z
" transform="scale(0.015625)"/>
       <path id="DejaVuSerif-6d" d="M 3316 2675 
Q 3481 3041 3739 3227 
Q 3997 3413 4341 3413 
Q 4863 3413 5119 3089 
Q 5375 2766 5375 2113 
L 5375 331 
L 5894 331 
L 5894 0 
L 4300 0 
L 4300 331 
L 4800 331 
L 4800 2047 
Q 4800 2556 4650 2772 
Q 4500 2988 4153 2988 
Q 3769 2988 3567 2697 
Q 3366 2406 3366 1850 
L 3366 331 
L 3866 331 
L 3866 0 
L 2291 0 
L 2291 331 
L 2791 331 
L 2791 2069 
Q 2791 2566 2641 2777 
Q 2491 2988 2144 2988 
Q 1759 2988 1557 2697 
Q 1356 2406 1356 1850 
L 1356 331 
L 1856 331 
L 1856 0 
L 263 0 
L 263 331 
L 781 331 
L 781 2994 
L 231 2994 
L 231 3322 
L 1356 3322 
L 1356 2731 
Q 1516 3063 1762 3238 
Q 2009 3413 2322 3413 
Q 2709 3413 2968 3220 
Q 3228 3028 3316 2675 
z
" transform="scale(0.015625)"/>
       <path id="DejaVuSerif-5d" d="M 1947 4863 
L 1947 -844 
L 494 -844 
L 494 -513 
L 1350 -513 
L 1350 4531 
L 494 4531 
L 494 4863 
L 1947 4863 
z
" transform="scale(0.015625)"/>
      </defs>
      <use xlink:href="#DejaVuSerif-43"/>
      <use xlink:href="#DejaVuSerif-6c" x="76.513672"/>
      <use xlink:href="#DejaVuSerif-6f" x="108.496094"/>
      <use xlink:href="#DejaVuSerif-75" x="168.701172"/>
      <use xlink:href="#DejaVuSerif-64" x="233.105469"/>
      <use xlink:href="#DejaVuSerif-20" x="297.119141"/>
      <use xlink:href="#DejaVuSerif-74" x="328.90625"/>
      <use xlink:href="#DejaVuSerif-6f" x="369.091797"/>
      <use xlink:href="#DejaVuSerif-70" x="429.296875"/>
      <use xlink:href="#DejaVuSerif-20" x="493.310547"/>
      <use xlink:href="#DejaVuSerif-68" x="525.097656"/>
      <use xlink:href="#DejaVuSerif-65" x="589.501953"/>
      <use xlink:href="#DejaVuSerif-69" x="648.681641"/>
      <use xlink:href="#DejaVuSerif-67" x="680.664062"/>
      <use xlink:href="#DejaVuSerif-68" x="744.677734"/>
      <use xlink:href="#DejaVuSerif-74" x="809.082031"/>
      <use xlink:href="#DejaVuSerif-20" x="849.267578"/>
      <use xlink:href="#DejaVuSerif-5b" x="881.054688"/>
      <use xlink:href="#DejaVuSerif-6d" x="920.068359"/>
      <use xlink:href="#DejaVuSerif-5d" x="1014.892578"/>
     </g>
    </g>
   </g>
   <g id="matplotlib.axis_2">
    <g id="ytick_1">
     <g id="line2d_9">
      <path d="M 10.7 43.944843 
L 109.73772 43.944843 
" clip-path="url(#p9338aeb63b)" style="fill: none; stroke: #d3d3d3; stroke-width: 0.5; stroke-linecap: square"/>
     </g>
     <g id="line2d_10">
      <defs>
       <path id="m8ed83d3128" d="M 0 0 
L -3.5 0 
" style="stroke: #000000; stroke-width: 0.8"/>
      </defs>
      <g>
       <use xlink:href="#m8ed83d3128" x="10.7" y="43.944843" style="stroke: #000000; stroke-width: 0.8"/>
      </g>
     </g>
    </g>
    <g id="ytick_2">
     <g id="line2d_11">
      <path d="M 10.7 23.995293 
L 109.73772 23.995293 
" clip-path="url(#p9338aeb63b)" style="fill: none; stroke: #d3d3d3; stroke-width: 0.5; stroke-linecap: square"/>
     </g>
     <g id="line2d_12">
      <g>
       <use xlink:href="#m8ed83d3128" x="10.7" y="23.995293" style="stroke: #000000; stroke-width: 0.8"/>
      </g>
     </g>
    </g>
   </g>
   <g id="line2d_13">
    <path d="M 15.201715 43.456689 
L 16.111152 43.40613 
L 17.020589 43.35278 
L 17.930026 43.296808 
L 18.839464 43.238434 
L 19.748901 43.177931 
L 20.658338 43.115618 
L 21.567776 43.051866 
L 22.477213 42.987087 
L 23.38665 42.921729 
L 24.296087 42.856267 
L 25.205525 42.791195 
L 26.114962 42.727011 
L 27.024399 42.664203 
L 27.933837 42.603242 
L 28.843274 42.544561 
L 29.752711 42.488546 
L 30.662148 42.43552 
L 31.571586 42.385738 
L 32.481023 42.339375 
L 33.39046 42.296519 
L 34.299898 42.257174 
L 35.209335 42.221254 
L 36.118772 42.188592 
L 37.028209 42.158943 
L 37.937647 42.132001 
L 38.847084 42.107403 
L 39.756521 42.084752 
L 40.665959 42.063627 
L 41.575396 42.043604 
L 42.484833 42.024273 
L 43.39427 42.005248 
L 44.303708 41.98619 
L 45.213145 41.966812 
L 46.122582 41.94689 
L 47.03202 41.926272 
L 47.941457 41.904874 
L 48.850894 41.882688 
L 49.760331 41.85977 
L 50.669769 41.836239 
L 51.579206 41.812265 
L 52.488643 41.788059 
L 53.398081 41.763863 
L 54.307518 41.739932 
L 55.216955 41.716525 
L 56.126392 41.693894 
L 57.03583 41.672267 
L 57.945267 41.651844 
L 58.854704 41.632789 
L 59.764142 41.615222 
L 60.673579 41.59922 
L 61.583016 41.584818 
L 62.492453 41.572011 
L 63.401891 41.560761 
L 64.311328 41.551008 
L 65.220765 41.542679 
L 66.130203 41.5357 
L 67.03964 41.530009 
L 67.949077 41.525569 
L 68.858514 41.522381 
L 69.767952 41.520489 
L 70.677389 41.519991 
L 71.586826 41.521042 
L 72.496264 41.523851 
L 73.405701 41.528681 
L 74.315138 41.535842 
L 75.224575 41.545676 
L 76.134013 41.558546 
L 77.04345 41.574821 
L 77.952887 41.594858 
L 78.862325 41.618984 
L 79.771762 41.647478 
L 80.681199 41.680561 
L 81.590636 41.718377 
L 82.500074 41.760988 
L 83.409511 41.808364 
L 84.318948 41.860386 
L 85.228386 41.916841 
L 86.137823 41.977433 
L 87.04726 42.04179 
L 87.956697 42.109474 
L 88.866135 42.179995 
L 89.775572 42.252827 
L 90.685009 42.327425 
L 91.594446 42.403234 
L 92.503884 42.479714 
L 93.413321 42.556342 
L 94.322758 42.632631 
L 95.232196 42.708135 
L 96.141633 42.782458 
L 97.05107 42.855252 
L 97.960507 42.926226 
L 98.869945 42.995138 
L 99.779382 43.061795 
L 100.688819 43.126049 
L 101.598257 43.187789 
L 102.507694 43.246937 
L 103.417131 43.303441 
L 104.326568 43.357271 
L 105.236006 43.408409 
" clip-path="url(#p9338aeb63b)" style="fill: none; stroke: #595959; stroke-linecap: square"/>
   </g>
   <g id="line2d_14">
    <path d="M 15.201715 43.944843 
L 16.111152 43.944843 
L 17.020589 43.944843 
L 17.930026 43.944843 
L 18.839464 43.944843 
L 19.748901 43.944843 
L 20.658338 43.944843 
L 21.567776 43.944843 
L 22.477213 43.944843 
L 23.38665 43.944843 
L 24.296087 43.944843 
L 25.205525 43.944843 
L 26.114962 43.944843 
L 27.024399 43.944843 
L 27.933837 43.944843 
L 28.843274 43.944843 
L 29.752711 43.944843 
L 30.662148 43.944843 
L 31.571586 43.944843 
L 32.481023 43.944843 
L 33.39046 43.944843 
L 34.299898 43.944843 
L 35.209335 43.944843 
L 36.118772 43.944843 
L 37.028209 43.944843 
L 37.937647 43.944843 
L 38.847084 43.944843 
L 39.756521 43.944843 
L 40.665959 43.944843 
L 41.575396 43.944843 
L 42.484833 43.944843 
L 43.39427 43.944843 
L 44.303708 43.944843 
L 45.213145 43.944843 
L 46.122582 43.944843 
L 47.03202 43.944843 
L 47.941457 43.944843 
L 48.850894 43.944843 
L 49.760331 43.944843 
L 50.669769 43.944843 
L 51.579206 43.944843 
L 52.488643 43.944843 
L 53.398081 43.944843 
L 54.307518 43.944843 
L 55.216955 43.944843 
L 56.126392 43.944843 
L 57.03583 43.944843 
L 57.945267 43.944824 
L 58.854704 43.942722 
L 59.764142 43.872248 
L 60.673579 43.180576 
L 61.583016 41.270132 
L 62.492453 39.441761 
L 63.401891 35.87597 
L 64.311328 29.965225 
L 65.220765 22.478742 
L 66.130203 13.02794 
L 67.03964 8.949754 
L 67.949077 15.601952 
L 68.858514 26.266684 
L 69.767952 33.238301 
L 70.677389 38.629638 
L 71.586826 42.349287 
L 72.496264 43.715417 
L 73.405701 43.932322 
L 74.315138 43.944619 
L 75.224575 43.944841 
L 76.134013 43.944843 
L 77.04345 43.944843 
L 77.952887 43.944843 
L 78.862325 43.944843 
L 79.771762 43.944843 
L 80.681199 43.944843 
L 81.590636 43.944843 
L 82.500074 43.944843 
L 83.409511 43.944843 
L 84.318948 43.944843 
L 85.228386 43.944843 
L 86.137823 43.944843 
L 87.04726 43.944843 
L 87.956697 43.944843 
L 88.866135 43.944843 
L 89.775572 43.944843 
L 90.685009 43.944843 
L 91.594446 43.944843 
L 92.503884 43.944843 
L 93.413321 43.944843 
L 94.322758 43.944843 
L 95.232196 43.944843 
L 96.141633 43.944843 
L 97.05107 43.944843 
L 97.960507 43.944843 
L 98.869945 43.944843 
L 99.779382 43.944843 
L 100.688819 43.944843 
L 101.598257 43.944843 
L 102.507694 43.944843 
L 103.417131 43.944843 
L 104.326568 43.944843 
L 105.236006 43.944843 
" clip-path="url(#p9338aeb63b)" style="fill: none; stroke-dasharray: 3.7,1.6; stroke-dashoffset: 0; stroke: #1f77b4"/>
   </g>
   <g id="patch_3">
    <path d="M 10.7 45.694597 
L 10.7 7.2 
" style="fill: none; stroke: #000000; stroke-width: 0.5; stroke-linejoin: miter; stroke-linecap: square"/>
   </g>
   <g id="patch_4">
    <path d="M 10.7 45.694597 
L 109.73772 45.694597 
" style="fill: none; stroke: #000000; stroke-width: 0.5; stroke-linejoin: miter; stroke-linecap: square"/>
   </g>
   <g id="line2d_15">
    <path d="M 61.17792 43.591189 
L 61.303162 43.52145 
L 61.428404 43.439818 
L 61.553646 43.344654 
L 61.678889 43.234174 
L 61.804131 43.106443 
L 61.929373 42.95938 
L 62.054615 42.790768 
L 62.179858 42.598262 
L 62.3051 42.379405 
L 62.430342 42.131649 
L 62.555584 41.852383 
L 62.680826 41.538958 
L 62.806069 41.188727 
L 62.931311 40.799088 
L 63.056553 40.36753 
L 63.181795 39.891681 
L 63.307038 39.369373 
L 63.43228 38.798695 
L 63.557522 38.17806 
L 63.682764 37.506268 
L 63.808006 36.782573 
L 63.933249 36.006746 
L 64.058491 35.179137 
L 64.183733 34.300731 
L 64.308975 33.373203 
L 64.434218 32.398957 
L 64.55946 31.38116 
L 64.684702 30.323765 
L 64.809944 29.23152 
L 64.935186 28.10996 
L 65.060429 26.965388 
L 65.185671 25.804836 
L 65.310913 24.636015 
L 65.436155 23.467236 
L 65.561398 22.307334 
L 65.68664 21.165556 
L 65.811882 20.051452 
L 65.937124 18.974745 
L 66.062366 17.945193 
L 66.187609 16.972446 
L 66.312851 16.065894 
L 66.438093 15.234523 
L 66.563335 14.486761 
L 66.688578 13.830341 
L 66.81382 13.272164 
L 66.939062 12.818182 
L 67.064304 12.473292 
L 67.189546 12.241245 
L 67.314789 12.12458 
L 67.440031 12.12458 
L 67.565273 12.241245 
L 67.690515 12.473292 
L 67.815758 12.818182 
L 67.941 13.272164 
L 68.066242 13.830341 
L 68.191484 14.486761 
L 68.316726 15.234523 
L 68.441969 16.065894 
L 68.567211 16.972446 
L 68.692453 17.945193 
L 68.817695 18.974745 
L 68.942938 20.051452 
L 69.06818 21.165556 
L 69.193422 22.307334 
L 69.318664 23.467236 
L 69.443906 24.636015 
L 69.569149 25.804836 
L 69.694391 26.965388 
L 69.819633 28.10996 
L 69.944875 29.23152 
L 70.070118 30.323765 
L 70.19536 31.38116 
L 70.320602 32.398957 
L 70.445844 33.373203 
L 70.571086 34.300731 
L 70.696329 35.179137 
L 70.821571 36.006746 
L 70.946813 36.782573 
L 71.072055 37.506268 
L 71.197298 38.17806 
L 71.32254 38.798695 
L 71.447782 39.369373 
L 71.573024 39.891681 
L 71.698266 40.36753 
L 71.823509 40.799088 
L 71.948751 41.188727 
L 72.073993 41.538958 
L 72.199235 41.852383 
L 72.324478 42.131649 
L 72.44972 42.379405 
L 72.574962 42.598262 
L 72.700204 42.790768 
L 72.825446 42.95938 
L 72.950689 43.106443 
L 73.075931 43.234174 
L 73.201173 43.344654 
L 73.326415 43.439818 
L 73.451658 43.52145 
L 73.5769 43.591189 
" clip-path="url(#p9338aeb63b)" style="fill: none; stroke: #000000; stroke-linecap: square"/>
   </g>
   <g id="line2d_16">
    <path d="M 67.37741 45.694597 
L 67.37741 7.2 
" clip-path="url(#p9338aeb63b)" style="fill: none; stroke: #000000; stroke-linecap: square"/>
   </g>
  </g>
  <g id="axes_2">
   <g id="patch_5">
    <path d="M 119.71772 45.694597 
L 218.755441 45.694597 
L 218.755441 7.2 
L 119.71772 7.2 
z
" style="fill: #ffffff"/>
   </g>
   <g id="matplotlib.axis_3">
    <g id="xtick_5">
     <g id="line2d_17">
      <path d="M 133.930079 45.694597 
L 133.930079 7.2 
" clip-path="url(#p6c680d07b6)" style="fill: none; stroke: #d3d3d3; stroke-width: 0.5; stroke-linecap: square"/>
     </g>
     <g id="line2d_18">
      <g>
       <use xlink:href="#m1466133651" x="133.930079" y="45.694597" style="stroke: #000000; stroke-width: 0.8"/>
      </g>
     </g>
     <g id="text_6">
      <!-- −20 -->
      <g transform="translate(127.598673 56.25366) scale(0.06 -0.06)">
       <defs>
        <path id="DejaVuSerif-2212" d="M 678 2259 
L 4684 2259 
L 4684 1753 
L 678 1753 
L 678 2259 
z
" transform="scale(0.015625)"/>
        <path id="DejaVuSerif-32" d="M 819 3553 
L 469 3553 
L 469 4384 
Q 803 4563 1142 4656 
Q 1481 4750 1806 4750 
Q 2534 4750 2956 4397 
Q 3378 4044 3378 3438 
Q 3378 2753 2422 1800 
Q 2347 1728 2309 1691 
L 1131 513 
L 3078 513 
L 3078 1088 
L 3444 1088 
L 3444 0 
L 434 0 
L 434 341 
L 1850 1753 
Q 2319 2222 2519 2614 
Q 2719 3006 2719 3438 
Q 2719 3909 2473 4175 
Q 2228 4441 1797 4441 
Q 1350 4441 1106 4219 
Q 863 3997 819 3553 
z
" transform="scale(0.015625)"/>
       </defs>
       <use xlink:href="#DejaVuSerif-2212"/>
       <use xlink:href="#DejaVuSerif-32" x="83.789062"/>
       <use xlink:href="#DejaVuSerif-30" x="147.412109"/>
      </g>
     </g>
    </g>
    <g id="xtick_6">
     <g id="line2d_19">
      <path d="M 166.932125 45.694597 
L 166.932125 7.2 
" clip-path="url(#p6c680d07b6)" style="fill: none; stroke: #d3d3d3; stroke-width: 0.5; stroke-linecap: square"/>
     </g>
     <g id="line2d_20">
      <g>
       <use xlink:href="#m1466133651" x="166.932125" y="45.694597" style="stroke: #000000; stroke-width: 0.8"/>
      </g>
     </g>
     <g id="text_7">
      <!-- 0 -->
      <g transform="translate(165.023375 56.25366) scale(0.06 -0.06)">
       <use xlink:href="#DejaVuSerif-30"/>
      </g>
     </g>
    </g>
    <g id="xtick_7">
     <g id="line2d_21">
      <path d="M 199.934172 45.694597 
L 199.934172 7.2 
" clip-path="url(#p6c680d07b6)" style="fill: none; stroke: #d3d3d3; stroke-width: 0.5; stroke-linecap: square"/>
     </g>
     <g id="line2d_22">
      <g>
       <use xlink:href="#m1466133651" x="199.934172" y="45.694597" style="stroke: #000000; stroke-width: 0.8"/>
      </g>
     </g>
     <g id="text_8">
      <!-- 20 -->
      <g transform="translate(196.116672 56.25366) scale(0.06 -0.06)">
       <use xlink:href="#DejaVuSerif-32"/>
       <use xlink:href="#DejaVuSerif-30" x="63.623047"/>
      </g>
     </g>
    </g>
    <g id="text_9">
     <!-- Cloud top rate [m/h] -->
     <g transform="translate(138.19783 66.060535) scale(0.06 -0.06)">
      <defs>
       <path id="DejaVuSerif-72" d="M 3059 3328 
L 3059 2497 
L 2728 2497 
Q 2713 2744 2591 2866 
Q 2469 2988 2234 2988 
Q 1809 2988 1582 2694 
Q 1356 2400 1356 1850 
L 1356 331 
L 2022 331 
L 2022 0 
L 263 0 
L 263 331 
L 781 331 
L 781 2994 
L 231 2994 
L 231 3322 
L 1356 3322 
L 1356 2731 
Q 1525 3078 1790 3245 
Q 2056 3413 2438 3413 
Q 2578 3413 2733 3391 
Q 2888 3369 3059 3328 
z
" transform="scale(0.015625)"/>
       <path id="DejaVuSerif-61" d="M 2547 1044 
L 2547 1747 
L 1806 1747 
Q 1378 1747 1168 1562 
Q 959 1378 959 997 
Q 959 650 1171 447 
Q 1384 244 1747 244 
Q 2106 244 2326 466 
Q 2547 688 2547 1044 
z
M 3122 2075 
L 3122 331 
L 3634 331 
L 3634 0 
L 2547 0 
L 2547 359 
Q 2356 128 2106 18 
Q 1856 -91 1522 -91 
Q 969 -91 644 203 
Q 319 497 319 997 
Q 319 1513 691 1797 
Q 1063 2081 1741 2081 
L 2547 2081 
L 2547 2309 
Q 2547 2688 2317 2895 
Q 2088 3103 1672 3103 
Q 1328 3103 1125 2947 
Q 922 2791 872 2484 
L 575 2484 
L 575 3156 
Q 875 3284 1158 3348 
Q 1441 3413 1709 3413 
Q 2400 3413 2761 3070 
Q 3122 2728 3122 2075 
z
" transform="scale(0.015625)"/>
       <path id="DejaVuSerif-2f" d="M 1656 4666 
L 2156 4666 
L 500 -594 
L 0 -594 
L 1656 4666 
z
" transform="scale(0.015625)"/>
      </defs>
      <use xlink:href="#DejaVuSerif-43"/>
      <use xlink:href="#DejaVuSerif-6c" x="76.513672"/>
      <use xlink:href="#DejaVuSerif-6f" x="108.496094"/>
      <use xlink:href="#DejaVuSerif-75" x="168.701172"/>
      <use xlink:href="#DejaVuSerif-64" x="233.105469"/>
      <use xlink:href="#DejaVuSerif-20" x="297.119141"/>
      <use xlink:href="#DejaVuSerif-74" x="328.90625"/>
      <use xlink:href="#DejaVuSerif-6f" x="369.091797"/>
      <use xlink:href="#DejaVuSerif-70" x="429.296875"/>
      <use xlink:href="#DejaVuSerif-20" x="493.310547"/>
      <use xlink:href="#DejaVuSerif-72" x="525.097656"/>
      <use xlink:href="#DejaVuSerif-61" x="572.900391"/>
      <use xlink:href="#DejaVuSerif-74" x="632.519531"/>
      <use xlink:href="#DejaVuSerif-65" x="672.705078"/>
      <use xlink:href="#DejaVuSerif-20" x="731.884766"/>
      <use xlink:href="#DejaVuSerif-5b" x="763.671875"/>
      <use xlink:href="#DejaVuSerif-6d" x="802.685547"/>
      <use xlink:href="#DejaVuSerif-2f" x="897.509766"/>
      <use xlink:href="#DejaVuSerif-68" x="931.201172"/>
      <use xlink:href="#DejaVuSerif-5d" x="995.605469"/>
     </g>
    </g>
   </g>
   <g id="matplotlib.axis_4">
    <g id="ytick_3">
     <g id="line2d_23">
      <path d="M 119.71772 43.944843 
L 218.755441 43.944843 
" clip-path="url(#p6c680d07b6)" style="fill: none; stroke: #d3d3d3; stroke-width: 0.5; stroke-linecap: square"/>
     </g>
     <g id="line2d_24">
      <g>
       <use xlink:href="#m8ed83d3128" x="119.71772" y="43.944843" style="stroke: #000000; stroke-width: 0.8"/>
      </g>
     </g>
    </g>
    <g id="ytick_4">
     <g id="line2d_25">
      <path d="M 119.71772 30.961559 
L 218.755441 30.961559 
" clip-path="url(#p6c680d07b6)" style="fill: none; stroke: #d3d3d3; stroke-width: 0.5; stroke-linecap: square"/>
     </g>
     <g id="line2d_26">
      <g>
       <use xlink:href="#m8ed83d3128" x="119.71772" y="30.961559" style="stroke: #000000; stroke-width: 0.8"/>
      </g>
     </g>
    </g>
    <g id="ytick_5">
     <g id="line2d_27">
      <path d="M 119.71772 17.978275 
L 218.755441 17.978275 
" clip-path="url(#p6c680d07b6)" style="fill: none; stroke: #d3d3d3; stroke-width: 0.5; stroke-linecap: square"/>
     </g>
     <g id="line2d_28">
      <g>
       <use xlink:href="#m8ed83d3128" x="119.71772" y="17.978275" style="stroke: #000000; stroke-width: 0.8"/>
      </g>
     </g>
    </g>
   </g>
   <g id="line2d_29">
    <path d="M 124.219435 43.607435 
L 125.128872 43.573725 
L 126.038309 43.537381 
L 126.947747 43.498197 
L 127.857184 43.455987 
L 128.766621 43.410602 
L 129.676059 43.361937 
L 130.585496 43.30994 
L 131.494933 43.254616 
L 132.40437 43.196028 
L 133.313808 43.134287 
L 134.223245 43.069543 
L 135.132682 43.001975 
L 136.04212 42.931769 
L 136.951557 42.859111 
L 137.860994 42.78417 
L 138.770431 42.707094 
L 139.679869 42.628003 
L 140.589306 42.546999 
L 141.498743 42.464176 
L 142.408181 42.379634 
L 143.317618 42.293504 
L 144.227055 42.205967 
L 145.136492 42.117278 
L 146.04593 42.027779 
L 146.955367 41.937906 
L 147.864804 41.84819 
L 148.774242 41.759243 
L 149.683679 41.671728 
L 150.593116 41.586326 
L 151.502553 41.503695 
L 152.411991 41.424413 
L 153.321428 41.348938 
L 154.230865 41.277561 
L 155.140303 41.210374 
L 156.04974 41.147248 
L 156.959177 41.08784 
L 157.868614 41.031599 
L 158.778052 40.977812 
L 159.687489 40.92565 
L 160.596926 40.874234 
L 161.506364 40.822707 
L 162.415801 40.770306 
L 163.325238 40.716429 
L 164.234675 40.660692 
L 165.144113 40.60297 
L 166.05355 40.543416 
L 166.962987 40.482459 
L 167.872425 40.420791 
L 168.781862 40.359316 
L 169.691299 40.299107 
L 170.600736 40.241333 
L 171.510174 40.187197 
L 172.419611 40.137867 
L 173.329048 40.094413 
L 174.238486 40.057766 
L 175.147923 40.028675 
L 176.05736 40.007691 
L 176.966797 39.995164 
L 177.876235 39.991252 
L 178.785672 39.995947 
L 179.695109 40.009103 
L 180.604547 40.030477 
L 181.513984 40.059768 
L 182.423421 40.096653 
L 183.332858 40.140821 
L 184.242296 40.191998 
L 185.151733 40.249965 
L 186.06117 40.314564 
L 186.970608 40.385694 
L 187.880045 40.463298 
L 188.789482 40.547347 
L 189.698919 40.637808 
L 190.608357 40.734615 
L 191.517794 40.837641 
L 192.427231 40.946663 
L 193.336669 41.061343 
L 194.246106 41.1812 
L 195.155543 41.305609 
L 196.06498 41.433796 
L 196.974418 41.564849 
L 197.883855 41.69774 
L 198.793292 41.831354 
L 199.70273 41.964528 
L 200.612167 42.096091 
L 201.521604 42.224915 
L 202.431041 42.349952 
L 203.340479 42.470276 
L 204.249916 42.585117 
L 205.159353 42.693881 
L 206.068791 42.796168 
L 206.978228 42.891768 
L 207.887665 42.980655 
L 208.797102 43.062968 
L 209.70654 43.138984 
L 210.615977 43.209083 
L 211.525414 43.27372 
L 212.434852 43.333384 
L 213.344289 43.388568 
L 214.253726 43.439741 
" clip-path="url(#p6c680d07b6)" style="fill: none; stroke: #595959; stroke-linecap: square"/>
   </g>
   <g id="line2d_30">
    <path d="M 124.219435 43.944843 
L 125.128872 43.944843 
L 126.038309 43.944843 
L 126.947747 43.944843 
L 127.857184 43.944843 
L 128.766621 43.944843 
L 129.676059 43.944843 
L 130.585496 43.944843 
L 131.494933 43.944843 
L 132.40437 43.944843 
L 133.313808 43.944843 
L 134.223245 43.944843 
L 135.132682 43.944843 
L 136.04212 43.944843 
L 136.951557 43.944843 
L 137.860994 43.944843 
L 138.770431 43.944843 
L 139.679869 43.944843 
L 140.589306 43.944843 
L 141.498743 43.944843 
L 142.408181 43.944843 
L 143.317618 43.944843 
L 144.227055 43.944843 
L 145.136492 43.944843 
L 146.04593 43.944843 
L 146.955367 43.944843 
L 147.864804 43.944843 
L 148.774242 43.944843 
L 149.683679 43.944843 
L 150.593116 43.944843 
L 151.502553 43.944843 
L 152.411991 43.944843 
L 153.321428 43.944843 
L 154.230865 43.944843 
L 155.140303 43.944843 
L 156.04974 43.944843 
L 156.959177 43.944843 
L 157.868614 43.944843 
L 158.778052 43.944843 
L 159.687489 43.944843 
L 160.596926 43.944843 
L 161.506364 43.944843 
L 162.415801 43.944843 
L 163.325238 43.944843 
L 164.234675 43.944843 
L 165.144113 43.944843 
L 166.05355 43.944843 
L 166.962987 43.944841 
L 167.872425 43.944763 
L 168.781862 43.942502 
L 169.691299 43.90927 
L 170.600736 43.65799 
L 171.510174 42.662029 
L 172.419611 40.514836 
L 173.329048 37.765475 
L 174.238486 34.813519 
L 175.147923 30.060244 
L 176.05736 22.304469 
L 176.966797 13.805963 
L 177.876235 8.949754 
L 178.785672 11.094116 
L 179.695109 17.568879 
L 180.604547 23.444102 
L 181.513984 28.932734 
L 182.423421 35.370362 
L 183.332858 40.220763 
L 184.242296 41.58825 
L 185.151733 41.441123 
L 186.06117 42.126067 
L 186.970608 43.248519 
L 187.880045 43.808497 
L 188.789482 43.931248 
L 189.698919 43.944154 
L 190.608357 43.944825 
L 191.517794 43.944842 
L 192.427231 43.944843 
L 193.336669 43.944843 
L 194.246106 43.944843 
L 195.155543 43.944843 
L 196.06498 43.944843 
L 196.974418 43.944843 
L 197.883855 43.944843 
L 198.793292 43.944843 
L 199.70273 43.944843 
L 200.612167 43.944843 
L 201.521604 43.944843 
L 202.431041 43.944843 
L 203.340479 43.944843 
L 204.249916 43.944843 
L 205.159353 43.944843 
L 206.068791 43.944843 
L 206.978228 43.944843 
L 207.887665 43.944843 
L 208.797102 43.944843 
L 209.70654 43.944843 
L 210.615977 43.944843 
L 211.525414 43.944843 
L 212.434852 43.944843 
L 213.344289 43.944843 
L 214.253726 43.944843 
" clip-path="url(#p6c680d07b6)" style="fill: none; stroke-dasharray: 3.7,1.6; stroke-dashoffset: 0; stroke: #1f77b4"/>
   </g>
   <g id="patch_6">
    <path d="M 119.71772 45.694597 
L 119.71772 7.2 
" style="fill: none; stroke: #000000; stroke-width: 0.5; stroke-linejoin: miter; stroke-linecap: square"/>
   </g>
   <g id="patch_7">
    <path d="M 119.71772 45.694597 
L 218.755441 45.694597 
" style="fill: none; stroke: #000000; stroke-width: 0.5; stroke-linejoin: miter; stroke-linecap: square"/>
   </g>
   <g id="line2d_31">
    <path d="M 170.026067 43.637963 
L 170.213579 43.577448 
L 170.401091 43.506612 
L 170.588602 43.424035 
L 170.776114 43.328167 
L 170.963625 43.217329 
L 171.151137 43.089716 
L 171.338649 42.943405 
L 171.52616 42.776359 
L 171.713672 42.586448 
L 171.901184 42.37146 
L 172.088695 42.129129 
L 172.276207 41.857157 
L 172.463719 41.553248 
L 172.65123 41.215142 
L 172.838742 40.840661 
L 173.026253 40.427748 
L 173.213765 39.97452 
L 173.401277 39.479319 
L 173.588788 38.940768 
L 173.7763 38.357827 
L 173.963812 37.729847 
L 174.151323 37.05663 
L 174.338835 36.338479 
L 174.526346 35.57625 
L 174.713858 34.771396 
L 174.90137 33.926003 
L 175.088881 33.042818 
L 175.276393 32.125273 
L 175.463905 31.177487 
L 175.651416 30.204263 
L 175.838928 29.211071 
L 176.026439 28.204013 
L 176.213951 27.189778 
L 176.401463 26.175581 
L 176.588974 25.169086 
L 176.776486 24.178318 
L 176.963998 23.211564 
L 177.151509 22.277261 
L 177.339021 21.383877 
L 177.526532 20.539784 
L 177.714044 19.753132 
L 177.901556 19.031717 
L 178.089067 18.382854 
L 178.276579 17.81325 
L 178.464091 17.328897 
L 178.651602 16.934959 
L 178.839114 16.635683 
L 179.026626 16.434326 
L 179.214137 16.333092 
L 179.401649 16.333092 
L 179.58916 16.434326 
L 179.776672 16.635683 
L 179.964184 16.934959 
L 180.151695 17.328897 
L 180.339207 17.81325 
L 180.526719 18.382854 
L 180.71423 19.031717 
L 180.901742 19.753132 
L 181.089253 20.539784 
L 181.276765 21.383877 
L 181.464277 22.277261 
L 181.651788 23.211564 
L 181.8393 24.178318 
L 182.026812 25.169086 
L 182.214323 26.175581 
L 182.401835 27.189778 
L 182.589346 28.204013 
L 182.776858 29.211071 
L 182.96437 30.204263 
L 183.151881 31.177487 
L 183.339393 32.125273 
L 183.526905 33.042818 
L 183.714416 33.926003 
L 183.901928 34.771396 
L 184.089439 35.57625 
L 184.276951 36.338479 
L 184.464463 37.05663 
L 184.651974 37.729847 
L 184.839486 38.357827 
L 185.026998 38.940768 
L 185.214509 39.479319 
L 185.402021 39.97452 
L 185.589533 40.427748 
L 185.777044 40.840661 
L 185.964556 41.215142 
L 186.152067 41.553248 
L 186.339579 41.857157 
L 186.527091 42.129129 
L 186.714602 42.37146 
L 186.902114 42.586448 
L 187.089626 42.776359 
L 187.277137 42.943405 
L 187.464649 43.089716 
L 187.65216 43.217329 
L 187.839672 43.328167 
L 188.027184 43.424035 
L 188.214695 43.506612 
L 188.402207 43.577448 
L 188.589719 43.637963 
" clip-path="url(#p6c680d07b6)" style="fill: none; stroke: #000000; stroke-linecap: square"/>
   </g>
   <g id="line2d_32">
    <path d="M 179.307893 45.694597 
L 179.307893 7.2 
" clip-path="url(#p6c680d07b6)" style="fill: none; stroke: #000000; stroke-linecap: square"/>
   </g>
  </g>
  <g id="axes_3">
   <g id="patch_8">
    <path d="M 10.7 112.269194 
L 109.73772 112.269194 
L 109.73772 73.774597 
L 10.7 73.774597 
z
" style="fill: #ffffff"/>
   </g>
   <g id="matplotlib.axis_5">
    <g id="xtick_8">
     <g id="line2d_33">
      <path d="M 31.525928 112.269194 
L 31.525928 73.774597 
" clip-path="url(#p18378e7ed2)" style="fill: none; stroke: #d3d3d3; stroke-width: 0.5; stroke-linecap: square"/>
     </g>
     <g id="line2d_34">
      <g>
       <use xlink:href="#m1466133651" x="31.525928" y="112.269194" style="stroke: #000000; stroke-width: 0.8"/>
      </g>
     </g>
     <g id="text_10">
      <!-- 500 -->
      <g transform="translate(25.799678 122.828257) scale(0.06 -0.06)">
       <use xlink:href="#DejaVuSerif-35"/>
       <use xlink:href="#DejaVuSerif-30" x="63.623047"/>
       <use xlink:href="#DejaVuSerif-30" x="127.246094"/>
      </g>
     </g>
    </g>
    <g id="xtick_9">
     <g id="line2d_35">
      <path d="M 55.606545 112.269194 
L 55.606545 73.774597 
" clip-path="url(#p18378e7ed2)" style="fill: none; stroke: #d3d3d3; stroke-width: 0.5; stroke-linecap: square"/>
     </g>
     <g id="line2d_36">
      <g>
       <use xlink:href="#m1466133651" x="55.606545" y="112.269194" style="stroke: #000000; stroke-width: 0.8"/>
      </g>
     </g>
     <g id="text_11">
      <!-- 600 -->
      <g transform="translate(49.880295 122.828257) scale(0.06 -0.06)">
       <defs>
        <path id="DejaVuSerif-36" d="M 2094 219 
Q 2534 219 2771 542 
Q 3009 866 3009 1472 
Q 3009 2078 2771 2401 
Q 2534 2725 2094 2725 
Q 1647 2725 1412 2412 
Q 1178 2100 1178 1509 
Q 1178 888 1415 553 
Q 1653 219 2094 219 
z
M 1075 2569 
Q 1288 2803 1556 2918 
Q 1825 3034 2163 3034 
Q 2859 3034 3264 2615 
Q 3669 2197 3669 1472 
Q 3669 763 3233 336 
Q 2797 -91 2069 -91 
Q 1278 -91 853 498 
Q 428 1088 428 2181 
Q 428 3406 931 4078 
Q 1434 4750 2350 4750 
Q 2597 4750 2869 4703 
Q 3141 4656 3425 4563 
L 3425 3794 
L 3072 3794 
Q 3034 4109 2831 4275 
Q 2628 4441 2284 4441 
Q 1678 4441 1381 3981 
Q 1084 3522 1075 2569 
z
" transform="scale(0.015625)"/>
       </defs>
       <use xlink:href="#DejaVuSerif-36"/>
       <use xlink:href="#DejaVuSerif-30" x="63.623047"/>
       <use xlink:href="#DejaVuSerif-30" x="127.246094"/>
      </g>
     </g>
    </g>
    <g id="xtick_10">
     <g id="line2d_37">
      <path d="M 79.687162 112.269194 
L 79.687162 73.774597 
" clip-path="url(#p18378e7ed2)" style="fill: none; stroke: #d3d3d3; stroke-width: 0.5; stroke-linecap: square"/>
     </g>
     <g id="line2d_38">
      <g>
       <use xlink:href="#m1466133651" x="79.687162" y="112.269194" style="stroke: #000000; stroke-width: 0.8"/>
      </g>
     </g>
     <g id="text_12">
      <!-- 700 -->
      <g transform="translate(73.960912 122.828257) scale(0.06 -0.06)">
       <use xlink:href="#DejaVuSerif-37"/>
       <use xlink:href="#DejaVuSerif-30" x="63.623047"/>
       <use xlink:href="#DejaVuSerif-30" x="127.246094"/>
      </g>
     </g>
    </g>
    <g id="xtick_11">
     <g id="line2d_39">
      <path d="M 103.767778 112.269194 
L 103.767778 73.774597 
" clip-path="url(#p18378e7ed2)" style="fill: none; stroke: #d3d3d3; stroke-width: 0.5; stroke-linecap: square"/>
     </g>
     <g id="line2d_40">
      <g>
       <use xlink:href="#m1466133651" x="103.767778" y="112.269194" style="stroke: #000000; stroke-width: 0.8"/>
      </g>
     </g>
     <g id="text_13">
      <!-- 800 -->
      <g transform="translate(98.041528 122.828257) scale(0.06 -0.06)">
       <use xlink:href="#DejaVuSerif-38"/>
       <use xlink:href="#DejaVuSerif-30" x="63.623047"/>
       <use xlink:href="#DejaVuSerif-30" x="127.246094"/>
      </g>
     </g>
    </g>
    <g id="text_14">
     <!-- Cloud base height [m] -->
     <g transform="translate(26.509173 132.635132) scale(0.06 -0.06)">
      <defs>
       <path id="DejaVuSerif-62" d="M 738 331 
L 738 4531 
L 184 4531 
L 184 4863 
L 1313 4863 
L 1313 2803 
Q 1481 3116 1742 3264 
Q 2003 3413 2388 3413 
Q 3000 3413 3387 2928 
Q 3775 2444 3775 1663 
Q 3775 881 3387 395 
Q 3000 -91 2388 -91 
Q 2003 -91 1742 57 
Q 1481 206 1313 519 
L 1313 0 
L 184 0 
L 184 331 
L 738 331 
z
M 1313 1497 
Q 1313 897 1542 583 
Q 1772 269 2209 269 
Q 2650 269 2876 622 
Q 3103 975 3103 1663 
Q 3103 2353 2876 2703 
Q 2650 3053 2209 3053 
Q 1772 3053 1542 2737 
Q 1313 2422 1313 1825 
L 1313 1497 
z
" transform="scale(0.015625)"/>
       <path id="DejaVuSerif-73" d="M 359 184 
L 359 959 
L 691 959 
Q 703 588 923 403 
Q 1144 219 1575 219 
Q 1963 219 2166 364 
Q 2369 509 2369 788 
Q 2369 1006 2220 1140 
Q 2072 1275 1594 1428 
L 1178 1569 
Q 750 1706 558 1912 
Q 366 2119 366 2438 
Q 366 2894 700 3153 
Q 1034 3413 1625 3413 
Q 1888 3413 2178 3344 
Q 2469 3275 2778 3144 
L 2778 2419 
L 2447 2419 
Q 2434 2741 2221 2922 
Q 2009 3103 1644 3103 
Q 1281 3103 1095 2975 
Q 909 2847 909 2591 
Q 909 2381 1050 2254 
Q 1191 2128 1613 1997 
L 2069 1856 
Q 2541 1709 2748 1489 
Q 2956 1269 2956 922 
Q 2956 450 2595 179 
Q 2234 -91 1600 -91 
Q 1278 -91 972 -22 
Q 666 47 359 184 
z
" transform="scale(0.015625)"/>
      </defs>
      <use xlink:href="#DejaVuSerif-43"/>
      <use xlink:href="#DejaVuSerif-6c" x="76.513672"/>
      <use xlink:href="#DejaVuSerif-6f" x="108.496094"/>
      <use xlink:href="#DejaVuSerif-75" x="168.701172"/>
      <use xlink:href="#DejaVuSerif-64" x="233.105469"/>
      <use xlink:href="#DejaVuSerif-20" x="297.119141"/>
      <use xlink:href="#DejaVuSerif-62" x="328.90625"/>
      <use xlink:href="#DejaVuSerif-61" x="392.919922"/>
      <use xlink:href="#DejaVuSerif-73" x="452.539062"/>
      <use xlink:href="#DejaVuSerif-65" x="503.857422"/>
      <use xlink:href="#DejaVuSerif-20" x="563.037109"/>
      <use xlink:href="#DejaVuSerif-68" x="594.824219"/>
      <use xlink:href="#DejaVuSerif-65" x="659.228516"/>
      <use xlink:href="#DejaVuSerif-69" x="718.408203"/>
      <use xlink:href="#DejaVuSerif-67" x="750.390625"/>
      <use xlink:href="#DejaVuSerif-68" x="814.404297"/>
      <use xlink:href="#DejaVuSerif-74" x="878.808594"/>
      <use xlink:href="#DejaVuSerif-20" x="918.994141"/>
      <use xlink:href="#DejaVuSerif-5b" x="950.78125"/>
      <use xlink:href="#DejaVuSerif-6d" x="989.794922"/>
      <use xlink:href="#DejaVuSerif-5d" x="1084.619141"/>
     </g>
    </g>
   </g>
   <g id="matplotlib.axis_6">
    <g id="ytick_6">
     <g id="line2d_41">
      <path d="M 10.7 110.51944 
L 109.73772 110.51944 
" clip-path="url(#p18378e7ed2)" style="fill: none; stroke: #d3d3d3; stroke-width: 0.5; stroke-linecap: square"/>
     </g>
     <g id="line2d_42">
      <g>
       <use xlink:href="#m8ed83d3128" x="10.7" y="110.51944" style="stroke: #000000; stroke-width: 0.8"/>
      </g>
     </g>
    </g>
    <g id="ytick_7">
     <g id="line2d_43">
      <path d="M 10.7 90.068867 
L 109.73772 90.068867 
" clip-path="url(#p18378e7ed2)" style="fill: none; stroke: #d3d3d3; stroke-width: 0.5; stroke-linecap: square"/>
     </g>
     <g id="line2d_44">
      <g>
       <use xlink:href="#m8ed83d3128" x="10.7" y="90.068867" style="stroke: #000000; stroke-width: 0.8"/>
      </g>
     </g>
    </g>
   </g>
   <g id="line2d_45">
    <path d="M 15.201715 109.808361 
L 16.111152 109.742962 
L 17.020589 109.6746 
L 17.930026 109.603084 
L 18.839464 109.528169 
L 19.748901 109.449574 
L 20.658338 109.367006 
L 21.567776 109.280179 
L 22.477213 109.188844 
L 23.38665 109.092809 
L 24.296087 108.991963 
L 25.205525 108.886292 
L 26.114962 108.775886 
L 27.024399 108.660946 
L 27.933837 108.541774 
L 28.843274 108.41876 
L 29.752711 108.292369 
L 30.662148 108.163113 
L 31.571586 108.031534 
L 32.481023 107.89818 
L 33.39046 107.763593 
L 34.299898 107.628296 
L 35.209335 107.492798 
L 36.118772 107.357594 
L 37.028209 107.223189 
L 37.937647 107.090112 
L 38.847084 106.958945 
L 39.756521 106.830347 
L 40.665959 106.705073 
L 41.575396 106.58399 
L 42.484833 106.468079 
L 43.39427 106.358428 
L 44.303708 106.256206 
L 45.213145 106.162629 
L 46.122582 106.078916 
L 47.03202 106.006228 
L 47.941457 105.945616 
L 48.850894 105.897955 
L 49.760331 105.863897 
L 50.669769 105.843825 
L 51.579206 105.837821 
L 52.488643 105.845657 
L 53.398081 105.866795 
L 54.307518 105.900412 
L 55.216955 105.945431 
L 56.126392 106.000578 
L 57.03583 106.064434 
L 57.945267 106.135499 
L 58.854704 106.212258 
L 59.764142 106.293235 
L 60.673579 106.377047 
L 61.583016 106.462443 
L 62.492453 106.54833 
L 63.401891 106.633796 
L 64.311328 106.718107 
L 65.220765 106.80071 
L 66.130203 106.881214 
L 67.03964 106.959378 
L 67.949077 107.035088 
L 68.858514 107.108341 
L 69.767952 107.179226 
L 70.677389 107.247912 
L 71.586826 107.314637 
L 72.496264 107.379706 
L 73.405701 107.443489 
L 74.315138 107.506418 
L 75.224575 107.568989 
L 76.134013 107.631763 
L 77.04345 107.695351 
L 77.952887 107.760414 
L 78.862325 107.827635 
L 79.771762 107.897698 
L 80.681199 107.971257 
L 81.590636 108.048901 
L 82.500074 108.131109 
L 83.409511 108.218223 
L 84.318948 108.310401 
L 85.228386 108.407598 
L 86.137823 108.509544 
L 87.04726 108.615739 
L 87.956697 108.725456 
L 88.866135 108.837769 
L 89.775572 108.951581 
L 90.685009 109.065673 
L 91.594446 109.178757 
L 92.503884 109.289534 
L 93.413321 109.396759 
L 94.322758 109.499293 
L 95.232196 109.596153 
L 96.141633 109.686558 
L 97.05107 109.76995 
L 97.960507 109.846009 
L 98.869945 109.914654 
L 99.779382 109.976026 
L 100.688819 110.030462 
L 101.598257 110.07846 
L 102.507694 110.12064 
L 103.417131 110.157692 
L 104.326568 110.190342 
L 105.236006 110.219304 
" clip-path="url(#p18378e7ed2)" style="fill: none; stroke: #595959; stroke-linecap: square"/>
   </g>
   <g id="line2d_46">
    <path d="M 15.201715 110.51944 
L 16.111152 110.51944 
L 17.020589 110.51944 
L 17.930026 110.51944 
L 18.839464 110.51944 
L 19.748901 110.51944 
L 20.658338 110.51944 
L 21.567776 110.51944 
L 22.477213 110.51944 
L 23.38665 110.51944 
L 24.296087 110.51944 
L 25.205525 110.51944 
L 26.114962 110.51944 
L 27.024399 110.51944 
L 27.933837 110.51944 
L 28.843274 110.51944 
L 29.752711 110.51944 
L 30.662148 110.51944 
L 31.571586 110.51944 
L 32.481023 110.51944 
L 33.39046 110.51944 
L 34.299898 110.51944 
L 35.209335 110.51944 
L 36.118772 110.51944 
L 37.028209 110.51944 
L 37.937647 110.51944 
L 38.847084 110.51944 
L 39.756521 110.51944 
L 40.665959 110.51944 
L 41.575396 110.51944 
L 42.484833 110.51944 
L 43.39427 110.51944 
L 44.303708 110.51944 
L 45.213145 110.51944 
L 46.122582 110.51944 
L 47.03202 110.51944 
L 47.941457 110.51944 
L 48.850894 110.519438 
L 49.760331 110.519349 
L 50.669769 110.517161 
L 51.579206 110.488923 
L 52.488643 110.296378 
L 53.398081 109.588005 
L 54.307518 108.102756 
L 55.216955 106.098632 
L 56.126392 104.025747 
L 57.03583 102.145617 
L 57.945267 99.584513 
L 58.854704 93.779756 
L 59.764142 85.046433 
L 60.673579 78.195661 
L 61.583016 75.526396 
L 62.492453 75.524352 
L 63.401891 78.4509 
L 64.311328 84.941418 
L 65.220765 93.087254 
L 66.130203 100.314138 
L 67.03964 105.561951 
L 67.949077 108.783926 
L 68.858514 110.145547 
L 69.767952 110.4742 
L 70.677389 110.516483 
L 71.586826 110.519337 
L 72.496264 110.519438 
L 73.405701 110.51944 
L 74.315138 110.51944 
L 75.224575 110.51944 
L 76.134013 110.51944 
L 77.04345 110.51944 
L 77.952887 110.51944 
L 78.862325 110.51944 
L 79.771762 110.51944 
L 80.681199 110.51944 
L 81.590636 110.51944 
L 82.500074 110.51944 
L 83.409511 110.51944 
L 84.318948 110.51944 
L 85.228386 110.51944 
L 86.137823 110.51944 
L 87.04726 110.51944 
L 87.956697 110.51944 
L 88.866135 110.51944 
L 89.775572 110.51944 
L 90.685009 110.51944 
L 91.594446 110.51944 
L 92.503884 110.51944 
L 93.413321 110.51944 
L 94.322758 110.51944 
L 95.232196 110.51944 
L 96.141633 110.51944 
L 97.05107 110.51944 
L 97.960507 110.51944 
L 98.869945 110.51944 
L 99.779382 110.51944 
L 100.688819 110.51944 
L 101.598257 110.51944 
L 102.507694 110.51944 
L 103.417131 110.51944 
L 104.326568 110.51944 
L 105.236006 110.51944 
" clip-path="url(#p18378e7ed2)" style="fill: none; stroke-dasharray: 3.7,1.6; stroke-dashoffset: 0; stroke: #1f77b4"/>
   </g>
   <g id="patch_9">
    <path d="M 10.7 112.269194 
L 10.7 73.774597 
" style="fill: none; stroke: #000000; stroke-width: 0.5; stroke-linejoin: miter; stroke-linecap: square"/>
   </g>
   <g id="patch_10">
    <path d="M 10.7 112.269194 
L 109.73772 112.269194 
" style="fill: none; stroke: #000000; stroke-width: 0.5; stroke-linejoin: miter; stroke-linecap: square"/>
   </g>
   <g id="line2d_47">
    <path d="M 21.893681 110.406148 
L 22.477453 110.383807 
L 23.061226 110.357656 
L 23.644998 110.327171 
L 24.228771 110.291778 
L 24.812543 110.25086 
L 25.396316 110.203749 
L 25.980088 110.149734 
L 26.563861 110.088065 
L 27.147634 110.017954 
L 27.731406 109.938586 
L 28.315179 109.849124 
L 28.898951 109.748719 
L 29.482724 109.636523 
L 30.066496 109.511703 
L 30.650269 109.373454 
L 31.234041 109.221016 
L 31.817814 109.053696 
L 32.401586 108.87088 
L 32.985359 108.672061 
L 33.569131 108.456854 
L 34.152904 108.225019 
L 34.736676 107.976484 
L 35.320449 107.711361 
L 35.904222 107.429965 
L 36.487994 107.132833 
L 37.071767 106.820735 
L 37.655539 106.494686 
L 38.239312 106.155951 
L 38.823084 105.806052 
L 39.406857 105.446762 
L 39.990629 105.080101 
L 40.574402 104.70832 
L 41.158174 104.33389 
L 41.741947 103.959474 
L 42.325719 103.587901 
L 42.909492 103.222134 
L 43.493264 102.865233 
L 44.077037 102.520312 
L 44.66081 102.190497 
L 45.244582 101.878879 
L 45.828355 101.588467 
L 46.412127 101.322138 
L 46.9959 101.082594 
L 47.579672 100.872311 
L 48.163445 100.6935 
L 48.747217 100.548068 
L 49.33099 100.437583 
L 49.914762 100.363247 
L 50.498535 100.325873 
L 51.082307 100.325873 
L 51.66608 100.363247 
L 52.249852 100.437583 
L 52.833625 100.548068 
L 53.417398 100.6935 
L 54.00117 100.872311 
L 54.584943 101.082594 
L 55.168715 101.322138 
L 55.752488 101.588467 
L 56.33626 101.878879 
L 56.920033 102.190497 
L 57.503805 102.520312 
L 58.087578 102.865233 
L 58.67135 103.222134 
L 59.255123 103.587901 
L 59.838895 103.959474 
L 60.422668 104.33389 
L 61.00644 104.70832 
L 61.590213 105.080101 
L 62.173986 105.446762 
L 62.757758 105.806052 
L 63.341531 106.155951 
L 63.925303 106.494686 
L 64.509076 106.820735 
L 65.092848 107.132833 
L 65.676621 107.429965 
L 66.260393 107.711361 
L 66.844166 107.976484 
L 67.427938 108.225019 
L 68.011711 108.456854 
L 68.595483 108.672061 
L 69.179256 108.87088 
L 69.763028 109.053696 
L 70.346801 109.221016 
L 70.930574 109.373454 
L 71.514346 109.511703 
L 72.098119 109.636523 
L 72.681891 109.748719 
L 73.265664 109.849124 
L 73.849436 109.938586 
L 74.433209 110.017954 
L 75.016981 110.088065 
L 75.600754 110.149734 
L 76.184526 110.203749 
L 76.768299 110.25086 
L 77.352071 110.291778 
L 77.935844 110.327171 
L 78.519616 110.357656 
L 79.103389 110.383807 
L 79.687162 110.406148 
" clip-path="url(#p18378e7ed2)" style="fill: none; stroke: #000000; stroke-linecap: square"/>
   </g>
   <g id="line2d_48">
    <path d="M 50.790421 112.269194 
L 50.790421 73.774597 
" clip-path="url(#p18378e7ed2)" style="fill: none; stroke: #000000; stroke-linecap: square"/>
   </g>
  </g>
  <g id="axes_4">
   <g id="patch_11">
    <path d="M 119.71772 112.269194 
L 218.755441 112.269194 
L 218.755441 73.774597 
L 119.71772 73.774597 
z
" style="fill: #ffffff"/>
   </g>
   <g id="matplotlib.axis_7">
    <g id="xtick_12">
     <g id="line2d_49">
      <path d="M 129.504195 112.269194 
L 129.504195 73.774597 
" clip-path="url(#p5536db56a4)" style="fill: none; stroke: #d3d3d3; stroke-width: 0.5; stroke-linecap: square"/>
     </g>
     <g id="line2d_50">
      <g>
       <use xlink:href="#m1466133651" x="129.504195" y="112.269194" style="stroke: #000000; stroke-width: 0.8"/>
      </g>
     </g>
     <g id="text_15">
      <!-- −20 -->
      <g transform="translate(123.172789 122.828257) scale(0.06 -0.06)">
       <use xlink:href="#DejaVuSerif-2212"/>
       <use xlink:href="#DejaVuSerif-32" x="83.789062"/>
       <use xlink:href="#DejaVuSerif-30" x="147.412109"/>
      </g>
     </g>
    </g>
    <g id="xtick_13">
     <g id="line2d_51">
      <path d="M 151.215789 112.269194 
L 151.215789 73.774597 
" clip-path="url(#p5536db56a4)" style="fill: none; stroke: #d3d3d3; stroke-width: 0.5; stroke-linecap: square"/>
     </g>
     <g id="line2d_52">
      <g>
       <use xlink:href="#m1466133651" x="151.215789" y="112.269194" style="stroke: #000000; stroke-width: 0.8"/>
      </g>
     </g>
     <g id="text_16">
      <!-- 0 -->
      <g transform="translate(149.307039 122.828257) scale(0.06 -0.06)">
       <use xlink:href="#DejaVuSerif-30"/>
      </g>
     </g>
    </g>
    <g id="xtick_14">
     <g id="line2d_53">
      <path d="M 172.927383 112.269194 
L 172.927383 73.774597 
" clip-path="url(#p5536db56a4)" style="fill: none; stroke: #d3d3d3; stroke-width: 0.5; stroke-linecap: square"/>
     </g>
     <g id="line2d_54">
      <g>
       <use xlink:href="#m1466133651" x="172.927383" y="112.269194" style="stroke: #000000; stroke-width: 0.8"/>
      </g>
     </g>
     <g id="text_17">
      <!-- 20 -->
      <g transform="translate(169.109883 122.828257) scale(0.06 -0.06)">
       <use xlink:href="#DejaVuSerif-32"/>
       <use xlink:href="#DejaVuSerif-30" x="63.623047"/>
      </g>
     </g>
    </g>
    <g id="xtick_15">
     <g id="line2d_55">
      <path d="M 194.638977 112.269194 
L 194.638977 73.774597 
" clip-path="url(#p5536db56a4)" style="fill: none; stroke: #d3d3d3; stroke-width: 0.5; stroke-linecap: square"/>
     </g>
     <g id="line2d_56">
      <g>
       <use xlink:href="#m1466133651" x="194.638977" y="112.269194" style="stroke: #000000; stroke-width: 0.8"/>
      </g>
     </g>
     <g id="text_18">
      <!-- 40 -->
      <g transform="translate(190.821477 122.828257) scale(0.06 -0.06)">
       <defs>
        <path id="DejaVuSerif-34" d="M 2234 1581 
L 2234 4063 
L 641 1581 
L 2234 1581 
z
M 3609 0 
L 1484 0 
L 1484 331 
L 2234 331 
L 2234 1247 
L 197 1247 
L 197 1588 
L 2241 4750 
L 2859 4750 
L 2859 1581 
L 3750 1581 
L 3750 1247 
L 2859 1247 
L 2859 331 
L 3609 331 
L 3609 0 
z
" transform="scale(0.015625)"/>
       </defs>
       <use xlink:href="#DejaVuSerif-34"/>
       <use xlink:href="#DejaVuSerif-30" x="63.623047"/>
      </g>
     </g>
    </g>
    <g id="xtick_16">
     <g id="line2d_57">
      <path d="M 216.350571 112.269194 
L 216.350571 73.774597 
" clip-path="url(#p5536db56a4)" style="fill: none; stroke: #d3d3d3; stroke-width: 0.5; stroke-linecap: square"/>
     </g>
     <g id="line2d_58">
      <g>
       <use xlink:href="#m1466133651" x="216.350571" y="112.269194" style="stroke: #000000; stroke-width: 0.8"/>
      </g>
     </g>
     <g id="text_19">
      <!-- 60 -->
      <g transform="translate(212.533071 122.828257) scale(0.06 -0.06)">
       <use xlink:href="#DejaVuSerif-36"/>
       <use xlink:href="#DejaVuSerif-30" x="63.623047"/>
      </g>
     </g>
    </g>
    <g id="text_20">
     <!-- Cloud base rate [m/h] -->
     <g transform="translate(136.105799 132.635132) scale(0.06 -0.06)">
      <use xlink:href="#DejaVuSerif-43"/>
      <use xlink:href="#DejaVuSerif-6c" x="76.513672"/>
      <use xlink:href="#DejaVuSerif-6f" x="108.496094"/>
      <use xlink:href="#DejaVuSerif-75" x="168.701172"/>
      <use xlink:href="#DejaVuSerif-64" x="233.105469"/>
      <use xlink:href="#DejaVuSerif-20" x="297.119141"/>
      <use xlink:href="#DejaVuSerif-62" x="328.90625"/>
      <use xlink:href="#DejaVuSerif-61" x="392.919922"/>
      <use xlink:href="#DejaVuSerif-73" x="452.539062"/>
      <use xlink:href="#DejaVuSerif-65" x="503.857422"/>
      <use xlink:href="#DejaVuSerif-20" x="563.037109"/>
      <use xlink:href="#DejaVuSerif-72" x="594.824219"/>
      <use xlink:href="#DejaVuSerif-61" x="642.626953"/>
      <use xlink:href="#DejaVuSerif-74" x="702.246094"/>
      <use xlink:href="#DejaVuSerif-65" x="742.431641"/>
      <use xlink:href="#DejaVuSerif-20" x="801.611328"/>
      <use xlink:href="#DejaVuSerif-5b" x="833.398438"/>
      <use xlink:href="#DejaVuSerif-6d" x="872.412109"/>
      <use xlink:href="#DejaVuSerif-2f" x="967.236328"/>
      <use xlink:href="#DejaVuSerif-68" x="1000.927734"/>
      <use xlink:href="#DejaVuSerif-5d" x="1065.332031"/>
     </g>
    </g>
   </g>
   <g id="matplotlib.axis_8">
    <g id="ytick_8">
     <g id="line2d_59">
      <path d="M 119.71772 110.51944 
L 218.755441 110.51944 
" clip-path="url(#p5536db56a4)" style="fill: none; stroke: #d3d3d3; stroke-width: 0.5; stroke-linecap: square"/>
     </g>
     <g id="line2d_60">
      <g>
       <use xlink:href="#m8ed83d3128" x="119.71772" y="110.51944" style="stroke: #000000; stroke-width: 0.8"/>
      </g>
     </g>
    </g>
    <g id="ytick_9">
     <g id="line2d_61">
      <path d="M 119.71772 93.058134 
L 218.755441 93.058134 
" clip-path="url(#p5536db56a4)" style="fill: none; stroke: #d3d3d3; stroke-width: 0.5; stroke-linecap: square"/>
     </g>
     <g id="line2d_62">
      <g>
       <use xlink:href="#m8ed83d3128" x="119.71772" y="93.058134" style="stroke: #000000; stroke-width: 0.8"/>
      </g>
     </g>
    </g>
    <g id="ytick_10">
     <g id="line2d_63">
      <path d="M 119.71772 75.596829 
L 218.755441 75.596829 
" clip-path="url(#p5536db56a4)" style="fill: none; stroke: #d3d3d3; stroke-width: 0.5; stroke-linecap: square"/>
     </g>
     <g id="line2d_64">
      <g>
       <use xlink:href="#m8ed83d3128" x="119.71772" y="75.596829" style="stroke: #000000; stroke-width: 0.8"/>
      </g>
     </g>
    </g>
   </g>
   <g id="line2d_65">
    <path d="M 124.219435 109.857103 
L 125.128872 109.798697 
L 126.038309 109.738197 
L 126.947747 109.675648 
L 127.857184 109.611064 
L 128.766621 109.544424 
L 129.676059 109.475668 
L 130.585496 109.404701 
L 131.494933 109.331394 
L 132.40437 109.255586 
L 133.313808 109.1771 
L 134.223245 109.095749 
L 135.132682 109.011356 
L 136.04212 108.923773 
L 136.951557 108.832901 
L 137.860994 108.738714 
L 138.770431 108.641278 
L 139.679869 108.540775 
L 140.589306 108.437515 
L 141.498743 108.33195 
L 142.408181 108.224677 
L 143.317618 108.116435 
L 144.227055 108.008094 
L 145.136492 107.900637 
L 146.04593 107.795134 
L 146.955367 107.692709 
L 147.864804 107.594503 
L 148.774242 107.501638 
L 149.683679 107.415168 
L 150.593116 107.336047 
L 151.502553 107.26509 
L 152.411991 107.202939 
L 153.321428 107.150042 
L 154.230865 107.106636 
L 155.140303 107.072739 
L 156.04974 107.04816 
L 156.959177 107.032507 
L 157.868614 107.025217 
L 158.778052 107.02559 
L 159.687489 107.032825 
L 160.596926 107.046074 
L 161.506364 107.064486 
L 162.415801 107.087257 
L 163.325238 107.113672 
L 164.234675 107.143145 
L 165.144113 107.175245 
L 166.05355 107.20971 
L 166.962987 107.246454 
L 167.872425 107.285549 
L 168.781862 107.327204 
L 169.691299 107.371729 
L 170.600736 107.41949 
L 171.510174 107.470861 
L 172.419611 107.526169 
L 173.329048 107.585651 
L 174.238486 107.64941 
L 175.147923 107.717388 
L 176.05736 107.789346 
L 176.966797 107.864864 
L 177.876235 107.943353 
L 178.785672 108.024085 
L 179.695109 108.106231 
L 180.604547 108.18891 
L 181.513984 108.271241 
L 182.423421 108.352403 
L 183.332858 108.431677 
L 184.242296 108.508497 
L 185.151733 108.582474 
L 186.06117 108.653415 
L 186.970608 108.721327 
L 187.880045 108.7864 
L 188.789482 108.848983 
L 189.698919 108.909543 
L 190.608357 108.968618 
L 191.517794 109.02677 
L 192.427231 109.084531 
L 193.336669 109.14236 
L 194.246106 109.200598 
L 195.155543 109.25945 
L 196.06498 109.31896 
L 196.974418 109.379017 
L 197.883855 109.43936 
L 198.793292 109.499603 
L 199.70273 109.559268 
L 200.612167 109.617822 
L 201.521604 109.674717 
L 202.431041 109.729431 
L 203.340479 109.781507 
L 204.249916 109.830582 
L 205.159353 109.876407 
L 206.068791 109.918863 
L 206.978228 109.95796 
L 207.887665 109.993829 
L 208.797102 110.026707 
L 209.70654 110.056916 
L 210.615977 110.084833 
L 211.525414 110.110859 
L 212.434852 110.135397 
L 213.344289 110.15882 
L 214.253726 110.181453 
" clip-path="url(#p5536db56a4)" style="fill: none; stroke: #595959; stroke-linecap: square"/>
   </g>
   <g id="line2d_66">
    <path d="M 124.219435 110.51944 
L 125.128872 110.51944 
L 126.038309 110.51944 
L 126.947747 110.51944 
L 127.857184 110.51944 
L 128.766621 110.51944 
L 129.676059 110.51944 
L 130.585496 110.51944 
L 131.494933 110.51944 
L 132.40437 110.51944 
L 133.313808 110.51944 
L 134.223245 110.51944 
L 135.132682 110.51944 
L 136.04212 110.51944 
L 136.951557 110.51944 
L 137.860994 110.51944 
L 138.770431 110.51944 
L 139.679869 110.51944 
L 140.589306 110.519438 
L 141.498743 110.519173 
L 142.408181 110.505282 
L 143.317618 110.265133 
L 144.227055 108.895061 
L 145.136492 106.320222 
L 146.04593 104.240828 
L 146.955367 99.858015 
L 147.864804 88.847296 
L 148.774242 77.239182 
L 149.683679 75.524352 
L 150.593116 78.524566 
L 151.502553 83.548381 
L 152.411991 90.710434 
L 153.321428 99.665485 
L 154.230865 106.767812 
L 155.140303 108.994681 
L 156.04974 110.032663 
L 156.959177 110.461074 
L 157.868614 110.517137 
L 158.778052 110.51941 
L 159.687489 110.51944 
L 160.596926 110.51944 
L 161.506364 110.51944 
L 162.415801 110.51944 
L 163.325238 110.51944 
L 164.234675 110.51944 
L 165.144113 110.51944 
L 166.05355 110.51944 
L 166.962987 110.51944 
L 167.872425 110.51944 
L 168.781862 110.51944 
L 169.691299 110.51944 
L 170.600736 110.51944 
L 171.510174 110.51944 
L 172.419611 110.51944 
L 173.329048 110.51944 
L 174.238486 110.51944 
L 175.147923 110.51944 
L 176.05736 110.51944 
L 176.966797 110.51944 
L 177.876235 110.51944 
L 178.785672 110.51944 
L 179.695109 110.51944 
L 180.604547 110.51944 
L 181.513984 110.51944 
L 182.423421 110.51944 
L 183.332858 110.51944 
L 184.242296 110.51944 
L 185.151733 110.51944 
L 186.06117 110.51944 
L 186.970608 110.51944 
L 187.880045 110.51944 
L 188.789482 110.51944 
L 189.698919 110.51944 
L 190.608357 110.51944 
L 191.517794 110.51944 
L 192.427231 110.51944 
L 193.336669 110.51944 
L 194.246106 110.51944 
L 195.155543 110.51944 
L 196.06498 110.51944 
L 196.974418 110.51944 
L 197.883855 110.51944 
L 198.793292 110.51944 
L 199.70273 110.51944 
L 200.612167 110.51944 
L 201.521604 110.51944 
L 202.431041 110.51944 
L 203.340479 110.51944 
L 204.249916 110.51944 
L 205.159353 110.51944 
L 206.068791 110.51944 
L 206.978228 110.51944 
L 207.887665 110.51944 
L 208.797102 110.51944 
L 209.70654 110.51944 
L 210.615977 110.51944 
L 211.525414 110.51944 
L 212.434852 110.51944 
L 213.344289 110.51944 
L 214.253726 110.51944 
" clip-path="url(#p5536db56a4)" style="fill: none; stroke-dasharray: 3.7,1.6; stroke-dashoffset: 0; stroke: #1f77b4"/>
   </g>
   <g id="patch_12">
    <path d="M 119.71772 112.269194 
L 119.71772 73.774597 
" style="fill: none; stroke: #000000; stroke-width: 0.5; stroke-linejoin: miter; stroke-linecap: square"/>
   </g>
   <g id="patch_13">
    <path d="M 119.71772 112.269194 
L 218.755441 112.269194 
" style="fill: none; stroke: #000000; stroke-width: 0.5; stroke-linejoin: miter; stroke-linecap: square"/>
   </g>
   <g id="line2d_67">
    <path d="M 142.531151 110.132511 
L 142.662737 110.05621 
L 142.794322 109.966896 
L 142.925908 109.862779 
L 143.057493 109.741904 
L 143.189079 109.602154 
L 143.320664 109.441254 
L 143.452249 109.256777 
L 143.583835 109.046157 
L 143.71542 108.806707 
L 143.847006 108.535641 
L 143.978591 108.230098 
L 144.110177 107.887182 
L 144.241762 107.503997 
L 144.373347 107.077697 
L 144.504933 106.605532 
L 144.636518 106.08491 
L 144.768104 105.513458 
L 144.899689 104.889084 
L 145.031274 104.210052 
L 145.16286 103.475051 
L 145.294445 102.683262 
L 145.426031 101.834436 
L 145.557616 100.928956 
L 145.689202 99.9679 
L 145.820787 98.953099 
L 145.952372 97.887185 
L 146.083958 96.773622 
L 146.215543 95.616735 
L 146.347129 94.421719 
L 146.478714 93.19463 
L 146.610299 91.942363 
L 146.741885 90.672614 
L 146.87347 89.393816 
L 147.005056 88.115066 
L 147.136641 86.846026 
L 147.268227 85.596817 
L 147.399812 84.377885 
L 147.531397 83.199869 
L 147.662983 82.073445 
L 147.794568 81.009171 
L 147.926154 80.017321 
L 148.057739 79.107725 
L 148.189324 78.289605 
L 148.32091 77.571421 
L 148.452495 76.960724 
L 148.584081 76.464027 
L 148.715666 76.086685 
L 148.847252 75.832804 
L 148.978837 75.705163 
L 149.110422 75.705163 
L 149.242008 75.832804 
L 149.373593 76.086685 
L 149.505179 76.464027 
L 149.636764 76.960724 
L 149.768349 77.571421 
L 149.899935 78.289605 
L 150.03152 79.107725 
L 150.163106 80.017321 
L 150.294691 81.009171 
L 150.426277 82.073445 
L 150.557862 83.199869 
L 150.689447 84.377885 
L 150.821033 85.596817 
L 150.952618 86.846026 
L 151.084204 88.115066 
L 151.215789 89.393816 
L 151.347375 90.672614 
L 151.47896 91.942363 
L 151.610545 93.19463 
L 151.742131 94.421719 
L 151.873716 95.616735 
L 152.005302 96.773622 
L 152.136887 97.887185 
L 152.268472 98.953099 
L 152.400058 99.9679 
L 152.531643 100.928956 
L 152.663229 101.834436 
L 152.794814 102.683262 
L 152.9264 103.475051 
L 153.057985 104.210052 
L 153.18957 104.889084 
L 153.321156 105.513458 
L 153.452741 106.08491 
L 153.584327 106.605532 
L 153.715912 107.077697 
L 153.847497 107.503997 
L 153.979083 107.887182 
L 154.110668 108.230098 
L 154.242254 108.535641 
L 154.373839 108.806707 
L 154.505425 109.046157 
L 154.63701 109.256777 
L 154.768595 109.441254 
L 154.900181 109.602154 
L 155.031766 109.741904 
L 155.163352 109.862779 
L 155.294937 109.966896 
L 155.426522 110.05621 
L 155.558108 110.132511 
" clip-path="url(#p5536db56a4)" style="fill: none; stroke: #000000; stroke-linecap: square"/>
   </g>
   <g id="line2d_68">
    <path d="M 149.04463 112.269194 
L 149.04463 73.774597 
" clip-path="url(#p5536db56a4)" style="fill: none; stroke: #000000; stroke-linecap: square"/>
   </g>
  </g>
  <g id="legend_1">
   <g id="patch_14">
    <path d="M 21.613663 162.762944 
L 86.889913 162.762944 
Q 88.089913 162.762944 88.089913 161.562944 
L 88.089913 144.549194 
Q 88.089913 143.349194 86.889913 143.349194 
L 21.613663 143.349194 
Q 20.413663 143.349194 20.413663 144.549194 
L 20.413663 161.562944 
Q 20.413663 162.762944 21.613663 162.762944 
z
" style="fill: #ffffff; stroke: #ffffff; stroke-width: 0.75; stroke-linejoin: miter"/>
   </g>
   <g id="line2d_69">
    <path d="M 22.813663 148.208257 
L 28.813663 148.208257 
L 34.813663 148.208257 
" style="fill: none; stroke: #000000; stroke-linecap: square"/>
   </g>
   <g id="text_21">
    <!-- Data likelihood -->
    <g transform="translate(39.613663 150.308257) scale(0.06 -0.06)">
     <defs>
      <path id="DejaVuSerif-44" d="M 1581 331 
L 2163 331 
Q 3072 331 3558 850 
Q 4044 1369 4044 2338 
Q 4044 3306 3559 3818 
Q 3075 4331 2163 4331 
L 1581 4331 
L 1581 331 
z
M 353 0 
L 353 331 
L 947 331 
L 947 4331 
L 353 4331 
L 353 4666 
L 2209 4666 
Q 3416 4666 4089 4050 
Q 4763 3434 4763 2338 
Q 4763 1238 4088 619 
Q 3413 0 2209 0 
L 353 0 
z
" transform="scale(0.015625)"/>
      <path id="DejaVuSerif-6b" d="M 1831 0 
L 219 0 
L 219 331 
L 738 331 
L 738 4531 
L 184 4531 
L 184 4863 
L 1313 4863 
L 1313 1697 
L 2713 2988 
L 2234 2988 
L 2234 3322 
L 3738 3322 
L 3738 2988 
L 3169 2988 
L 2181 2075 
L 3444 331 
L 3922 331 
L 3922 0 
L 2284 0 
L 2284 331 
L 2759 331 
L 1766 1697 
L 1313 1275 
L 1313 331 
L 1831 331 
L 1831 0 
z
" transform="scale(0.015625)"/>
     </defs>
     <use xlink:href="#DejaVuSerif-44"/>
     <use xlink:href="#DejaVuSerif-61" x="80.175781"/>
     <use xlink:href="#DejaVuSerif-74" x="139.794922"/>
     <use xlink:href="#DejaVuSerif-61" x="179.980469"/>
     <use xlink:href="#DejaVuSerif-20" x="239.599609"/>
     <use xlink:href="#DejaVuSerif-6c" x="271.386719"/>
     <use xlink:href="#DejaVuSerif-69" x="303.369141"/>
     <use xlink:href="#DejaVuSerif-6b" x="335.351562"/>
     <use xlink:href="#DejaVuSerif-65" x="395.947266"/>
     <use xlink:href="#DejaVuSerif-6c" x="455.126953"/>
     <use xlink:href="#DejaVuSerif-69" x="487.109375"/>
     <use xlink:href="#DejaVuSerif-68" x="519.091797"/>
     <use xlink:href="#DejaVuSerif-6f" x="583.496094"/>
     <use xlink:href="#DejaVuSerif-6f" x="643.701172"/>
     <use xlink:href="#DejaVuSerif-64" x="703.90625"/>
    </g>
   </g>
   <g id="line2d_70">
    <path d="M 22.813663 157.015132 
L 28.813663 157.015132 
L 34.813663 157.015132 
" style="fill: none; stroke: #595959; stroke-linecap: square"/>
   </g>
   <g id="text_22">
    <!-- Prior -->
    <g transform="translate(39.613663 159.115132) scale(0.06 -0.06)">
     <defs>
      <path id="DejaVuSerif-50" d="M 1581 2375 
L 2406 2375 
Q 2872 2375 3115 2626 
Q 3359 2878 3359 3353 
Q 3359 3831 3115 4081 
Q 2872 4331 2406 4331 
L 1581 4331 
L 1581 2375 
z
M 353 0 
L 353 331 
L 947 331 
L 947 4331 
L 353 4331 
L 353 4666 
L 2559 4666 
Q 3259 4666 3668 4311 
Q 4078 3956 4078 3353 
Q 4078 2753 3668 2397 
Q 3259 2041 2559 2041 
L 1581 2041 
L 1581 331 
L 2303 331 
L 2303 0 
L 353 0 
z
" transform="scale(0.015625)"/>
     </defs>
     <use xlink:href="#DejaVuSerif-50"/>
     <use xlink:href="#DejaVuSerif-72" x="67.285156"/>
     <use xlink:href="#DejaVuSerif-69" x="115.087891"/>
     <use xlink:href="#DejaVuSerif-6f" x="147.070312"/>
     <use xlink:href="#DejaVuSerif-72" x="207.275391"/>
    </g>
   </g>
  </g>
  <g id="legend_2">
   <g id="patch_15">
    <path d="M 118.146032 153.956069 
L 222.444782 153.956069 
Q 223.644782 153.956069 223.644782 152.756069 
L 223.644782 144.549194 
Q 223.644782 143.349194 222.444782 143.349194 
L 118.146032 143.349194 
Q 116.946032 143.349194 116.946032 144.549194 
L 116.946032 152.756069 
Q 116.946032 153.956069 118.146032 153.956069 
z
" style="fill: #ffffff; stroke: #ffffff; stroke-width: 0.75; stroke-linejoin: miter"/>
   </g>
   <g id="line2d_71">
    <path d="M 119.346032 148.208257 
L 125.346032 148.208257 
L 131.346032 148.208257 
" style="fill: none; stroke-dasharray: 3.7,1.6; stroke-dashoffset: 0; stroke: #1f77b4"/>
   </g>
   <g id="text_23">
    <!-- Posterior (linear prediction) -->
    <g transform="translate(136.146032 150.308257) scale(0.06 -0.06)">
     <defs>
      <path id="DejaVuSerif-28" d="M 2041 -997 
Q 1281 -656 893 83 
Q 506 822 506 1931 
Q 506 3044 893 3783 
Q 1281 4522 2041 4863 
L 2041 4556 
Q 1559 4225 1350 3623 
Q 1141 3022 1141 1931 
Q 1141 844 1350 242 
Q 1559 -359 2041 -691 
L 2041 -997 
z
" transform="scale(0.015625)"/>
      <path id="DejaVuSerif-6e" d="M 263 0 
L 263 331 
L 781 331 
L 781 2988 
L 231 2988 
L 231 3322 
L 1356 3322 
L 1356 2731 
Q 1516 3069 1770 3241 
Q 2025 3413 2363 3413 
Q 2913 3413 3172 3097 
Q 3431 2781 3431 2113 
L 3431 331 
L 3944 331 
L 3944 0 
L 2356 0 
L 2356 331 
L 2853 331 
L 2853 1931 
Q 2853 2541 2703 2767 
Q 2553 2994 2175 2994 
Q 1775 2994 1565 2701 
Q 1356 2409 1356 1850 
L 1356 331 
L 1856 331 
L 1856 0 
L 263 0 
z
" transform="scale(0.015625)"/>
      <path id="DejaVuSerif-63" d="M 3291 997 
Q 3169 466 2822 187 
Q 2475 -91 1925 -91 
Q 1200 -91 759 389 
Q 319 869 319 1663 
Q 319 2459 759 2936 
Q 1200 3413 1925 3413 
Q 2241 3413 2553 3339 
Q 2866 3266 3181 3116 
L 3181 2266 
L 2847 2266 
Q 2781 2703 2561 2903 
Q 2341 3103 1931 3103 
Q 1466 3103 1228 2742 
Q 991 2381 991 1663 
Q 991 944 1227 581 
Q 1463 219 1931 219 
Q 2303 219 2525 412 
Q 2747 606 2828 997 
L 3291 997 
z
" transform="scale(0.015625)"/>
      <path id="DejaVuSerif-29" d="M 453 -997 
L 453 -691 
Q 934 -359 1145 242 
Q 1356 844 1356 1931 
Q 1356 3022 1145 3623 
Q 934 4225 453 4556 
L 453 4863 
Q 1216 4522 1603 3783 
Q 1991 3044 1991 1931 
Q 1991 822 1603 83 
Q 1216 -656 453 -997 
z
" transform="scale(0.015625)"/>
     </defs>
     <use xlink:href="#DejaVuSerif-50"/>
     <use xlink:href="#DejaVuSerif-6f" x="63.285156"/>
     <use xlink:href="#DejaVuSerif-73" x="123.490234"/>
     <use xlink:href="#DejaVuSerif-74" x="174.808594"/>
     <use xlink:href="#DejaVuSerif-65" x="214.994141"/>
     <use xlink:href="#DejaVuSerif-72" x="274.173828"/>
     <use xlink:href="#DejaVuSerif-69" x="321.976562"/>
     <use xlink:href="#DejaVuSerif-6f" x="353.958984"/>
     <use xlink:href="#DejaVuSerif-72" x="414.164062"/>
     <use xlink:href="#DejaVuSerif-20" x="461.966797"/>
     <use xlink:href="#DejaVuSerif-28" x="493.753906"/>
     <use xlink:href="#DejaVuSerif-6c" x="532.767578"/>
     <use xlink:href="#DejaVuSerif-69" x="564.75"/>
     <use xlink:href="#DejaVuSerif-6e" x="596.732422"/>
     <use xlink:href="#DejaVuSerif-65" x="661.136719"/>
     <use xlink:href="#DejaVuSerif-61" x="720.316406"/>
     <use xlink:href="#DejaVuSerif-72" x="779.935547"/>
     <use xlink:href="#DejaVuSerif-20" x="827.738281"/>
     <use xlink:href="#DejaVuSerif-70" x="859.525391"/>
     <use xlink:href="#DejaVuSerif-72" x="923.539062"/>
     <use xlink:href="#DejaVuSerif-65" x="971.341797"/>
     <use xlink:href="#DejaVuSerif-64" x="1030.521484"/>
     <use xlink:href="#DejaVuSerif-69" x="1094.535156"/>
     <use xlink:href="#DejaVuSerif-63" x="1126.517578"/>
     <use xlink:href="#DejaVuSerif-74" x="1182.523438"/>
     <use xlink:href="#DejaVuSerif-69" x="1222.708984"/>
     <use xlink:href="#DejaVuSerif-6f" x="1254.691406"/>
     <use xlink:href="#DejaVuSerif-6e" x="1314.896484"/>
     <use xlink:href="#DejaVuSerif-29" x="1379.300781"/>
    </g>
   </g>
  </g>
 </g>
 <defs>
  <clipPath id="p9338aeb63b">
   <rect x="10.7" y="7.2" width="99.03772" height="38.494597"/>
  </clipPath>
  <clipPath id="p6c680d07b6">
   <rect x="119.71772" y="7.2" width="99.03772" height="38.494597"/>
  </clipPath>
  <clipPath id="p18378e7ed2">
   <rect x="10.7" y="73.774597" width="99.03772" height="38.494597"/>
  </clipPath>
  <clipPath id="p5536db56a4">
   <rect x="119.71772" y="73.774597" width="99.03772" height="38.494597"/>
  </clipPath>
 </defs>
</svg>
