<?xml version="1.0" encoding="utf-8" standalone="no"?>
<!DOCTYPE svg PUBLIC "-//W3C//DTD SVG 1.1//EN"
  "http://www.w3.org/Graphics/SVG/1.1/DTD/svg11.dtd">
<svg xmlns:xlink="http://www.w3.org/1999/xlink" width="230.848237pt" height="169.962944pt" viewBox="0 0 230.848237 169.962944" xmlns="http://www.w3.org/2000/svg" version="1.1">
 <metadata>
  <rdf:RDF xmlns:dc="http://purl.org/dc/elements/1.1/" xmlns:cc="http://creativecommons.org/ns#" xmlns:rdf="http://www.w3.org/1999/02/22-rdf-syntax-ns#">
   <cc:Work>
    <dc:type rdf:resource="http://purl.org/dc/dcmitype/StillImage"/>
    <dc:date>2025-12-23T08:41:55.529348</dc:date>
    <dc:format>image/svg+xml</dc:format>
    <dc:creator>
     <cc:Agent>
      <dc:title>Matplotlib v3.7.0, https://matplotlib.org/</dc:title>
     </cc:Agent>
    </dc:creator>
   </cc:Work>
  </rdf:RDF>
 </metadata>
 <defs>
  <style type="text/css">*{stroke-linejoin: round; stroke-linecap: butt}</style>
 </defs>
 <g id="figure_1">
  <g id="patch_1">
   <path d="M 0 169.962944 
L 230.848237 169.962944 
L 230.848237 -0 
L 0 -0 
z
" style="fill: #ffffff"/>
  </g>
  <g id="axes_1">
   <g id="patch_2">
    <path d="M 12.18674 45.694597 
L 109.194498 45.694597 
L 109.194498 7.2 
L 12.18674 7.2 
z
" style="fill: #ffffff"/>
   </g>
   <g id="matplotlib.axis_1">
    <g id="xtick_1">
     <g id="line2d_1">
      <path d="M 12.92625 45.694597 
L 12.92625 7.2 
" clip-path="url(#pe3d5be8b8d)" style="fill: none; stroke: #d3d3d3; stroke-width: 0.5; stroke-linecap: square"/>
     </g>
     <g id="line2d_2">
      <defs>
       <path id="maffd2b0b53" d="M 0 0 
L 0 3.5 
" style="stroke: #000000; stroke-width: 0.8"/>
      </defs>
      <g>
       <use xlink:href="#maffd2b0b53" x="12.92625" y="45.694597" style="stroke: #000000; stroke-width: 0.8"/>
      </g>
     </g>
     <g id="text_1">
      <!-- 700 -->
      <g transform="translate(7.2 56.25366) scale(0.06 -0.06)">
       <defs>
        <path id="DejaVuSerif-37" d="M 3609 4347 
L 1784 0 
L 1319 0 
L 3059 4153 
L 903 4153 
L 903 3578 
L 538 3578 
L 538 4666 
L 3609 4666 
L 3609 4347 
z
" transform="scale(0.015625)"/>
        <path id="DejaVuSerif-30" d="M 2034 219 
Q 2513 219 2750 744 
Q 2988 1269 2988 2328 
Q 2988 3391 2750 3916 
Q 2513 4441 2034 4441 
Q 1556 4441 1318 3916 
Q 1081 3391 1081 2328 
Q 1081 1269 1318 744 
Q 1556 219 2034 219 
z
M 2034 -91 
Q 1275 -91 848 546 
Q 422 1184 422 2328 
Q 422 3475 848 4112 
Q 1275 4750 2034 4750 
Q 2797 4750 3222 4112 
Q 3647 3475 3647 2328 
Q 3647 1184 3222 546 
Q 2797 -91 2034 -91 
z
" transform="scale(0.015625)"/>
       </defs>
       <use xlink:href="#DejaVuSerif-37"/>
       <use xlink:href="#DejaVuSerif-30" x="63.623047"/>
       <use xlink:href="#DejaVuSerif-30" x="127.246094"/>
      </g>
     </g>
    </g>
    <g id="xtick_2">
     <g id="line2d_3">
      <path d="M 33.92986 45.694597 
L 33.92986 7.2 
" clip-path="url(#pe3d5be8b8d)" style="fill: none; stroke: #d3d3d3; stroke-width: 0.5; stroke-linecap: square"/>
     </g>
     <g id="line2d_4">
      <g>
       <use xlink:href="#maffd2b0b53" x="33.92986" y="45.694597" style="stroke: #000000; stroke-width: 0.8"/>
      </g>
     </g>
     <g id="text_2">
      <!-- 750 -->
      <g transform="translate(28.20361 56.25366) scale(0.06 -0.06)">
       <defs>
        <path id="DejaVuSerif-35" d="M 3219 4666 
L 3219 4153 
L 1081 4153 
L 1081 2816 
Q 1244 2928 1461 2984 
Q 1678 3041 1947 3041 
Q 2703 3041 3140 2622 
Q 3578 2203 3578 1478 
Q 3578 738 3136 323 
Q 2694 -91 1894 -91 
Q 1572 -91 1234 -12 
Q 897 66 544 225 
L 544 1131 
L 897 1131 
Q 925 688 1179 453 
Q 1434 219 1894 219 
Q 2388 219 2653 544 
Q 2919 869 2919 1478 
Q 2919 2084 2655 2407 
Q 2391 2731 1894 2731 
Q 1613 2731 1398 2631 
Q 1184 2531 1019 2322 
L 750 2322 
L 750 4666 
L 3219 4666 
z
" transform="scale(0.015625)"/>
       </defs>
       <use xlink:href="#DejaVuSerif-37"/>
       <use xlink:href="#DejaVuSerif-35" x="63.623047"/>
       <use xlink:href="#DejaVuSerif-30" x="127.246094"/>
      </g>
     </g>
    </g>
    <g id="xtick_3">
     <g id="line2d_5">
      <path d="M 54.933469 45.694597 
L 54.933469 7.2 
" clip-path="url(#pe3d5be8b8d)" style="fill: none; stroke: #d3d3d3; stroke-width: 0.5; stroke-linecap: square"/>
     </g>
     <g id="line2d_6">
      <g>
       <use xlink:href="#maffd2b0b53" x="54.933469" y="45.694597" style="stroke: #000000; stroke-width: 0.8"/>
      </g>
     </g>
     <g id="text_3">
      <!-- 800 -->
      <g transform="translate(49.207219 56.25366) scale(0.06 -0.06)">
       <defs>
        <path id="DejaVuSerif-38" d="M 2981 1275 
Q 2981 1775 2732 2051 
Q 2484 2328 2034 2328 
Q 1584 2328 1336 2051 
Q 1088 1775 1088 1275 
Q 1088 772 1336 495 
Q 1584 219 2034 219 
Q 2484 219 2732 495 
Q 2981 772 2981 1275 
z
M 2853 3541 
Q 2853 3966 2637 4203 
Q 2422 4441 2034 4441 
Q 1650 4441 1433 4203 
Q 1216 3966 1216 3541 
Q 1216 3113 1433 2875 
Q 1650 2638 2034 2638 
Q 2422 2638 2637 2875 
Q 2853 3113 2853 3541 
z
M 2516 2484 
Q 3047 2413 3344 2092 
Q 3641 1772 3641 1275 
Q 3641 619 3225 264 
Q 2809 -91 2034 -91 
Q 1263 -91 845 264 
Q 428 619 428 1275 
Q 428 1772 725 2092 
Q 1022 2413 1556 2484 
Q 1084 2569 832 2842 
Q 581 3116 581 3541 
Q 581 4103 968 4426 
Q 1356 4750 2034 4750 
Q 2713 4750 3100 4426 
Q 3488 4103 3488 3541 
Q 3488 3116 3236 2842 
Q 2984 2569 2516 2484 
z
" transform="scale(0.015625)"/>
       </defs>
       <use xlink:href="#DejaVuSerif-38"/>
       <use xlink:href="#DejaVuSerif-30" x="63.623047"/>
       <use xlink:href="#DejaVuSerif-30" x="127.246094"/>
      </g>
     </g>
    </g>
    <g id="xtick_4">
     <g id="line2d_7">
      <path d="M 75.937079 45.694597 
L 75.937079 7.2 
" clip-path="url(#pe3d5be8b8d)" style="fill: none; stroke: #d3d3d3; stroke-width: 0.5; stroke-linecap: square"/>
     </g>
     <g id="line2d_8">
      <g>
       <use xlink:href="#maffd2b0b53" x="75.937079" y="45.694597" style="stroke: #000000; stroke-width: 0.8"/>
      </g>
     </g>
     <g id="text_4">
      <!-- 850 -->
      <g transform="translate(70.210829 56.25366) scale(0.06 -0.06)">
       <use xlink:href="#DejaVuSerif-38"/>
       <use xlink:href="#DejaVuSerif-35" x="63.623047"/>
       <use xlink:href="#DejaVuSerif-30" x="127.246094"/>
      </g>
     </g>
    </g>
    <g id="xtick_5">
     <g id="line2d_9">
      <path d="M 96.940689 45.694597 
L 96.940689 7.2 
" clip-path="url(#pe3d5be8b8d)" style="fill: none; stroke: #d3d3d3; stroke-width: 0.5; stroke-linecap: square"/>
     </g>
     <g id="line2d_10">
      <g>
       <use xlink:href="#maffd2b0b53" x="96.940689" y="45.694597" style="stroke: #000000; stroke-width: 0.8"/>
      </g>
     </g>
     <g id="text_5">
      <!-- 900 -->
      <g transform="translate(91.214439 56.25366) scale(0.06 -0.06)">
       <defs>
        <path id="DejaVuSerif-39" d="M 2994 2091 
Q 2784 1856 2512 1740 
Q 2241 1625 1900 1625 
Q 1206 1625 804 2044 
Q 403 2463 403 3188 
Q 403 3897 839 4323 
Q 1275 4750 2003 4750 
Q 2794 4750 3217 4161 
Q 3641 3572 3641 2478 
Q 3641 1253 3137 581 
Q 2634 -91 1722 -91 
Q 1475 -91 1203 -44 
Q 931 3 647 97 
L 647 872 
L 997 872 
Q 1038 556 1241 387 
Q 1444 219 1784 219 
Q 2391 219 2687 676 
Q 2984 1134 2994 2091 
z
M 1978 4441 
Q 1534 4441 1298 4117 
Q 1063 3794 1063 3188 
Q 1063 2581 1298 2256 
Q 1534 1931 1978 1931 
Q 2422 1931 2658 2245 
Q 2894 2559 2894 3150 
Q 2894 3772 2656 4106 
Q 2419 4441 1978 4441 
z
" transform="scale(0.015625)"/>
       </defs>
       <use xlink:href="#DejaVuSerif-39"/>
       <use xlink:href="#DejaVuSerif-30" x="63.623047"/>
       <use xlink:href="#DejaVuSerif-30" x="127.246094"/>
      </g>
     </g>
    </g>
    <g id="text_6">
     <!-- Cloud top height [m] -->
     <g transform="translate(29.072963 66.060535) scale(0.06 -0.06)">
      <defs>
       <path id="DejaVuSerif-43" d="M 4513 1234 
Q 4306 581 3820 245 
Q 3334 -91 2591 -91 
Q 2134 -91 1743 65 
Q 1353 222 1050 525 
Q 700 875 529 1320 
Q 359 1766 359 2328 
Q 359 3416 987 4083 
Q 1616 4750 2644 4750 
Q 3025 4750 3456 4650 
Q 3888 4550 4384 4347 
L 4384 3272 
L 4031 3272 
Q 3916 3859 3567 4137 
Q 3219 4416 2591 4416 
Q 1844 4416 1459 3886 
Q 1075 3356 1075 2328 
Q 1075 1303 1459 773 
Q 1844 244 2591 244 
Q 3113 244 3450 492 
Q 3788 741 3938 1234 
L 4513 1234 
z
" transform="scale(0.015625)"/>
       <path id="DejaVuSerif-6c" d="M 1313 331 
L 1856 331 
L 1856 0 
L 184 0 
L 184 331 
L 738 331 
L 738 4531 
L 184 4531 
L 184 4863 
L 1313 4863 
L 1313 331 
z
" transform="scale(0.015625)"/>
       <path id="DejaVuSerif-6f" d="M 1925 219 
Q 2388 219 2623 584 
Q 2859 950 2859 1663 
Q 2859 2375 2623 2739 
Q 2388 3103 1925 3103 
Q 1463 3103 1227 2739 
Q 991 2375 991 1663 
Q 991 950 1228 584 
Q 1466 219 1925 219 
z
M 1925 -91 
Q 1200 -91 759 389 
Q 319 869 319 1663 
Q 319 2456 758 2934 
Q 1197 3413 1925 3413 
Q 2653 3413 3092 2934 
Q 3531 2456 3531 1663 
Q 3531 869 3092 389 
Q 2653 -91 1925 -91 
z
" transform="scale(0.015625)"/>
       <path id="DejaVuSerif-75" d="M 2266 3322 
L 3341 3322 
L 3341 331 
L 3884 331 
L 3884 0 
L 2766 0 
L 2766 588 
Q 2606 256 2353 82 
Q 2100 -91 1766 -91 
Q 1213 -91 952 223 
Q 691 538 691 1209 
L 691 2988 
L 172 2988 
L 172 3322 
L 1269 3322 
L 1269 1388 
Q 1269 781 1417 556 
Q 1566 331 1947 331 
Q 2347 331 2556 625 
Q 2766 919 2766 1478 
L 2766 2988 
L 2266 2988 
L 2266 3322 
z
" transform="scale(0.015625)"/>
       <path id="DejaVuSerif-64" d="M 3359 331 
L 3909 331 
L 3909 0 
L 2784 0 
L 2784 519 
Q 2616 206 2355 57 
Q 2094 -91 1709 -91 
Q 1097 -91 708 395 
Q 319 881 319 1663 
Q 319 2444 706 2928 
Q 1094 3413 1709 3413 
Q 2094 3413 2355 3264 
Q 2616 3116 2784 2803 
L 2784 4531 
L 2241 4531 
L 2241 4863 
L 3359 4863 
L 3359 331 
z
M 2784 1497 
L 2784 1825 
Q 2784 2422 2554 2737 
Q 2325 3053 1888 3053 
Q 1444 3053 1217 2703 
Q 991 2353 991 1663 
Q 991 975 1217 622 
Q 1444 269 1888 269 
Q 2325 269 2554 583 
Q 2784 897 2784 1497 
z
" transform="scale(0.015625)"/>
       <path id="DejaVuSerif-20" transform="scale(0.015625)"/>
       <path id="DejaVuSerif-74" d="M 691 2988 
L 184 2988 
L 184 3322 
L 691 3322 
L 691 4353 
L 1269 4353 
L 1269 3322 
L 2350 3322 
L 2350 2988 
L 1269 2988 
L 1269 878 
Q 1269 456 1350 337 
Q 1431 219 1650 219 
Q 1875 219 1978 351 
Q 2081 484 2088 781 
L 2522 781 
Q 2497 328 2275 118 
Q 2053 -91 1600 -91 
Q 1103 -91 897 129 
Q 691 350 691 878 
L 691 2988 
z
" transform="scale(0.015625)"/>
       <path id="DejaVuSerif-70" d="M 1313 1825 
L 1313 1497 
Q 1313 897 1542 583 
Q 1772 269 2209 269 
Q 2650 269 2876 622 
Q 3103 975 3103 1663 
Q 3103 2353 2876 2703 
Q 2650 3053 2209 3053 
Q 1772 3053 1542 2737 
Q 1313 2422 1313 1825 
z
M 738 2988 
L 184 2988 
L 184 3322 
L 1313 3322 
L 1313 2803 
Q 1481 3116 1742 3264 
Q 2003 3413 2388 3413 
Q 3000 3413 3387 2928 
Q 3775 2444 3775 1663 
Q 3775 881 3387 395 
Q 3000 -91 2388 -91 
Q 2003 -91 1742 57 
Q 1481 206 1313 519 
L 1313 -997 
L 1856 -997 
L 1856 -1331 
L 184 -1331 
L 184 -997 
L 738 -997 
L 738 2988 
z
" transform="scale(0.015625)"/>
       <path id="DejaVuSerif-68" d="M 263 0 
L 263 331 
L 781 331 
L 781 4531 
L 231 4531 
L 231 4863 
L 1356 4863 
L 1356 2731 
Q 1516 3069 1770 3241 
Q 2025 3413 2363 3413 
Q 2913 3413 3172 3097 
Q 3431 2781 3431 2113 
L 3431 331 
L 3944 331 
L 3944 0 
L 2356 0 
L 2356 331 
L 2853 331 
L 2853 1931 
Q 2853 2541 2704 2764 
Q 2556 2988 2175 2988 
Q 1775 2988 1565 2697 
Q 1356 2406 1356 1850 
L 1356 331 
L 1856 331 
L 1856 0 
L 263 0 
z
" transform="scale(0.015625)"/>
       <path id="DejaVuSerif-65" d="M 3469 1600 
L 991 1600 
L 991 1575 
Q 991 903 1244 561 
Q 1497 219 1991 219 
Q 2369 219 2611 417 
Q 2853 616 2950 1006 
L 3413 1006 
Q 3275 459 2904 184 
Q 2534 -91 1931 -91 
Q 1203 -91 761 389 
Q 319 869 319 1663 
Q 319 2450 753 2931 
Q 1188 3413 1894 3413 
Q 2647 3413 3050 2948 
Q 3453 2484 3469 1600 
z
M 2791 1931 
Q 2772 2513 2545 2808 
Q 2319 3103 1894 3103 
Q 1497 3103 1269 2806 
Q 1041 2509 991 1931 
L 2791 1931 
z
" transform="scale(0.015625)"/>
       <path id="DejaVuSerif-69" d="M 622 4353 
Q 622 4497 726 4603 
Q 831 4709 978 4709 
Q 1122 4709 1226 4603 
Q 1331 4497 1331 4353 
Q 1331 4206 1228 4103 
Q 1125 4000 978 4000 
Q 831 4000 726 4103 
Q 622 4206 622 4353 
z
M 1356 331 
L 1900 331 
L 1900 0 
L 231 0 
L 231 331 
L 781 331 
L 781 2988 
L 231 2988 
L 231 3322 
L 1356 3322 
L 1356 331 
z
" transform="scale(0.015625)"/>
       <path id="DejaVuSerif-67" d="M 3359 2988 
L 3359 72 
Q 3359 -644 2965 -1033 
Q 2572 -1422 1844 -1422 
Q 1516 -1422 1216 -1362 
Q 916 -1303 641 -1184 
L 641 -488 
L 941 -488 
Q 997 -813 1206 -963 
Q 1416 -1113 1806 -1113 
Q 2313 -1113 2548 -827 
Q 2784 -541 2784 72 
L 2784 519 
Q 2616 206 2355 57 
Q 2094 -91 1709 -91 
Q 1097 -91 708 395 
Q 319 881 319 1663 
Q 319 2444 706 2928 
Q 1094 3413 1709 3413 
Q 2094 3413 2355 3264 
Q 2616 3116 2784 2803 
L 2784 3322 
L 3909 3322 
L 3909 2988 
L 3359 2988 
z
M 2784 1825 
Q 2784 2422 2554 2737 
Q 2325 3053 1888 3053 
Q 1444 3053 1217 2703 
Q 991 2353 991 1663 
Q 991 975 1217 622 
Q 1444 269 1888 269 
Q 2325 269 2554 583 
Q 2784 897 2784 1497 
L 2784 1825 
z
" transform="scale(0.015625)"/>
       <path id="DejaVuSerif-5b" d="M 550 4863 
L 2003 4863 
L 2003 4531 
L 1147 4531 
L 1147 -513 
L 2003 -513 
L 2003 -844 
L 550 -844 
L 550 4863 
z
" transform="scale(0.015625)"/>
       <path id="DejaVuSerif-6d" d="M 3316 2675 
Q 3481 3041 3739 3227 
Q 3997 3413 4341 3413 
Q 4863 3413 5119 3089 
Q 5375 2766 5375 2113 
L 5375 331 
L 5894 331 
L 5894 0 
L 4300 0 
L 4300 331 
L 4800 331 
L 4800 2047 
Q 4800 2556 4650 2772 
Q 4500 2988 4153 2988 
Q 3769 2988 3567 2697 
Q 3366 2406 3366 1850 
L 3366 331 
L 3866 331 
L 3866 0 
L 2291 0 
L 2291 331 
L 2791 331 
L 2791 2069 
Q 2791 2566 2641 2777 
Q 2491 2988 2144 2988 
Q 1759 2988 1557 2697 
Q 1356 2406 1356 1850 
L 1356 331 
L 1856 331 
L 1856 0 
L 263 0 
L 263 331 
L 781 331 
L 781 2994 
L 231 2994 
L 231 3322 
L 1356 3322 
L 1356 2731 
Q 1516 3063 1762 3238 
Q 2009 3413 2322 3413 
Q 2709 3413 2968 3220 
Q 3228 3028 3316 2675 
z
" transform="scale(0.015625)"/>
       <path id="DejaVuSerif-5d" d="M 1947 4863 
L 1947 -844 
L 494 -844 
L 494 -513 
L 1350 -513 
L 1350 4531 
L 494 4531 
L 494 4863 
L 1947 4863 
z
" transform="scale(0.015625)"/>
      </defs>
      <use xlink:href="#DejaVuSerif-43"/>
      <use xlink:href="#DejaVuSerif-6c" x="76.513672"/>
      <use xlink:href="#DejaVuSerif-6f" x="108.496094"/>
      <use xlink:href="#DejaVuSerif-75" x="168.701172"/>
      <use xlink:href="#DejaVuSerif-64" x="233.105469"/>
      <use xlink:href="#DejaVuSerif-20" x="297.119141"/>
      <use xlink:href="#DejaVuSerif-74" x="328.90625"/>
      <use xlink:href="#DejaVuSerif-6f" x="369.091797"/>
      <use xlink:href="#DejaVuSerif-70" x="429.296875"/>
      <use xlink:href="#DejaVuSerif-20" x="493.310547"/>
      <use xlink:href="#DejaVuSerif-68" x="525.097656"/>
      <use xlink:href="#DejaVuSerif-65" x="589.501953"/>
      <use xlink:href="#DejaVuSerif-69" x="648.681641"/>
      <use xlink:href="#DejaVuSerif-67" x="680.664062"/>
      <use xlink:href="#DejaVuSerif-68" x="744.677734"/>
      <use xlink:href="#DejaVuSerif-74" x="809.082031"/>
      <use xlink:href="#DejaVuSerif-20" x="849.267578"/>
      <use xlink:href="#DejaVuSerif-5b" x="881.054688"/>
      <use xlink:href="#DejaVuSerif-6d" x="920.068359"/>
      <use xlink:href="#DejaVuSerif-5d" x="1014.892578"/>
     </g>
    </g>
   </g>
   <g id="matplotlib.axis_2">
    <g id="ytick_1">
     <g id="line2d_11">
      <path d="M 12.18674 43.944843 
L 109.194498 43.944843 
" clip-path="url(#pe3d5be8b8d)" style="fill: none; stroke: #d3d3d3; stroke-width: 0.5; stroke-linecap: square"/>
     </g>
     <g id="line2d_12">
      <defs>
       <path id="m56aba532ee" d="M 0 0 
L -3.5 0 
" style="stroke: #000000; stroke-width: 0.8"/>
      </defs>
      <g>
       <use xlink:href="#m56aba532ee" x="12.18674" y="43.944843" style="stroke: #000000; stroke-width: 0.8"/>
      </g>
     </g>
    </g>
    <g id="ytick_2">
     <g id="line2d_13">
      <path d="M 12.18674 23.508047 
L 109.194498 23.508047 
" clip-path="url(#pe3d5be8b8d)" style="fill: none; stroke: #d3d3d3; stroke-width: 0.5; stroke-linecap: square"/>
     </g>
     <g id="line2d_14">
      <g>
       <use xlink:href="#m56aba532ee" x="12.18674" y="23.508047" style="stroke: #000000; stroke-width: 0.8"/>
      </g>
     </g>
    </g>
   </g>
   <g id="line2d_15">
    <path d="M 16.596183 43.306 
L 17.48698 43.257457 
L 18.377777 43.20813 
L 19.268573 43.158289 
L 20.15937 43.108213 
L 21.050167 43.058193 
L 21.940963 43.008524 
L 22.83176 42.9595 
L 23.722557 42.911411 
L 24.613353 42.864532 
L 25.50415 42.819122 
L 26.394947 42.775411 
L 27.285743 42.733596 
L 28.17654 42.693833 
L 29.067337 42.65623 
L 29.958134 42.620841 
L 30.84893 42.587664 
L 31.739727 42.556633 
L 32.630524 42.527624 
L 33.52132 42.50045 
L 34.412117 42.47487 
L 35.302914 42.450594 
L 36.19371 42.427287 
L 37.084507 42.404587 
L 37.975304 42.382114 
L 38.8661 42.359481 
L 39.756897 42.336313 
L 40.647694 42.312256 
L 41.53849 42.286999 
L 42.429287 42.260275 
L 43.320084 42.231881 
L 44.21088 42.201684 
L 45.101677 42.169624 
L 45.992474 42.135718 
L 46.88327 42.100064 
L 47.774067 42.06283 
L 48.664864 42.024258 
L 49.55566 41.984646 
L 50.446457 41.944346 
L 51.337254 41.903745 
L 52.22805 41.863258 
L 53.118847 41.823312 
L 54.009644 41.784329 
L 54.90044 41.74672 
L 55.791237 41.710866 
L 56.682034 41.677109 
L 57.57283 41.645744 
L 58.463627 41.617009 
L 59.354424 41.59108 
L 60.245221 41.568068 
L 61.136017 41.548018 
L 62.026814 41.530911 
L 62.917611 41.516665 
L 63.808407 41.505144 
L 64.699204 41.496162 
L 65.590001 41.489497 
L 66.480797 41.484899 
L 67.371594 41.482099 
L 68.262391 41.480829 
L 69.153187 41.480825 
L 70.043984 41.481848 
L 70.934781 41.483687 
L 71.825577 41.486174 
L 72.716374 41.489191 
L 73.607171 41.492678 
L 74.497967 41.496631 
L 75.388764 41.501114 
L 76.279561 41.506249 
L 77.170357 41.51222 
L 78.061154 41.519266 
L 78.951951 41.527674 
L 79.842747 41.537773 
L 80.733544 41.549922 
L 81.624341 41.5645 
L 82.515137 41.581894 
L 83.405934 41.602489 
L 84.296731 41.626652 
L 85.187527 41.654726 
L 86.078324 41.687009 
L 86.969121 41.723753 
L 87.859918 41.765147 
L 88.750714 41.811312 
L 89.641511 41.862293 
L 90.532308 41.918054 
L 91.423104 41.978476 
L 92.313901 42.043356 
L 93.204698 42.112407 
L 94.095494 42.185268 
L 94.986291 42.261501 
L 95.877088 42.340609 
L 96.767884 42.422042 
L 97.658681 42.505207 
L 98.549478 42.589487 
L 99.440274 42.674248 
L 100.331071 42.75886 
L 101.221868 42.842704 
L 102.112664 42.92519 
L 103.003461 43.005764 
L 103.894258 43.083923 
L 104.785054 43.159219 
" clip-path="url(#pe3d5be8b8d)" style="fill: none; stroke: #595959; stroke-linecap: square"/>
   </g>
   <g id="line2d_16">
    <path d="M 16.596183 43.944843 
L 17.48698 43.944843 
L 18.377777 43.944843 
L 19.268573 43.944843 
L 20.15937 43.944843 
L 21.050167 43.944843 
L 21.940963 43.944843 
L 22.83176 43.944843 
L 23.722557 43.944843 
L 24.613353 43.944843 
L 25.50415 43.944843 
L 26.394947 43.944843 
L 27.285743 43.944843 
L 28.17654 43.944843 
L 29.067337 43.944843 
L 29.958134 43.944843 
L 30.84893 43.944843 
L 31.739727 43.944843 
L 32.630524 43.944843 
L 33.52132 43.944843 
L 34.412117 43.944843 
L 35.302914 43.944843 
L 36.19371 43.944843 
L 37.084507 43.944843 
L 37.975304 43.944843 
L 38.8661 43.944843 
L 39.756897 43.944843 
L 40.647694 43.944843 
L 41.53849 43.944843 
L 42.429287 43.944843 
L 43.320084 43.944843 
L 44.21088 43.944843 
L 45.101677 43.944843 
L 45.992474 43.944843 
L 46.88327 43.944843 
L 47.774067 43.944843 
L 48.664864 43.944843 
L 49.55566 43.944843 
L 50.446457 43.944843 
L 51.337254 43.944843 
L 52.22805 43.944843 
L 53.118847 43.944843 
L 54.009644 43.944843 
L 54.90044 43.944843 
L 55.791237 43.944843 
L 56.682034 43.944843 
L 57.57283 43.944843 
L 58.463627 43.944843 
L 59.354424 43.944843 
L 60.245221 43.944843 
L 61.136017 43.944843 
L 62.026814 43.944833 
L 62.917611 43.943781 
L 63.808407 43.905184 
L 64.699204 43.452203 
L 65.590001 41.808413 
L 66.480797 39.91289 
L 67.371594 37.374679 
L 68.262391 32.042016 
L 69.153187 25.610967 
L 70.043984 16.587137 
L 70.934781 8.949754 
L 71.825577 9.995773 
L 72.716374 19.872195 
L 73.607171 29.074286 
L 74.497967 35.048437 
L 75.388764 40.00128 
L 76.279561 42.922621 
L 77.170357 43.819563 
L 78.061154 43.938866 
L 78.951951 43.944743 
L 79.842747 43.944842 
L 80.733544 43.944843 
L 81.624341 43.944843 
L 82.515137 43.944843 
L 83.405934 43.944843 
L 84.296731 43.944843 
L 85.187527 43.944843 
L 86.078324 43.944843 
L 86.969121 43.944843 
L 87.859918 43.944843 
L 88.750714 43.944843 
L 89.641511 43.944843 
L 90.532308 43.944843 
L 91.423104 43.944843 
L 92.313901 43.944843 
L 93.204698 43.944843 
L 94.095494 43.944843 
L 94.986291 43.944843 
L 95.877088 43.944843 
L 96.767884 43.944843 
L 97.658681 43.944843 
L 98.549478 43.944843 
L 99.440274 43.944843 
L 100.331071 43.944843 
L 101.221868 43.944843 
L 102.112664 43.944843 
L 103.003461 43.944843 
L 103.894258 43.944843 
L 104.785054 43.944843 
" clip-path="url(#pe3d5be8b8d)" style="fill: none; stroke-dasharray: 3.7,1.6; stroke-dashoffset: 0; stroke: #1f77b4"/>
   </g>
   <g id="patch_3">
    <path d="M 12.18674 45.694597 
L 12.18674 7.2 
" style="fill: none; stroke: #000000; stroke-width: 0.5; stroke-linejoin: miter; stroke-linecap: square"/>
   </g>
   <g id="patch_4">
    <path d="M 12.18674 45.694597 
L 109.194498 45.694597 
" style="fill: none; stroke: #000000; stroke-width: 0.5; stroke-linejoin: miter; stroke-linecap: square"/>
   </g>
   <g id="line2d_17">
    <path d="M 65.435274 43.582552 
L 65.562569 43.511109 
L 65.689864 43.427483 
L 65.817158 43.329996 
L 65.944453 43.216817 
L 66.071747 43.085966 
L 66.199042 42.935311 
L 66.326337 42.762581 
L 66.453631 42.565373 
L 66.580926 42.34117 
L 66.70822 42.087364 
L 66.835515 41.801277 
L 66.96281 41.480197 
L 67.090104 41.121412 
L 67.217399 40.722257 
L 67.344693 40.280158 
L 67.471988 39.792687 
L 67.599283 39.257622 
L 67.726577 38.673006 
L 67.853872 38.037213 
L 67.981166 37.349013 
L 68.108461 36.607643 
L 68.235756 35.812867 
L 68.36305 34.965044 
L 68.490345 34.065184 
L 68.617639 33.115002 
L 68.744934 32.116961 
L 68.872229 31.074305 
L 68.999523 29.991085 
L 69.126818 28.872163 
L 69.254112 27.72321 
L 69.381407 26.550683 
L 69.508702 25.361786 
L 69.635996 24.164417 
L 69.763291 22.967093 
L 69.890586 21.778861 
L 70.01788 20.609196 
L 70.145175 19.467882 
L 70.272469 18.364877 
L 70.399764 17.31018 
L 70.527059 16.313674 
L 70.654353 15.384981 
L 70.781648 14.533305 
L 70.908942 13.76728 
L 71.036237 13.094827 
L 71.163532 12.523017 
L 71.290826 12.057947 
L 71.418121 11.704633 
L 71.545415 11.466919 
L 71.67271 11.347405 
L 71.800005 11.347405 
L 71.927299 11.466919 
L 72.054594 11.704633 
L 72.181888 12.057947 
L 72.309183 12.523017 
L 72.436478 13.094827 
L 72.563772 13.76728 
L 72.691067 14.533305 
L 72.818361 15.384981 
L 72.945656 16.313674 
L 73.072951 17.31018 
L 73.200245 18.364877 
L 73.32754 19.467882 
L 73.454834 20.609196 
L 73.582129 21.778861 
L 73.709424 22.967093 
L 73.836718 24.164417 
L 73.964013 25.361786 
L 74.091307 26.550683 
L 74.218602 27.72321 
L 74.345897 28.872163 
L 74.473191 29.991085 
L 74.600486 31.074305 
L 74.72778 32.116961 
L 74.855075 33.115002 
L 74.98237 34.065184 
L 75.109664 34.965044 
L 75.236959 35.812867 
L 75.364254 36.607643 
L 75.491548 37.349013 
L 75.618843 38.037213 
L 75.746137 38.673006 
L 75.873432 39.257622 
L 76.000727 39.792687 
L 76.128021 40.280158 
L 76.255316 40.722257 
L 76.38261 41.121412 
L 76.509905 41.480197 
L 76.6372 41.801277 
L 76.764494 42.087364 
L 76.891789 42.34117 
L 77.019083 42.565373 
L 77.146378 42.762581 
L 77.273673 42.935311 
L 77.400967 43.085966 
L 77.528262 43.216817 
L 77.655556 43.329996 
L 77.782851 43.427483 
L 77.910146 43.511109 
L 78.03744 43.582552 
" clip-path="url(#pe3d5be8b8d)" style="fill: none; stroke: #000000; stroke-linecap: square"/>
   </g>
   <g id="line2d_18">
    <path d="M 71.736357 45.694597 
L 71.736357 7.2 
" clip-path="url(#pe3d5be8b8d)" style="fill: none; stroke: #000000; stroke-linecap: square"/>
   </g>
  </g>
  <g id="axes_2">
   <g id="patch_5">
    <path d="M 121.632765 45.694597 
L 218.640524 45.694597 
L 218.640524 7.2 
L 121.632765 7.2 
z
" style="fill: #ffffff"/>
   </g>
   <g id="matplotlib.axis_3">
    <g id="xtick_6">
     <g id="line2d_19">
      <path d="M 139.541651 45.694597 
L 139.541651 7.2 
" clip-path="url(#p965a9e830a)" style="fill: none; stroke: #d3d3d3; stroke-width: 0.5; stroke-linecap: square"/>
     </g>
     <g id="line2d_20">
      <g>
       <use xlink:href="#maffd2b0b53" x="139.541651" y="45.694597" style="stroke: #000000; stroke-width: 0.8"/>
      </g>
     </g>
     <g id="text_7">
      <!-- −40 -->
      <g transform="translate(133.210245 56.25366) scale(0.06 -0.06)">
       <defs>
        <path id="DejaVuSerif-2212" d="M 678 2259 
L 4684 2259 
L 4684 1753 
L 678 1753 
L 678 2259 
z
" transform="scale(0.015625)"/>
        <path id="DejaVuSerif-34" d="M 2234 1581 
L 2234 4063 
L 641 1581 
L 2234 1581 
z
M 3609 0 
L 1484 0 
L 1484 331 
L 2234 331 
L 2234 1247 
L 197 1247 
L 197 1588 
L 2241 4750 
L 2859 4750 
L 2859 1581 
L 3750 1581 
L 3750 1247 
L 2859 1247 
L 2859 331 
L 3609 331 
L 3609 0 
z
" transform="scale(0.015625)"/>
       </defs>
       <use xlink:href="#DejaVuSerif-2212"/>
       <use xlink:href="#DejaVuSerif-34" x="83.789062"/>
       <use xlink:href="#DejaVuSerif-30" x="147.412109"/>
      </g>
     </g>
    </g>
    <g id="xtick_7">
     <g id="line2d_21">
      <path d="M 165.15452 45.694597 
L 165.15452 7.2 
" clip-path="url(#p965a9e830a)" style="fill: none; stroke: #d3d3d3; stroke-width: 0.5; stroke-linecap: square"/>
     </g>
     <g id="line2d_22">
      <g>
       <use xlink:href="#maffd2b0b53" x="165.15452" y="45.694597" style="stroke: #000000; stroke-width: 0.8"/>
      </g>
     </g>
     <g id="text_8">
      <!-- −20 -->
      <g transform="translate(158.823114 56.25366) scale(0.06 -0.06)">
       <defs>
        <path id="DejaVuSerif-32" d="M 819 3553 
L 469 3553 
L 469 4384 
Q 803 4563 1142 4656 
Q 1481 4750 1806 4750 
Q 2534 4750 2956 4397 
Q 3378 4044 3378 3438 
Q 3378 2753 2422 1800 
Q 2347 1728 2309 1691 
L 1131 513 
L 3078 513 
L 3078 1088 
L 3444 1088 
L 3444 0 
L 434 0 
L 434 341 
L 1850 1753 
Q 2319 2222 2519 2614 
Q 2719 3006 2719 3438 
Q 2719 3909 2473 4175 
Q 2228 4441 1797 4441 
Q 1350 4441 1106 4219 
Q 863 3997 819 3553 
z
" transform="scale(0.015625)"/>
       </defs>
       <use xlink:href="#DejaVuSerif-2212"/>
       <use xlink:href="#DejaVuSerif-32" x="83.789062"/>
       <use xlink:href="#DejaVuSerif-30" x="147.412109"/>
      </g>
     </g>
    </g>
    <g id="xtick_8">
     <g id="line2d_23">
      <path d="M 190.76739 45.694597 
L 190.76739 7.2 
" clip-path="url(#p965a9e830a)" style="fill: none; stroke: #d3d3d3; stroke-width: 0.5; stroke-linecap: square"/>
     </g>
     <g id="line2d_24">
      <g>
       <use xlink:href="#maffd2b0b53" x="190.76739" y="45.694597" style="stroke: #000000; stroke-width: 0.8"/>
      </g>
     </g>
     <g id="text_9">
      <!-- 0 -->
      <g transform="translate(188.85864 56.25366) scale(0.06 -0.06)">
       <use xlink:href="#DejaVuSerif-30"/>
      </g>
     </g>
    </g>
    <g id="xtick_9">
     <g id="line2d_25">
      <path d="M 216.38026 45.694597 
L 216.38026 7.2 
" clip-path="url(#p965a9e830a)" style="fill: none; stroke: #d3d3d3; stroke-width: 0.5; stroke-linecap: square"/>
     </g>
     <g id="line2d_26">
      <g>
       <use xlink:href="#maffd2b0b53" x="216.38026" y="45.694597" style="stroke: #000000; stroke-width: 0.8"/>
      </g>
     </g>
     <g id="text_10">
      <!-- 20 -->
      <g transform="translate(212.56276 56.25366) scale(0.06 -0.06)">
       <use xlink:href="#DejaVuSerif-32"/>
       <use xlink:href="#DejaVuSerif-30" x="63.623047"/>
      </g>
     </g>
    </g>
    <g id="text_11">
     <!-- Cloud top rate [m/h] -->
     <g transform="translate(139.097894 66.060535) scale(0.06 -0.06)">
      <defs>
       <path id="DejaVuSerif-72" d="M 3059 3328 
L 3059 2497 
L 2728 2497 
Q 2713 2744 2591 2866 
Q 2469 2988 2234 2988 
Q 1809 2988 1582 2694 
Q 1356 2400 1356 1850 
L 1356 331 
L 2022 331 
L 2022 0 
L 263 0 
L 263 331 
L 781 331 
L 781 2994 
L 231 2994 
L 231 3322 
L 1356 3322 
L 1356 2731 
Q 1525 3078 1790 3245 
Q 2056 3413 2438 3413 
Q 2578 3413 2733 3391 
Q 2888 3369 3059 3328 
z
" transform="scale(0.015625)"/>
       <path id="DejaVuSerif-61" d="M 2547 1044 
L 2547 1747 
L 1806 1747 
Q 1378 1747 1168 1562 
Q 959 1378 959 997 
Q 959 650 1171 447 
Q 1384 244 1747 244 
Q 2106 244 2326 466 
Q 2547 688 2547 1044 
z
M 3122 2075 
L 3122 331 
L 3634 331 
L 3634 0 
L 2547 0 
L 2547 359 
Q 2356 128 2106 18 
Q 1856 -91 1522 -91 
Q 969 -91 644 203 
Q 319 497 319 997 
Q 319 1513 691 1797 
Q 1063 2081 1741 2081 
L 2547 2081 
L 2547 2309 
Q 2547 2688 2317 2895 
Q 2088 3103 1672 3103 
Q 1328 3103 1125 2947 
Q 922 2791 872 2484 
L 575 2484 
L 575 3156 
Q 875 3284 1158 3348 
Q 1441 3413 1709 3413 
Q 2400 3413 2761 3070 
Q 3122 2728 3122 2075 
z
" transform="scale(0.015625)"/>
       <path id="DejaVuSerif-2f" d="M 1656 4666 
L 2156 4666 
L 500 -594 
L 0 -594 
L 1656 4666 
z
" transform="scale(0.015625)"/>
      </defs>
      <use xlink:href="#DejaVuSerif-43"/>
      <use xlink:href="#DejaVuSerif-6c" x="76.513672"/>
      <use xlink:href="#DejaVuSerif-6f" x="108.496094"/>
      <use xlink:href="#DejaVuSerif-75" x="168.701172"/>
      <use xlink:href="#DejaVuSerif-64" x="233.105469"/>
      <use xlink:href="#DejaVuSerif-20" x="297.119141"/>
      <use xlink:href="#DejaVuSerif-74" x="328.90625"/>
      <use xlink:href="#DejaVuSerif-6f" x="369.091797"/>
      <use xlink:href="#DejaVuSerif-70" x="429.296875"/>
      <use xlink:href="#DejaVuSerif-20" x="493.310547"/>
      <use xlink:href="#DejaVuSerif-72" x="525.097656"/>
      <use xlink:href="#DejaVuSerif-61" x="572.900391"/>
      <use xlink:href="#DejaVuSerif-74" x="632.519531"/>
      <use xlink:href="#DejaVuSerif-65" x="672.705078"/>
      <use xlink:href="#DejaVuSerif-20" x="731.884766"/>
      <use xlink:href="#DejaVuSerif-5b" x="763.671875"/>
      <use xlink:href="#DejaVuSerif-6d" x="802.685547"/>
      <use xlink:href="#DejaVuSerif-2f" x="897.509766"/>
      <use xlink:href="#DejaVuSerif-68" x="931.201172"/>
      <use xlink:href="#DejaVuSerif-5d" x="995.605469"/>
     </g>
    </g>
   </g>
   <g id="matplotlib.axis_4">
    <g id="ytick_3">
     <g id="line2d_27">
      <path d="M 121.632765 43.944843 
L 218.640524 43.944843 
" clip-path="url(#p965a9e830a)" style="fill: none; stroke: #d3d3d3; stroke-width: 0.5; stroke-linecap: square"/>
     </g>
     <g id="line2d_28">
      <g>
       <use xlink:href="#m56aba532ee" x="121.632765" y="43.944843" style="stroke: #000000; stroke-width: 0.8"/>
      </g>
     </g>
    </g>
    <g id="ytick_4">
     <g id="line2d_29">
      <path d="M 121.632765 30.733769 
L 218.640524 30.733769 
" clip-path="url(#p965a9e830a)" style="fill: none; stroke: #d3d3d3; stroke-width: 0.5; stroke-linecap: square"/>
     </g>
     <g id="line2d_30">
      <g>
       <use xlink:href="#m56aba532ee" x="121.632765" y="30.733769" style="stroke: #000000; stroke-width: 0.8"/>
      </g>
     </g>
    </g>
    <g id="ytick_5">
     <g id="line2d_31">
      <path d="M 121.632765 17.522695 
L 218.640524 17.522695 
" clip-path="url(#p965a9e830a)" style="fill: none; stroke: #d3d3d3; stroke-width: 0.5; stroke-linecap: square"/>
     </g>
     <g id="line2d_32">
      <g>
       <use xlink:href="#m56aba532ee" x="121.632765" y="17.522695" style="stroke: #000000; stroke-width: 0.8"/>
      </g>
     </g>
    </g>
   </g>
   <g id="line2d_33">
    <path d="M 126.042209 43.657785 
L 126.933006 43.63975 
L 127.823802 43.622201 
L 128.714599 43.6052 
L 129.605396 43.588772 
L 130.496192 43.572908 
L 131.386989 43.557564 
L 132.277786 43.542657 
L 133.168582 43.528072 
L 134.059379 43.513665 
L 134.950176 43.499258 
L 135.840972 43.484652 
L 136.731769 43.469623 
L 137.622566 43.453927 
L 138.513362 43.437303 
L 139.404159 43.419474 
L 140.294956 43.400153 
L 141.185752 43.379044 
L 142.076549 43.355847 
L 142.967346 43.330266 
L 143.858142 43.302008 
L 144.748939 43.270798 
L 145.639736 43.236383 
L 146.530533 43.198542 
L 147.421329 43.157092 
L 148.312126 43.1119 
L 149.202923 43.062886 
L 150.093719 43.010032 
L 150.984516 42.953379 
L 151.875313 42.893028 
L 152.766109 42.829139 
L 153.656906 42.761921 
L 154.547703 42.691624 
L 155.438499 42.618527 
L 156.329296 42.542926 
L 157.220093 42.465125 
L 158.110889 42.385419 
L 159.001686 42.304091 
L 159.892483 42.221402 
L 160.783279 42.137591 
L 161.674076 42.052872 
L 162.564873 41.967445 
L 163.455669 41.881493 
L 164.346466 41.795202 
L 165.237263 41.708768 
L 166.128059 41.622409 
L 167.018856 41.536381 
L 167.909653 41.450988 
L 168.800449 41.366594 
L 169.691246 41.283634 
L 170.582043 41.202613 
L 171.472839 41.124115 
L 172.363636 41.048797 
L 173.254433 40.977378 
L 174.14523 40.910632 
L 175.036026 40.849364 
L 175.926823 40.794386 
L 176.81762 40.74649 
L 177.708416 40.706412 
L 178.599213 40.674799 
L 179.49001 40.652171 
L 180.380806 40.638892 
L 181.271603 40.635134 
L 182.1624 40.640864 
L 183.053196 40.655826 
L 183.943993 40.679544 
L 184.83479 40.711331 
L 185.725586 40.750312 
L 186.616383 40.795464 
L 187.50718 40.845658 
L 188.397976 40.899713 
L 189.288773 40.956452 
L 190.17957 41.014766 
L 191.070366 41.073661 
L 191.961163 41.132313 
L 192.85196 41.190103 
L 193.742756 41.246645 
L 194.633553 41.301796 
L 195.52435 41.355654 
L 196.415146 41.408543 
L 197.305943 41.460977 
L 198.19674 41.513627 
L 199.087536 41.567262 
L 199.978333 41.622704 
L 200.86913 41.680764 
L 201.759926 41.742195 
L 202.650723 41.807638 
L 203.54152 41.877587 
L 204.432317 41.952351 
L 205.323113 42.032039 
L 206.21391 42.116552 
L 207.104707 42.20558 
L 207.995503 42.298624 
L 208.8863 42.395012 
L 209.777097 42.49393 
L 210.667893 42.594463 
L 211.55869 42.695626 
L 212.449487 42.796407 
L 213.340283 42.895804 
L 214.23108 42.99286 
" clip-path="url(#p965a9e830a)" style="fill: none; stroke: #595959; stroke-linecap: square"/>
   </g>
   <g id="line2d_34">
    <path d="M 126.042209 43.944843 
L 126.933006 43.944843 
L 127.823802 43.944843 
L 128.714599 43.944843 
L 129.605396 43.944843 
L 130.496192 43.944843 
L 131.386989 43.944843 
L 132.277786 43.944843 
L 133.168582 43.944843 
L 134.059379 43.944843 
L 134.950176 43.944843 
L 135.840972 43.944843 
L 136.731769 43.944843 
L 137.622566 43.944843 
L 138.513362 43.944843 
L 139.404159 43.944843 
L 140.294956 43.944843 
L 141.185752 43.944843 
L 142.076549 43.944843 
L 142.967346 43.944843 
L 143.858142 43.944843 
L 144.748939 43.944843 
L 145.639736 43.944843 
L 146.530533 43.944843 
L 147.421329 43.944843 
L 148.312126 43.944843 
L 149.202923 43.944843 
L 150.093719 43.944843 
L 150.984516 43.944843 
L 151.875313 43.944843 
L 152.766109 43.944843 
L 153.656906 43.944843 
L 154.547703 43.944843 
L 155.438499 43.944843 
L 156.329296 43.944843 
L 157.220093 43.944843 
L 158.110889 43.944843 
L 159.001686 43.944843 
L 159.892483 43.944843 
L 160.783279 43.944843 
L 161.674076 43.944843 
L 162.564873 43.944843 
L 163.455669 43.944843 
L 164.346466 43.944843 
L 165.237263 43.944843 
L 166.128059 43.944843 
L 167.018856 43.944843 
L 167.909653 43.944843 
L 168.800449 43.944843 
L 169.691246 43.944843 
L 170.582043 43.944843 
L 171.472839 43.944843 
L 172.363636 43.944843 
L 173.254433 43.944843 
L 174.14523 43.944843 
L 175.036026 43.944843 
L 175.926823 43.944843 
L 176.81762 43.944843 
L 177.708416 43.944843 
L 178.599213 43.944843 
L 179.49001 43.944843 
L 180.380806 43.944843 
L 181.271603 43.944843 
L 182.1624 43.944843 
L 183.053196 43.944843 
L 183.943993 43.944843 
L 184.83479 43.944843 
L 185.725586 43.944843 
L 186.616383 43.944843 
L 187.50718 43.944843 
L 188.397976 43.944843 
L 189.288773 43.944843 
L 190.17957 43.944843 
L 191.070366 43.944835 
L 191.961163 43.944036 
L 192.85196 43.915064 
L 193.742756 43.545261 
L 194.633553 41.805691 
L 195.52435 38.488711 
L 196.415146 34.765335 
L 197.305943 28.245823 
L 198.19674 17.513838 
L 199.087536 8.949754 
L 199.978333 10.605471 
L 200.86913 18.931032 
L 201.759926 25.982473 
L 202.650723 33.935178 
L 203.54152 40.348748 
L 204.432317 41.507911 
L 205.323113 41.674387 
L 206.21391 43.091757 
L 207.104707 43.834207 
L 207.995503 43.939947 
L 208.8863 43.944769 
L 209.777097 43.944842 
L 210.667893 43.944843 
L 211.55869 43.944843 
L 212.449487 43.944843 
L 213.340283 43.944843 
L 214.23108 43.944843 
" clip-path="url(#p965a9e830a)" style="fill: none; stroke-dasharray: 3.7,1.6; stroke-dashoffset: 0; stroke: #1f77b4"/>
   </g>
   <g id="patch_6">
    <path d="M 121.632765 45.694597 
L 121.632765 7.2 
" style="fill: none; stroke: #000000; stroke-width: 0.5; stroke-linejoin: miter; stroke-linecap: square"/>
   </g>
   <g id="patch_7">
    <path d="M 121.632765 45.694597 
L 218.640524 45.694597 
" style="fill: none; stroke: #000000; stroke-width: 0.5; stroke-linejoin: miter; stroke-linecap: square"/>
   </g>
   <g id="line2d_35">
    <path d="M 193.168597 43.632579 
L 193.314124 43.571002 
L 193.459652 43.498923 
L 193.60518 43.414897 
L 193.750707 43.317347 
L 193.896235 43.204565 
L 194.041763 43.074713 
L 194.18729 42.925835 
L 194.332818 42.755858 
L 194.478346 42.562615 
L 194.623873 42.343856 
L 194.769401 42.097273 
L 194.914929 41.820529 
L 195.060456 41.511288 
L 195.205984 41.16725 
L 195.351512 40.786198 
L 195.497039 40.366041 
L 195.642567 39.904861 
L 195.788095 39.400972 
L 195.933622 38.852972 
L 196.07915 38.259803 
L 196.224678 37.620806 
L 196.370205 36.935777 
L 196.515733 36.205026 
L 196.661261 35.429424 
L 196.806788 34.610449 
L 196.952316 33.750223 
L 197.097844 32.851543 
L 197.243371 31.9179 
L 197.388899 30.953485 
L 197.534427 29.963186 
L 197.679954 28.952569 
L 197.825482 27.927842 
L 197.97101 26.895813 
L 198.116537 25.863822 
L 198.262065 24.839667 
L 198.407593 23.831517 
L 198.55312 22.847801 
L 198.698648 21.897106 
L 198.844176 20.988047 
L 198.989703 20.129145 
L 199.135231 19.328692 
L 199.280759 18.594619 
L 199.426286 17.934371 
L 199.571814 17.354775 
L 199.717342 16.861924 
L 199.862869 16.461074 
L 200.008397 16.156547 
L 200.153925 15.951658 
L 200.299452 15.848647 
L 200.44498 15.848647 
L 200.590508 15.951658 
L 200.736035 16.156547 
L 200.881563 16.461074 
L 201.027091 16.861924 
L 201.172618 17.354775 
L 201.318146 17.934371 
L 201.463674 18.594619 
L 201.609201 19.328692 
L 201.754729 20.129145 
L 201.900257 20.988047 
L 202.045784 21.897106 
L 202.191312 22.847801 
L 202.33684 23.831517 
L 202.482367 24.839667 
L 202.627895 25.863822 
L 202.773423 26.895813 
L 202.91895 27.927842 
L 203.064478 28.952569 
L 203.210006 29.963186 
L 203.355533 30.953485 
L 203.501061 31.9179 
L 203.646589 32.851543 
L 203.792116 33.750223 
L 203.937644 34.610449 
L 204.083172 35.429424 
L 204.228699 36.205026 
L 204.374227 36.935777 
L 204.519755 37.620806 
L 204.665282 38.259803 
L 204.81081 38.852972 
L 204.956338 39.400972 
L 205.101865 39.904861 
L 205.247393 40.366041 
L 205.392921 40.786198 
L 205.538448 41.16725 
L 205.683976 41.511288 
L 205.829504 41.820529 
L 205.975031 42.097273 
L 206.120559 42.343856 
L 206.266087 42.562615 
L 206.411614 42.755858 
L 206.557142 42.925835 
L 206.70267 43.074713 
L 206.848197 43.204565 
L 206.993725 43.317347 
L 207.139253 43.414897 
L 207.28478 43.498923 
L 207.430308 43.571002 
L 207.575836 43.632579 
" clip-path="url(#p965a9e830a)" style="fill: none; stroke: #000000; stroke-linecap: square"/>
   </g>
   <g id="line2d_36">
    <path d="M 200.372216 45.694597 
L 200.372216 7.2 
" clip-path="url(#p965a9e830a)" style="fill: none; stroke: #000000; stroke-linecap: square"/>
   </g>
  </g>
  <g id="axes_3">
   <g id="patch_8">
    <path d="M 12.18674 112.269194 
L 109.194498 112.269194 
L 109.194498 73.774597 
L 12.18674 73.774597 
z
" style="fill: #ffffff"/>
   </g>
   <g id="matplotlib.axis_5">
    <g id="xtick_10">
     <g id="line2d_37">
      <path d="M 26.289493 112.269194 
L 26.289493 73.774597 
" clip-path="url(#p3e7e89bed3)" style="fill: none; stroke: #d3d3d3; stroke-width: 0.5; stroke-linecap: square"/>
     </g>
     <g id="line2d_38">
      <g>
       <use xlink:href="#maffd2b0b53" x="26.289493" y="112.269194" style="stroke: #000000; stroke-width: 0.8"/>
      </g>
     </g>
     <g id="text_12">
      <!-- 500 -->
      <g transform="translate(20.563243 122.828257) scale(0.06 -0.06)">
       <use xlink:href="#DejaVuSerif-35"/>
       <use xlink:href="#DejaVuSerif-30" x="63.623047"/>
       <use xlink:href="#DejaVuSerif-30" x="127.246094"/>
      </g>
     </g>
    </g>
    <g id="xtick_11">
     <g id="line2d_39">
      <path d="M 50.522767 112.269194 
L 50.522767 73.774597 
" clip-path="url(#p3e7e89bed3)" style="fill: none; stroke: #d3d3d3; stroke-width: 0.5; stroke-linecap: square"/>
     </g>
     <g id="line2d_40">
      <g>
       <use xlink:href="#maffd2b0b53" x="50.522767" y="112.269194" style="stroke: #000000; stroke-width: 0.8"/>
      </g>
     </g>
     <g id="text_13">
      <!-- 600 -->
      <g transform="translate(44.796517 122.828257) scale(0.06 -0.06)">
       <defs>
        <path id="DejaVuSerif-36" d="M 2094 219 
Q 2534 219 2771 542 
Q 3009 866 3009 1472 
Q 3009 2078 2771 2401 
Q 2534 2725 2094 2725 
Q 1647 2725 1412 2412 
Q 1178 2100 1178 1509 
Q 1178 888 1415 553 
Q 1653 219 2094 219 
z
M 1075 2569 
Q 1288 2803 1556 2918 
Q 1825 3034 2163 3034 
Q 2859 3034 3264 2615 
Q 3669 2197 3669 1472 
Q 3669 763 3233 336 
Q 2797 -91 2069 -91 
Q 1278 -91 853 498 
Q 428 1088 428 2181 
Q 428 3406 931 4078 
Q 1434 4750 2350 4750 
Q 2597 4750 2869 4703 
Q 3141 4656 3425 4563 
L 3425 3794 
L 3072 3794 
Q 3034 4109 2831 4275 
Q 2628 4441 2284 4441 
Q 1678 4441 1381 3981 
Q 1084 3522 1075 2569 
z
" transform="scale(0.015625)"/>
       </defs>
       <use xlink:href="#DejaVuSerif-36"/>
       <use xlink:href="#DejaVuSerif-30" x="63.623047"/>
       <use xlink:href="#DejaVuSerif-30" x="127.246094"/>
      </g>
     </g>
    </g>
    <g id="xtick_12">
     <g id="line2d_41">
      <path d="M 74.756041 112.269194 
L 74.756041 73.774597 
" clip-path="url(#p3e7e89bed3)" style="fill: none; stroke: #d3d3d3; stroke-width: 0.5; stroke-linecap: square"/>
     </g>
     <g id="line2d_42">
      <g>
       <use xlink:href="#maffd2b0b53" x="74.756041" y="112.269194" style="stroke: #000000; stroke-width: 0.8"/>
      </g>
     </g>
     <g id="text_14">
      <!-- 700 -->
      <g transform="translate(69.029791 122.828257) scale(0.06 -0.06)">
       <use xlink:href="#DejaVuSerif-37"/>
       <use xlink:href="#DejaVuSerif-30" x="63.623047"/>
       <use xlink:href="#DejaVuSerif-30" x="127.246094"/>
      </g>
     </g>
    </g>
    <g id="xtick_13">
     <g id="line2d_43">
      <path d="M 98.989315 112.269194 
L 98.989315 73.774597 
" clip-path="url(#p3e7e89bed3)" style="fill: none; stroke: #d3d3d3; stroke-width: 0.5; stroke-linecap: square"/>
     </g>
     <g id="line2d_44">
      <g>
       <use xlink:href="#maffd2b0b53" x="98.989315" y="112.269194" style="stroke: #000000; stroke-width: 0.8"/>
      </g>
     </g>
     <g id="text_15">
      <!-- 800 -->
      <g transform="translate(93.263065 122.828257) scale(0.06 -0.06)">
       <use xlink:href="#DejaVuSerif-38"/>
       <use xlink:href="#DejaVuSerif-30" x="63.623047"/>
       <use xlink:href="#DejaVuSerif-30" x="127.246094"/>
      </g>
     </g>
    </g>
    <g id="text_16">
     <!-- Cloud base height [m] -->
     <g transform="translate(26.980931 132.635132) scale(0.06 -0.06)">
      <defs>
       <path id="DejaVuSerif-62" d="M 738 331 
L 738 4531 
L 184 4531 
L 184 4863 
L 1313 4863 
L 1313 2803 
Q 1481 3116 1742 3264 
Q 2003 3413 2388 3413 
Q 3000 3413 3387 2928 
Q 3775 2444 3775 1663 
Q 3775 881 3387 395 
Q 3000 -91 2388 -91 
Q 2003 -91 1742 57 
Q 1481 206 1313 519 
L 1313 0 
L 184 0 
L 184 331 
L 738 331 
z
M 1313 1497 
Q 1313 897 1542 583 
Q 1772 269 2209 269 
Q 2650 269 2876 622 
Q 3103 975 3103 1663 
Q 3103 2353 2876 2703 
Q 2650 3053 2209 3053 
Q 1772 3053 1542 2737 
Q 1313 2422 1313 1825 
L 1313 1497 
z
" transform="scale(0.015625)"/>
       <path id="DejaVuSerif-73" d="M 359 184 
L 359 959 
L 691 959 
Q 703 588 923 403 
Q 1144 219 1575 219 
Q 1963 219 2166 364 
Q 2369 509 2369 788 
Q 2369 1006 2220 1140 
Q 2072 1275 1594 1428 
L 1178 1569 
Q 750 1706 558 1912 
Q 366 2119 366 2438 
Q 366 2894 700 3153 
Q 1034 3413 1625 3413 
Q 1888 3413 2178 3344 
Q 2469 3275 2778 3144 
L 2778 2419 
L 2447 2419 
Q 2434 2741 2221 2922 
Q 2009 3103 1644 3103 
Q 1281 3103 1095 2975 
Q 909 2847 909 2591 
Q 909 2381 1050 2254 
Q 1191 2128 1613 1997 
L 2069 1856 
Q 2541 1709 2748 1489 
Q 2956 1269 2956 922 
Q 2956 450 2595 179 
Q 2234 -91 1600 -91 
Q 1278 -91 972 -22 
Q 666 47 359 184 
z
" transform="scale(0.015625)"/>
      </defs>
      <use xlink:href="#DejaVuSerif-43"/>
      <use xlink:href="#DejaVuSerif-6c" x="76.513672"/>
      <use xlink:href="#DejaVuSerif-6f" x="108.496094"/>
      <use xlink:href="#DejaVuSerif-75" x="168.701172"/>
      <use xlink:href="#DejaVuSerif-64" x="233.105469"/>
      <use xlink:href="#DejaVuSerif-20" x="297.119141"/>
      <use xlink:href="#DejaVuSerif-62" x="328.90625"/>
      <use xlink:href="#DejaVuSerif-61" x="392.919922"/>
      <use xlink:href="#DejaVuSerif-73" x="452.539062"/>
      <use xlink:href="#DejaVuSerif-65" x="503.857422"/>
      <use xlink:href="#DejaVuSerif-20" x="563.037109"/>
      <use xlink:href="#DejaVuSerif-68" x="594.824219"/>
      <use xlink:href="#DejaVuSerif-65" x="659.228516"/>
      <use xlink:href="#DejaVuSerif-69" x="718.408203"/>
      <use xlink:href="#DejaVuSerif-67" x="750.390625"/>
      <use xlink:href="#DejaVuSerif-68" x="814.404297"/>
      <use xlink:href="#DejaVuSerif-74" x="878.808594"/>
      <use xlink:href="#DejaVuSerif-20" x="918.994141"/>
      <use xlink:href="#DejaVuSerif-5b" x="950.78125"/>
      <use xlink:href="#DejaVuSerif-6d" x="989.794922"/>
      <use xlink:href="#DejaVuSerif-5d" x="1084.619141"/>
     </g>
    </g>
   </g>
   <g id="matplotlib.axis_6">
    <g id="ytick_6">
     <g id="line2d_45">
      <path d="M 12.18674 110.51944 
L 109.194498 110.51944 
" clip-path="url(#p3e7e89bed3)" style="fill: none; stroke: #d3d3d3; stroke-width: 0.5; stroke-linecap: square"/>
     </g>
     <g id="line2d_46">
      <g>
       <use xlink:href="#m56aba532ee" x="12.18674" y="110.51944" style="stroke: #000000; stroke-width: 0.8"/>
      </g>
     </g>
    </g>
    <g id="ytick_7">
     <g id="line2d_47">
      <path d="M 12.18674 90.178345 
L 109.194498 90.178345 
" clip-path="url(#p3e7e89bed3)" style="fill: none; stroke: #d3d3d3; stroke-width: 0.5; stroke-linecap: square"/>
     </g>
     <g id="line2d_48">
      <g>
       <use xlink:href="#m56aba532ee" x="12.18674" y="90.178345" style="stroke: #000000; stroke-width: 0.8"/>
      </g>
     </g>
    </g>
   </g>
   <g id="line2d_49">
    <path d="M 43.014187 109.451194 
L 43.638135 109.332736 
L 44.262083 109.206502 
L 44.886032 109.07252 
L 45.50998 108.930894 
L 46.133928 108.781818 
L 46.757876 108.625588 
L 47.381824 108.46261 
L 48.005772 108.293404 
L 48.62972 108.118604 
L 49.253669 107.938948 
L 49.877617 107.755263 
L 50.501565 107.568443 
L 51.125513 107.379411 
L 51.749461 107.189086 
L 52.373409 106.998338 
L 52.997358 106.807946 
L 53.621306 106.618558 
L 54.245254 106.430653 
L 54.869202 106.244529 
L 55.49315 106.060292 
L 56.117098 105.877875 
L 56.741046 105.697077 
L 57.364995 105.51762 
L 57.988943 105.339235 
L 58.612891 105.161751 
L 59.236839 104.985199 
L 59.860787 104.809914 
L 60.484735 104.636622 
L 61.108684 104.466502 
L 61.732632 104.301221 
L 62.35658 104.142923 
L 62.980528 103.99417 
L 63.604476 103.857846 
L 64.228424 103.737009 
L 64.852372 103.634715 
L 65.476321 103.553819 
L 66.100269 103.496775 
L 66.724217 103.465443 
L 67.348165 103.460933 
L 67.972113 103.483481 
L 68.596061 103.5324 
L 69.22001 103.606079 
L 69.843958 103.702054 
L 70.467906 103.817137 
L 71.091854 103.947595 
L 71.715802 104.089362 
L 72.33975 104.238273 
L 72.963698 104.390287 
L 73.587647 104.541704 
L 74.211595 104.689334 
L 74.835543 104.83063 
L 75.459491 104.963764 
L 76.083439 105.087657 
L 76.707387 105.201949 
L 77.331336 105.306941 
L 77.955284 105.403498 
L 78.579232 105.492938 
L 79.20318 105.576911 
L 79.827128 105.657285 
L 80.451076 105.736039 
L 81.075024 105.815177 
L 81.698973 105.896652 
L 82.322921 105.98231 
L 82.946869 106.073844 
L 83.570817 106.172762 
L 84.194765 106.280345 
L 84.818713 106.397625 
L 85.442662 106.525341 
L 86.06661 106.663915 
L 86.690558 106.813409 
L 87.314506 106.973504 
L 87.938454 107.143475 
L 88.562402 107.322187 
L 89.186351 107.50811 
L 89.810299 107.699346 
L 90.434247 107.893688 
L 91.058195 108.088694 
L 91.682143 108.28178 
L 92.306091 108.470321 
L 92.930039 108.65177 
L 93.553988 108.823759 
L 94.177936 108.984208 
L 94.801884 109.131412 
L 95.425832 109.264109 
L 96.04978 109.381523 
L 96.673728 109.483389 
L 97.297677 109.569941 
L 97.921625 109.641883 
L 98.545573 109.700338 
L 99.169521 109.746772 
L 99.793469 109.782914 
L 100.417417 109.810661 
L 101.041365 109.831985 
L 101.665314 109.848839 
L 102.289262 109.863071 
L 102.91321 109.876355 
L 103.537158 109.890128 
L 104.161106 109.905549 
L 104.785054 109.923474 
" clip-path="url(#p3e7e89bed3)" style="fill: none; stroke: #595959; stroke-linecap: square"/>
   </g>
   <g id="line2d_50">
    <path d="M 43.014187 110.51944 
L 43.638135 110.519439 
L 44.262083 110.51942 
L 44.886032 110.519211 
L 45.50998 110.517475 
L 46.133928 110.506857 
L 46.757876 110.458945 
L 47.381824 110.298918 
L 48.005772 109.900328 
L 48.62972 109.148132 
L 49.253669 108.039556 
L 49.877617 106.6974 
L 50.501565 105.273893 
L 51.125513 103.889599 
L 51.749461 102.615538 
L 52.373409 101.266055 
L 52.997358 99.115108 
L 53.621306 95.256531 
L 54.245254 89.66981 
L 54.869202 83.695015 
L 55.49315 79.064264 
L 56.117098 76.499025 
L 56.741046 75.524352 
L 57.364995 75.610282 
L 57.988943 76.970887 
L 58.612891 80.043085 
L 59.236839 84.691956 
L 59.860787 90.184828 
L 60.484735 95.619826 
L 61.108684 100.338407 
L 61.732632 104.120756 
L 62.35658 106.972583 
L 62.980528 108.880303 
L 63.604476 109.917399 
L 64.228424 110.349073 
L 64.852372 110.48294 
L 65.476321 110.513574 
L 66.100269 110.518736 
L 66.724217 110.519377 
L 67.348165 110.519436 
L 67.972113 110.51944 
L 68.596061 110.51944 
L 69.22001 110.51944 
L 69.843958 110.51944 
L 70.467906 110.51944 
L 71.091854 110.51944 
L 71.715802 110.51944 
L 72.33975 110.51944 
L 72.963698 110.51944 
L 73.587647 110.51944 
L 74.211595 110.51944 
L 74.835543 110.51944 
L 75.459491 110.51944 
L 76.083439 110.51944 
L 76.707387 110.51944 
L 77.331336 110.51944 
L 77.955284 110.51944 
L 78.579232 110.51944 
L 79.20318 110.51944 
L 79.827128 110.51944 
L 80.451076 110.51944 
L 81.075024 110.51944 
L 81.698973 110.51944 
L 82.322921 110.51944 
L 82.946869 110.51944 
L 83.570817 110.51944 
L 84.194765 110.51944 
L 84.818713 110.51944 
L 85.442662 110.51944 
L 86.06661 110.51944 
L 86.690558 110.51944 
L 87.314506 110.51944 
L 87.938454 110.51944 
L 88.562402 110.51944 
L 89.186351 110.51944 
L 89.810299 110.51944 
L 90.434247 110.51944 
L 91.058195 110.51944 
L 91.682143 110.51944 
L 92.306091 110.51944 
L 92.930039 110.51944 
L 93.553988 110.51944 
L 94.177936 110.51944 
L 94.801884 110.51944 
L 95.425832 110.51944 
L 96.04978 110.51944 
L 96.673728 110.51944 
L 97.297677 110.51944 
L 97.921625 110.51944 
L 98.545573 110.51944 
L 99.169521 110.51944 
L 99.793469 110.51944 
L 100.417417 110.51944 
L 101.041365 110.51944 
L 101.665314 110.51944 
L 102.289262 110.51944 
L 102.91321 110.51944 
L 103.537158 110.51944 
L 104.161106 110.51944 
L 104.785054 110.51944 
" clip-path="url(#p3e7e89bed3)" style="fill: none; stroke-dasharray: 3.7,1.6; stroke-dashoffset: 0; stroke: #1f77b4"/>
   </g>
   <g id="patch_9">
    <path d="M 12.18674 112.269194 
L 12.18674 73.774597 
" style="fill: none; stroke: #000000; stroke-width: 0.5; stroke-linejoin: miter; stroke-linecap: square"/>
   </g>
   <g id="patch_10">
    <path d="M 12.18674 112.269194 
L 109.194498 112.269194 
" style="fill: none; stroke: #000000; stroke-width: 0.5; stroke-linejoin: miter; stroke-linecap: square"/>
   </g>
   <g id="line2d_51">
    <path d="M 16.596183 110.406754 
L 17.183657 110.384533 
L 17.77113 110.358522 
L 18.358603 110.3282 
L 18.946077 110.292997 
L 19.53355 110.252298 
L 20.121023 110.205439 
L 20.708497 110.151713 
L 21.29597 110.090374 
L 21.883443 110.020639 
L 22.470916 109.941696 
L 23.05839 109.852712 
L 23.645863 109.752845 
L 24.233336 109.641249 
L 24.82081 109.517098 
L 25.408283 109.379589 
L 25.995756 109.227967 
L 26.58323 109.061543 
L 27.170703 108.879706 
L 27.758176 108.681951 
L 28.34565 108.467895 
L 28.933123 108.237302 
L 29.520596 107.990097 
L 30.10807 107.726393 
L 30.695543 107.446504 
L 31.283016 107.150963 
L 31.870489 106.840535 
L 32.457963 106.516231 
L 33.045436 106.17931 
L 33.632909 105.831284 
L 34.220383 105.473918 
L 34.807856 105.109219 
L 35.395329 104.739429 
L 35.982803 104.367003 
L 36.570276 103.994591 
L 37.157749 103.625008 
L 37.745223 103.261199 
L 38.332696 102.906208 
L 38.920169 102.563134 
L 39.507643 102.235084 
L 40.095116 101.925134 
L 40.682589 101.636277 
L 41.270062 101.371374 
L 41.857536 101.133112 
L 42.445009 100.923955 
L 43.032482 100.746101 
L 43.619956 100.601448 
L 44.207429 100.491554 
L 44.794902 100.417616 
L 45.382376 100.380443 
L 45.969849 100.380443 
L 46.557322 100.417616 
L 47.144796 100.491554 
L 47.732269 100.601448 
L 48.319742 100.746101 
L 48.907215 100.923955 
L 49.494689 101.133112 
L 50.082162 101.371374 
L 50.669635 101.636277 
L 51.257109 101.925134 
L 51.844582 102.235084 
L 52.432055 102.563134 
L 53.019529 102.906208 
L 53.607002 103.261199 
L 54.194475 103.625008 
L 54.781949 103.994591 
L 55.369422 104.367003 
L 55.956895 104.739429 
L 56.544369 105.109219 
L 57.131842 105.473918 
L 57.719315 105.831284 
L 58.306788 106.17931 
L 58.894262 106.516231 
L 59.481735 106.840535 
L 60.069208 107.150963 
L 60.656682 107.446504 
L 61.244155 107.726393 
L 61.831628 107.990097 
L 62.419102 108.237302 
L 63.006575 108.467895 
L 63.594048 108.681951 
L 64.181522 108.879706 
L 64.768995 109.061543 
L 65.356468 109.227967 
L 65.943942 109.379589 
L 66.531415 109.517098 
L 67.118888 109.641249 
L 67.706361 109.752845 
L 68.293835 109.852712 
L 68.881308 109.941696 
L 69.468781 110.020639 
L 70.056255 110.090374 
L 70.643728 110.151713 
L 71.231201 110.205439 
L 71.818675 110.252298 
L 72.406148 110.292997 
L 72.993621 110.3282 
L 73.581095 110.358522 
L 74.168568 110.384533 
L 74.756041 110.406754 
" clip-path="url(#p3e7e89bed3)" style="fill: none; stroke: #000000; stroke-linecap: square"/>
   </g>
   <g id="line2d_52">
    <path d="M 45.676112 112.269194 
L 45.676112 73.774597 
" clip-path="url(#p3e7e89bed3)" style="fill: none; stroke: #000000; stroke-linecap: square"/>
   </g>
  </g>
  <g id="axes_4">
   <g id="patch_11">
    <path d="M 121.632765 112.269194 
L 218.640524 112.269194 
L 218.640524 73.774597 
L 121.632765 73.774597 
z
" style="fill: #ffffff"/>
   </g>
   <g id="matplotlib.axis_7">
    <g id="xtick_14">
     <g id="line2d_53">
      <path d="M 122.000911 112.269194 
L 122.000911 73.774597 
" clip-path="url(#pe0faff889f)" style="fill: none; stroke: #d3d3d3; stroke-width: 0.5; stroke-linecap: square"/>
     </g>
     <g id="line2d_54">
      <g>
       <use xlink:href="#maffd2b0b53" x="122.000911" y="112.269194" style="stroke: #000000; stroke-width: 0.8"/>
      </g>
     </g>
     <g id="text_17">
      <!-- −40 -->
      <g transform="translate(115.669505 122.828257) scale(0.06 -0.06)">
       <use xlink:href="#DejaVuSerif-2212"/>
       <use xlink:href="#DejaVuSerif-34" x="83.789062"/>
       <use xlink:href="#DejaVuSerif-30" x="147.412109"/>
      </g>
     </g>
    </g>
    <g id="xtick_15">
     <g id="line2d_55">
      <path d="M 142.491505 112.269194 
L 142.491505 73.774597 
" clip-path="url(#pe0faff889f)" style="fill: none; stroke: #d3d3d3; stroke-width: 0.5; stroke-linecap: square"/>
     </g>
     <g id="line2d_56">
      <g>
       <use xlink:href="#maffd2b0b53" x="142.491505" y="112.269194" style="stroke: #000000; stroke-width: 0.8"/>
      </g>
     </g>
     <g id="text_18">
      <!-- −20 -->
      <g transform="translate(136.160099 122.828257) scale(0.06 -0.06)">
       <use xlink:href="#DejaVuSerif-2212"/>
       <use xlink:href="#DejaVuSerif-32" x="83.789062"/>
       <use xlink:href="#DejaVuSerif-30" x="147.412109"/>
      </g>
     </g>
    </g>
    <g id="xtick_16">
     <g id="line2d_57">
      <path d="M 162.982099 112.269194 
L 162.982099 73.774597 
" clip-path="url(#pe0faff889f)" style="fill: none; stroke: #d3d3d3; stroke-width: 0.5; stroke-linecap: square"/>
     </g>
     <g id="line2d_58">
      <g>
       <use xlink:href="#maffd2b0b53" x="162.982099" y="112.269194" style="stroke: #000000; stroke-width: 0.8"/>
      </g>
     </g>
     <g id="text_19">
      <!-- 0 -->
      <g transform="translate(161.073349 122.828257) scale(0.06 -0.06)">
       <use xlink:href="#DejaVuSerif-30"/>
      </g>
     </g>
    </g>
    <g id="xtick_17">
     <g id="line2d_59">
      <path d="M 183.472693 112.269194 
L 183.472693 73.774597 
" clip-path="url(#pe0faff889f)" style="fill: none; stroke: #d3d3d3; stroke-width: 0.5; stroke-linecap: square"/>
     </g>
     <g id="line2d_60">
      <g>
       <use xlink:href="#maffd2b0b53" x="183.472693" y="112.269194" style="stroke: #000000; stroke-width: 0.8"/>
      </g>
     </g>
     <g id="text_20">
      <!-- 20 -->
      <g transform="translate(179.655193 122.828257) scale(0.06 -0.06)">
       <use xlink:href="#DejaVuSerif-32"/>
       <use xlink:href="#DejaVuSerif-30" x="63.623047"/>
      </g>
     </g>
    </g>
    <g id="xtick_18">
     <g id="line2d_61">
      <path d="M 203.963287 112.269194 
L 203.963287 73.774597 
" clip-path="url(#pe0faff889f)" style="fill: none; stroke: #d3d3d3; stroke-width: 0.5; stroke-linecap: square"/>
     </g>
     <g id="line2d_62">
      <g>
       <use xlink:href="#maffd2b0b53" x="203.963287" y="112.269194" style="stroke: #000000; stroke-width: 0.8"/>
      </g>
     </g>
     <g id="text_21">
      <!-- 40 -->
      <g transform="translate(200.145787 122.828257) scale(0.06 -0.06)">
       <use xlink:href="#DejaVuSerif-34"/>
       <use xlink:href="#DejaVuSerif-30" x="63.623047"/>
      </g>
     </g>
    </g>
    <g id="text_22">
     <!-- Cloud base rate [m/h] -->
     <g transform="translate(137.005863 132.635132) scale(0.06 -0.06)">
      <use xlink:href="#DejaVuSerif-43"/>
      <use xlink:href="#DejaVuSerif-6c" x="76.513672"/>
      <use xlink:href="#DejaVuSerif-6f" x="108.496094"/>
      <use xlink:href="#DejaVuSerif-75" x="168.701172"/>
      <use xlink:href="#DejaVuSerif-64" x="233.105469"/>
      <use xlink:href="#DejaVuSerif-20" x="297.119141"/>
      <use xlink:href="#DejaVuSerif-62" x="328.90625"/>
      <use xlink:href="#DejaVuSerif-61" x="392.919922"/>
      <use xlink:href="#DejaVuSerif-73" x="452.539062"/>
      <use xlink:href="#DejaVuSerif-65" x="503.857422"/>
      <use xlink:href="#DejaVuSerif-20" x="563.037109"/>
      <use xlink:href="#DejaVuSerif-72" x="594.824219"/>
      <use xlink:href="#DejaVuSerif-61" x="642.626953"/>
      <use xlink:href="#DejaVuSerif-74" x="702.246094"/>
      <use xlink:href="#DejaVuSerif-65" x="742.431641"/>
      <use xlink:href="#DejaVuSerif-20" x="801.611328"/>
      <use xlink:href="#DejaVuSerif-5b" x="833.398438"/>
      <use xlink:href="#DejaVuSerif-6d" x="872.412109"/>
      <use xlink:href="#DejaVuSerif-2f" x="967.236328"/>
      <use xlink:href="#DejaVuSerif-68" x="1000.927734"/>
      <use xlink:href="#DejaVuSerif-5d" x="1065.332031"/>
     </g>
    </g>
   </g>
   <g id="matplotlib.axis_8">
    <g id="ytick_8">
     <g id="line2d_63">
      <path d="M 121.632765 110.51944 
L 218.640524 110.51944 
" clip-path="url(#pe0faff889f)" style="fill: none; stroke: #d3d3d3; stroke-width: 0.5; stroke-linecap: square"/>
     </g>
     <g id="line2d_64">
      <g>
       <use xlink:href="#m56aba532ee" x="121.632765" y="110.51944" style="stroke: #000000; stroke-width: 0.8"/>
      </g>
     </g>
    </g>
    <g id="ytick_9">
     <g id="line2d_65">
      <path d="M 121.632765 92.967447 
L 218.640524 92.967447 
" clip-path="url(#pe0faff889f)" style="fill: none; stroke: #d3d3d3; stroke-width: 0.5; stroke-linecap: square"/>
     </g>
     <g id="line2d_66">
      <g>
       <use xlink:href="#m56aba532ee" x="121.632765" y="92.967447" style="stroke: #000000; stroke-width: 0.8"/>
      </g>
     </g>
    </g>
    <g id="ytick_10">
     <g id="line2d_67">
      <path d="M 121.632765 75.415455 
L 218.640524 75.415455 
" clip-path="url(#pe0faff889f)" style="fill: none; stroke: #d3d3d3; stroke-width: 0.5; stroke-linecap: square"/>
     </g>
     <g id="line2d_68">
      <g>
       <use xlink:href="#m56aba532ee" x="121.632765" y="75.415455" style="stroke: #000000; stroke-width: 0.8"/>
      </g>
     </g>
    </g>
   </g>
   <g id="line2d_69">
    <path d="M 126.042209 110.003702 
L 126.933006 109.954237 
L 127.823802 109.902522 
L 128.714599 109.848564 
L 129.605396 109.79235 
L 130.496192 109.73385 
L 131.386989 109.673012 
L 132.277786 109.60977 
L 133.168582 109.544049 
L 134.059379 109.475771 
L 134.950176 109.40486 
L 135.840972 109.331256 
L 136.731769 109.254913 
L 137.622566 109.175817 
L 138.513362 109.09398 
L 139.404159 109.009451 
L 140.294956 108.922315 
L 141.185752 108.832694 
L 142.076549 108.740744 
L 142.967346 108.646654 
L 143.858142 108.550643 
L 144.748939 108.452961 
L 145.639736 108.353885 
L 146.530533 108.253728 
L 147.421329 108.152841 
L 148.312126 108.051622 
L 149.202923 107.950532 
L 150.093719 107.850105 
L 150.984516 107.750962 
L 151.875313 107.653822 
L 152.766109 107.559514 
L 153.656906 107.468971 
L 154.547703 107.383228 
L 155.438499 107.303405 
L 156.329296 107.230674 
L 157.220093 107.166224 
L 158.110889 107.111214 
L 159.001686 107.066711 
L 159.892483 107.033639 
L 160.783279 107.012714 
L 161.674076 107.00439 
L 162.564873 107.008813 
L 163.455669 107.025794 
L 164.346466 107.054786 
L 165.237263 107.094893 
L 166.128059 107.144895 
L 167.018856 107.203289 
L 167.909653 107.268356 
L 168.800449 107.338234 
L 169.691246 107.411007 
L 170.582043 107.484795 
L 171.472839 107.557844 
L 172.363636 107.628609 
L 173.254433 107.695824 
L 174.14523 107.758556 
L 175.036026 107.816236 
L 175.926823 107.868675 
L 176.81762 107.916049 
L 177.708416 107.958875 
L 178.599213 107.997955 
L 179.49001 108.034318 
L 180.380806 108.069146 
L 181.271603 108.103693 
L 182.1624 108.13921 
L 183.053196 108.176869 
L 183.943993 108.2177 
L 184.83479 108.262534 
L 185.725586 108.311971 
L 186.616383 108.366351 
L 187.50718 108.425755 
L 188.397976 108.49001 
L 189.288773 108.558719 
L 190.17957 108.631287 
L 191.070366 108.706976 
L 191.961163 108.784945 
L 192.85196 108.864305 
L 193.742756 108.944165 
L 194.633553 109.023676 
L 195.52435 109.102071 
L 196.415146 109.178684 
L 197.305943 109.252977 
L 198.19674 109.324545 
L 199.087536 109.393112 
L 199.978333 109.458528 
L 200.86913 109.520752 
L 201.759926 109.579832 
L 202.650723 109.635888 
L 203.54152 109.689086 
L 204.432317 109.739624 
L 205.323113 109.787709 
L 206.21391 109.833545 
L 207.104707 109.877325 
L 207.995503 109.91922 
L 208.8863 109.959375 
L 209.777097 109.99791 
L 210.667893 110.034921 
L 211.55869 110.070477 
L 212.449487 110.104629 
L 213.340283 110.137407 
L 214.23108 110.168826 
" clip-path="url(#pe0faff889f)" style="fill: none; stroke: #595959; stroke-linecap: square"/>
   </g>
   <g id="line2d_70">
    <path d="M 126.042209 110.51944 
L 126.933006 110.51944 
L 127.823802 110.51944 
L 128.714599 110.51944 
L 129.605396 110.51944 
L 130.496192 110.51944 
L 131.386989 110.51944 
L 132.277786 110.51944 
L 133.168582 110.51944 
L 134.059379 110.51944 
L 134.950176 110.51944 
L 135.840972 110.51944 
L 136.731769 110.51944 
L 137.622566 110.51944 
L 138.513362 110.51944 
L 139.404159 110.51944 
L 140.294956 110.51944 
L 141.185752 110.51944 
L 142.076549 110.51944 
L 142.967346 110.51944 
L 143.858142 110.51944 
L 144.748939 110.51944 
L 145.639736 110.51944 
L 146.530533 110.51944 
L 147.421329 110.51944 
L 148.312126 110.51944 
L 149.202923 110.51944 
L 150.093719 110.51944 
L 150.984516 110.51944 
L 151.875313 110.51944 
L 152.766109 110.519439 
L 153.656906 110.519323 
L 154.547703 110.510793 
L 155.438499 110.320748 
L 156.329296 109.031801 
L 157.220093 106.369525 
L 158.110889 104.187484 
L 159.001686 99.437683 
L 159.892483 87.581639 
L 160.783279 76.254283 
L 161.674076 75.764132 
L 162.564873 79.086115 
L 163.455669 85.026117 
L 164.346466 92.852861 
L 165.237263 102.41351 
L 166.128059 107.884719 
L 167.018856 109.441989 
L 167.909653 110.292842 
L 168.800449 110.504371 
L 169.691246 110.51914 
L 170.582043 110.519438 
L 171.472839 110.51944 
L 172.363636 110.51944 
L 173.254433 110.51944 
L 174.14523 110.51944 
L 175.036026 110.51944 
L 175.926823 110.51944 
L 176.81762 110.51944 
L 177.708416 110.51944 
L 178.599213 110.51944 
L 179.49001 110.51944 
L 180.380806 110.51944 
L 181.271603 110.51944 
L 182.1624 110.51944 
L 183.053196 110.51944 
L 183.943993 110.51944 
L 184.83479 110.51944 
L 185.725586 110.51944 
L 186.616383 110.51944 
L 187.50718 110.51944 
L 188.397976 110.51944 
L 189.288773 110.51944 
L 190.17957 110.51944 
L 191.070366 110.51944 
L 191.961163 110.51944 
L 192.85196 110.51944 
L 193.742756 110.51944 
L 194.633553 110.51944 
L 195.52435 110.51944 
L 196.415146 110.51944 
L 197.305943 110.51944 
L 198.19674 110.51944 
L 199.087536 110.51944 
L 199.978333 110.51944 
L 200.86913 110.51944 
L 201.759926 110.51944 
L 202.650723 110.51944 
L 203.54152 110.51944 
L 204.432317 110.51944 
L 205.323113 110.51944 
L 206.21391 110.51944 
L 207.104707 110.51944 
L 207.995503 110.51944 
L 208.8863 110.51944 
L 209.777097 110.51944 
L 210.667893 110.51944 
L 211.55869 110.51944 
L 212.449487 110.51944 
L 213.340283 110.51944 
L 214.23108 110.51944 
" clip-path="url(#pe0faff889f)" style="fill: none; stroke-dasharray: 3.7,1.6; stroke-dashoffset: 0; stroke: #1f77b4"/>
   </g>
   <g id="patch_12">
    <path d="M 121.632765 112.269194 
L 121.632765 73.774597 
" style="fill: none; stroke: #000000; stroke-width: 0.5; stroke-linejoin: miter; stroke-linecap: square"/>
   </g>
   <g id="patch_13">
    <path d="M 121.632765 112.269194 
L 218.640524 112.269194 
" style="fill: none; stroke: #000000; stroke-width: 0.5; stroke-linejoin: miter; stroke-linecap: square"/>
   </g>
   <g id="line2d_71">
    <path d="M 154.785861 110.130501 
L 154.910047 110.053804 
L 155.034232 109.964027 
L 155.158418 109.859369 
L 155.282603 109.737866 
L 155.406789 109.59739 
L 155.530974 109.435654 
L 155.655159 109.250219 
L 155.779345 109.038505 
L 155.90353 108.797812 
L 156.027716 108.525338 
L 156.151901 108.218208 
L 156.276086 107.873511 
L 156.400272 107.488336 
L 156.524457 107.059822 
L 156.648643 106.585205 
L 156.772828 106.061879 
L 156.897014 105.487459 
L 157.021199 104.859842 
L 157.145384 104.177284 
L 157.26957 103.438465 
L 157.393755 102.642564 
L 157.517941 101.78933 
L 157.642126 100.879147 
L 157.766311 99.913099 
L 157.890497 98.893029 
L 158.014682 97.821578 
L 158.138868 96.702232 
L 158.263053 95.539337 
L 158.387239 94.338114 
L 158.511424 93.104652 
L 158.635609 91.845881 
L 158.759795 90.569538 
L 158.88398 89.284098 
L 159.008166 87.998706 
L 159.132351 86.723076 
L 159.256536 85.467379 
L 159.380722 84.242116 
L 159.504907 83.057982 
L 159.629093 81.925708 
L 159.753278 80.855906 
L 159.877464 79.858905 
L 160.001649 78.944585 
L 160.125834 78.122216 
L 160.25002 77.400302 
L 160.374205 76.786434 
L 160.498391 76.287157 
L 160.622576 75.907855 
L 160.746761 75.652656 
L 160.870947 75.524352 
L 160.995132 75.524352 
L 161.119318 75.652656 
L 161.243503 75.907855 
L 161.367689 76.287157 
L 161.491874 76.786434 
L 161.616059 77.400302 
L 161.740245 78.122216 
L 161.86443 78.944585 
L 161.988616 79.858905 
L 162.112801 80.855906 
L 162.236987 81.925708 
L 162.361172 83.057982 
L 162.485357 84.242116 
L 162.609543 85.467379 
L 162.733728 86.723076 
L 162.857914 87.998706 
L 162.982099 89.284098 
L 163.106284 90.569538 
L 163.23047 91.845881 
L 163.354655 93.104652 
L 163.478841 94.338114 
L 163.603026 95.539337 
L 163.727212 96.702232 
L 163.851397 97.821578 
L 163.975582 98.893029 
L 164.099768 99.913099 
L 164.223953 100.879147 
L 164.348139 101.78933 
L 164.472324 102.642564 
L 164.596509 103.438465 
L 164.720695 104.177284 
L 164.84488 104.859842 
L 164.969066 105.487459 
L 165.093251 106.061879 
L 165.217437 106.585205 
L 165.341622 107.059822 
L 165.465807 107.488336 
L 165.589993 107.873511 
L 165.714178 108.218208 
L 165.838364 108.525338 
L 165.962549 108.797812 
L 166.086734 109.038505 
L 166.21092 109.250219 
L 166.335105 109.435654 
L 166.459291 109.59739 
L 166.583476 109.737866 
L 166.707662 109.859369 
L 166.831847 109.964027 
L 166.956032 110.053804 
L 167.080218 110.130501 
" clip-path="url(#pe0faff889f)" style="fill: none; stroke: #000000; stroke-linecap: square"/>
   </g>
   <g id="line2d_72">
    <path d="M 160.93304 112.269194 
L 160.93304 73.774597 
" clip-path="url(#pe0faff889f)" style="fill: none; stroke: #000000; stroke-linecap: square"/>
   </g>
  </g>
  <g id="legend_1">
   <g id="patch_14">
    <path d="M 21.617118 162.762944 
L 86.893368 162.762944 
Q 88.093368 162.762944 88.093368 161.562944 
L 88.093368 144.549194 
Q 88.093368 143.349194 86.893368 143.349194 
L 21.617118 143.349194 
Q 20.417118 143.349194 20.417118 144.549194 
L 20.417118 161.562944 
Q 20.417118 162.762944 21.617118 162.762944 
z
" style="fill: #ffffff; stroke: #ffffff; stroke-width: 0.75; stroke-linejoin: miter"/>
   </g>
   <g id="line2d_73">
    <path d="M 22.817118 148.208257 
L 28.817118 148.208257 
L 34.817118 148.208257 
" style="fill: none; stroke: #000000; stroke-linecap: square"/>
   </g>
   <g id="text_23">
    <!-- Data likelihood -->
    <g transform="translate(39.617118 150.308257) scale(0.06 -0.06)">
     <defs>
      <path id="DejaVuSerif-44" d="M 1581 331 
L 2163 331 
Q 3072 331 3558 850 
Q 4044 1369 4044 2338 
Q 4044 3306 3559 3818 
Q 3075 4331 2163 4331 
L 1581 4331 
L 1581 331 
z
M 353 0 
L 353 331 
L 947 331 
L 947 4331 
L 353 4331 
L 353 4666 
L 2209 4666 
Q 3416 4666 4089 4050 
Q 4763 3434 4763 2338 
Q 4763 1238 4088 619 
Q 3413 0 2209 0 
L 353 0 
z
" transform="scale(0.015625)"/>
      <path id="DejaVuSerif-6b" d="M 1831 0 
L 219 0 
L 219 331 
L 738 331 
L 738 4531 
L 184 4531 
L 184 4863 
L 1313 4863 
L 1313 1697 
L 2713 2988 
L 2234 2988 
L 2234 3322 
L 3738 3322 
L 3738 2988 
L 3169 2988 
L 2181 2075 
L 3444 331 
L 3922 331 
L 3922 0 
L 2284 0 
L 2284 331 
L 2759 331 
L 1766 1697 
L 1313 1275 
L 1313 331 
L 1831 331 
L 1831 0 
z
" transform="scale(0.015625)"/>
     </defs>
     <use xlink:href="#DejaVuSerif-44"/>
     <use xlink:href="#DejaVuSerif-61" x="80.175781"/>
     <use xlink:href="#DejaVuSerif-74" x="139.794922"/>
     <use xlink:href="#DejaVuSerif-61" x="179.980469"/>
     <use xlink:href="#DejaVuSerif-20" x="239.599609"/>
     <use xlink:href="#DejaVuSerif-6c" x="271.386719"/>
     <use xlink:href="#DejaVuSerif-69" x="303.369141"/>
     <use xlink:href="#DejaVuSerif-6b" x="335.351562"/>
     <use xlink:href="#DejaVuSerif-65" x="395.947266"/>
     <use xlink:href="#DejaVuSerif-6c" x="455.126953"/>
     <use xlink:href="#DejaVuSerif-69" x="487.109375"/>
     <use xlink:href="#DejaVuSerif-68" x="519.091797"/>
     <use xlink:href="#DejaVuSerif-6f" x="583.496094"/>
     <use xlink:href="#DejaVuSerif-6f" x="643.701172"/>
     <use xlink:href="#DejaVuSerif-64" x="703.90625"/>
    </g>
   </g>
   <g id="line2d_74">
    <path d="M 22.817118 157.015132 
L 28.817118 157.015132 
L 34.817118 157.015132 
" style="fill: none; stroke: #595959; stroke-linecap: square"/>
   </g>
   <g id="text_24">
    <!-- Prior -->
    <g transform="translate(39.617118 159.115132) scale(0.06 -0.06)">
     <defs>
      <path id="DejaVuSerif-50" d="M 1581 2375 
L 2406 2375 
Q 2872 2375 3115 2626 
Q 3359 2878 3359 3353 
Q 3359 3831 3115 4081 
Q 2872 4331 2406 4331 
L 1581 4331 
L 1581 2375 
z
M 353 0 
L 353 331 
L 947 331 
L 947 4331 
L 353 4331 
L 353 4666 
L 2559 4666 
Q 3259 4666 3668 4311 
Q 4078 3956 4078 3353 
Q 4078 2753 3668 2397 
Q 3259 2041 2559 2041 
L 1581 2041 
L 1581 331 
L 2303 331 
L 2303 0 
L 353 0 
z
" transform="scale(0.015625)"/>
     </defs>
     <use xlink:href="#DejaVuSerif-50"/>
     <use xlink:href="#DejaVuSerif-72" x="67.285156"/>
     <use xlink:href="#DejaVuSerif-69" x="115.087891"/>
     <use xlink:href="#DejaVuSerif-6f" x="147.070312"/>
     <use xlink:href="#DejaVuSerif-72" x="207.275391"/>
    </g>
   </g>
  </g>
  <g id="legend_2">
   <g id="patch_15">
    <path d="M 118.149487 153.956069 
L 222.448237 153.956069 
Q 223.648237 153.956069 223.648237 152.756069 
L 223.648237 144.549194 
Q 223.648237 143.349194 222.448237 143.349194 
L 118.149487 143.349194 
Q 116.949487 143.349194 116.949487 144.549194 
L 116.949487 152.756069 
Q 116.949487 153.956069 118.149487 153.956069 
z
" style="fill: #ffffff; stroke: #ffffff; stroke-width: 0.75; stroke-linejoin: miter"/>
   </g>
   <g id="line2d_75">
    <path d="M 119.349487 148.208257 
L 125.349487 148.208257 
L 131.349487 148.208257 
" style="fill: none; stroke-dasharray: 3.7,1.6; stroke-dashoffset: 0; stroke: #1f77b4"/>
   </g>
   <g id="text_25">
    <!-- Posterior (linear prediction) -->
    <g transform="translate(136.149487 150.308257) scale(0.06 -0.06)">
     <defs>
      <path id="DejaVuSerif-28" d="M 2041 -997 
Q 1281 -656 893 83 
Q 506 822 506 1931 
Q 506 3044 893 3783 
Q 1281 4522 2041 4863 
L 2041 4556 
Q 1559 4225 1350 3623 
Q 1141 3022 1141 1931 
Q 1141 844 1350 242 
Q 1559 -359 2041 -691 
L 2041 -997 
z
" transform="scale(0.015625)"/>
      <path id="DejaVuSerif-6e" d="M 263 0 
L 263 331 
L 781 331 
L 781 2988 
L 231 2988 
L 231 3322 
L 1356 3322 
L 1356 2731 
Q 1516 3069 1770 3241 
Q 2025 3413 2363 3413 
Q 2913 3413 3172 3097 
Q 3431 2781 3431 2113 
L 3431 331 
L 3944 331 
L 3944 0 
L 2356 0 
L 2356 331 
L 2853 331 
L 2853 1931 
Q 2853 2541 2703 2767 
Q 2553 2994 2175 2994 
Q 1775 2994 1565 2701 
Q 1356 2409 1356 1850 
L 1356 331 
L 1856 331 
L 1856 0 
L 263 0 
z
" transform="scale(0.015625)"/>
      <path id="DejaVuSerif-63" d="M 3291 997 
Q 3169 466 2822 187 
Q 2475 -91 1925 -91 
Q 1200 -91 759 389 
Q 319 869 319 1663 
Q 319 2459 759 2936 
Q 1200 3413 1925 3413 
Q 2241 3413 2553 3339 
Q 2866 3266 3181 3116 
L 3181 2266 
L 2847 2266 
Q 2781 2703 2561 2903 
Q 2341 3103 1931 3103 
Q 1466 3103 1228 2742 
Q 991 2381 991 1663 
Q 991 944 1227 581 
Q 1463 219 1931 219 
Q 2303 219 2525 412 
Q 2747 606 2828 997 
L 3291 997 
z
" transform="scale(0.015625)"/>
      <path id="DejaVuSerif-29" d="M 453 -997 
L 453 -691 
Q 934 -359 1145 242 
Q 1356 844 1356 1931 
Q 1356 3022 1145 3623 
Q 934 4225 453 4556 
L 453 4863 
Q 1216 4522 1603 3783 
Q 1991 3044 1991 1931 
Q 1991 822 1603 83 
Q 1216 -656 453 -997 
z
" transform="scale(0.015625)"/>
     </defs>
     <use xlink:href="#DejaVuSerif-50"/>
     <use xlink:href="#DejaVuSerif-6f" x="63.285156"/>
     <use xlink:href="#DejaVuSerif-73" x="123.490234"/>
     <use xlink:href="#DejaVuSerif-74" x="174.808594"/>
     <use xlink:href="#DejaVuSerif-65" x="214.994141"/>
     <use xlink:href="#DejaVuSerif-72" x="274.173828"/>
     <use xlink:href="#DejaVuSerif-69" x="321.976562"/>
     <use xlink:href="#DejaVuSerif-6f" x="353.958984"/>
     <use xlink:href="#DejaVuSerif-72" x="414.164062"/>
     <use xlink:href="#DejaVuSerif-20" x="461.966797"/>
     <use xlink:href="#DejaVuSerif-28" x="493.753906"/>
     <use xlink:href="#DejaVuSerif-6c" x="532.767578"/>
     <use xlink:href="#DejaVuSerif-69" x="564.75"/>
     <use xlink:href="#DejaVuSerif-6e" x="596.732422"/>
     <use xlink:href="#DejaVuSerif-65" x="661.136719"/>
     <use xlink:href="#DejaVuSerif-61" x="720.316406"/>
     <use xlink:href="#DejaVuSerif-72" x="779.935547"/>
     <use xlink:href="#DejaVuSerif-20" x="827.738281"/>
     <use xlink:href="#DejaVuSerif-70" x="859.525391"/>
     <use xlink:href="#DejaVuSerif-72" x="923.539062"/>
     <use xlink:href="#DejaVuSerif-65" x="971.341797"/>
     <use xlink:href="#DejaVuSerif-64" x="1030.521484"/>
     <use xlink:href="#DejaVuSerif-69" x="1094.535156"/>
     <use xlink:href="#DejaVuSerif-63" x="1126.517578"/>
     <use xlink:href="#DejaVuSerif-74" x="1182.523438"/>
     <use xlink:href="#DejaVuSerif-69" x="1222.708984"/>
     <use xlink:href="#DejaVuSerif-6f" x="1254.691406"/>
     <use xlink:href="#DejaVuSerif-6e" x="1314.896484"/>
     <use xlink:href="#DejaVuSerif-29" x="1379.300781"/>
    </g>
   </g>
  </g>
 </g>
 <defs>
  <clipPath id="pe3d5be8b8d">
   <rect x="12.18674" y="7.2" width="97.007758" height="38.494597"/>
  </clipPath>
  <clipPath id="p965a9e830a">
   <rect x="121.632765" y="7.2" width="97.007758" height="38.494597"/>
  </clipPath>
  <clipPath id="p3e7e89bed3">
   <rect x="12.18674" y="73.774597" width="97.007758" height="38.494597"/>
  </clipPath>
  <clipPath id="pe0faff889f">
   <rect x="121.632765" y="73.774597" width="97.007758" height="38.494597"/>
  </clipPath>
 </defs>
</svg>
