<?xml version="1.0" encoding="utf-8" standalone="no"?>
<!DOCTYPE svg PUBLIC "-//W3C//DTD SVG 1.1//EN"
  "http://www.w3.org/Graphics/SVG/1.1/DTD/svg11.dtd">
<svg xmlns:xlink="http://www.w3.org/1999/xlink" width="230.844782pt" height="169.962944pt" viewBox="0 0 230.844782 169.962944" xmlns="http://www.w3.org/2000/svg" version="1.1">
 <metadata>
  <rdf:RDF xmlns:dc="http://purl.org/dc/elements/1.1/" xmlns:cc="http://creativecommons.org/ns#" xmlns:rdf="http://www.w3.org/1999/02/22-rdf-syntax-ns#">
   <cc:Work>
    <dc:type rdf:resource="http://purl.org/dc/dcmitype/StillImage"/>
    <dc:date>2025-12-23T08:41:56.645615</dc:date>
    <dc:format>image/svg+xml</dc:format>
    <dc:creator>
     <cc:Agent>
      <dc:title>Matplotlib v3.7.0, https://matplotlib.org/</dc:title>
     </cc:Agent>
    </dc:creator>
   </cc:Work>
  </rdf:RDF>
 </metadata>
 <defs>
  <style type="text/css">*{stroke-linejoin: round; stroke-linecap: butt}</style>
 </defs>
 <g id="figure_1">
  <g id="patch_1">
   <path d="M 0 169.962944 
L 230.844782 169.962944 
L 230.844782 -0 
L 0 -0 
z
" style="fill: #ffffff"/>
  </g>
  <g id="axes_1">
   <g id="patch_2">
    <path d="M 10.7 45.694597 
L 108.989025 45.694597 
L 108.989025 7.2 
L 10.7 7.2 
z
" style="fill: #ffffff"/>
   </g>
   <g id="matplotlib.axis_1">
    <g id="xtick_1">
     <g id="line2d_1">
      <path d="M 29.602184 45.694597 
L 29.602184 7.2 
" clip-path="url(#p1c0dd5576a)" style="fill: none; stroke: #d3d3d3; stroke-width: 0.5; stroke-linecap: square"/>
     </g>
     <g id="line2d_2">
      <defs>
       <path id="m2027b22a3c" d="M 0 0 
L 0 3.5 
" style="stroke: #000000; stroke-width: 0.8"/>
      </defs>
      <g>
       <use xlink:href="#m2027b22a3c" x="29.602184" y="45.694597" style="stroke: #000000; stroke-width: 0.8"/>
      </g>
     </g>
     <g id="text_1">
      <!-- 700 -->
      <g transform="translate(23.875934 56.25366) scale(0.06 -0.06)">
       <defs>
        <path id="DejaVuSerif-37" d="M 3609 4347 
L 1784 0 
L 1319 0 
L 3059 4153 
L 903 4153 
L 903 3578 
L 538 3578 
L 538 4666 
L 3609 4666 
L 3609 4347 
z
" transform="scale(0.015625)"/>
        <path id="DejaVuSerif-30" d="M 2034 219 
Q 2513 219 2750 744 
Q 2988 1269 2988 2328 
Q 2988 3391 2750 3916 
Q 2513 4441 2034 4441 
Q 1556 4441 1318 3916 
Q 1081 3391 1081 2328 
Q 1081 1269 1318 744 
Q 1556 219 2034 219 
z
M 2034 -91 
Q 1275 -91 848 546 
Q 422 1184 422 2328 
Q 422 3475 848 4112 
Q 1275 4750 2034 4750 
Q 2797 4750 3222 4112 
Q 3647 3475 3647 2328 
Q 3647 1184 3222 546 
Q 2797 -91 2034 -91 
z
" transform="scale(0.015625)"/>
       </defs>
       <use xlink:href="#DejaVuSerif-37"/>
       <use xlink:href="#DejaVuSerif-30" x="63.623047"/>
       <use xlink:href="#DejaVuSerif-30" x="127.246094"/>
      </g>
     </g>
    </g>
    <g id="xtick_2">
     <g id="line2d_3">
      <path d="M 61.425677 45.694597 
L 61.425677 7.2 
" clip-path="url(#p1c0dd5576a)" style="fill: none; stroke: #d3d3d3; stroke-width: 0.5; stroke-linecap: square"/>
     </g>
     <g id="line2d_4">
      <g>
       <use xlink:href="#m2027b22a3c" x="61.425677" y="45.694597" style="stroke: #000000; stroke-width: 0.8"/>
      </g>
     </g>
     <g id="text_2">
      <!-- 800 -->
      <g transform="translate(55.699427 56.25366) scale(0.06 -0.06)">
       <defs>
        <path id="DejaVuSerif-38" d="M 2981 1275 
Q 2981 1775 2732 2051 
Q 2484 2328 2034 2328 
Q 1584 2328 1336 2051 
Q 1088 1775 1088 1275 
Q 1088 772 1336 495 
Q 1584 219 2034 219 
Q 2484 219 2732 495 
Q 2981 772 2981 1275 
z
M 2853 3541 
Q 2853 3966 2637 4203 
Q 2422 4441 2034 4441 
Q 1650 4441 1433 4203 
Q 1216 3966 1216 3541 
Q 1216 3113 1433 2875 
Q 1650 2638 2034 2638 
Q 2422 2638 2637 2875 
Q 2853 3113 2853 3541 
z
M 2516 2484 
Q 3047 2413 3344 2092 
Q 3641 1772 3641 1275 
Q 3641 619 3225 264 
Q 2809 -91 2034 -91 
Q 1263 -91 845 264 
Q 428 619 428 1275 
Q 428 1772 725 2092 
Q 1022 2413 1556 2484 
Q 1084 2569 832 2842 
Q 581 3116 581 3541 
Q 581 4103 968 4426 
Q 1356 4750 2034 4750 
Q 2713 4750 3100 4426 
Q 3488 4103 3488 3541 
Q 3488 3116 3236 2842 
Q 2984 2569 2516 2484 
z
" transform="scale(0.015625)"/>
       </defs>
       <use xlink:href="#DejaVuSerif-38"/>
       <use xlink:href="#DejaVuSerif-30" x="63.623047"/>
       <use xlink:href="#DejaVuSerif-30" x="127.246094"/>
      </g>
     </g>
    </g>
    <g id="xtick_3">
     <g id="line2d_5">
      <path d="M 93.24917 45.694597 
L 93.24917 7.2 
" clip-path="url(#p1c0dd5576a)" style="fill: none; stroke: #d3d3d3; stroke-width: 0.5; stroke-linecap: square"/>
     </g>
     <g id="line2d_6">
      <g>
       <use xlink:href="#m2027b22a3c" x="93.24917" y="45.694597" style="stroke: #000000; stroke-width: 0.8"/>
      </g>
     </g>
     <g id="text_3">
      <!-- 900 -->
      <g transform="translate(87.52292 56.25366) scale(0.06 -0.06)">
       <defs>
        <path id="DejaVuSerif-39" d="M 2994 2091 
Q 2784 1856 2512 1740 
Q 2241 1625 1900 1625 
Q 1206 1625 804 2044 
Q 403 2463 403 3188 
Q 403 3897 839 4323 
Q 1275 4750 2003 4750 
Q 2794 4750 3217 4161 
Q 3641 3572 3641 2478 
Q 3641 1253 3137 581 
Q 2634 -91 1722 -91 
Q 1475 -91 1203 -44 
Q 931 3 647 97 
L 647 872 
L 997 872 
Q 1038 556 1241 387 
Q 1444 219 1784 219 
Q 2391 219 2687 676 
Q 2984 1134 2994 2091 
z
M 1978 4441 
Q 1534 4441 1298 4117 
Q 1063 3794 1063 3188 
Q 1063 2581 1298 2256 
Q 1534 1931 1978 1931 
Q 2422 1931 2658 2245 
Q 2894 2559 2894 3150 
Q 2894 3772 2656 4106 
Q 2419 4441 1978 4441 
z
" transform="scale(0.015625)"/>
       </defs>
       <use xlink:href="#DejaVuSerif-39"/>
       <use xlink:href="#DejaVuSerif-30" x="63.623047"/>
       <use xlink:href="#DejaVuSerif-30" x="127.246094"/>
      </g>
     </g>
    </g>
    <g id="text_4">
     <!-- Cloud top height [m] -->
     <g transform="translate(28.226856 66.060535) scale(0.06 -0.06)">
      <defs>
       <path id="DejaVuSerif-43" d="M 4513 1234 
Q 4306 581 3820 245 
Q 3334 -91 2591 -91 
Q 2134 -91 1743 65 
Q 1353 222 1050 525 
Q 700 875 529 1320 
Q 359 1766 359 2328 
Q 359 3416 987 4083 
Q 1616 4750 2644 4750 
Q 3025 4750 3456 4650 
Q 3888 4550 4384 4347 
L 4384 3272 
L 4031 3272 
Q 3916 3859 3567 4137 
Q 3219 4416 2591 4416 
Q 1844 4416 1459 3886 
Q 1075 3356 1075 2328 
Q 1075 1303 1459 773 
Q 1844 244 2591 244 
Q 3113 244 3450 492 
Q 3788 741 3938 1234 
L 4513 1234 
z
" transform="scale(0.015625)"/>
       <path id="DejaVuSerif-6c" d="M 1313 331 
L 1856 331 
L 1856 0 
L 184 0 
L 184 331 
L 738 331 
L 738 4531 
L 184 4531 
L 184 4863 
L 1313 4863 
L 1313 331 
z
" transform="scale(0.015625)"/>
       <path id="DejaVuSerif-6f" d="M 1925 219 
Q 2388 219 2623 584 
Q 2859 950 2859 1663 
Q 2859 2375 2623 2739 
Q 2388 3103 1925 3103 
Q 1463 3103 1227 2739 
Q 991 2375 991 1663 
Q 991 950 1228 584 
Q 1466 219 1925 219 
z
M 1925 -91 
Q 1200 -91 759 389 
Q 319 869 319 1663 
Q 319 2456 758 2934 
Q 1197 3413 1925 3413 
Q 2653 3413 3092 2934 
Q 3531 2456 3531 1663 
Q 3531 869 3092 389 
Q 2653 -91 1925 -91 
z
" transform="scale(0.015625)"/>
       <path id="DejaVuSerif-75" d="M 2266 3322 
L 3341 3322 
L 3341 331 
L 3884 331 
L 3884 0 
L 2766 0 
L 2766 588 
Q 2606 256 2353 82 
Q 2100 -91 1766 -91 
Q 1213 -91 952 223 
Q 691 538 691 1209 
L 691 2988 
L 172 2988 
L 172 3322 
L 1269 3322 
L 1269 1388 
Q 1269 781 1417 556 
Q 1566 331 1947 331 
Q 2347 331 2556 625 
Q 2766 919 2766 1478 
L 2766 2988 
L 2266 2988 
L 2266 3322 
z
" transform="scale(0.015625)"/>
       <path id="DejaVuSerif-64" d="M 3359 331 
L 3909 331 
L 3909 0 
L 2784 0 
L 2784 519 
Q 2616 206 2355 57 
Q 2094 -91 1709 -91 
Q 1097 -91 708 395 
Q 319 881 319 1663 
Q 319 2444 706 2928 
Q 1094 3413 1709 3413 
Q 2094 3413 2355 3264 
Q 2616 3116 2784 2803 
L 2784 4531 
L 2241 4531 
L 2241 4863 
L 3359 4863 
L 3359 331 
z
M 2784 1497 
L 2784 1825 
Q 2784 2422 2554 2737 
Q 2325 3053 1888 3053 
Q 1444 3053 1217 2703 
Q 991 2353 991 1663 
Q 991 975 1217 622 
Q 1444 269 1888 269 
Q 2325 269 2554 583 
Q 2784 897 2784 1497 
z
" transform="scale(0.015625)"/>
       <path id="DejaVuSerif-20" transform="scale(0.015625)"/>
       <path id="DejaVuSerif-74" d="M 691 2988 
L 184 2988 
L 184 3322 
L 691 3322 
L 691 4353 
L 1269 4353 
L 1269 3322 
L 2350 3322 
L 2350 2988 
L 1269 2988 
L 1269 878 
Q 1269 456 1350 337 
Q 1431 219 1650 219 
Q 1875 219 1978 351 
Q 2081 484 2088 781 
L 2522 781 
Q 2497 328 2275 118 
Q 2053 -91 1600 -91 
Q 1103 -91 897 129 
Q 691 350 691 878 
L 691 2988 
z
" transform="scale(0.015625)"/>
       <path id="DejaVuSerif-70" d="M 1313 1825 
L 1313 1497 
Q 1313 897 1542 583 
Q 1772 269 2209 269 
Q 2650 269 2876 622 
Q 3103 975 3103 1663 
Q 3103 2353 2876 2703 
Q 2650 3053 2209 3053 
Q 1772 3053 1542 2737 
Q 1313 2422 1313 1825 
z
M 738 2988 
L 184 2988 
L 184 3322 
L 1313 3322 
L 1313 2803 
Q 1481 3116 1742 3264 
Q 2003 3413 2388 3413 
Q 3000 3413 3387 2928 
Q 3775 2444 3775 1663 
Q 3775 881 3387 395 
Q 3000 -91 2388 -91 
Q 2003 -91 1742 57 
Q 1481 206 1313 519 
L 1313 -997 
L 1856 -997 
L 1856 -1331 
L 184 -1331 
L 184 -997 
L 738 -997 
L 738 2988 
z
" transform="scale(0.015625)"/>
       <path id="DejaVuSerif-68" d="M 263 0 
L 263 331 
L 781 331 
L 781 4531 
L 231 4531 
L 231 4863 
L 1356 4863 
L 1356 2731 
Q 1516 3069 1770 3241 
Q 2025 3413 2363 3413 
Q 2913 3413 3172 3097 
Q 3431 2781 3431 2113 
L 3431 331 
L 3944 331 
L 3944 0 
L 2356 0 
L 2356 331 
L 2853 331 
L 2853 1931 
Q 2853 2541 2704 2764 
Q 2556 2988 2175 2988 
Q 1775 2988 1565 2697 
Q 1356 2406 1356 1850 
L 1356 331 
L 1856 331 
L 1856 0 
L 263 0 
z
" transform="scale(0.015625)"/>
       <path id="DejaVuSerif-65" d="M 3469 1600 
L 991 1600 
L 991 1575 
Q 991 903 1244 561 
Q 1497 219 1991 219 
Q 2369 219 2611 417 
Q 2853 616 2950 1006 
L 3413 1006 
Q 3275 459 2904 184 
Q 2534 -91 1931 -91 
Q 1203 -91 761 389 
Q 319 869 319 1663 
Q 319 2450 753 2931 
Q 1188 3413 1894 3413 
Q 2647 3413 3050 2948 
Q 3453 2484 3469 1600 
z
M 2791 1931 
Q 2772 2513 2545 2808 
Q 2319 3103 1894 3103 
Q 1497 3103 1269 2806 
Q 1041 2509 991 1931 
L 2791 1931 
z
" transform="scale(0.015625)"/>
       <path id="DejaVuSerif-69" d="M 622 4353 
Q 622 4497 726 4603 
Q 831 4709 978 4709 
Q 1122 4709 1226 4603 
Q 1331 4497 1331 4353 
Q 1331 4206 1228 4103 
Q 1125 4000 978 4000 
Q 831 4000 726 4103 
Q 622 4206 622 4353 
z
M 1356 331 
L 1900 331 
L 1900 0 
L 231 0 
L 231 331 
L 781 331 
L 781 2988 
L 231 2988 
L 231 3322 
L 1356 3322 
L 1356 331 
z
" transform="scale(0.015625)"/>
       <path id="DejaVuSerif-67" d="M 3359 2988 
L 3359 72 
Q 3359 -644 2965 -1033 
Q 2572 -1422 1844 -1422 
Q 1516 -1422 1216 -1362 
Q 916 -1303 641 -1184 
L 641 -488 
L 941 -488 
Q 997 -813 1206 -963 
Q 1416 -1113 1806 -1113 
Q 2313 -1113 2548 -827 
Q 2784 -541 2784 72 
L 2784 519 
Q 2616 206 2355 57 
Q 2094 -91 1709 -91 
Q 1097 -91 708 395 
Q 319 881 319 1663 
Q 319 2444 706 2928 
Q 1094 3413 1709 3413 
Q 2094 3413 2355 3264 
Q 2616 3116 2784 2803 
L 2784 3322 
L 3909 3322 
L 3909 2988 
L 3359 2988 
z
M 2784 1825 
Q 2784 2422 2554 2737 
Q 2325 3053 1888 3053 
Q 1444 3053 1217 2703 
Q 991 2353 991 1663 
Q 991 975 1217 622 
Q 1444 269 1888 269 
Q 2325 269 2554 583 
Q 2784 897 2784 1497 
L 2784 1825 
z
" transform="scale(0.015625)"/>
       <path id="DejaVuSerif-5b" d="M 550 4863 
L 2003 4863 
L 2003 4531 
L 1147 4531 
L 1147 -513 
L 2003 -513 
L 2003 -844 
L 550 -844 
L 550 4863 
z
" transform="scale(0.015625)"/>
       <path id="DejaVuSerif-6d" d="M 3316 2675 
Q 3481 3041 3739 3227 
Q 3997 3413 4341 3413 
Q 4863 3413 5119 3089 
Q 5375 2766 5375 2113 
L 5375 331 
L 5894 331 
L 5894 0 
L 4300 0 
L 4300 331 
L 4800 331 
L 4800 2047 
Q 4800 2556 4650 2772 
Q 4500 2988 4153 2988 
Q 3769 2988 3567 2697 
Q 3366 2406 3366 1850 
L 3366 331 
L 3866 331 
L 3866 0 
L 2291 0 
L 2291 331 
L 2791 331 
L 2791 2069 
Q 2791 2566 2641 2777 
Q 2491 2988 2144 2988 
Q 1759 2988 1557 2697 
Q 1356 2406 1356 1850 
L 1356 331 
L 1856 331 
L 1856 0 
L 263 0 
L 263 331 
L 781 331 
L 781 2994 
L 231 2994 
L 231 3322 
L 1356 3322 
L 1356 2731 
Q 1516 3063 1762 3238 
Q 2009 3413 2322 3413 
Q 2709 3413 2968 3220 
Q 3228 3028 3316 2675 
z
" transform="scale(0.015625)"/>
       <path id="DejaVuSerif-5d" d="M 1947 4863 
L 1947 -844 
L 494 -844 
L 494 -513 
L 1350 -513 
L 1350 4531 
L 494 4531 
L 494 4863 
L 1947 4863 
z
" transform="scale(0.015625)"/>
      </defs>
      <use xlink:href="#DejaVuSerif-43"/>
      <use xlink:href="#DejaVuSerif-6c" x="76.513672"/>
      <use xlink:href="#DejaVuSerif-6f" x="108.496094"/>
      <use xlink:href="#DejaVuSerif-75" x="168.701172"/>
      <use xlink:href="#DejaVuSerif-64" x="233.105469"/>
      <use xlink:href="#DejaVuSerif-20" x="297.119141"/>
      <use xlink:href="#DejaVuSerif-74" x="328.90625"/>
      <use xlink:href="#DejaVuSerif-6f" x="369.091797"/>
      <use xlink:href="#DejaVuSerif-70" x="429.296875"/>
      <use xlink:href="#DejaVuSerif-20" x="493.310547"/>
      <use xlink:href="#DejaVuSerif-68" x="525.097656"/>
      <use xlink:href="#DejaVuSerif-65" x="589.501953"/>
      <use xlink:href="#DejaVuSerif-69" x="648.681641"/>
      <use xlink:href="#DejaVuSerif-67" x="680.664062"/>
      <use xlink:href="#DejaVuSerif-68" x="744.677734"/>
      <use xlink:href="#DejaVuSerif-74" x="809.082031"/>
      <use xlink:href="#DejaVuSerif-20" x="849.267578"/>
      <use xlink:href="#DejaVuSerif-5b" x="881.054688"/>
      <use xlink:href="#DejaVuSerif-6d" x="920.068359"/>
      <use xlink:href="#DejaVuSerif-5d" x="1014.892578"/>
     </g>
    </g>
   </g>
   <g id="matplotlib.axis_2">
    <g id="ytick_1">
     <g id="line2d_7">
      <path d="M 10.7 43.944843 
L 108.989025 43.944843 
" clip-path="url(#p1c0dd5576a)" style="fill: none; stroke: #d3d3d3; stroke-width: 0.5; stroke-linecap: square"/>
     </g>
     <g id="line2d_8">
      <defs>
       <path id="md6e04ba121" d="M 0 0 
L -3.5 0 
" style="stroke: #000000; stroke-width: 0.8"/>
      </defs>
      <g>
       <use xlink:href="#md6e04ba121" x="10.7" y="43.944843" style="stroke: #000000; stroke-width: 0.8"/>
      </g>
     </g>
    </g>
    <g id="ytick_2">
     <g id="line2d_9">
      <path d="M 10.7 24.027012 
L 108.989025 24.027012 
" clip-path="url(#p1c0dd5576a)" style="fill: none; stroke: #d3d3d3; stroke-width: 0.5; stroke-linecap: square"/>
     </g>
     <g id="line2d_10">
      <g>
       <use xlink:href="#md6e04ba121" x="10.7" y="24.027012" style="stroke: #000000; stroke-width: 0.8"/>
      </g>
     </g>
    </g>
   </g>
   <g id="line2d_11">
    <path d="M 15.167683 43.827366 
L 16.070245 43.823388 
L 16.972807 43.819488 
L 17.87537 43.815432 
L 18.777932 43.810942 
L 19.680494 43.805704 
L 20.583056 43.79938 
L 21.485618 43.79162 
L 22.388181 43.782075 
L 23.290743 43.770411 
L 24.193305 43.75632 
L 25.095867 43.739533 
L 25.998429 43.719822 
L 26.900992 43.697011 
L 27.803554 43.670974 
L 28.706116 43.641636 
L 29.608678 43.608972 
L 30.511241 43.572998 
L 31.413803 43.533768 
L 32.316365 43.49137 
L 33.218927 43.445919 
L 34.121489 43.397552 
L 35.024052 43.346427 
L 35.926614 43.292723 
L 36.829176 43.236636 
L 37.731738 43.178382 
L 38.6343 43.118203 
L 39.536863 43.056361 
L 40.439425 42.993144 
L 41.341987 42.928862 
L 42.244549 42.863846 
L 43.147111 42.798444 
L 44.049674 42.733013 
L 44.952236 42.66791 
L 45.854798 42.603487 
L 46.75736 42.540083 
L 47.659923 42.47801 
L 48.562485 42.417555 
L 49.465047 42.358973 
L 50.367609 42.302483 
L 51.270171 42.248274 
L 52.172734 42.196508 
L 53.075296 42.147323 
L 53.977858 42.100842 
L 54.88042 42.057181 
L 55.782982 42.01645 
L 56.685545 41.978763 
L 57.588107 41.944235 
L 58.490669 41.912985 
L 59.393231 41.885125 
L 60.295793 41.860759 
L 61.198356 41.839965 
L 62.100918 41.822786 
L 63.00348 41.809212 
L 63.906042 41.799167 
L 64.808605 41.792493 
L 65.711167 41.788941 
L 66.613729 41.788166 
L 67.516291 41.789726 
L 68.418853 41.793089 
L 69.321416 41.797655 
L 70.223978 41.802775 
L 71.12654 41.807789 
L 72.029102 41.812066 
L 72.931664 41.815046 
L 73.834227 41.816287 
L 74.736789 41.81551 
L 75.639351 41.812636 
L 76.541913 41.80781 
L 77.444475 41.80142 
L 78.347038 41.794091 
L 79.2496 41.786669 
L 80.152162 41.780188 
L 81.054724 41.775813 
L 81.957287 41.774787 
L 82.859849 41.778357 
L 83.762411 41.7877 
L 84.664973 41.803859 
L 85.567535 41.827677 
L 86.470098 41.859751 
L 87.37266 41.900396 
L 88.275222 41.94963 
L 89.177784 42.007175 
L 90.080346 42.072479 
L 90.982909 42.14475 
L 91.885471 42.222999 
L 92.788033 42.306102 
L 93.690595 42.392847 
L 94.593157 42.482004 
L 95.49572 42.572367 
L 96.398282 42.662806 
L 97.300844 42.752302 
L 98.203406 42.839973 
L 99.105968 42.925085 
L 100.008531 43.007062 
L 100.911093 43.085476 
L 101.813655 43.160036 
L 102.716217 43.23057 
L 103.61878 43.297008 
L 104.521342 43.359353 
" clip-path="url(#p1c0dd5576a)" style="fill: none; stroke: #595959; stroke-linecap: square"/>
   </g>
   <g id="line2d_12">
    <path d="M 15.167683 43.944843 
L 16.070245 43.944843 
L 16.972807 43.944843 
L 17.87537 43.944843 
L 18.777932 43.944843 
L 19.680494 43.944843 
L 20.583056 43.944843 
L 21.485618 43.944843 
L 22.388181 43.944843 
L 23.290743 43.944843 
L 24.193305 43.944843 
L 25.095867 43.944843 
L 25.998429 43.944843 
L 26.900992 43.944843 
L 27.803554 43.944843 
L 28.706116 43.944843 
L 29.608678 43.944843 
L 30.511241 43.944843 
L 31.413803 43.944843 
L 32.316365 43.944843 
L 33.218927 43.944843 
L 34.121489 43.944843 
L 35.024052 43.944843 
L 35.926614 43.944843 
L 36.829176 43.944843 
L 37.731738 43.944843 
L 38.6343 43.944843 
L 39.536863 43.944843 
L 40.439425 43.944843 
L 41.341987 43.944843 
L 42.244549 43.944843 
L 43.147111 43.944843 
L 44.049674 43.944843 
L 44.952236 43.944843 
L 45.854798 43.944843 
L 46.75736 43.944843 
L 47.659923 43.944843 
L 48.562485 43.944843 
L 49.465047 43.944843 
L 50.367609 43.944843 
L 51.270171 43.944843 
L 52.172734 43.944843 
L 53.075296 43.944843 
L 53.977858 43.944843 
L 54.88042 43.944843 
L 55.782982 43.944843 
L 56.685545 43.944843 
L 57.588107 43.944843 
L 58.490669 43.944843 
L 59.393231 43.944843 
L 60.295793 43.944843 
L 61.198356 43.944843 
L 62.100918 43.944843 
L 63.00348 43.944843 
L 63.906042 43.944843 
L 64.808605 43.944843 
L 65.711167 43.944843 
L 66.613729 43.944841 
L 67.516291 43.943503 
L 68.418853 43.824244 
L 69.321416 42.386868 
L 70.223978 39.893118 
L 71.12654 35.640984 
L 72.029102 27.817323 
L 72.931664 16.467545 
L 73.834227 8.949754 
L 74.736789 17.887103 
L 75.639351 30.116604 
L 76.541913 37.533452 
L 77.444475 42.513576 
L 78.347038 43.853484 
L 79.2496 43.943784 
L 80.152162 43.944841 
L 81.054724 43.944843 
L 81.957287 43.944843 
L 82.859849 43.944843 
L 83.762411 43.944843 
L 84.664973 43.944843 
L 85.567535 43.944843 
L 86.470098 43.944843 
L 87.37266 43.944843 
L 88.275222 43.944843 
L 89.177784 43.944843 
L 90.080346 43.944843 
L 90.982909 43.944843 
L 91.885471 43.944843 
L 92.788033 43.944843 
L 93.690595 43.944843 
L 94.593157 43.944843 
L 95.49572 43.944843 
L 96.398282 43.944843 
L 97.300844 43.944843 
L 98.203406 43.944843 
L 99.105968 43.944843 
L 100.008531 43.944843 
L 100.911093 43.944843 
L 101.813655 43.944843 
L 102.716217 43.944843 
L 103.61878 43.944843 
L 104.521342 43.944843 
" clip-path="url(#p1c0dd5576a)" style="fill: none; stroke-dasharray: 3.7,1.6; stroke-dashoffset: 0; stroke: #1f77b4"/>
   </g>
   <g id="patch_3">
    <path d="M 10.7 45.694597 
L 10.7 7.2 
" style="fill: none; stroke: #000000; stroke-width: 0.5; stroke-linejoin: miter; stroke-linecap: square"/>
   </g>
   <g id="patch_4">
    <path d="M 10.7 45.694597 
L 108.989025 45.694597 
" style="fill: none; stroke: #000000; stroke-width: 0.5; stroke-linejoin: miter; stroke-linecap: square"/>
   </g>
   <g id="line2d_13">
    <path d="M 69.38155 43.591751 
L 69.477985 43.522124 
L 69.57442 43.440621 
L 69.670854 43.345609 
L 69.767289 43.235304 
L 69.863724 43.107776 
L 69.960159 42.960947 
L 70.056594 42.792603 
L 70.153029 42.600403 
L 70.249463 42.381894 
L 70.345898 42.134532 
L 70.442333 41.85571 
L 70.538768 41.542783 
L 70.635203 41.193109 
L 70.731637 40.80409 
L 70.828072 40.373217 
L 70.924507 39.898125 
L 71.020942 39.376648 
L 71.117377 38.806877 
L 71.213812 38.187229 
L 71.310246 37.516506 
L 71.406681 36.793961 
L 71.503116 36.019367 
L 71.599551 35.193074 
L 71.695986 34.316065 
L 71.792421 33.390012 
L 71.888855 32.417314 
L 71.98529 31.401136 
L 72.081725 30.345422 
L 72.17816 29.254913 
L 72.274595 28.135136 
L 72.37103 26.992384 
L 72.467464 25.833678 
L 72.563899 24.666715 
L 72.660334 23.499795 
L 72.756769 22.341736 
L 72.853204 21.201774 
L 72.949638 20.089441 
L 73.046073 19.014446 
L 73.142508 17.986531 
L 73.238943 17.015331 
L 73.335378 16.110221 
L 73.431813 15.280171 
L 73.528247 14.533598 
L 73.624682 13.878222 
L 73.721117 13.320932 
L 73.817552 12.867672 
L 73.913987 12.52333 
L 74.010422 12.291652 
L 74.106856 12.175173 
L 74.203291 12.175173 
L 74.299726 12.291652 
L 74.396161 12.52333 
L 74.492596 12.867672 
L 74.589031 13.320932 
L 74.685465 13.878222 
L 74.7819 14.533598 
L 74.878335 15.280171 
L 74.97477 16.110221 
L 75.071205 17.015331 
L 75.16764 17.986531 
L 75.264074 19.014446 
L 75.360509 20.089441 
L 75.456944 21.201774 
L 75.553379 22.341736 
L 75.649814 23.499795 
L 75.746248 24.666715 
L 75.842683 25.833678 
L 75.939118 26.992384 
L 76.035553 28.135136 
L 76.131988 29.254913 
L 76.228423 30.345422 
L 76.324857 31.401136 
L 76.421292 32.417314 
L 76.517727 33.390012 
L 76.614162 34.316065 
L 76.710597 35.193074 
L 76.807032 36.019367 
L 76.903466 36.793961 
L 76.999901 37.516506 
L 77.096336 38.187229 
L 77.192771 38.806877 
L 77.289206 39.376648 
L 77.385641 39.898125 
L 77.482075 40.373217 
L 77.57851 40.80409 
L 77.674945 41.193109 
L 77.77138 41.542783 
L 77.867815 41.85571 
L 77.964249 42.134532 
L 78.060684 42.381894 
L 78.157119 42.600403 
L 78.253554 42.792603 
L 78.349989 42.960947 
L 78.446424 43.107776 
L 78.542858 43.235304 
L 78.639293 43.345609 
L 78.735728 43.440621 
L 78.832163 43.522124 
L 78.928598 43.591751 
" clip-path="url(#p1c0dd5576a)" style="fill: none; stroke: #000000; stroke-linecap: square"/>
   </g>
   <g id="line2d_14">
    <path d="M 74.155074 45.694597 
L 74.155074 7.2 
" clip-path="url(#p1c0dd5576a)" style="fill: none; stroke: #000000; stroke-linecap: square"/>
   </g>
  </g>
  <g id="axes_2">
   <g id="patch_5">
    <path d="M 121.875757 45.694597 
L 220.164782 45.694597 
L 220.164782 7.2 
L 121.875757 7.2 
z
" style="fill: #ffffff"/>
   </g>
   <g id="matplotlib.axis_3">
    <g id="xtick_4">
     <g id="line2d_15">
      <path d="M 123.722294 45.694597 
L 123.722294 7.2 
" clip-path="url(#pc4e4f3c62c)" style="fill: none; stroke: #d3d3d3; stroke-width: 0.5; stroke-linecap: square"/>
     </g>
     <g id="line2d_16">
      <g>
       <use xlink:href="#m2027b22a3c" x="123.722294" y="45.694597" style="stroke: #000000; stroke-width: 0.8"/>
      </g>
     </g>
     <g id="text_5">
      <!-- −150 -->
      <g transform="translate(115.482138 56.25366) scale(0.06 -0.06)">
       <defs>
        <path id="DejaVuSerif-2212" d="M 678 2259 
L 4684 2259 
L 4684 1753 
L 678 1753 
L 678 2259 
z
" transform="scale(0.015625)"/>
        <path id="DejaVuSerif-31" d="M 909 0 
L 909 331 
L 1722 331 
L 1722 4213 
L 781 3603 
L 781 4013 
L 1919 4750 
L 2350 4750 
L 2350 331 
L 3163 331 
L 3163 0 
L 909 0 
z
" transform="scale(0.015625)"/>
        <path id="DejaVuSerif-35" d="M 3219 4666 
L 3219 4153 
L 1081 4153 
L 1081 2816 
Q 1244 2928 1461 2984 
Q 1678 3041 1947 3041 
Q 2703 3041 3140 2622 
Q 3578 2203 3578 1478 
Q 3578 738 3136 323 
Q 2694 -91 1894 -91 
Q 1572 -91 1234 -12 
Q 897 66 544 225 
L 544 1131 
L 897 1131 
Q 925 688 1179 453 
Q 1434 219 1894 219 
Q 2388 219 2653 544 
Q 2919 869 2919 1478 
Q 2919 2084 2655 2407 
Q 2391 2731 1894 2731 
Q 1613 2731 1398 2631 
Q 1184 2531 1019 2322 
L 750 2322 
L 750 4666 
L 3219 4666 
z
" transform="scale(0.015625)"/>
       </defs>
       <use xlink:href="#DejaVuSerif-2212"/>
       <use xlink:href="#DejaVuSerif-31" x="83.789062"/>
       <use xlink:href="#DejaVuSerif-35" x="147.412109"/>
       <use xlink:href="#DejaVuSerif-30" x="211.035156"/>
      </g>
     </g>
    </g>
    <g id="xtick_5">
     <g id="line2d_17">
      <path d="M 148.518546 45.694597 
L 148.518546 7.2 
" clip-path="url(#pc4e4f3c62c)" style="fill: none; stroke: #d3d3d3; stroke-width: 0.5; stroke-linecap: square"/>
     </g>
     <g id="line2d_18">
      <g>
       <use xlink:href="#m2027b22a3c" x="148.518546" y="45.694597" style="stroke: #000000; stroke-width: 0.8"/>
      </g>
     </g>
     <g id="text_6">
      <!-- −100 -->
      <g transform="translate(140.27839 56.25366) scale(0.06 -0.06)">
       <use xlink:href="#DejaVuSerif-2212"/>
       <use xlink:href="#DejaVuSerif-31" x="83.789062"/>
       <use xlink:href="#DejaVuSerif-30" x="147.412109"/>
       <use xlink:href="#DejaVuSerif-30" x="211.035156"/>
      </g>
     </g>
    </g>
    <g id="xtick_6">
     <g id="line2d_19">
      <path d="M 173.314798 45.694597 
L 173.314798 7.2 
" clip-path="url(#pc4e4f3c62c)" style="fill: none; stroke: #d3d3d3; stroke-width: 0.5; stroke-linecap: square"/>
     </g>
     <g id="line2d_20">
      <g>
       <use xlink:href="#m2027b22a3c" x="173.314798" y="45.694597" style="stroke: #000000; stroke-width: 0.8"/>
      </g>
     </g>
     <g id="text_7">
      <!-- −50 -->
      <g transform="translate(166.983392 56.25366) scale(0.06 -0.06)">
       <use xlink:href="#DejaVuSerif-2212"/>
       <use xlink:href="#DejaVuSerif-35" x="83.789062"/>
       <use xlink:href="#DejaVuSerif-30" x="147.412109"/>
      </g>
     </g>
    </g>
    <g id="xtick_7">
     <g id="line2d_21">
      <path d="M 198.11105 45.694597 
L 198.11105 7.2 
" clip-path="url(#pc4e4f3c62c)" style="fill: none; stroke: #d3d3d3; stroke-width: 0.5; stroke-linecap: square"/>
     </g>
     <g id="line2d_22">
      <g>
       <use xlink:href="#m2027b22a3c" x="198.11105" y="45.694597" style="stroke: #000000; stroke-width: 0.8"/>
      </g>
     </g>
     <g id="text_8">
      <!-- 0 -->
      <g transform="translate(196.2023 56.25366) scale(0.06 -0.06)">
       <use xlink:href="#DejaVuSerif-30"/>
      </g>
     </g>
    </g>
    <g id="text_9">
     <!-- Cloud top rate [m/h] -->
     <g transform="translate(139.98152 66.060535) scale(0.06 -0.06)">
      <defs>
       <path id="DejaVuSerif-72" d="M 3059 3328 
L 3059 2497 
L 2728 2497 
Q 2713 2744 2591 2866 
Q 2469 2988 2234 2988 
Q 1809 2988 1582 2694 
Q 1356 2400 1356 1850 
L 1356 331 
L 2022 331 
L 2022 0 
L 263 0 
L 263 331 
L 781 331 
L 781 2994 
L 231 2994 
L 231 3322 
L 1356 3322 
L 1356 2731 
Q 1525 3078 1790 3245 
Q 2056 3413 2438 3413 
Q 2578 3413 2733 3391 
Q 2888 3369 3059 3328 
z
" transform="scale(0.015625)"/>
       <path id="DejaVuSerif-61" d="M 2547 1044 
L 2547 1747 
L 1806 1747 
Q 1378 1747 1168 1562 
Q 959 1378 959 997 
Q 959 650 1171 447 
Q 1384 244 1747 244 
Q 2106 244 2326 466 
Q 2547 688 2547 1044 
z
M 3122 2075 
L 3122 331 
L 3634 331 
L 3634 0 
L 2547 0 
L 2547 359 
Q 2356 128 2106 18 
Q 1856 -91 1522 -91 
Q 969 -91 644 203 
Q 319 497 319 997 
Q 319 1513 691 1797 
Q 1063 2081 1741 2081 
L 2547 2081 
L 2547 2309 
Q 2547 2688 2317 2895 
Q 2088 3103 1672 3103 
Q 1328 3103 1125 2947 
Q 922 2791 872 2484 
L 575 2484 
L 575 3156 
Q 875 3284 1158 3348 
Q 1441 3413 1709 3413 
Q 2400 3413 2761 3070 
Q 3122 2728 3122 2075 
z
" transform="scale(0.015625)"/>
       <path id="DejaVuSerif-2f" d="M 1656 4666 
L 2156 4666 
L 500 -594 
L 0 -594 
L 1656 4666 
z
" transform="scale(0.015625)"/>
      </defs>
      <use xlink:href="#DejaVuSerif-43"/>
      <use xlink:href="#DejaVuSerif-6c" x="76.513672"/>
      <use xlink:href="#DejaVuSerif-6f" x="108.496094"/>
      <use xlink:href="#DejaVuSerif-75" x="168.701172"/>
      <use xlink:href="#DejaVuSerif-64" x="233.105469"/>
      <use xlink:href="#DejaVuSerif-20" x="297.119141"/>
      <use xlink:href="#DejaVuSerif-74" x="328.90625"/>
      <use xlink:href="#DejaVuSerif-6f" x="369.091797"/>
      <use xlink:href="#DejaVuSerif-70" x="429.296875"/>
      <use xlink:href="#DejaVuSerif-20" x="493.310547"/>
      <use xlink:href="#DejaVuSerif-72" x="525.097656"/>
      <use xlink:href="#DejaVuSerif-61" x="572.900391"/>
      <use xlink:href="#DejaVuSerif-74" x="632.519531"/>
      <use xlink:href="#DejaVuSerif-65" x="672.705078"/>
      <use xlink:href="#DejaVuSerif-20" x="731.884766"/>
      <use xlink:href="#DejaVuSerif-5b" x="763.671875"/>
      <use xlink:href="#DejaVuSerif-6d" x="802.685547"/>
      <use xlink:href="#DejaVuSerif-2f" x="897.509766"/>
      <use xlink:href="#DejaVuSerif-68" x="931.201172"/>
      <use xlink:href="#DejaVuSerif-5d" x="995.605469"/>
     </g>
    </g>
   </g>
   <g id="matplotlib.axis_4">
    <g id="ytick_3">
     <g id="line2d_23">
      <path d="M 121.875757 43.944843 
L 220.164782 43.944843 
" clip-path="url(#pc4e4f3c62c)" style="fill: none; stroke: #d3d3d3; stroke-width: 0.5; stroke-linecap: square"/>
     </g>
     <g id="line2d_24">
      <g>
       <use xlink:href="#md6e04ba121" x="121.875757" y="43.944843" style="stroke: #000000; stroke-width: 0.8"/>
      </g>
     </g>
    </g>
    <g id="ytick_4">
     <g id="line2d_25">
      <path d="M 121.875757 30.25183 
L 220.164782 30.25183 
" clip-path="url(#pc4e4f3c62c)" style="fill: none; stroke: #d3d3d3; stroke-width: 0.5; stroke-linecap: square"/>
     </g>
     <g id="line2d_26">
      <g>
       <use xlink:href="#md6e04ba121" x="121.875757" y="30.25183" style="stroke: #000000; stroke-width: 0.8"/>
      </g>
     </g>
    </g>
    <g id="ytick_5">
     <g id="line2d_27">
      <path d="M 121.875757 16.558816 
L 220.164782 16.558816 
" clip-path="url(#pc4e4f3c62c)" style="fill: none; stroke: #d3d3d3; stroke-width: 0.5; stroke-linecap: square"/>
     </g>
     <g id="line2d_28">
      <g>
       <use xlink:href="#md6e04ba121" x="121.875757" y="16.558816" style="stroke: #000000; stroke-width: 0.8"/>
      </g>
     </g>
    </g>
   </g>
   <g id="line2d_29">
    <path d="M 126.34344 43.860874 
L 127.246003 43.86201 
L 128.148565 43.865327 
L 129.051127 43.870562 
L 129.953689 43.877317 
L 130.856251 43.885108 
L 131.758814 43.89342 
L 132.661376 43.901765 
L 133.563938 43.909725 
L 134.4665 43.916984 
L 135.369062 43.923336 
L 136.271625 43.928687 
L 137.174187 43.933032 
L 138.076749 43.93644 
L 138.979311 43.939026 
L 139.881873 43.940924 
L 140.784436 43.942274 
L 141.686998 43.943204 
L 142.58956 43.943825 
L 143.492122 43.944228 
L 144.394685 43.944481 
L 145.297247 43.944636 
L 146.199809 43.944728 
L 147.102371 43.94478 
L 148.004933 43.94481 
L 148.907496 43.944826 
L 149.810058 43.944834 
L 150.71262 43.944839 
L 151.615182 43.944841 
L 152.517744 43.944842 
L 153.420307 43.944842 
L 154.322869 43.944842 
L 155.225431 43.94484 
L 156.127993 43.944838 
L 157.030555 43.944833 
L 157.933118 43.944823 
L 158.83568 43.944805 
L 159.738242 43.944771 
L 160.640804 43.944711 
L 161.543367 43.944605 
L 162.445929 43.944424 
L 163.348491 43.944126 
L 164.251053 43.943646 
L 165.153615 43.942895 
L 166.056178 43.941748 
L 166.95874 43.940046 
L 167.861302 43.937584 
L 168.763864 43.934113 
L 169.666426 43.92934 
L 170.568989 43.922937 
L 171.471551 43.914545 
L 172.374113 43.903794 
L 173.276675 43.890312 
L 174.179237 43.873743 
L 175.0818 43.853755 
L 175.984362 43.830049 
L 176.886924 43.802357 
L 177.789486 43.770441 
L 178.692049 43.734078 
L 179.594611 43.693054 
L 180.497173 43.647151 
L 181.399735 43.596139 
L 182.302297 43.539771 
L 183.20486 43.477784 
L 184.107422 43.409896 
L 185.009984 43.335807 
L 185.912546 43.255197 
L 186.815108 43.167729 
L 187.717671 43.073039 
L 188.620233 42.970751 
L 189.522795 42.860495 
L 190.425357 42.741948 
L 191.327919 42.614904 
L 192.230482 42.479378 
L 193.133044 42.335726 
L 194.035606 42.184796 
L 194.938168 42.028064 
L 195.84073 41.867754 
L 196.743293 41.706912 
L 197.645855 41.549402 
L 198.548417 41.399823 
L 199.450979 41.263322 
L 200.353542 41.145325 
L 201.256104 41.051187 
L 202.158666 40.985799 
L 203.061228 40.953186 
L 203.96379 40.956139 
L 204.866353 40.995936 
L 205.768915 41.072169 
L 206.671477 41.182719 
L 207.574039 41.323887 
L 208.476601 41.490656 
L 209.379164 41.67708 
L 210.281726 41.87672 
L 211.184288 42.083112 
L 212.08685 42.290181 
L 212.989412 42.492576 
L 213.891975 42.685895 
L 214.794537 42.866785 
L 215.697099 43.032933 
" clip-path="url(#pc4e4f3c62c)" style="fill: none; stroke: #595959; stroke-linecap: square"/>
   </g>
   <g id="line2d_30">
    <path d="M 126.34344 43.944843 
L 127.246003 43.944843 
L 128.148565 43.944843 
L 129.051127 43.944843 
L 129.953689 43.944843 
L 130.856251 43.944843 
L 131.758814 43.944843 
L 132.661376 43.944843 
L 133.563938 43.944843 
L 134.4665 43.944843 
L 135.369062 43.944843 
L 136.271625 43.944843 
L 137.174187 43.944843 
L 138.076749 43.944843 
L 138.979311 43.944843 
L 139.881873 43.944843 
L 140.784436 43.944843 
L 141.686998 43.944843 
L 142.58956 43.944843 
L 143.492122 43.944843 
L 144.394685 43.944843 
L 145.297247 43.944843 
L 146.199809 43.944843 
L 147.102371 43.944843 
L 148.004933 43.944843 
L 148.907496 43.944843 
L 149.810058 43.944843 
L 150.71262 43.944843 
L 151.615182 43.944843 
L 152.517744 43.944843 
L 153.420307 43.944843 
L 154.322869 43.944843 
L 155.225431 43.944843 
L 156.127993 43.944843 
L 157.030555 43.944843 
L 157.933118 43.944843 
L 158.83568 43.944843 
L 159.738242 43.944843 
L 160.640804 43.944843 
L 161.543367 43.944843 
L 162.445929 43.944843 
L 163.348491 43.944843 
L 164.251053 43.944843 
L 165.153615 43.944843 
L 166.056178 43.944843 
L 166.95874 43.944843 
L 167.861302 43.944843 
L 168.763864 43.944843 
L 169.666426 43.944843 
L 170.568989 43.944843 
L 171.471551 43.944843 
L 172.374113 43.944843 
L 173.276675 43.944843 
L 174.179237 43.944843 
L 175.0818 43.944843 
L 175.984362 43.944843 
L 176.886924 43.944843 
L 177.789486 43.944843 
L 178.692049 43.944843 
L 179.594611 43.944843 
L 180.497173 43.944843 
L 181.399735 43.944843 
L 182.302297 43.944843 
L 183.20486 43.944843 
L 184.107422 43.944843 
L 185.009984 43.944843 
L 185.912546 43.944843 
L 186.815108 43.944843 
L 187.717671 43.944843 
L 188.620233 43.944843 
L 189.522795 43.944843 
L 190.425357 43.944843 
L 191.327919 43.944843 
L 192.230482 43.944843 
L 193.133044 43.944843 
L 194.035606 43.944843 
L 194.938168 43.944843 
L 195.84073 43.944843 
L 196.743293 43.944843 
L 197.645855 43.944843 
L 198.548417 43.944224 
L 199.450979 42.798517 
L 200.353542 33.663296 
L 201.256104 8.949754 
L 202.158666 21.058284 
L 203.061228 40.254646 
L 203.96379 42.503561 
L 204.866353 43.942821 
L 205.768915 43.944843 
L 206.671477 43.944843 
L 207.574039 43.944843 
L 208.476601 43.944843 
L 209.379164 43.944843 
L 210.281726 43.944843 
L 211.184288 43.944843 
L 212.08685 43.944843 
L 212.989412 43.944843 
L 213.891975 43.944843 
L 214.794537 43.944843 
L 215.697099 43.944843 
" clip-path="url(#pc4e4f3c62c)" style="fill: none; stroke-dasharray: 3.7,1.6; stroke-dashoffset: 0; stroke: #1f77b4"/>
   </g>
   <g id="patch_6">
    <path d="M 121.875757 45.694597 
L 121.875757 7.2 
" style="fill: none; stroke: #000000; stroke-width: 0.5; stroke-linejoin: miter; stroke-linecap: square"/>
   </g>
   <g id="patch_7">
    <path d="M 121.875757 45.694597 
L 220.164782 45.694597 
" style="fill: none; stroke: #000000; stroke-width: 0.5; stroke-linejoin: miter; stroke-linecap: square"/>
   </g>
   <g id="line2d_31">
    <path d="M 199.04091 43.621187 
L 199.097265 43.557364 
L 199.15362 43.482656 
L 199.209975 43.395565 
L 199.26633 43.294456 
L 199.322685 43.177559 
L 199.37904 43.042971 
L 199.435395 42.888661 
L 199.491751 42.712484 
L 199.548106 42.512191 
L 199.604461 42.285452 
L 199.660816 42.029874 
L 199.717171 41.743034 
L 199.773526 41.422512 
L 199.829881 41.065924 
L 199.886236 40.670971 
L 199.942592 40.235486 
L 199.998947 39.757482 
L 200.055302 39.235212 
L 200.111657 38.667221 
L 200.168012 38.052414 
L 200.224367 37.390105 
L 200.280722 36.680087 
L 200.337077 35.922678 
L 200.393432 35.118782 
L 200.449788 34.269931 
L 200.506143 33.378324 
L 200.562498 32.446861 
L 200.618853 31.479158 
L 200.675208 30.479561 
L 200.731563 29.453136 
L 200.787918 28.405651 
L 200.844273 27.343543 
L 200.900629 26.273865 
L 200.956984 25.204227 
L 201.013339 24.142712 
L 201.069694 23.097784 
L 201.126049 22.078183 
L 201.182404 21.092806 
L 201.238759 20.150585 
L 201.295114 19.26035 
L 201.351469 18.430696 
L 201.407825 17.669845 
L 201.46418 16.985511 
L 201.520535 16.384771 
L 201.57689 15.87394 
L 201.633245 15.458467 
L 201.6896 15.142832 
L 201.745955 14.930468 
L 201.80231 14.8237 
L 201.858666 14.8237 
L 201.915021 14.930468 
L 201.971376 15.142832 
L 202.027731 15.458467 
L 202.084086 15.87394 
L 202.140441 16.384771 
L 202.196796 16.985511 
L 202.253151 17.669845 
L 202.309506 18.430696 
L 202.365862 19.26035 
L 202.422217 20.150585 
L 202.478572 21.092806 
L 202.534927 22.078183 
L 202.591282 23.097784 
L 202.647637 24.142712 
L 202.703992 25.204227 
L 202.760347 26.273865 
L 202.816703 27.343543 
L 202.873058 28.405651 
L 202.929413 29.453136 
L 202.985768 30.479561 
L 203.042123 31.479158 
L 203.098478 32.446861 
L 203.154833 33.378324 
L 203.211188 34.269931 
L 203.267544 35.118782 
L 203.323899 35.922678 
L 203.380254 36.680087 
L 203.436609 37.390105 
L 203.492964 38.052414 
L 203.549319 38.667221 
L 203.605674 39.235212 
L 203.662029 39.757482 
L 203.718384 40.235486 
L 203.77474 40.670971 
L 203.831095 41.065924 
L 203.88745 41.422512 
L 203.943805 41.743034 
L 204.00016 42.029874 
L 204.056515 42.285452 
L 204.11287 42.512191 
L 204.169225 42.712484 
L 204.225581 42.888661 
L 204.281936 43.042971 
L 204.338291 43.177559 
L 204.394646 43.294456 
L 204.451001 43.395565 
L 204.507356 43.482656 
L 204.563711 43.557364 
L 204.620066 43.621187 
" clip-path="url(#pc4e4f3c62c)" style="fill: none; stroke: #000000; stroke-linecap: square"/>
   </g>
   <g id="line2d_32">
    <path d="M 201.830488 45.694597 
L 201.830488 7.2 
" clip-path="url(#pc4e4f3c62c)" style="fill: none; stroke: #000000; stroke-linecap: square"/>
   </g>
  </g>
  <g id="axes_3">
   <g id="patch_8">
    <path d="M 10.7 112.269194 
L 108.989025 112.269194 
L 108.989025 73.774597 
L 10.7 73.774597 
z
" style="fill: #ffffff"/>
   </g>
   <g id="matplotlib.axis_5">
    <g id="xtick_8">
     <g id="line2d_33">
      <path d="M 25.414091 112.269194 
L 25.414091 73.774597 
" clip-path="url(#p90d4ea2e36)" style="fill: none; stroke: #d3d3d3; stroke-width: 0.5; stroke-linecap: square"/>
     </g>
     <g id="line2d_34">
      <g>
       <use xlink:href="#m2027b22a3c" x="25.414091" y="112.269194" style="stroke: #000000; stroke-width: 0.8"/>
      </g>
     </g>
     <g id="text_10">
      <!-- 500 -->
      <g transform="translate(19.687841 122.828257) scale(0.06 -0.06)">
       <use xlink:href="#DejaVuSerif-35"/>
       <use xlink:href="#DejaVuSerif-30" x="63.623047"/>
       <use xlink:href="#DejaVuSerif-30" x="127.246094"/>
      </g>
     </g>
    </g>
    <g id="xtick_9">
     <g id="line2d_35">
      <path d="M 51.030111 112.269194 
L 51.030111 73.774597 
" clip-path="url(#p90d4ea2e36)" style="fill: none; stroke: #d3d3d3; stroke-width: 0.5; stroke-linecap: square"/>
     </g>
     <g id="line2d_36">
      <g>
       <use xlink:href="#m2027b22a3c" x="51.030111" y="112.269194" style="stroke: #000000; stroke-width: 0.8"/>
      </g>
     </g>
     <g id="text_11">
      <!-- 600 -->
      <g transform="translate(45.303861 122.828257) scale(0.06 -0.06)">
       <defs>
        <path id="DejaVuSerif-36" d="M 2094 219 
Q 2534 219 2771 542 
Q 3009 866 3009 1472 
Q 3009 2078 2771 2401 
Q 2534 2725 2094 2725 
Q 1647 2725 1412 2412 
Q 1178 2100 1178 1509 
Q 1178 888 1415 553 
Q 1653 219 2094 219 
z
M 1075 2569 
Q 1288 2803 1556 2918 
Q 1825 3034 2163 3034 
Q 2859 3034 3264 2615 
Q 3669 2197 3669 1472 
Q 3669 763 3233 336 
Q 2797 -91 2069 -91 
Q 1278 -91 853 498 
Q 428 1088 428 2181 
Q 428 3406 931 4078 
Q 1434 4750 2350 4750 
Q 2597 4750 2869 4703 
Q 3141 4656 3425 4563 
L 3425 3794 
L 3072 3794 
Q 3034 4109 2831 4275 
Q 2628 4441 2284 4441 
Q 1678 4441 1381 3981 
Q 1084 3522 1075 2569 
z
" transform="scale(0.015625)"/>
       </defs>
       <use xlink:href="#DejaVuSerif-36"/>
       <use xlink:href="#DejaVuSerif-30" x="63.623047"/>
       <use xlink:href="#DejaVuSerif-30" x="127.246094"/>
      </g>
     </g>
    </g>
    <g id="xtick_10">
     <g id="line2d_37">
      <path d="M 76.646131 112.269194 
L 76.646131 73.774597 
" clip-path="url(#p90d4ea2e36)" style="fill: none; stroke: #d3d3d3; stroke-width: 0.5; stroke-linecap: square"/>
     </g>
     <g id="line2d_38">
      <g>
       <use xlink:href="#m2027b22a3c" x="76.646131" y="112.269194" style="stroke: #000000; stroke-width: 0.8"/>
      </g>
     </g>
     <g id="text_12">
      <!-- 700 -->
      <g transform="translate(70.919881 122.828257) scale(0.06 -0.06)">
       <use xlink:href="#DejaVuSerif-37"/>
       <use xlink:href="#DejaVuSerif-30" x="63.623047"/>
       <use xlink:href="#DejaVuSerif-30" x="127.246094"/>
      </g>
     </g>
    </g>
    <g id="xtick_11">
     <g id="line2d_39">
      <path d="M 102.262151 112.269194 
L 102.262151 73.774597 
" clip-path="url(#p90d4ea2e36)" style="fill: none; stroke: #d3d3d3; stroke-width: 0.5; stroke-linecap: square"/>
     </g>
     <g id="line2d_40">
      <g>
       <use xlink:href="#m2027b22a3c" x="102.262151" y="112.269194" style="stroke: #000000; stroke-width: 0.8"/>
      </g>
     </g>
     <g id="text_13">
      <!-- 800 -->
      <g transform="translate(96.535901 122.828257) scale(0.06 -0.06)">
       <use xlink:href="#DejaVuSerif-38"/>
       <use xlink:href="#DejaVuSerif-30" x="63.623047"/>
       <use xlink:href="#DejaVuSerif-30" x="127.246094"/>
      </g>
     </g>
    </g>
    <g id="text_14">
     <!-- Cloud base height [m] -->
     <g transform="translate(26.134825 132.635132) scale(0.06 -0.06)">
      <defs>
       <path id="DejaVuSerif-62" d="M 738 331 
L 738 4531 
L 184 4531 
L 184 4863 
L 1313 4863 
L 1313 2803 
Q 1481 3116 1742 3264 
Q 2003 3413 2388 3413 
Q 3000 3413 3387 2928 
Q 3775 2444 3775 1663 
Q 3775 881 3387 395 
Q 3000 -91 2388 -91 
Q 2003 -91 1742 57 
Q 1481 206 1313 519 
L 1313 0 
L 184 0 
L 184 331 
L 738 331 
z
M 1313 1497 
Q 1313 897 1542 583 
Q 1772 269 2209 269 
Q 2650 269 2876 622 
Q 3103 975 3103 1663 
Q 3103 2353 2876 2703 
Q 2650 3053 2209 3053 
Q 1772 3053 1542 2737 
Q 1313 2422 1313 1825 
L 1313 1497 
z
" transform="scale(0.015625)"/>
       <path id="DejaVuSerif-73" d="M 359 184 
L 359 959 
L 691 959 
Q 703 588 923 403 
Q 1144 219 1575 219 
Q 1963 219 2166 364 
Q 2369 509 2369 788 
Q 2369 1006 2220 1140 
Q 2072 1275 1594 1428 
L 1178 1569 
Q 750 1706 558 1912 
Q 366 2119 366 2438 
Q 366 2894 700 3153 
Q 1034 3413 1625 3413 
Q 1888 3413 2178 3344 
Q 2469 3275 2778 3144 
L 2778 2419 
L 2447 2419 
Q 2434 2741 2221 2922 
Q 2009 3103 1644 3103 
Q 1281 3103 1095 2975 
Q 909 2847 909 2591 
Q 909 2381 1050 2254 
Q 1191 2128 1613 1997 
L 2069 1856 
Q 2541 1709 2748 1489 
Q 2956 1269 2956 922 
Q 2956 450 2595 179 
Q 2234 -91 1600 -91 
Q 1278 -91 972 -22 
Q 666 47 359 184 
z
" transform="scale(0.015625)"/>
      </defs>
      <use xlink:href="#DejaVuSerif-43"/>
      <use xlink:href="#DejaVuSerif-6c" x="76.513672"/>
      <use xlink:href="#DejaVuSerif-6f" x="108.496094"/>
      <use xlink:href="#DejaVuSerif-75" x="168.701172"/>
      <use xlink:href="#DejaVuSerif-64" x="233.105469"/>
      <use xlink:href="#DejaVuSerif-20" x="297.119141"/>
      <use xlink:href="#DejaVuSerif-62" x="328.90625"/>
      <use xlink:href="#DejaVuSerif-61" x="392.919922"/>
      <use xlink:href="#DejaVuSerif-73" x="452.539062"/>
      <use xlink:href="#DejaVuSerif-65" x="503.857422"/>
      <use xlink:href="#DejaVuSerif-20" x="563.037109"/>
      <use xlink:href="#DejaVuSerif-68" x="594.824219"/>
      <use xlink:href="#DejaVuSerif-65" x="659.228516"/>
      <use xlink:href="#DejaVuSerif-69" x="718.408203"/>
      <use xlink:href="#DejaVuSerif-67" x="750.390625"/>
      <use xlink:href="#DejaVuSerif-68" x="814.404297"/>
      <use xlink:href="#DejaVuSerif-74" x="878.808594"/>
      <use xlink:href="#DejaVuSerif-20" x="918.994141"/>
      <use xlink:href="#DejaVuSerif-5b" x="950.78125"/>
      <use xlink:href="#DejaVuSerif-6d" x="989.794922"/>
      <use xlink:href="#DejaVuSerif-5d" x="1084.619141"/>
     </g>
    </g>
   </g>
   <g id="matplotlib.axis_6">
    <g id="ytick_6">
     <g id="line2d_41">
      <path d="M 10.7 110.51944 
L 108.989025 110.51944 
" clip-path="url(#p90d4ea2e36)" style="fill: none; stroke: #d3d3d3; stroke-width: 0.5; stroke-linecap: square"/>
     </g>
     <g id="line2d_42">
      <g>
       <use xlink:href="#md6e04ba121" x="10.7" y="110.51944" style="stroke: #000000; stroke-width: 0.8"/>
      </g>
     </g>
    </g>
    <g id="ytick_7">
     <g id="line2d_43">
      <path d="M 10.7 90.198253 
L 108.989025 90.198253 
" clip-path="url(#p90d4ea2e36)" style="fill: none; stroke: #d3d3d3; stroke-width: 0.5; stroke-linecap: square"/>
     </g>
     <g id="line2d_44">
      <g>
       <use xlink:href="#md6e04ba121" x="10.7" y="90.198253" style="stroke: #000000; stroke-width: 0.8"/>
      </g>
     </g>
    </g>
   </g>
   <g id="line2d_45">
    <path d="M 24.541349 109.610364 
L 25.349228 109.511997 
L 26.157107 109.407857 
L 26.964985 109.298103 
L 27.772864 109.182954 
L 28.580743 109.062697 
L 29.388622 108.937681 
L 30.1965 108.808317 
L 31.004379 108.675068 
L 31.812258 108.538441 
L 32.620136 108.398971 
L 33.428015 108.25721 
L 34.235894 108.113708 
L 35.043773 107.969008 
L 35.851651 107.823628 
L 36.65953 107.678065 
L 37.467409 107.532786 
L 38.275287 107.388239 
L 39.083166 107.244851 
L 39.891045 107.103044 
L 40.698924 106.963238 
L 41.506802 106.825854 
L 42.314681 106.691321 
L 43.12256 106.560066 
L 43.930438 106.432506 
L 44.738317 106.309038 
L 45.546196 106.190024 
L 46.354075 106.075773 
L 47.161953 105.966538 
L 47.969832 105.862507 
L 48.777711 105.763814 
L 49.585589 105.670556 
L 50.393468 105.582816 
L 51.201347 105.500701 
L 52.009226 105.424377 
L 52.817104 105.354111 
L 53.624983 105.290299 
L 54.432862 105.233491 
L 55.24074 105.184393 
L 56.048619 105.143854 
L 56.856498 105.112835 
L 57.664377 105.092355 
L 58.472255 105.083422 
L 59.280134 105.086959 
L 60.088013 105.103714 
L 60.895891 105.134187 
L 61.70377 105.178559 
L 62.511649 105.236639 
L 63.319527 105.307838 
L 64.127406 105.39116 
L 64.935285 105.485228 
L 65.743164 105.588334 
L 66.551042 105.698507 
L 67.358921 105.813602 
L 68.1668 105.931404 
L 68.974678 106.049735 
L 69.782557 106.166557 
L 70.590436 106.280073 
L 71.398315 106.388811 
L 72.206193 106.491695 
L 73.014072 106.588088 
L 73.821951 106.677817 
L 74.629829 106.761174 
L 75.437708 106.838886 
L 76.245587 106.912076 
L 77.053466 106.982189 
L 77.861344 107.050909 
L 78.669223 107.120069 
L 79.477102 107.191541 
L 80.28498 107.267137 
L 81.092859 107.348503 
L 81.900738 107.43703 
L 82.708617 107.533778 
L 83.516495 107.639408 
L 84.324374 107.754151 
L 85.132253 107.877789 
L 85.940131 108.009662 
L 86.74801 108.148703 
L 87.555889 108.293486 
L 88.363768 108.442298 
L 89.171646 108.593222 
L 89.979525 108.744228 
L 90.787404 108.893263 
L 91.595282 109.038349 
L 92.403161 109.17766 
L 93.21104 109.309595 
L 94.018919 109.432841 
L 94.826797 109.546403 
L 95.634676 109.649636 
L 96.442555 109.742238 
L 97.250433 109.824246 
L 98.058312 109.895997 
L 98.866191 109.958096 
L 99.674069 110.011357 
L 100.481948 110.056751 
L 101.289827 110.095345 
L 102.097706 110.128245 
L 102.905584 110.15654 
L 103.713463 110.18126 
L 104.521342 110.203332 
" clip-path="url(#p90d4ea2e36)" style="fill: none; stroke: #595959; stroke-linecap: square"/>
   </g>
   <g id="line2d_46">
    <path d="M 24.541349 110.51944 
L 25.349228 110.51944 
L 26.157107 110.51944 
L 26.964985 110.51944 
L 27.772864 110.51944 
L 28.580743 110.51944 
L 29.388622 110.51944 
L 30.1965 110.51944 
L 31.004379 110.51944 
L 31.812258 110.51944 
L 32.620136 110.51944 
L 33.428015 110.51944 
L 34.235894 110.51944 
L 35.043773 110.51944 
L 35.851651 110.51944 
L 36.65953 110.51944 
L 37.467409 110.51944 
L 38.275287 110.51944 
L 39.083166 110.51944 
L 39.891045 110.51944 
L 40.698924 110.51944 
L 41.506802 110.51944 
L 42.314681 110.51944 
L 43.12256 110.51944 
L 43.930438 110.519437 
L 44.738317 110.519371 
L 45.546196 110.518333 
L 46.354075 110.508019 
L 47.161953 110.442774 
L 47.969832 110.178458 
L 48.777711 109.480972 
L 49.585589 108.234372 
L 50.393468 106.60447 
L 51.201347 104.864193 
L 52.009226 103.223693 
L 52.817104 101.658781 
L 53.624983 99.216942 
L 54.432862 94.303407 
L 55.24074 87.133624 
L 56.048619 80.515748 
L 56.856498 76.762938 
L 57.664377 75.524352 
L 58.472255 75.91231 
L 59.280134 78.447668 
L 60.088013 83.528928 
L 60.895891 90.161714 
L 61.70377 96.733324 
L 62.511649 102.134845 
L 63.319527 106.130972 
L 64.127406 108.720852 
L 64.935285 109.993174 
L 65.743164 110.415641 
L 66.551042 110.506027 
L 67.358921 110.518319 
L 68.1668 110.51938 
L 68.974678 110.519438 
L 69.782557 110.51944 
L 70.590436 110.51944 
L 71.398315 110.51944 
L 72.206193 110.51944 
L 73.014072 110.51944 
L 73.821951 110.51944 
L 74.629829 110.51944 
L 75.437708 110.51944 
L 76.245587 110.51944 
L 77.053466 110.51944 
L 77.861344 110.51944 
L 78.669223 110.51944 
L 79.477102 110.51944 
L 80.28498 110.51944 
L 81.092859 110.51944 
L 81.900738 110.51944 
L 82.708617 110.51944 
L 83.516495 110.51944 
L 84.324374 110.51944 
L 85.132253 110.51944 
L 85.940131 110.51944 
L 86.74801 110.51944 
L 87.555889 110.51944 
L 88.363768 110.51944 
L 89.171646 110.51944 
L 89.979525 110.51944 
L 90.787404 110.51944 
L 91.595282 110.51944 
L 92.403161 110.51944 
L 93.21104 110.51944 
L 94.018919 110.51944 
L 94.826797 110.51944 
L 95.634676 110.51944 
L 96.442555 110.51944 
L 97.250433 110.51944 
L 98.058312 110.51944 
L 98.866191 110.51944 
L 99.674069 110.51944 
L 100.481948 110.51944 
L 101.289827 110.51944 
L 102.097706 110.51944 
L 102.905584 110.51944 
L 103.713463 110.51944 
L 104.521342 110.51944 
" clip-path="url(#p90d4ea2e36)" style="fill: none; stroke-dasharray: 3.7,1.6; stroke-dashoffset: 0; stroke: #1f77b4"/>
   </g>
   <g id="patch_9">
    <path d="M 10.7 112.269194 
L 10.7 73.774597 
" style="fill: none; stroke: #000000; stroke-width: 0.5; stroke-linejoin: miter; stroke-linecap: square"/>
   </g>
   <g id="patch_10">
    <path d="M 10.7 112.269194 
L 108.989025 112.269194 
" style="fill: none; stroke: #000000; stroke-width: 0.5; stroke-linejoin: miter; stroke-linecap: square"/>
   </g>
   <g id="line2d_47">
    <path d="M 15.167683 110.406864 
L 15.788677 110.384665 
L 16.409672 110.358679 
L 17.030666 110.328387 
L 17.651661 110.293219 
L 18.272655 110.252559 
L 18.893649 110.205746 
L 19.514644 110.152073 
L 20.135638 110.090794 
L 20.756633 110.021127 
L 21.377627 109.942261 
L 21.998622 109.853365 
L 22.619616 109.753595 
L 23.24061 109.642109 
L 23.861605 109.518079 
L 24.482599 109.380704 
L 25.103594 109.229231 
L 25.724588 109.062969 
L 26.345583 108.88131 
L 26.966577 108.683749 
L 27.587571 108.469903 
L 28.208566 108.239535 
L 28.82956 107.992573 
L 29.450555 107.729127 
L 30.071549 107.449512 
L 30.692544 107.15426 
L 31.313538 106.844136 
L 31.934532 106.520149 
L 32.555527 106.183558 
L 33.176521 105.835873 
L 33.797516 105.478856 
L 34.41851 105.114514 
L 35.039505 104.745086 
L 35.660499 104.373025 
L 36.281493 104.000977 
L 36.902488 103.631755 
L 37.523482 103.268303 
L 38.144477 102.91366 
L 38.765471 102.570921 
L 39.386466 102.243192 
L 40.00746 101.933546 
L 40.628454 101.644971 
L 41.249449 101.380328 
L 41.870443 101.142299 
L 42.491438 100.933346 
L 43.112432 100.755666 
L 43.733427 100.611154 
L 44.354421 100.501368 
L 44.975415 100.427503 
L 45.59641 100.390366 
L 46.217404 100.390366 
L 46.838399 100.427503 
L 47.459393 100.501368 
L 48.080387 100.611154 
L 48.701382 100.755666 
L 49.322376 100.933346 
L 49.943371 101.142299 
L 50.564365 101.380328 
L 51.18536 101.644971 
L 51.806354 101.933546 
L 52.427348 102.243192 
L 53.048343 102.570921 
L 53.669337 102.91366 
L 54.290332 103.268303 
L 54.911326 103.631755 
L 55.532321 104.000977 
L 56.153315 104.373025 
L 56.774309 104.745086 
L 57.395304 105.114514 
L 58.016298 105.478856 
L 58.637293 105.835873 
L 59.258287 106.183558 
L 59.879282 106.520149 
L 60.500276 106.844136 
L 61.12127 107.15426 
L 61.742265 107.449512 
L 62.363259 107.729127 
L 62.984254 107.992573 
L 63.605248 108.239535 
L 64.226243 108.469903 
L 64.847237 108.683749 
L 65.468231 108.88131 
L 66.089226 109.062969 
L 66.71022 109.229231 
L 67.331215 109.380704 
L 67.952209 109.518079 
L 68.573204 109.642109 
L 69.194198 109.753595 
L 69.815192 109.853365 
L 70.436187 109.942261 
L 71.057181 110.021127 
L 71.678176 110.090794 
L 72.29917 110.152073 
L 72.920165 110.205746 
L 73.541159 110.252559 
L 74.162153 110.293219 
L 74.783148 110.328387 
L 75.404142 110.358679 
L 76.025137 110.384665 
L 76.646131 110.406864 
" clip-path="url(#p90d4ea2e36)" style="fill: none; stroke: #000000; stroke-linecap: square"/>
   </g>
   <g id="line2d_48">
    <path d="M 45.906907 112.269194 
L 45.906907 73.774597 
" clip-path="url(#p90d4ea2e36)" style="fill: none; stroke: #000000; stroke-linecap: square"/>
   </g>
  </g>
  <g id="axes_4">
   <g id="patch_11">
    <path d="M 121.875757 112.269194 
L 220.164782 112.269194 
L 220.164782 73.774597 
L 121.875757 73.774597 
z
" style="fill: #ffffff"/>
   </g>
   <g id="matplotlib.axis_7">
    <g id="xtick_12">
     <g id="line2d_49">
      <path d="M 135.339411 112.269194 
L 135.339411 73.774597 
" clip-path="url(#p67956fbd33)" style="fill: none; stroke: #d3d3d3; stroke-width: 0.5; stroke-linecap: square"/>
     </g>
     <g id="line2d_50">
      <g>
       <use xlink:href="#m2027b22a3c" x="135.339411" y="112.269194" style="stroke: #000000; stroke-width: 0.8"/>
      </g>
     </g>
     <g id="text_15">
      <!-- −100 -->
      <g transform="translate(127.099255 122.828257) scale(0.06 -0.06)">
       <use xlink:href="#DejaVuSerif-2212"/>
       <use xlink:href="#DejaVuSerif-31" x="83.789062"/>
       <use xlink:href="#DejaVuSerif-30" x="147.412109"/>
       <use xlink:href="#DejaVuSerif-30" x="211.035156"/>
      </g>
     </g>
    </g>
    <g id="xtick_13">
     <g id="line2d_51">
      <path d="M 158.078366 112.269194 
L 158.078366 73.774597 
" clip-path="url(#p67956fbd33)" style="fill: none; stroke: #d3d3d3; stroke-width: 0.5; stroke-linecap: square"/>
     </g>
     <g id="line2d_52">
      <g>
       <use xlink:href="#m2027b22a3c" x="158.078366" y="112.269194" style="stroke: #000000; stroke-width: 0.8"/>
      </g>
     </g>
     <g id="text_16">
      <!-- −50 -->
      <g transform="translate(151.74696 122.828257) scale(0.06 -0.06)">
       <use xlink:href="#DejaVuSerif-2212"/>
       <use xlink:href="#DejaVuSerif-35" x="83.789062"/>
       <use xlink:href="#DejaVuSerif-30" x="147.412109"/>
      </g>
     </g>
    </g>
    <g id="xtick_14">
     <g id="line2d_53">
      <path d="M 180.817321 112.269194 
L 180.817321 73.774597 
" clip-path="url(#p67956fbd33)" style="fill: none; stroke: #d3d3d3; stroke-width: 0.5; stroke-linecap: square"/>
     </g>
     <g id="line2d_54">
      <g>
       <use xlink:href="#m2027b22a3c" x="180.817321" y="112.269194" style="stroke: #000000; stroke-width: 0.8"/>
      </g>
     </g>
     <g id="text_17">
      <!-- 0 -->
      <g transform="translate(178.908571 122.828257) scale(0.06 -0.06)">
       <use xlink:href="#DejaVuSerif-30"/>
      </g>
     </g>
    </g>
    <g id="xtick_15">
     <g id="line2d_55">
      <path d="M 203.556276 112.269194 
L 203.556276 73.774597 
" clip-path="url(#p67956fbd33)" style="fill: none; stroke: #d3d3d3; stroke-width: 0.5; stroke-linecap: square"/>
     </g>
     <g id="line2d_56">
      <g>
       <use xlink:href="#m2027b22a3c" x="203.556276" y="112.269194" style="stroke: #000000; stroke-width: 0.8"/>
      </g>
     </g>
     <g id="text_18">
      <!-- 50 -->
      <g transform="translate(199.738776 122.828257) scale(0.06 -0.06)">
       <use xlink:href="#DejaVuSerif-35"/>
       <use xlink:href="#DejaVuSerif-30" x="63.623047"/>
      </g>
     </g>
    </g>
    <g id="text_19">
     <!-- Cloud base rate [m/h] -->
     <g transform="translate(137.889488 132.635132) scale(0.06 -0.06)">
      <use xlink:href="#DejaVuSerif-43"/>
      <use xlink:href="#DejaVuSerif-6c" x="76.513672"/>
      <use xlink:href="#DejaVuSerif-6f" x="108.496094"/>
      <use xlink:href="#DejaVuSerif-75" x="168.701172"/>
      <use xlink:href="#DejaVuSerif-64" x="233.105469"/>
      <use xlink:href="#DejaVuSerif-20" x="297.119141"/>
      <use xlink:href="#DejaVuSerif-62" x="328.90625"/>
      <use xlink:href="#DejaVuSerif-61" x="392.919922"/>
      <use xlink:href="#DejaVuSerif-73" x="452.539062"/>
      <use xlink:href="#DejaVuSerif-65" x="503.857422"/>
      <use xlink:href="#DejaVuSerif-20" x="563.037109"/>
      <use xlink:href="#DejaVuSerif-72" x="594.824219"/>
      <use xlink:href="#DejaVuSerif-61" x="642.626953"/>
      <use xlink:href="#DejaVuSerif-74" x="702.246094"/>
      <use xlink:href="#DejaVuSerif-65" x="742.431641"/>
      <use xlink:href="#DejaVuSerif-20" x="801.611328"/>
      <use xlink:href="#DejaVuSerif-5b" x="833.398438"/>
      <use xlink:href="#DejaVuSerif-6d" x="872.412109"/>
      <use xlink:href="#DejaVuSerif-2f" x="967.236328"/>
      <use xlink:href="#DejaVuSerif-68" x="1000.927734"/>
      <use xlink:href="#DejaVuSerif-5d" x="1065.332031"/>
     </g>
    </g>
   </g>
   <g id="matplotlib.axis_8">
    <g id="ytick_8">
     <g id="line2d_57">
      <path d="M 121.875757 110.51944 
L 220.164782 110.51944 
" clip-path="url(#p67956fbd33)" style="fill: none; stroke: #d3d3d3; stroke-width: 0.5; stroke-linecap: square"/>
     </g>
     <g id="line2d_58">
      <g>
       <use xlink:href="#md6e04ba121" x="121.875757" y="110.51944" style="stroke: #000000; stroke-width: 0.8"/>
      </g>
     </g>
    </g>
    <g id="ytick_9">
     <g id="line2d_59">
      <path d="M 121.875757 92.967447 
L 220.164782 92.967447 
" clip-path="url(#p67956fbd33)" style="fill: none; stroke: #d3d3d3; stroke-width: 0.5; stroke-linecap: square"/>
     </g>
     <g id="line2d_60">
      <g>
       <use xlink:href="#md6e04ba121" x="121.875757" y="92.967447" style="stroke: #000000; stroke-width: 0.8"/>
      </g>
     </g>
    </g>
    <g id="ytick_10">
     <g id="line2d_61">
      <path d="M 121.875757 75.415455 
L 220.164782 75.415455 
" clip-path="url(#p67956fbd33)" style="fill: none; stroke: #d3d3d3; stroke-width: 0.5; stroke-linecap: square"/>
     </g>
     <g id="line2d_62">
      <g>
       <use xlink:href="#md6e04ba121" x="121.875757" y="75.415455" style="stroke: #000000; stroke-width: 0.8"/>
      </g>
     </g>
    </g>
   </g>
   <g id="line2d_63">
    <path d="M 126.34344 110.421436 
L 127.246003 110.422743 
L 128.148565 110.426561 
L 129.051127 110.432593 
L 129.953689 110.440385 
L 130.856251 110.449385 
L 131.758814 110.459005 
L 132.661376 110.468686 
L 133.563938 110.477945 
L 134.4665 110.486415 
L 135.369062 110.493852 
L 136.271625 110.50014 
L 137.174187 110.505268 
L 138.076749 110.50931 
L 138.979311 110.51239 
L 139.881873 110.514664 
L 140.784436 110.51629 
L 141.686998 110.517418 
L 142.58956 110.518176 
L 143.492122 110.518671 
L 144.394685 110.518983 
L 145.297247 110.519175 
L 146.199809 110.519288 
L 147.102371 110.519349 
L 148.004933 110.519376 
L 148.907496 110.519375 
L 149.810058 110.519343 
L 150.71262 110.519269 
L 151.615182 110.519125 
L 152.517744 110.518863 
L 153.420307 110.518405 
L 154.322869 110.517627 
L 155.225431 110.516345 
L 156.127993 110.514285 
L 157.030555 110.511065 
L 157.933118 110.506164 
L 158.83568 110.4989 
L 159.738242 110.488415 
L 160.640804 110.473673 
L 161.543367 110.453477 
L 162.445929 110.426508 
L 163.348491 110.391393 
L 164.251053 110.346786 
L 165.153615 110.291465 
L 166.056178 110.224437 
L 166.95874 110.145017 
L 167.861302 110.052894 
L 168.763864 109.94815 
L 169.666426 109.831252 
L 170.568989 109.703008 
L 171.471551 109.564501 
L 172.374113 109.417037 
L 173.276675 109.262101 
L 174.179237 109.101354 
L 175.0818 108.93666 
L 175.984362 108.770149 
L 176.886924 108.604269 
L 177.789486 108.441824 
L 178.692049 108.285948 
L 179.594611 108.140006 
L 180.497173 108.007414 
L 181.399735 107.891395 
L 182.302297 107.794707 
L 183.20486 107.719397 
L 184.107422 107.666612 
L 185.009984 107.63654 
L 185.912546 107.62846 
L 186.815108 107.640919 
L 187.717671 107.671988 
L 188.620233 107.719546 
L 189.522795 107.781525 
L 190.425357 107.856091 
L 191.327919 107.941709 
L 192.230482 108.037117 
L 193.133044 108.141229 
L 194.035606 108.253005 
L 194.938168 108.371337 
L 195.84073 108.494989 
L 196.743293 108.622585 
L 197.645855 108.752658 
L 198.548417 108.883721 
L 199.450979 109.014332 
L 200.353542 109.143141 
L 201.256104 109.268898 
L 202.158666 109.390429 
L 203.061228 109.506609 
L 203.96379 109.616344 
L 204.866353 109.718585 
L 205.768915 109.812384 
L 206.671477 109.896981 
L 207.574039 109.971903 
L 208.476601 110.037055 
L 209.379164 110.092769 
L 210.281726 110.139802 
L 211.184288 110.179274 
L 212.08685 110.212551 
L 212.989412 110.241105 
L 213.891975 110.26635 
L 214.794537 110.289517 
L 215.697099 110.311545 
" clip-path="url(#p67956fbd33)" style="fill: none; stroke: #595959; stroke-linecap: square"/>
   </g>
   <g id="line2d_64">
    <path d="M 126.34344 110.51944 
L 127.246003 110.51944 
L 128.148565 110.51944 
L 129.051127 110.51944 
L 129.953689 110.51944 
L 130.856251 110.51944 
L 131.758814 110.51944 
L 132.661376 110.51944 
L 133.563938 110.51944 
L 134.4665 110.51944 
L 135.369062 110.51944 
L 136.271625 110.51944 
L 137.174187 110.51944 
L 138.076749 110.51944 
L 138.979311 110.51944 
L 139.881873 110.51944 
L 140.784436 110.51944 
L 141.686998 110.51944 
L 142.58956 110.51944 
L 143.492122 110.51944 
L 144.394685 110.51944 
L 145.297247 110.51944 
L 146.199809 110.51944 
L 147.102371 110.51944 
L 148.004933 110.51944 
L 148.907496 110.51944 
L 149.810058 110.51944 
L 150.71262 110.51944 
L 151.615182 110.51944 
L 152.517744 110.51944 
L 153.420307 110.51944 
L 154.322869 110.51944 
L 155.225431 110.51944 
L 156.127993 110.51944 
L 157.030555 110.51944 
L 157.933118 110.51944 
L 158.83568 110.51944 
L 159.738242 110.51944 
L 160.640804 110.51944 
L 161.543367 110.51944 
L 162.445929 110.51944 
L 163.348491 110.51944 
L 164.251053 110.51944 
L 165.153615 110.51944 
L 166.056178 110.51944 
L 166.95874 110.51944 
L 167.861302 110.51944 
L 168.763864 110.51944 
L 169.666426 110.51944 
L 170.568989 110.51944 
L 171.471551 110.51944 
L 172.374113 110.51944 
L 173.276675 110.51944 
L 174.179237 110.51944 
L 175.0818 110.51944 
L 175.984362 110.51944 
L 176.886924 110.518123 
L 177.789486 109.415971 
L 178.692049 103.957025 
L 179.594611 82.413507 
L 180.497173 77.846532 
L 181.399735 92.336109 
L 182.302297 108.373408 
L 183.20486 110.452719 
L 184.107422 110.519434 
L 185.009984 110.51944 
L 185.912546 110.51944 
L 186.815108 110.51944 
L 187.717671 110.51944 
L 188.620233 110.51944 
L 189.522795 110.51944 
L 190.425357 110.51944 
L 191.327919 110.51944 
L 192.230482 110.51944 
L 193.133044 110.51944 
L 194.035606 110.51944 
L 194.938168 110.51944 
L 195.84073 110.51944 
L 196.743293 110.51944 
L 197.645855 110.51944 
L 198.548417 110.51944 
L 199.450979 110.51944 
L 200.353542 110.51944 
L 201.256104 110.51944 
L 202.158666 110.51944 
L 203.061228 110.51944 
L 203.96379 110.51944 
L 204.866353 110.51944 
L 205.768915 110.51944 
L 206.671477 110.51944 
L 207.574039 110.51944 
L 208.476601 110.51944 
L 209.379164 110.51944 
L 210.281726 110.51944 
L 211.184288 110.51944 
L 212.08685 110.51944 
L 212.989412 110.51944 
L 213.891975 110.51944 
L 214.794537 110.51944 
L 215.697099 110.51944 
" clip-path="url(#p67956fbd33)" style="fill: none; stroke-dasharray: 3.7,1.6; stroke-dashoffset: 0; stroke: #1f77b4"/>
   </g>
   <g id="patch_12">
    <path d="M 121.875757 112.269194 
L 121.875757 73.774597 
" style="fill: none; stroke: #000000; stroke-width: 0.5; stroke-linejoin: miter; stroke-linecap: square"/>
   </g>
   <g id="patch_13">
    <path d="M 121.875757 112.269194 
L 220.164782 112.269194 
" style="fill: none; stroke: #000000; stroke-width: 0.5; stroke-linejoin: miter; stroke-linecap: square"/>
   </g>
   <g id="line2d_65">
    <path d="M 177.179088 110.130501 
L 177.234213 110.053804 
L 177.289338 109.964027 
L 177.344463 109.859369 
L 177.399587 109.737866 
L 177.454712 109.59739 
L 177.509837 109.435654 
L 177.564962 109.250219 
L 177.620086 109.038505 
L 177.675211 108.797812 
L 177.730336 108.525338 
L 177.785461 108.218208 
L 177.840585 107.873511 
L 177.89571 107.488336 
L 177.950835 107.059822 
L 178.00596 106.585205 
L 178.061084 106.061879 
L 178.116209 105.487459 
L 178.171334 104.859842 
L 178.226458 104.177284 
L 178.281583 103.438465 
L 178.336708 102.642564 
L 178.391833 101.78933 
L 178.446957 100.879147 
L 178.502082 99.913099 
L 178.557207 98.893029 
L 178.612332 97.821578 
L 178.667456 96.702232 
L 178.722581 95.539337 
L 178.777706 94.338114 
L 178.832831 93.104652 
L 178.887955 91.845881 
L 178.94308 90.569538 
L 178.998205 89.284098 
L 179.05333 87.998706 
L 179.108454 86.723076 
L 179.163579 85.467379 
L 179.218704 84.242116 
L 179.273829 83.057982 
L 179.328953 81.925708 
L 179.384078 80.855906 
L 179.439203 79.858905 
L 179.494327 78.944585 
L 179.549452 78.122216 
L 179.604577 77.400302 
L 179.659702 76.786434 
L 179.714826 76.287157 
L 179.769951 75.907855 
L 179.825076 75.652656 
L 179.880201 75.524352 
L 179.935325 75.524352 
L 179.99045 75.652656 
L 180.045575 75.907855 
L 180.1007 76.287157 
L 180.155824 76.786434 
L 180.210949 77.400302 
L 180.266074 78.122216 
L 180.321199 78.944585 
L 180.376323 79.858905 
L 180.431448 80.855906 
L 180.486573 81.925708 
L 180.541698 83.057982 
L 180.596822 84.242116 
L 180.651947 85.467379 
L 180.707072 86.723076 
L 180.762196 87.998706 
L 180.817321 89.284098 
L 180.872446 90.569538 
L 180.927571 91.845881 
L 180.982695 93.104652 
L 181.03782 94.338114 
L 181.092945 95.539337 
L 181.14807 96.702232 
L 181.203194 97.821578 
L 181.258319 98.893029 
L 181.313444 99.913099 
L 181.368569 100.879147 
L 181.423693 101.78933 
L 181.478818 102.642564 
L 181.533943 103.438465 
L 181.589068 104.177284 
L 181.644192 104.859842 
L 181.699317 105.487459 
L 181.754442 106.061879 
L 181.809567 106.585205 
L 181.864691 107.059822 
L 181.919816 107.488336 
L 181.974941 107.873511 
L 182.030065 108.218208 
L 182.08519 108.525338 
L 182.140315 108.797812 
L 182.19544 109.038505 
L 182.250564 109.250219 
L 182.305689 109.435654 
L 182.360814 109.59739 
L 182.415939 109.737866 
L 182.471063 109.859369 
L 182.526188 109.964027 
L 182.581313 110.053804 
L 182.636438 110.130501 
" clip-path="url(#p67956fbd33)" style="fill: none; stroke: #000000; stroke-linecap: square"/>
   </g>
   <g id="line2d_66">
    <path d="M 179.907763 112.269194 
L 179.907763 73.774597 
" clip-path="url(#p67956fbd33)" style="fill: none; stroke: #000000; stroke-linecap: square"/>
   </g>
  </g>
  <g id="legend_1">
   <g id="patch_14">
    <path d="M 21.613663 162.762944 
L 86.889913 162.762944 
Q 88.089913 162.762944 88.089913 161.562944 
L 88.089913 144.549194 
Q 88.089913 143.349194 86.889913 143.349194 
L 21.613663 143.349194 
Q 20.413663 143.349194 20.413663 144.549194 
L 20.413663 161.562944 
Q 20.413663 162.762944 21.613663 162.762944 
z
" style="fill: #ffffff; stroke: #ffffff; stroke-width: 0.75; stroke-linejoin: miter"/>
   </g>
   <g id="line2d_67">
    <path d="M 22.813663 148.208257 
L 28.813663 148.208257 
L 34.813663 148.208257 
" style="fill: none; stroke: #000000; stroke-linecap: square"/>
   </g>
   <g id="text_20">
    <!-- Data likelihood -->
    <g transform="translate(39.613663 150.308257) scale(0.06 -0.06)">
     <defs>
      <path id="DejaVuSerif-44" d="M 1581 331 
L 2163 331 
Q 3072 331 3558 850 
Q 4044 1369 4044 2338 
Q 4044 3306 3559 3818 
Q 3075 4331 2163 4331 
L 1581 4331 
L 1581 331 
z
M 353 0 
L 353 331 
L 947 331 
L 947 4331 
L 353 4331 
L 353 4666 
L 2209 4666 
Q 3416 4666 4089 4050 
Q 4763 3434 4763 2338 
Q 4763 1238 4088 619 
Q 3413 0 2209 0 
L 353 0 
z
" transform="scale(0.015625)"/>
      <path id="DejaVuSerif-6b" d="M 1831 0 
L 219 0 
L 219 331 
L 738 331 
L 738 4531 
L 184 4531 
L 184 4863 
L 1313 4863 
L 1313 1697 
L 2713 2988 
L 2234 2988 
L 2234 3322 
L 3738 3322 
L 3738 2988 
L 3169 2988 
L 2181 2075 
L 3444 331 
L 3922 331 
L 3922 0 
L 2284 0 
L 2284 331 
L 2759 331 
L 1766 1697 
L 1313 1275 
L 1313 331 
L 1831 331 
L 1831 0 
z
" transform="scale(0.015625)"/>
     </defs>
     <use xlink:href="#DejaVuSerif-44"/>
     <use xlink:href="#DejaVuSerif-61" x="80.175781"/>
     <use xlink:href="#DejaVuSerif-74" x="139.794922"/>
     <use xlink:href="#DejaVuSerif-61" x="179.980469"/>
     <use xlink:href="#DejaVuSerif-20" x="239.599609"/>
     <use xlink:href="#DejaVuSerif-6c" x="271.386719"/>
     <use xlink:href="#DejaVuSerif-69" x="303.369141"/>
     <use xlink:href="#DejaVuSerif-6b" x="335.351562"/>
     <use xlink:href="#DejaVuSerif-65" x="395.947266"/>
     <use xlink:href="#DejaVuSerif-6c" x="455.126953"/>
     <use xlink:href="#DejaVuSerif-69" x="487.109375"/>
     <use xlink:href="#DejaVuSerif-68" x="519.091797"/>
     <use xlink:href="#DejaVuSerif-6f" x="583.496094"/>
     <use xlink:href="#DejaVuSerif-6f" x="643.701172"/>
     <use xlink:href="#DejaVuSerif-64" x="703.90625"/>
    </g>
   </g>
   <g id="line2d_68">
    <path d="M 22.813663 157.015132 
L 28.813663 157.015132 
L 34.813663 157.015132 
" style="fill: none; stroke: #595959; stroke-linecap: square"/>
   </g>
   <g id="text_21">
    <!-- Prior -->
    <g transform="translate(39.613663 159.115132) scale(0.06 -0.06)">
     <defs>
      <path id="DejaVuSerif-50" d="M 1581 2375 
L 2406 2375 
Q 2872 2375 3115 2626 
Q 3359 2878 3359 3353 
Q 3359 3831 3115 4081 
Q 2872 4331 2406 4331 
L 1581 4331 
L 1581 2375 
z
M 353 0 
L 353 331 
L 947 331 
L 947 4331 
L 353 4331 
L 353 4666 
L 2559 4666 
Q 3259 4666 3668 4311 
Q 4078 3956 4078 3353 
Q 4078 2753 3668 2397 
Q 3259 2041 2559 2041 
L 1581 2041 
L 1581 331 
L 2303 331 
L 2303 0 
L 353 0 
z
" transform="scale(0.015625)"/>
     </defs>
     <use xlink:href="#DejaVuSerif-50"/>
     <use xlink:href="#DejaVuSerif-72" x="67.285156"/>
     <use xlink:href="#DejaVuSerif-69" x="115.087891"/>
     <use xlink:href="#DejaVuSerif-6f" x="147.070312"/>
     <use xlink:href="#DejaVuSerif-72" x="207.275391"/>
    </g>
   </g>
  </g>
  <g id="legend_2">
   <g id="patch_15">
    <path d="M 118.146032 153.956069 
L 222.444782 153.956069 
Q 223.644782 153.956069 223.644782 152.756069 
L 223.644782 144.549194 
Q 223.644782 143.349194 222.444782 143.349194 
L 118.146032 143.349194 
Q 116.946032 143.349194 116.946032 144.549194 
L 116.946032 152.756069 
Q 116.946032 153.956069 118.146032 153.956069 
z
" style="fill: #ffffff; stroke: #ffffff; stroke-width: 0.75; stroke-linejoin: miter"/>
   </g>
   <g id="line2d_69">
    <path d="M 119.346032 148.208257 
L 125.346032 148.208257 
L 131.346032 148.208257 
" style="fill: none; stroke-dasharray: 3.7,1.6; stroke-dashoffset: 0; stroke: #1f77b4"/>
   </g>
   <g id="text_22">
    <!-- Posterior (linear prediction) -->
    <g transform="translate(136.146032 150.308257) scale(0.06 -0.06)">
     <defs>
      <path id="DejaVuSerif-28" d="M 2041 -997 
Q 1281 -656 893 83 
Q 506 822 506 1931 
Q 506 3044 893 3783 
Q 1281 4522 2041 4863 
L 2041 4556 
Q 1559 4225 1350 3623 
Q 1141 3022 1141 1931 
Q 1141 844 1350 242 
Q 1559 -359 2041 -691 
L 2041 -997 
z
" transform="scale(0.015625)"/>
      <path id="DejaVuSerif-6e" d="M 263 0 
L 263 331 
L 781 331 
L 781 2988 
L 231 2988 
L 231 3322 
L 1356 3322 
L 1356 2731 
Q 1516 3069 1770 3241 
Q 2025 3413 2363 3413 
Q 2913 3413 3172 3097 
Q 3431 2781 3431 2113 
L 3431 331 
L 3944 331 
L 3944 0 
L 2356 0 
L 2356 331 
L 2853 331 
L 2853 1931 
Q 2853 2541 2703 2767 
Q 2553 2994 2175 2994 
Q 1775 2994 1565 2701 
Q 1356 2409 1356 1850 
L 1356 331 
L 1856 331 
L 1856 0 
L 263 0 
z
" transform="scale(0.015625)"/>
      <path id="DejaVuSerif-63" d="M 3291 997 
Q 3169 466 2822 187 
Q 2475 -91 1925 -91 
Q 1200 -91 759 389 
Q 319 869 319 1663 
Q 319 2459 759 2936 
Q 1200 3413 1925 3413 
Q 2241 3413 2553 3339 
Q 2866 3266 3181 3116 
L 3181 2266 
L 2847 2266 
Q 2781 2703 2561 2903 
Q 2341 3103 1931 3103 
Q 1466 3103 1228 2742 
Q 991 2381 991 1663 
Q 991 944 1227 581 
Q 1463 219 1931 219 
Q 2303 219 2525 412 
Q 2747 606 2828 997 
L 3291 997 
z
" transform="scale(0.015625)"/>
      <path id="DejaVuSerif-29" d="M 453 -997 
L 453 -691 
Q 934 -359 1145 242 
Q 1356 844 1356 1931 
Q 1356 3022 1145 3623 
Q 934 4225 453 4556 
L 453 4863 
Q 1216 4522 1603 3783 
Q 1991 3044 1991 1931 
Q 1991 822 1603 83 
Q 1216 -656 453 -997 
z
" transform="scale(0.015625)"/>
     </defs>
     <use xlink:href="#DejaVuSerif-50"/>
     <use xlink:href="#DejaVuSerif-6f" x="63.285156"/>
     <use xlink:href="#DejaVuSerif-73" x="123.490234"/>
     <use xlink:href="#DejaVuSerif-74" x="174.808594"/>
     <use xlink:href="#DejaVuSerif-65" x="214.994141"/>
     <use xlink:href="#DejaVuSerif-72" x="274.173828"/>
     <use xlink:href="#DejaVuSerif-69" x="321.976562"/>
     <use xlink:href="#DejaVuSerif-6f" x="353.958984"/>
     <use xlink:href="#DejaVuSerif-72" x="414.164062"/>
     <use xlink:href="#DejaVuSerif-20" x="461.966797"/>
     <use xlink:href="#DejaVuSerif-28" x="493.753906"/>
     <use xlink:href="#DejaVuSerif-6c" x="532.767578"/>
     <use xlink:href="#DejaVuSerif-69" x="564.75"/>
     <use xlink:href="#DejaVuSerif-6e" x="596.732422"/>
     <use xlink:href="#DejaVuSerif-65" x="661.136719"/>
     <use xlink:href="#DejaVuSerif-61" x="720.316406"/>
     <use xlink:href="#DejaVuSerif-72" x="779.935547"/>
     <use xlink:href="#DejaVuSerif-20" x="827.738281"/>
     <use xlink:href="#DejaVuSerif-70" x="859.525391"/>
     <use xlink:href="#DejaVuSerif-72" x="923.539062"/>
     <use xlink:href="#DejaVuSerif-65" x="971.341797"/>
     <use xlink:href="#DejaVuSerif-64" x="1030.521484"/>
     <use xlink:href="#DejaVuSerif-69" x="1094.535156"/>
     <use xlink:href="#DejaVuSerif-63" x="1126.517578"/>
     <use xlink:href="#DejaVuSerif-74" x="1182.523438"/>
     <use xlink:href="#DejaVuSerif-69" x="1222.708984"/>
     <use xlink:href="#DejaVuSerif-6f" x="1254.691406"/>
     <use xlink:href="#DejaVuSerif-6e" x="1314.896484"/>
     <use xlink:href="#DejaVuSerif-29" x="1379.300781"/>
    </g>
   </g>
  </g>
 </g>
 <defs>
  <clipPath id="p1c0dd5576a">
   <rect x="10.7" y="7.2" width="98.289025" height="38.494597"/>
  </clipPath>
  <clipPath id="pc4e4f3c62c">
   <rect x="121.875757" y="7.2" width="98.289025" height="38.494597"/>
  </clipPath>
  <clipPath id="p90d4ea2e36">
   <rect x="10.7" y="73.774597" width="98.289025" height="38.494597"/>
  </clipPath>
  <clipPath id="p67956fbd33">
   <rect x="121.875757" y="73.774597" width="98.289025" height="38.494597"/>
  </clipPath>
 </defs>
</svg>
