<?xml version="1.0" encoding="utf-8" standalone="no"?>
<!DOCTYPE svg PUBLIC "-//W3C//DTD SVG 1.1//EN"
  "http://www.w3.org/Graphics/SVG/1.1/DTD/svg11.dtd">
<svg xmlns:xlink="http://www.w3.org/1999/xlink" width="230.844782pt" height="169.962944pt" viewBox="0 0 230.844782 169.962944" xmlns="http://www.w3.org/2000/svg" version="1.1">
 <metadata>
  <rdf:RDF xmlns:dc="http://purl.org/dc/elements/1.1/" xmlns:cc="http://creativecommons.org/ns#" xmlns:rdf="http://www.w3.org/1999/02/22-rdf-syntax-ns#">
   <cc:Work>
    <dc:type rdf:resource="http://purl.org/dc/dcmitype/StillImage"/>
    <dc:date>2025-12-23T08:15:52.393405</dc:date>
    <dc:format>image/svg+xml</dc:format>
    <dc:creator>
     <cc:Agent>
      <dc:title>Matplotlib v3.7.0, https://matplotlib.org/</dc:title>
     </cc:Agent>
    </dc:creator>
   </cc:Work>
  </rdf:RDF>
 </metadata>
 <defs>
  <style type="text/css">*{stroke-linejoin: round; stroke-linecap: butt}</style>
 </defs>
 <g id="figure_1">
  <g id="patch_1">
   <path d="M 0 169.962944 
L 230.844782 169.962944 
L 230.844782 -0 
L 0 -0 
z
" style="fill: #ffffff"/>
  </g>
  <g id="axes_1">
   <g id="patch_2">
    <path d="M 10.7 45.694597 
L 109.73772 45.694597 
L 109.73772 7.2 
L 10.7 7.2 
z
" style="fill: #ffffff"/>
   </g>
   <g id="matplotlib.axis_1">
    <g id="xtick_1">
     <g id="line2d_1">
      <path d="M 30.18047 45.694597 
L 30.18047 7.2 
" clip-path="url(#p22916f5380)" style="fill: none; stroke: #d3d3d3; stroke-width: 0.5; stroke-linecap: square"/>
     </g>
     <g id="line2d_2">
      <defs>
       <path id="m1cea53fb00" d="M 0 0 
L 0 3.5 
" style="stroke: #000000; stroke-width: 0.8"/>
      </defs>
      <g>
       <use xlink:href="#m1cea53fb00" x="30.18047" y="45.694597" style="stroke: #000000; stroke-width: 0.8"/>
      </g>
     </g>
     <g id="text_1">
      <!-- 750 -->
      <g transform="translate(24.45422 56.25366) scale(0.06 -0.06)">
       <defs>
        <path id="DejaVuSerif-37" d="M 3609 4347 
L 1784 0 
L 1319 0 
L 3059 4153 
L 903 4153 
L 903 3578 
L 538 3578 
L 538 4666 
L 3609 4666 
L 3609 4347 
z
" transform="scale(0.015625)"/>
        <path id="DejaVuSerif-35" d="M 3219 4666 
L 3219 4153 
L 1081 4153 
L 1081 2816 
Q 1244 2928 1461 2984 
Q 1678 3041 1947 3041 
Q 2703 3041 3140 2622 
Q 3578 2203 3578 1478 
Q 3578 738 3136 323 
Q 2694 -91 1894 -91 
Q 1572 -91 1234 -12 
Q 897 66 544 225 
L 544 1131 
L 897 1131 
Q 925 688 1179 453 
Q 1434 219 1894 219 
Q 2388 219 2653 544 
Q 2919 869 2919 1478 
Q 2919 2084 2655 2407 
Q 2391 2731 1894 2731 
Q 1613 2731 1398 2631 
Q 1184 2531 1019 2322 
L 750 2322 
L 750 4666 
L 3219 4666 
z
" transform="scale(0.015625)"/>
        <path id="DejaVuSerif-30" d="M 2034 219 
Q 2513 219 2750 744 
Q 2988 1269 2988 2328 
Q 2988 3391 2750 3916 
Q 2513 4441 2034 4441 
Q 1556 4441 1318 3916 
Q 1081 3391 1081 2328 
Q 1081 1269 1318 744 
Q 1556 219 2034 219 
z
M 2034 -91 
Q 1275 -91 848 546 
Q 422 1184 422 2328 
Q 422 3475 848 4112 
Q 1275 4750 2034 4750 
Q 2797 4750 3222 4112 
Q 3647 3475 3647 2328 
Q 3647 1184 3222 546 
Q 2797 -91 2034 -91 
z
" transform="scale(0.015625)"/>
       </defs>
       <use xlink:href="#DejaVuSerif-37"/>
       <use xlink:href="#DejaVuSerif-35" x="63.623047"/>
       <use xlink:href="#DejaVuSerif-30" x="127.246094"/>
      </g>
     </g>
    </g>
    <g id="xtick_2">
     <g id="line2d_3">
      <path d="M 50.845436 45.694597 
L 50.845436 7.2 
" clip-path="url(#p22916f5380)" style="fill: none; stroke: #d3d3d3; stroke-width: 0.5; stroke-linecap: square"/>
     </g>
     <g id="line2d_4">
      <g>
       <use xlink:href="#m1cea53fb00" x="50.845436" y="45.694597" style="stroke: #000000; stroke-width: 0.8"/>
      </g>
     </g>
     <g id="text_2">
      <!-- 800 -->
      <g transform="translate(45.119186 56.25366) scale(0.06 -0.06)">
       <defs>
        <path id="DejaVuSerif-38" d="M 2981 1275 
Q 2981 1775 2732 2051 
Q 2484 2328 2034 2328 
Q 1584 2328 1336 2051 
Q 1088 1775 1088 1275 
Q 1088 772 1336 495 
Q 1584 219 2034 219 
Q 2484 219 2732 495 
Q 2981 772 2981 1275 
z
M 2853 3541 
Q 2853 3966 2637 4203 
Q 2422 4441 2034 4441 
Q 1650 4441 1433 4203 
Q 1216 3966 1216 3541 
Q 1216 3113 1433 2875 
Q 1650 2638 2034 2638 
Q 2422 2638 2637 2875 
Q 2853 3113 2853 3541 
z
M 2516 2484 
Q 3047 2413 3344 2092 
Q 3641 1772 3641 1275 
Q 3641 619 3225 264 
Q 2809 -91 2034 -91 
Q 1263 -91 845 264 
Q 428 619 428 1275 
Q 428 1772 725 2092 
Q 1022 2413 1556 2484 
Q 1084 2569 832 2842 
Q 581 3116 581 3541 
Q 581 4103 968 4426 
Q 1356 4750 2034 4750 
Q 2713 4750 3100 4426 
Q 3488 4103 3488 3541 
Q 3488 3116 3236 2842 
Q 2984 2569 2516 2484 
z
" transform="scale(0.015625)"/>
       </defs>
       <use xlink:href="#DejaVuSerif-38"/>
       <use xlink:href="#DejaVuSerif-30" x="63.623047"/>
       <use xlink:href="#DejaVuSerif-30" x="127.246094"/>
      </g>
     </g>
    </g>
    <g id="xtick_3">
     <g id="line2d_5">
      <path d="M 71.510403 45.694597 
L 71.510403 7.2 
" clip-path="url(#p22916f5380)" style="fill: none; stroke: #d3d3d3; stroke-width: 0.5; stroke-linecap: square"/>
     </g>
     <g id="line2d_6">
      <g>
       <use xlink:href="#m1cea53fb00" x="71.510403" y="45.694597" style="stroke: #000000; stroke-width: 0.8"/>
      </g>
     </g>
     <g id="text_3">
      <!-- 850 -->
      <g transform="translate(65.784153 56.25366) scale(0.06 -0.06)">
       <use xlink:href="#DejaVuSerif-38"/>
       <use xlink:href="#DejaVuSerif-35" x="63.623047"/>
       <use xlink:href="#DejaVuSerif-30" x="127.246094"/>
      </g>
     </g>
    </g>
    <g id="xtick_4">
     <g id="line2d_7">
      <path d="M 92.17537 45.694597 
L 92.17537 7.2 
" clip-path="url(#p22916f5380)" style="fill: none; stroke: #d3d3d3; stroke-width: 0.5; stroke-linecap: square"/>
     </g>
     <g id="line2d_8">
      <g>
       <use xlink:href="#m1cea53fb00" x="92.17537" y="45.694597" style="stroke: #000000; stroke-width: 0.8"/>
      </g>
     </g>
     <g id="text_4">
      <!-- 900 -->
      <g transform="translate(86.44912 56.25366) scale(0.06 -0.06)">
       <defs>
        <path id="DejaVuSerif-39" d="M 2994 2091 
Q 2784 1856 2512 1740 
Q 2241 1625 1900 1625 
Q 1206 1625 804 2044 
Q 403 2463 403 3188 
Q 403 3897 839 4323 
Q 1275 4750 2003 4750 
Q 2794 4750 3217 4161 
Q 3641 3572 3641 2478 
Q 3641 1253 3137 581 
Q 2634 -91 1722 -91 
Q 1475 -91 1203 -44 
Q 931 3 647 97 
L 647 872 
L 997 872 
Q 1038 556 1241 387 
Q 1444 219 1784 219 
Q 2391 219 2687 676 
Q 2984 1134 2994 2091 
z
M 1978 4441 
Q 1534 4441 1298 4117 
Q 1063 3794 1063 3188 
Q 1063 2581 1298 2256 
Q 1534 1931 1978 1931 
Q 2422 1931 2658 2245 
Q 2894 2559 2894 3150 
Q 2894 3772 2656 4106 
Q 2419 4441 1978 4441 
z
" transform="scale(0.015625)"/>
       </defs>
       <use xlink:href="#DejaVuSerif-39"/>
       <use xlink:href="#DejaVuSerif-30" x="63.623047"/>
       <use xlink:href="#DejaVuSerif-30" x="127.246094"/>
      </g>
     </g>
    </g>
    <g id="text_5">
     <!-- Cloud top height [m] -->
     <g transform="translate(28.601204 66.060535) scale(0.06 -0.06)">
      <defs>
       <path id="DejaVuSerif-43" d="M 4513 1234 
Q 4306 581 3820 245 
Q 3334 -91 2591 -91 
Q 2134 -91 1743 65 
Q 1353 222 1050 525 
Q 700 875 529 1320 
Q 359 1766 359 2328 
Q 359 3416 987 4083 
Q 1616 4750 2644 4750 
Q 3025 4750 3456 4650 
Q 3888 4550 4384 4347 
L 4384 3272 
L 4031 3272 
Q 3916 3859 3567 4137 
Q 3219 4416 2591 4416 
Q 1844 4416 1459 3886 
Q 1075 3356 1075 2328 
Q 1075 1303 1459 773 
Q 1844 244 2591 244 
Q 3113 244 3450 492 
Q 3788 741 3938 1234 
L 4513 1234 
z
" transform="scale(0.015625)"/>
       <path id="DejaVuSerif-6c" d="M 1313 331 
L 1856 331 
L 1856 0 
L 184 0 
L 184 331 
L 738 331 
L 738 4531 
L 184 4531 
L 184 4863 
L 1313 4863 
L 1313 331 
z
" transform="scale(0.015625)"/>
       <path id="DejaVuSerif-6f" d="M 1925 219 
Q 2388 219 2623 584 
Q 2859 950 2859 1663 
Q 2859 2375 2623 2739 
Q 2388 3103 1925 3103 
Q 1463 3103 1227 2739 
Q 991 2375 991 1663 
Q 991 950 1228 584 
Q 1466 219 1925 219 
z
M 1925 -91 
Q 1200 -91 759 389 
Q 319 869 319 1663 
Q 319 2456 758 2934 
Q 1197 3413 1925 3413 
Q 2653 3413 3092 2934 
Q 3531 2456 3531 1663 
Q 3531 869 3092 389 
Q 2653 -91 1925 -91 
z
" transform="scale(0.015625)"/>
       <path id="DejaVuSerif-75" d="M 2266 3322 
L 3341 3322 
L 3341 331 
L 3884 331 
L 3884 0 
L 2766 0 
L 2766 588 
Q 2606 256 2353 82 
Q 2100 -91 1766 -91 
Q 1213 -91 952 223 
Q 691 538 691 1209 
L 691 2988 
L 172 2988 
L 172 3322 
L 1269 3322 
L 1269 1388 
Q 1269 781 1417 556 
Q 1566 331 1947 331 
Q 2347 331 2556 625 
Q 2766 919 2766 1478 
L 2766 2988 
L 2266 2988 
L 2266 3322 
z
" transform="scale(0.015625)"/>
       <path id="DejaVuSerif-64" d="M 3359 331 
L 3909 331 
L 3909 0 
L 2784 0 
L 2784 519 
Q 2616 206 2355 57 
Q 2094 -91 1709 -91 
Q 1097 -91 708 395 
Q 319 881 319 1663 
Q 319 2444 706 2928 
Q 1094 3413 1709 3413 
Q 2094 3413 2355 3264 
Q 2616 3116 2784 2803 
L 2784 4531 
L 2241 4531 
L 2241 4863 
L 3359 4863 
L 3359 331 
z
M 2784 1497 
L 2784 1825 
Q 2784 2422 2554 2737 
Q 2325 3053 1888 3053 
Q 1444 3053 1217 2703 
Q 991 2353 991 1663 
Q 991 975 1217 622 
Q 1444 269 1888 269 
Q 2325 269 2554 583 
Q 2784 897 2784 1497 
z
" transform="scale(0.015625)"/>
       <path id="DejaVuSerif-20" transform="scale(0.015625)"/>
       <path id="DejaVuSerif-74" d="M 691 2988 
L 184 2988 
L 184 3322 
L 691 3322 
L 691 4353 
L 1269 4353 
L 1269 3322 
L 2350 3322 
L 2350 2988 
L 1269 2988 
L 1269 878 
Q 1269 456 1350 337 
Q 1431 219 1650 219 
Q 1875 219 1978 351 
Q 2081 484 2088 781 
L 2522 781 
Q 2497 328 2275 118 
Q 2053 -91 1600 -91 
Q 1103 -91 897 129 
Q 691 350 691 878 
L 691 2988 
z
" transform="scale(0.015625)"/>
       <path id="DejaVuSerif-70" d="M 1313 1825 
L 1313 1497 
Q 1313 897 1542 583 
Q 1772 269 2209 269 
Q 2650 269 2876 622 
Q 3103 975 3103 1663 
Q 3103 2353 2876 2703 
Q 2650 3053 2209 3053 
Q 1772 3053 1542 2737 
Q 1313 2422 1313 1825 
z
M 738 2988 
L 184 2988 
L 184 3322 
L 1313 3322 
L 1313 2803 
Q 1481 3116 1742 3264 
Q 2003 3413 2388 3413 
Q 3000 3413 3387 2928 
Q 3775 2444 3775 1663 
Q 3775 881 3387 395 
Q 3000 -91 2388 -91 
Q 2003 -91 1742 57 
Q 1481 206 1313 519 
L 1313 -997 
L 1856 -997 
L 1856 -1331 
L 184 -1331 
L 184 -997 
L 738 -997 
L 738 2988 
z
" transform="scale(0.015625)"/>
       <path id="DejaVuSerif-68" d="M 263 0 
L 263 331 
L 781 331 
L 781 4531 
L 231 4531 
L 231 4863 
L 1356 4863 
L 1356 2731 
Q 1516 3069 1770 3241 
Q 2025 3413 2363 3413 
Q 2913 3413 3172 3097 
Q 3431 2781 3431 2113 
L 3431 331 
L 3944 331 
L 3944 0 
L 2356 0 
L 2356 331 
L 2853 331 
L 2853 1931 
Q 2853 2541 2704 2764 
Q 2556 2988 2175 2988 
Q 1775 2988 1565 2697 
Q 1356 2406 1356 1850 
L 1356 331 
L 1856 331 
L 1856 0 
L 263 0 
z
" transform="scale(0.015625)"/>
       <path id="DejaVuSerif-65" d="M 3469 1600 
L 991 1600 
L 991 1575 
Q 991 903 1244 561 
Q 1497 219 1991 219 
Q 2369 219 2611 417 
Q 2853 616 2950 1006 
L 3413 1006 
Q 3275 459 2904 184 
Q 2534 -91 1931 -91 
Q 1203 -91 761 389 
Q 319 869 319 1663 
Q 319 2450 753 2931 
Q 1188 3413 1894 3413 
Q 2647 3413 3050 2948 
Q 3453 2484 3469 1600 
z
M 2791 1931 
Q 2772 2513 2545 2808 
Q 2319 3103 1894 3103 
Q 1497 3103 1269 2806 
Q 1041 2509 991 1931 
L 2791 1931 
z
" transform="scale(0.015625)"/>
       <path id="DejaVuSerif-69" d="M 622 4353 
Q 622 4497 726 4603 
Q 831 4709 978 4709 
Q 1122 4709 1226 4603 
Q 1331 4497 1331 4353 
Q 1331 4206 1228 4103 
Q 1125 4000 978 4000 
Q 831 4000 726 4103 
Q 622 4206 622 4353 
z
M 1356 331 
L 1900 331 
L 1900 0 
L 231 0 
L 231 331 
L 781 331 
L 781 2988 
L 231 2988 
L 231 3322 
L 1356 3322 
L 1356 331 
z
" transform="scale(0.015625)"/>
       <path id="DejaVuSerif-67" d="M 3359 2988 
L 3359 72 
Q 3359 -644 2965 -1033 
Q 2572 -1422 1844 -1422 
Q 1516 -1422 1216 -1362 
Q 916 -1303 641 -1184 
L 641 -488 
L 941 -488 
Q 997 -813 1206 -963 
Q 1416 -1113 1806 -1113 
Q 2313 -1113 2548 -827 
Q 2784 -541 2784 72 
L 2784 519 
Q 2616 206 2355 57 
Q 2094 -91 1709 -91 
Q 1097 -91 708 395 
Q 319 881 319 1663 
Q 319 2444 706 2928 
Q 1094 3413 1709 3413 
Q 2094 3413 2355 3264 
Q 2616 3116 2784 2803 
L 2784 3322 
L 3909 3322 
L 3909 2988 
L 3359 2988 
z
M 2784 1825 
Q 2784 2422 2554 2737 
Q 2325 3053 1888 3053 
Q 1444 3053 1217 2703 
Q 991 2353 991 1663 
Q 991 975 1217 622 
Q 1444 269 1888 269 
Q 2325 269 2554 583 
Q 2784 897 2784 1497 
L 2784 1825 
z
" transform="scale(0.015625)"/>
       <path id="DejaVuSerif-5b" d="M 550 4863 
L 2003 4863 
L 2003 4531 
L 1147 4531 
L 1147 -513 
L 2003 -513 
L 2003 -844 
L 550 -844 
L 550 4863 
z
" transform="scale(0.015625)"/>
       <path id="DejaVuSerif-6d" d="M 3316 2675 
Q 3481 3041 3739 3227 
Q 3997 3413 4341 3413 
Q 4863 3413 5119 3089 
Q 5375 2766 5375 2113 
L 5375 331 
L 5894 331 
L 5894 0 
L 4300 0 
L 4300 331 
L 4800 331 
L 4800 2047 
Q 4800 2556 4650 2772 
Q 4500 2988 4153 2988 
Q 3769 2988 3567 2697 
Q 3366 2406 3366 1850 
L 3366 331 
L 3866 331 
L 3866 0 
L 2291 0 
L 2291 331 
L 2791 331 
L 2791 2069 
Q 2791 2566 2641 2777 
Q 2491 2988 2144 2988 
Q 1759 2988 1557 2697 
Q 1356 2406 1356 1850 
L 1356 331 
L 1856 331 
L 1856 0 
L 263 0 
L 263 331 
L 781 331 
L 781 2994 
L 231 2994 
L 231 3322 
L 1356 3322 
L 1356 2731 
Q 1516 3063 1762 3238 
Q 2009 3413 2322 3413 
Q 2709 3413 2968 3220 
Q 3228 3028 3316 2675 
z
" transform="scale(0.015625)"/>
       <path id="DejaVuSerif-5d" d="M 1947 4863 
L 1947 -844 
L 494 -844 
L 494 -513 
L 1350 -513 
L 1350 4531 
L 494 4531 
L 494 4863 
L 1947 4863 
z
" transform="scale(0.015625)"/>
      </defs>
      <use xlink:href="#DejaVuSerif-43"/>
      <use xlink:href="#DejaVuSerif-6c" x="76.513672"/>
      <use xlink:href="#DejaVuSerif-6f" x="108.496094"/>
      <use xlink:href="#DejaVuSerif-75" x="168.701172"/>
      <use xlink:href="#DejaVuSerif-64" x="233.105469"/>
      <use xlink:href="#DejaVuSerif-20" x="297.119141"/>
      <use xlink:href="#DejaVuSerif-74" x="328.90625"/>
      <use xlink:href="#DejaVuSerif-6f" x="369.091797"/>
      <use xlink:href="#DejaVuSerif-70" x="429.296875"/>
      <use xlink:href="#DejaVuSerif-20" x="493.310547"/>
      <use xlink:href="#DejaVuSerif-68" x="525.097656"/>
      <use xlink:href="#DejaVuSerif-65" x="589.501953"/>
      <use xlink:href="#DejaVuSerif-69" x="648.681641"/>
      <use xlink:href="#DejaVuSerif-67" x="680.664062"/>
      <use xlink:href="#DejaVuSerif-68" x="744.677734"/>
      <use xlink:href="#DejaVuSerif-74" x="809.082031"/>
      <use xlink:href="#DejaVuSerif-20" x="849.267578"/>
      <use xlink:href="#DejaVuSerif-5b" x="881.054688"/>
      <use xlink:href="#DejaVuSerif-6d" x="920.068359"/>
      <use xlink:href="#DejaVuSerif-5d" x="1014.892578"/>
     </g>
    </g>
   </g>
   <g id="matplotlib.axis_2">
    <g id="ytick_1">
     <g id="line2d_9">
      <path d="M 10.7 43.944843 
L 109.73772 43.944843 
" clip-path="url(#p22916f5380)" style="fill: none; stroke: #d3d3d3; stroke-width: 0.5; stroke-linecap: square"/>
     </g>
     <g id="line2d_10">
      <defs>
       <path id="m057a46708c" d="M 0 0 
L -3.5 0 
" style="stroke: #000000; stroke-width: 0.8"/>
      </defs>
      <g>
       <use xlink:href="#m057a46708c" x="10.7" y="43.944843" style="stroke: #000000; stroke-width: 0.8"/>
      </g>
     </g>
    </g>
    <g id="ytick_2">
     <g id="line2d_11">
      <path d="M 10.7 18.990831 
L 109.73772 18.990831 
" clip-path="url(#p22916f5380)" style="fill: none; stroke: #d3d3d3; stroke-width: 0.5; stroke-linecap: square"/>
     </g>
     <g id="line2d_12">
      <g>
       <use xlink:href="#m057a46708c" x="10.7" y="18.990831" style="stroke: #000000; stroke-width: 0.8"/>
      </g>
     </g>
    </g>
   </g>
   <g id="line2d_13">
    <path d="M 15.201715 42.418319 
L 16.111152 42.260212 
L 17.020589 42.093379 
L 17.930026 41.918347 
L 18.839464 41.735805 
L 19.748901 41.546602 
L 20.658338 41.351742 
L 21.567776 41.152381 
L 22.477213 40.949807 
L 23.38665 40.745423 
L 24.296087 40.540716 
L 25.205525 40.337226 
L 26.114962 40.136512 
L 27.024399 39.940105 
L 27.933837 39.749471 
L 28.843274 39.565967 
L 29.752711 39.390798 
L 30.662148 39.224979 
L 31.571586 39.069305 
L 32.481023 38.92432 
L 33.39046 38.790305 
L 34.299898 38.667267 
L 35.209335 38.55494 
L 36.118772 38.4528 
L 37.028209 38.360086 
L 37.937647 38.275834 
L 38.847084 38.198914 
L 39.756521 38.128079 
L 40.665959 38.062019 
L 41.575396 37.999405 
L 42.484833 37.938951 
L 43.39427 37.879459 
L 44.303708 37.819862 
L 45.213145 37.759263 
L 46.122582 37.696966 
L 47.03202 37.632489 
L 47.941457 37.565576 
L 48.850894 37.496197 
L 49.760331 37.424529 
L 50.669769 37.350944 
L 51.579206 37.275973 
L 52.488643 37.200279 
L 53.398081 37.124614 
L 54.307518 37.049778 
L 55.216955 36.976582 
L 56.126392 36.90581 
L 57.03583 36.83818 
L 57.945267 36.774316 
L 58.854704 36.714728 
L 59.764142 36.659793 
L 60.673579 36.609754 
L 61.583016 36.564717 
L 62.492453 36.524666 
L 63.401891 36.489487 
L 64.311328 36.458989 
L 65.220765 36.432942 
L 66.130203 36.411116 
L 67.03964 36.393319 
L 67.949077 36.379436 
L 68.858514 36.369466 
L 69.767952 36.36355 
L 70.677389 36.361994 
L 71.586826 36.365278 
L 72.496264 36.374063 
L 73.405701 36.389169 
L 74.315138 36.411562 
L 75.224575 36.442313 
L 76.134013 36.48256 
L 77.04345 36.533455 
L 77.952887 36.596113 
L 78.862325 36.671556 
L 79.771762 36.760663 
L 80.681199 36.864117 
L 81.590636 36.982373 
L 82.500074 37.115623 
L 83.409511 37.263775 
L 84.318948 37.426454 
L 85.228386 37.602997 
L 86.137823 37.792479 
L 87.04726 37.993732 
L 87.956697 38.205389 
L 88.866135 38.425918 
L 89.775572 38.653675 
L 90.685009 38.886951 
L 91.594446 39.124018 
L 92.503884 39.36318 
L 93.413321 39.602806 
L 94.322758 39.841373 
L 95.232196 40.077486 
L 96.141633 40.309902 
L 97.05107 40.53754 
L 97.960507 40.759485 
L 98.869945 40.974982 
L 99.779382 41.183428 
L 100.688819 41.384359 
L 101.598257 41.577429 
L 102.507694 41.762394 
L 103.417131 41.939091 
L 104.326568 42.107423 
L 105.236006 42.267338 
" clip-path="url(#p22916f5380)" style="fill: none; stroke: #595959; stroke-linecap: square"/>
   </g>
   <g id="line2d_14">
    <path d="M 15.201715 43.944843 
L 16.111152 43.944843 
L 17.020589 43.944843 
L 17.930026 43.944843 
L 18.839464 43.944843 
L 19.748901 43.944843 
L 20.658338 43.944843 
L 21.567776 43.944843 
L 22.477213 43.944843 
L 23.38665 43.944843 
L 24.296087 43.944843 
L 25.205525 43.944843 
L 26.114962 43.944843 
L 27.024399 43.944843 
L 27.933837 43.944843 
L 28.843274 43.944843 
L 29.752711 43.944843 
L 30.662148 43.944843 
L 31.571586 43.944843 
L 32.481023 43.944843 
L 33.39046 43.944843 
L 34.299898 43.944843 
L 35.209335 43.944843 
L 36.118772 43.944843 
L 37.028209 43.944841 
L 37.937647 43.944832 
L 38.847084 43.94478 
L 39.756521 43.944515 
L 40.665959 43.943371 
L 41.575396 43.939127 
L 42.484833 43.925625 
L 43.39427 43.888828 
L 44.303708 43.802934 
L 45.213145 43.631051 
L 46.122582 43.335184 
L 47.03202 42.89272 
L 47.941457 42.303497 
L 48.850894 41.567734 
L 49.760331 40.636753 
L 50.669769 39.376347 
L 51.579206 37.597877 
L 52.488643 35.169449 
L 53.398081 32.138122 
L 54.307518 28.755459 
L 55.216955 25.369652 
L 56.126392 22.272647 
L 57.03583 19.620704 
L 57.945267 17.438659 
L 58.854704 15.632321 
L 59.764142 14.004359 
L 60.673579 12.363984 
L 61.583016 10.728911 
L 62.492453 9.4295 
L 63.401891 8.949754 
L 64.311328 9.617445 
L 65.220765 11.434718 
L 66.130203 14.173662 
L 67.03964 17.569686 
L 67.949077 21.394873 
L 68.858514 25.396766 
L 69.767952 29.251761 
L 70.677389 32.632195 
L 71.586826 35.334272 
L 72.496264 37.345996 
L 73.405701 38.799347 
L 74.315138 39.861145 
L 75.224575 40.659129 
L 76.134013 41.280804 
L 77.04345 41.800086 
L 77.952887 42.276904 
L 78.862325 42.73315 
L 79.771762 43.14646 
L 80.681199 43.477584 
L 81.590636 43.705076 
L 82.500074 43.837777 
L 83.409511 43.903411 
L 84.318948 43.93098 
L 85.228386 43.940837 
L 86.137823 43.943844 
L 87.04726 43.944628 
L 87.956697 43.944803 
L 88.866135 43.944836 
L 89.775572 43.944842 
L 90.685009 43.944843 
L 91.594446 43.944843 
L 92.503884 43.944843 
L 93.413321 43.944843 
L 94.322758 43.944843 
L 95.232196 43.944843 
L 96.141633 43.944843 
L 97.05107 43.944843 
L 97.960507 43.944843 
L 98.869945 43.944843 
L 99.779382 43.944843 
L 100.688819 43.944843 
L 101.598257 43.944843 
L 102.507694 43.944843 
L 103.417131 43.944843 
L 104.326568 43.944843 
L 105.236006 43.944843 
" clip-path="url(#p22916f5380)" style="fill: none; stroke-dasharray: 3.7,1.6; stroke-dashoffset: 0; stroke: #1f77b4"/>
   </g>
   <g id="patch_3">
    <path d="M 10.7 45.694597 
L 10.7 7.2 
" style="fill: none; stroke: #000000; stroke-width: 0.5; stroke-linejoin: miter; stroke-linecap: square"/>
   </g>
   <g id="patch_4">
    <path d="M 10.7 45.694597 
L 109.73772 45.694597 
" style="fill: none; stroke: #000000; stroke-width: 0.5; stroke-linejoin: miter; stroke-linecap: square"/>
   </g>
   <g id="line2d_15">
    <path d="M 42.57945 43.668362 
L 43.080419 43.613841 
L 43.581388 43.550022 
L 44.082356 43.475625 
L 44.583325 43.389253 
L 45.084294 43.289394 
L 45.585263 43.174423 
L 46.086232 43.042605 
L 46.587201 42.892106 
L 47.08817 42.721007 
L 47.589139 42.527316 
L 48.090108 42.308989 
L 48.591076 42.063958 
L 49.092045 41.790153 
L 49.593014 41.485539 
L 50.093983 41.148153 
L 50.594952 40.776142 
L 51.095921 40.36781 
L 51.59689 39.921662 
L 52.097859 39.436459 
L 52.598828 38.911262 
L 53.099796 38.345488 
L 53.600765 37.738958 
L 54.101734 37.091946 
L 54.602703 36.405222 
L 55.103672 35.680094 
L 55.604641 34.918443 
L 56.10561 34.122745 
L 56.606579 33.296089 
L 57.107548 32.442189 
L 57.608516 31.56537 
L 58.109485 30.67056 
L 58.610454 29.763259 
L 59.111423 28.849492 
L 59.612392 27.935759 
L 60.113361 27.028964 
L 60.61433 26.136339 
L 61.115299 25.26535 
L 61.616268 24.423596 
L 62.117236 23.618708 
L 62.618205 22.858229 
L 63.119174 22.149501 
L 63.620143 21.499548 
L 64.121112 20.914959 
L 64.622081 20.401779 
L 65.12305 19.965404 
L 65.624019 19.610489 
L 66.124988 19.340859 
L 66.625956 19.159448 
L 67.126925 19.068241 
L 67.627894 19.068241 
L 68.128863 19.159448 
L 68.629832 19.340859 
L 69.130801 19.610489 
L 69.63177 19.965404 
L 70.132739 20.401779 
L 70.633708 20.914959 
L 71.134676 21.499548 
L 71.635645 22.149501 
L 72.136614 22.858229 
L 72.637583 23.618708 
L 73.138552 24.423596 
L 73.639521 25.26535 
L 74.14049 26.136339 
L 74.641459 27.028964 
L 75.142428 27.935759 
L 75.643396 28.849492 
L 76.144365 29.763259 
L 76.645334 30.67056 
L 77.146303 31.56537 
L 77.647272 32.442189 
L 78.148241 33.296089 
L 78.64921 34.122745 
L 79.150179 34.918443 
L 79.651148 35.680094 
L 80.152116 36.405222 
L 80.653085 37.091946 
L 81.154054 37.738958 
L 81.655023 38.345488 
L 82.155992 38.911262 
L 82.656961 39.436459 
L 83.15793 39.921662 
L 83.658899 40.36781 
L 84.159868 40.776142 
L 84.660837 41.148153 
L 85.161805 41.485539 
L 85.662774 41.790153 
L 86.163743 42.063958 
L 86.664712 42.308989 
L 87.165681 42.527316 
L 87.66665 42.721007 
L 88.167619 42.892106 
L 88.668588 43.042605 
L 89.169557 43.174423 
L 89.670525 43.289394 
L 90.171494 43.389253 
L 90.672463 43.475625 
L 91.173432 43.550022 
L 91.674401 43.613841 
L 92.17537 43.668362 
" clip-path="url(#p22916f5380)" style="fill: none; stroke: #000000; stroke-linecap: square"/>
   </g>
   <g id="line2d_16">
    <path d="M 67.37741 45.694597 
L 67.37741 7.2 
" clip-path="url(#p22916f5380)" style="fill: none; stroke: #000000; stroke-linecap: square"/>
   </g>
  </g>
  <g id="axes_2">
   <g id="patch_5">
    <path d="M 119.71772 45.694597 
L 218.755441 45.694597 
L 218.755441 7.2 
L 119.71772 7.2 
z
" style="fill: #ffffff"/>
   </g>
   <g id="matplotlib.axis_3">
    <g id="xtick_5">
     <g id="line2d_17">
      <path d="M 133.700362 45.694597 
L 133.700362 7.2 
" clip-path="url(#p52059e1fcb)" style="fill: none; stroke: #d3d3d3; stroke-width: 0.5; stroke-linecap: square"/>
     </g>
     <g id="line2d_18">
      <g>
       <use xlink:href="#m1cea53fb00" x="133.700362" y="45.694597" style="stroke: #000000; stroke-width: 0.8"/>
      </g>
     </g>
     <g id="text_6">
      <!-- −20 -->
      <g transform="translate(127.368956 56.25366) scale(0.06 -0.06)">
       <defs>
        <path id="DejaVuSerif-2212" d="M 678 2259 
L 4684 2259 
L 4684 1753 
L 678 1753 
L 678 2259 
z
" transform="scale(0.015625)"/>
        <path id="DejaVuSerif-32" d="M 819 3553 
L 469 3553 
L 469 4384 
Q 803 4563 1142 4656 
Q 1481 4750 1806 4750 
Q 2534 4750 2956 4397 
Q 3378 4044 3378 3438 
Q 3378 2753 2422 1800 
Q 2347 1728 2309 1691 
L 1131 513 
L 3078 513 
L 3078 1088 
L 3444 1088 
L 3444 0 
L 434 0 
L 434 341 
L 1850 1753 
Q 2319 2222 2519 2614 
Q 2719 3006 2719 3438 
Q 2719 3909 2473 4175 
Q 2228 4441 1797 4441 
Q 1350 4441 1106 4219 
Q 863 3997 819 3553 
z
" transform="scale(0.015625)"/>
       </defs>
       <use xlink:href="#DejaVuSerif-2212"/>
       <use xlink:href="#DejaVuSerif-32" x="83.789062"/>
       <use xlink:href="#DejaVuSerif-30" x="147.412109"/>
      </g>
     </g>
    </g>
    <g id="xtick_6">
     <g id="line2d_19">
      <path d="M 165.921708 45.694597 
L 165.921708 7.2 
" clip-path="url(#p52059e1fcb)" style="fill: none; stroke: #d3d3d3; stroke-width: 0.5; stroke-linecap: square"/>
     </g>
     <g id="line2d_20">
      <g>
       <use xlink:href="#m1cea53fb00" x="165.921708" y="45.694597" style="stroke: #000000; stroke-width: 0.8"/>
      </g>
     </g>
     <g id="text_7">
      <!-- 0 -->
      <g transform="translate(164.012958 56.25366) scale(0.06 -0.06)">
       <use xlink:href="#DejaVuSerif-30"/>
      </g>
     </g>
    </g>
    <g id="xtick_7">
     <g id="line2d_21">
      <path d="M 198.143053 45.694597 
L 198.143053 7.2 
" clip-path="url(#p52059e1fcb)" style="fill: none; stroke: #d3d3d3; stroke-width: 0.5; stroke-linecap: square"/>
     </g>
     <g id="line2d_22">
      <g>
       <use xlink:href="#m1cea53fb00" x="198.143053" y="45.694597" style="stroke: #000000; stroke-width: 0.8"/>
      </g>
     </g>
     <g id="text_8">
      <!-- 20 -->
      <g transform="translate(194.325553 56.25366) scale(0.06 -0.06)">
       <use xlink:href="#DejaVuSerif-32"/>
       <use xlink:href="#DejaVuSerif-30" x="63.623047"/>
      </g>
     </g>
    </g>
    <g id="text_9">
     <!-- Cloud top rate [m/h] -->
     <g transform="translate(138.19783 66.060535) scale(0.06 -0.06)">
      <defs>
       <path id="DejaVuSerif-72" d="M 3059 3328 
L 3059 2497 
L 2728 2497 
Q 2713 2744 2591 2866 
Q 2469 2988 2234 2988 
Q 1809 2988 1582 2694 
Q 1356 2400 1356 1850 
L 1356 331 
L 2022 331 
L 2022 0 
L 263 0 
L 263 331 
L 781 331 
L 781 2994 
L 231 2994 
L 231 3322 
L 1356 3322 
L 1356 2731 
Q 1525 3078 1790 3245 
Q 2056 3413 2438 3413 
Q 2578 3413 2733 3391 
Q 2888 3369 3059 3328 
z
" transform="scale(0.015625)"/>
       <path id="DejaVuSerif-61" d="M 2547 1044 
L 2547 1747 
L 1806 1747 
Q 1378 1747 1168 1562 
Q 959 1378 959 997 
Q 959 650 1171 447 
Q 1384 244 1747 244 
Q 2106 244 2326 466 
Q 2547 688 2547 1044 
z
M 3122 2075 
L 3122 331 
L 3634 331 
L 3634 0 
L 2547 0 
L 2547 359 
Q 2356 128 2106 18 
Q 1856 -91 1522 -91 
Q 969 -91 644 203 
Q 319 497 319 997 
Q 319 1513 691 1797 
Q 1063 2081 1741 2081 
L 2547 2081 
L 2547 2309 
Q 2547 2688 2317 2895 
Q 2088 3103 1672 3103 
Q 1328 3103 1125 2947 
Q 922 2791 872 2484 
L 575 2484 
L 575 3156 
Q 875 3284 1158 3348 
Q 1441 3413 1709 3413 
Q 2400 3413 2761 3070 
Q 3122 2728 3122 2075 
z
" transform="scale(0.015625)"/>
       <path id="DejaVuSerif-2f" d="M 1656 4666 
L 2156 4666 
L 500 -594 
L 0 -594 
L 1656 4666 
z
" transform="scale(0.015625)"/>
      </defs>
      <use xlink:href="#DejaVuSerif-43"/>
      <use xlink:href="#DejaVuSerif-6c" x="76.513672"/>
      <use xlink:href="#DejaVuSerif-6f" x="108.496094"/>
      <use xlink:href="#DejaVuSerif-75" x="168.701172"/>
      <use xlink:href="#DejaVuSerif-64" x="233.105469"/>
      <use xlink:href="#DejaVuSerif-20" x="297.119141"/>
      <use xlink:href="#DejaVuSerif-74" x="328.90625"/>
      <use xlink:href="#DejaVuSerif-6f" x="369.091797"/>
      <use xlink:href="#DejaVuSerif-70" x="429.296875"/>
      <use xlink:href="#DejaVuSerif-20" x="493.310547"/>
      <use xlink:href="#DejaVuSerif-72" x="525.097656"/>
      <use xlink:href="#DejaVuSerif-61" x="572.900391"/>
      <use xlink:href="#DejaVuSerif-74" x="632.519531"/>
      <use xlink:href="#DejaVuSerif-65" x="672.705078"/>
      <use xlink:href="#DejaVuSerif-20" x="731.884766"/>
      <use xlink:href="#DejaVuSerif-5b" x="763.671875"/>
      <use xlink:href="#DejaVuSerif-6d" x="802.685547"/>
      <use xlink:href="#DejaVuSerif-2f" x="897.509766"/>
      <use xlink:href="#DejaVuSerif-68" x="931.201172"/>
      <use xlink:href="#DejaVuSerif-5d" x="995.605469"/>
     </g>
    </g>
   </g>
   <g id="matplotlib.axis_4">
    <g id="ytick_3">
     <g id="line2d_23">
      <path d="M 119.71772 43.944843 
L 218.755441 43.944843 
" clip-path="url(#p52059e1fcb)" style="fill: none; stroke: #d3d3d3; stroke-width: 0.5; stroke-linecap: square"/>
     </g>
     <g id="line2d_24">
      <g>
       <use xlink:href="#m057a46708c" x="119.71772" y="43.944843" style="stroke: #000000; stroke-width: 0.8"/>
      </g>
     </g>
    </g>
    <g id="ytick_4">
     <g id="line2d_25">
      <path d="M 119.71772 21.704801 
L 218.755441 21.704801 
" clip-path="url(#p52059e1fcb)" style="fill: none; stroke: #d3d3d3; stroke-width: 0.5; stroke-linecap: square"/>
     </g>
     <g id="line2d_26">
      <g>
       <use xlink:href="#m057a46708c" x="119.71772" y="21.704801" style="stroke: #000000; stroke-width: 0.8"/>
      </g>
     </g>
    </g>
   </g>
   <g id="line2d_27">
    <path d="M 124.219435 42.7889 
L 125.107358 42.673413 
L 125.995282 42.5489 
L 126.883205 42.414656 
L 127.771129 42.270048 
L 128.659052 42.114561 
L 129.546976 41.947836 
L 130.434899 41.769696 
L 131.322823 41.580161 
L 132.210746 41.379442 
L 133.09867 41.167919 
L 133.986593 40.946111 
L 134.874517 40.714624 
L 135.76244 40.474102 
L 136.650364 40.225179 
L 137.538287 39.968437 
L 138.426211 39.704376 
L 139.314134 39.433415 
L 140.202058 39.155901 
L 141.089981 38.872152 
L 141.977905 38.582515 
L 142.865829 38.287438 
L 143.753752 37.987542 
L 144.641676 37.683698 
L 145.529599 37.377077 
L 146.417523 37.069177 
L 147.305446 36.761816 
L 148.19337 36.457087 
L 149.081293 36.157263 
L 149.969217 35.864683 
L 150.85714 35.581591 
L 151.745064 35.309975 
L 152.632987 35.051403 
L 153.520911 34.806869 
L 154.408834 34.576688 
L 155.296758 34.360424 
L 156.184681 34.156893 
L 157.072605 33.964215 
L 157.960528 33.779944 
L 158.848452 33.60124 
L 159.736375 33.425091 
L 160.624299 33.248562 
L 161.512222 33.069038 
L 162.400146 32.884458 
L 163.288069 32.693507 
L 164.175993 32.495754 
L 165.063916 32.291723 
L 165.95184 32.08289 
L 166.839763 31.871616 
L 167.727687 31.661008 
L 168.61561 31.454734 
L 169.503534 31.256804 
L 170.391457 31.071337 
L 171.279381 30.902332 
L 172.167304 30.753463 
L 173.055228 30.627912 
L 173.943151 30.528247 
L 174.831075 30.456357 
L 175.718998 30.413439 
L 176.606922 30.400038 
L 177.494845 30.416122 
L 178.382769 30.461194 
L 179.270692 30.534422 
L 180.158616 30.634771 
L 181.046539 30.761137 
L 181.934463 30.912453 
L 182.822386 31.087784 
L 183.71031 31.286377 
L 184.598233 31.507689 
L 185.486157 31.751375 
L 186.37408 32.017245 
L 187.262004 32.305192 
L 188.149927 32.615105 
L 189.037851 32.946762 
L 189.925774 33.299724 
L 190.813698 33.67323 
L 191.701621 34.066115 
L 192.589545 34.47674 
L 193.477468 34.90296 
L 194.365392 35.342123 
L 195.253315 35.791104 
L 196.141239 36.246382 
L 197.029162 36.704136 
L 197.917086 37.160382 
L 198.805009 37.611113 
L 199.692933 38.052458 
L 200.580856 38.480827 
L 201.46878 38.893051 
L 202.356703 39.286489 
L 203.244627 39.659111 
L 204.13255 40.009541 
L 205.020474 40.337062 
L 205.908397 40.641585 
L 206.796321 40.923585 
L 207.684244 41.184009 
L 208.572168 41.424166 
L 209.460091 41.645609 
L 210.348015 41.850014 
L 211.235938 42.039072 
L 212.123862 42.214391 
" clip-path="url(#p52059e1fcb)" style="fill: none; stroke: #595959; stroke-linecap: square"/>
   </g>
   <g id="line2d_28">
    <path d="M 124.219435 43.944843 
L 125.107358 43.944843 
L 125.995282 43.944843 
L 126.883205 43.944843 
L 127.771129 43.944843 
L 128.659052 43.944843 
L 129.546976 43.944843 
L 130.434899 43.944843 
L 131.322823 43.944843 
L 132.210746 43.944843 
L 133.09867 43.944843 
L 133.986593 43.944843 
L 134.874517 43.944843 
L 135.76244 43.944843 
L 136.650364 43.944843 
L 137.538287 43.944843 
L 138.426211 43.944843 
L 139.314134 43.944843 
L 140.202058 43.944843 
L 141.089981 43.944842 
L 141.977905 43.944839 
L 142.865829 43.944829 
L 143.753752 43.944789 
L 144.641676 43.944657 
L 145.529599 43.944246 
L 146.417523 43.943067 
L 147.305446 43.93996 
L 148.19337 43.932417 
L 149.081293 43.915533 
L 149.969217 43.880652 
L 150.85714 43.814007 
L 151.745064 43.695903 
L 152.632987 43.500989 
L 153.520911 43.199841 
L 154.408834 42.76148 
L 155.296758 42.156162 
L 156.184681 41.35814 
L 157.072605 40.348854 
L 157.960528 39.121205 
L 158.848452 37.684507 
L 159.736375 36.067955 
L 160.624299 34.319993 
L 161.512222 32.502502 
L 162.400146 30.681249 
L 163.288069 28.914737 
L 164.175993 27.242395 
L 165.063916 25.672474 
L 165.95184 24.172885 
L 166.839763 22.672574 
L 167.727687 21.081212 
L 168.61561 19.326759 
L 169.503534 17.397538 
L 170.391457 15.36721 
L 171.279381 13.385703 
L 172.167304 11.63571 
L 173.055228 10.273463 
L 173.943151 9.382181 
L 174.831075 8.960552 
L 175.718998 8.949754 
L 176.606922 9.28148 
L 177.494845 9.918783 
L 178.382769 10.867916 
L 179.270692 12.158523 
L 180.158616 13.808793 
L 181.046539 15.799027 
L 181.934463 18.068235 
L 182.822386 20.531714 
L 183.71031 23.105036 
L 184.598233 25.718979 
L 185.486157 28.319164 
L 186.37408 30.855556 
L 187.262004 33.272618 
L 188.149927 35.508222 
L 189.037851 37.501971 
L 189.925774 39.207444 
L 190.813698 40.601627 
L 191.701621 41.68783 
L 192.589545 42.492299 
L 193.477468 43.057034 
L 194.365392 43.431497 
L 195.253315 43.665125 
L 196.141239 43.801737 
L 197.029162 43.876326 
L 197.917086 43.914231 
L 198.805009 43.932111 
L 199.692933 43.939923 
L 200.580856 43.943079 
L 201.46878 43.944257 
L 202.356703 43.944663 
L 203.244627 43.944792 
L 204.13255 43.944829 
L 205.020474 43.944839 
L 205.908397 43.944842 
L 206.796321 43.944843 
L 207.684244 43.944843 
L 208.572168 43.944843 
L 209.460091 43.944843 
L 210.348015 43.944843 
L 211.235938 43.944843 
L 212.123862 43.944843 
" clip-path="url(#p52059e1fcb)" style="fill: none; stroke-dasharray: 3.7,1.6; stroke-dashoffset: 0; stroke: #1f77b4"/>
   </g>
   <g id="patch_6">
    <path d="M 119.71772 45.694597 
L 119.71772 7.2 
" style="fill: none; stroke: #000000; stroke-width: 0.5; stroke-linejoin: miter; stroke-linecap: square"/>
   </g>
   <g id="patch_7">
    <path d="M 119.71772 45.694597 
L 218.755441 45.694597 
" style="fill: none; stroke: #000000; stroke-width: 0.5; stroke-linejoin: miter; stroke-linecap: square"/>
   </g>
   <g id="line2d_29">
    <path d="M 141.755699 43.682004 
L 142.488002 43.630173 
L 143.220305 43.569503 
L 143.952609 43.498777 
L 144.684912 43.416667 
L 145.417215 43.321736 
L 146.149519 43.212438 
L 146.881822 43.087123 
L 147.614125 42.944051 
L 148.346429 42.781394 
L 149.078732 42.59726 
L 149.811035 42.389707 
L 150.543338 42.156766 
L 151.275642 41.896471 
L 152.007945 41.606888 
L 152.740248 41.28615 
L 153.472552 40.932495 
L 154.204855 40.54431 
L 154.937158 40.120177 
L 155.669462 39.658915 
L 156.401765 39.159633 
L 157.134068 38.621776 
L 157.866372 38.045174 
L 158.598675 37.430087 
L 159.330978 36.777248 
L 160.063281 36.0879 
L 160.795585 35.363831 
L 161.527888 34.607394 
L 162.260191 33.821529 
L 162.992495 33.009762 
L 163.724798 32.176207 
L 164.457101 31.325551 
L 165.189405 30.463018 
L 165.921708 29.594339 
L 166.654011 28.725691 
L 167.386315 27.863641 
L 168.118618 27.01506 
L 168.850921 26.187048 
L 169.583224 25.386829 
L 170.315528 24.621656 
L 171.047831 23.898701 
L 171.780134 23.224944 
L 172.512438 22.607061 
L 173.244741 22.051317 
L 173.977044 21.563459 
L 174.709348 21.148617 
L 175.441651 20.811213 
L 176.173954 20.554888 
L 176.906257 20.382428 
L 177.638561 20.295722 
L 178.370864 20.295722 
L 179.103167 20.382428 
L 179.835471 20.554888 
L 180.567774 20.811213 
L 181.300077 21.148617 
L 182.032381 21.563459 
L 182.764684 22.051317 
L 183.496987 22.607061 
L 184.229291 23.224944 
L 184.961594 23.898701 
L 185.693897 24.621656 
L 186.4262 25.386829 
L 187.158504 26.187048 
L 187.890807 27.01506 
L 188.62311 27.863641 
L 189.355414 28.725691 
L 190.087717 29.594339 
L 190.82002 30.463018 
L 191.552324 31.325551 
L 192.284627 32.176207 
L 193.01693 33.009762 
L 193.749234 33.821529 
L 194.481537 34.607394 
L 195.21384 35.363831 
L 195.946143 36.0879 
L 196.678447 36.777248 
L 197.41075 37.430087 
L 198.143053 38.045174 
L 198.875357 38.621776 
L 199.60766 39.159633 
L 200.339963 39.658915 
L 201.072267 40.120177 
L 201.80457 40.54431 
L 202.536873 40.932495 
L 203.269177 41.28615 
L 204.00148 41.606888 
L 204.733783 41.896471 
L 205.466086 42.156766 
L 206.19839 42.389707 
L 206.930693 42.59726 
L 207.662996 42.781394 
L 208.3953 42.944051 
L 209.127603 43.087123 
L 209.859906 43.212438 
L 210.59221 43.321736 
L 211.324513 43.416667 
L 212.056816 43.498777 
L 212.789119 43.569503 
L 213.521423 43.630173 
L 214.253726 43.682004 
" clip-path="url(#p52059e1fcb)" style="fill: none; stroke: #000000; stroke-linecap: square"/>
   </g>
   <g id="line2d_30">
    <path d="M 178.004712 45.694597 
L 178.004712 7.2 
" clip-path="url(#p52059e1fcb)" style="fill: none; stroke: #000000; stroke-linecap: square"/>
   </g>
  </g>
  <g id="axes_3">
   <g id="patch_8">
    <path d="M 10.7 112.269194 
L 109.73772 112.269194 
L 109.73772 73.774597 
L 10.7 73.774597 
z
" style="fill: #ffffff"/>
   </g>
   <g id="matplotlib.axis_5">
    <g id="xtick_8">
     <g id="line2d_31">
      <path d="M 31.525928 112.269194 
L 31.525928 73.774597 
" clip-path="url(#p4fda1b45e4)" style="fill: none; stroke: #d3d3d3; stroke-width: 0.5; stroke-linecap: square"/>
     </g>
     <g id="line2d_32">
      <g>
       <use xlink:href="#m1cea53fb00" x="31.525928" y="112.269194" style="stroke: #000000; stroke-width: 0.8"/>
      </g>
     </g>
     <g id="text_10">
      <!-- 500 -->
      <g transform="translate(25.799678 122.828257) scale(0.06 -0.06)">
       <use xlink:href="#DejaVuSerif-35"/>
       <use xlink:href="#DejaVuSerif-30" x="63.623047"/>
       <use xlink:href="#DejaVuSerif-30" x="127.246094"/>
      </g>
     </g>
    </g>
    <g id="xtick_9">
     <g id="line2d_33">
      <path d="M 55.606545 112.269194 
L 55.606545 73.774597 
" clip-path="url(#p4fda1b45e4)" style="fill: none; stroke: #d3d3d3; stroke-width: 0.5; stroke-linecap: square"/>
     </g>
     <g id="line2d_34">
      <g>
       <use xlink:href="#m1cea53fb00" x="55.606545" y="112.269194" style="stroke: #000000; stroke-width: 0.8"/>
      </g>
     </g>
     <g id="text_11">
      <!-- 600 -->
      <g transform="translate(49.880295 122.828257) scale(0.06 -0.06)">
       <defs>
        <path id="DejaVuSerif-36" d="M 2094 219 
Q 2534 219 2771 542 
Q 3009 866 3009 1472 
Q 3009 2078 2771 2401 
Q 2534 2725 2094 2725 
Q 1647 2725 1412 2412 
Q 1178 2100 1178 1509 
Q 1178 888 1415 553 
Q 1653 219 2094 219 
z
M 1075 2569 
Q 1288 2803 1556 2918 
Q 1825 3034 2163 3034 
Q 2859 3034 3264 2615 
Q 3669 2197 3669 1472 
Q 3669 763 3233 336 
Q 2797 -91 2069 -91 
Q 1278 -91 853 498 
Q 428 1088 428 2181 
Q 428 3406 931 4078 
Q 1434 4750 2350 4750 
Q 2597 4750 2869 4703 
Q 3141 4656 3425 4563 
L 3425 3794 
L 3072 3794 
Q 3034 4109 2831 4275 
Q 2628 4441 2284 4441 
Q 1678 4441 1381 3981 
Q 1084 3522 1075 2569 
z
" transform="scale(0.015625)"/>
       </defs>
       <use xlink:href="#DejaVuSerif-36"/>
       <use xlink:href="#DejaVuSerif-30" x="63.623047"/>
       <use xlink:href="#DejaVuSerif-30" x="127.246094"/>
      </g>
     </g>
    </g>
    <g id="xtick_10">
     <g id="line2d_35">
      <path d="M 79.687162 112.269194 
L 79.687162 73.774597 
" clip-path="url(#p4fda1b45e4)" style="fill: none; stroke: #d3d3d3; stroke-width: 0.5; stroke-linecap: square"/>
     </g>
     <g id="line2d_36">
      <g>
       <use xlink:href="#m1cea53fb00" x="79.687162" y="112.269194" style="stroke: #000000; stroke-width: 0.8"/>
      </g>
     </g>
     <g id="text_12">
      <!-- 700 -->
      <g transform="translate(73.960912 122.828257) scale(0.06 -0.06)">
       <use xlink:href="#DejaVuSerif-37"/>
       <use xlink:href="#DejaVuSerif-30" x="63.623047"/>
       <use xlink:href="#DejaVuSerif-30" x="127.246094"/>
      </g>
     </g>
    </g>
    <g id="xtick_11">
     <g id="line2d_37">
      <path d="M 103.767778 112.269194 
L 103.767778 73.774597 
" clip-path="url(#p4fda1b45e4)" style="fill: none; stroke: #d3d3d3; stroke-width: 0.5; stroke-linecap: square"/>
     </g>
     <g id="line2d_38">
      <g>
       <use xlink:href="#m1cea53fb00" x="103.767778" y="112.269194" style="stroke: #000000; stroke-width: 0.8"/>
      </g>
     </g>
     <g id="text_13">
      <!-- 800 -->
      <g transform="translate(98.041528 122.828257) scale(0.06 -0.06)">
       <use xlink:href="#DejaVuSerif-38"/>
       <use xlink:href="#DejaVuSerif-30" x="63.623047"/>
       <use xlink:href="#DejaVuSerif-30" x="127.246094"/>
      </g>
     </g>
    </g>
    <g id="text_14">
     <!-- Cloud base height [m] -->
     <g transform="translate(26.509173 132.635132) scale(0.06 -0.06)">
      <defs>
       <path id="DejaVuSerif-62" d="M 738 331 
L 738 4531 
L 184 4531 
L 184 4863 
L 1313 4863 
L 1313 2803 
Q 1481 3116 1742 3264 
Q 2003 3413 2388 3413 
Q 3000 3413 3387 2928 
Q 3775 2444 3775 1663 
Q 3775 881 3387 395 
Q 3000 -91 2388 -91 
Q 2003 -91 1742 57 
Q 1481 206 1313 519 
L 1313 0 
L 184 0 
L 184 331 
L 738 331 
z
M 1313 1497 
Q 1313 897 1542 583 
Q 1772 269 2209 269 
Q 2650 269 2876 622 
Q 3103 975 3103 1663 
Q 3103 2353 2876 2703 
Q 2650 3053 2209 3053 
Q 1772 3053 1542 2737 
Q 1313 2422 1313 1825 
L 1313 1497 
z
" transform="scale(0.015625)"/>
       <path id="DejaVuSerif-73" d="M 359 184 
L 359 959 
L 691 959 
Q 703 588 923 403 
Q 1144 219 1575 219 
Q 1963 219 2166 364 
Q 2369 509 2369 788 
Q 2369 1006 2220 1140 
Q 2072 1275 1594 1428 
L 1178 1569 
Q 750 1706 558 1912 
Q 366 2119 366 2438 
Q 366 2894 700 3153 
Q 1034 3413 1625 3413 
Q 1888 3413 2178 3344 
Q 2469 3275 2778 3144 
L 2778 2419 
L 2447 2419 
Q 2434 2741 2221 2922 
Q 2009 3103 1644 3103 
Q 1281 3103 1095 2975 
Q 909 2847 909 2591 
Q 909 2381 1050 2254 
Q 1191 2128 1613 1997 
L 2069 1856 
Q 2541 1709 2748 1489 
Q 2956 1269 2956 922 
Q 2956 450 2595 179 
Q 2234 -91 1600 -91 
Q 1278 -91 972 -22 
Q 666 47 359 184 
z
" transform="scale(0.015625)"/>
      </defs>
      <use xlink:href="#DejaVuSerif-43"/>
      <use xlink:href="#DejaVuSerif-6c" x="76.513672"/>
      <use xlink:href="#DejaVuSerif-6f" x="108.496094"/>
      <use xlink:href="#DejaVuSerif-75" x="168.701172"/>
      <use xlink:href="#DejaVuSerif-64" x="233.105469"/>
      <use xlink:href="#DejaVuSerif-20" x="297.119141"/>
      <use xlink:href="#DejaVuSerif-62" x="328.90625"/>
      <use xlink:href="#DejaVuSerif-61" x="392.919922"/>
      <use xlink:href="#DejaVuSerif-73" x="452.539062"/>
      <use xlink:href="#DejaVuSerif-65" x="503.857422"/>
      <use xlink:href="#DejaVuSerif-20" x="563.037109"/>
      <use xlink:href="#DejaVuSerif-68" x="594.824219"/>
      <use xlink:href="#DejaVuSerif-65" x="659.228516"/>
      <use xlink:href="#DejaVuSerif-69" x="718.408203"/>
      <use xlink:href="#DejaVuSerif-67" x="750.390625"/>
      <use xlink:href="#DejaVuSerif-68" x="814.404297"/>
      <use xlink:href="#DejaVuSerif-74" x="878.808594"/>
      <use xlink:href="#DejaVuSerif-20" x="918.994141"/>
      <use xlink:href="#DejaVuSerif-5b" x="950.78125"/>
      <use xlink:href="#DejaVuSerif-6d" x="989.794922"/>
      <use xlink:href="#DejaVuSerif-5d" x="1084.619141"/>
     </g>
    </g>
   </g>
   <g id="matplotlib.axis_6">
    <g id="ytick_5">
     <g id="line2d_39">
      <path d="M 10.7 110.51944 
L 109.73772 110.51944 
" clip-path="url(#p4fda1b45e4)" style="fill: none; stroke: #d3d3d3; stroke-width: 0.5; stroke-linecap: square"/>
     </g>
     <g id="line2d_40">
      <g>
       <use xlink:href="#m057a46708c" x="10.7" y="110.51944" style="stroke: #000000; stroke-width: 0.8"/>
      </g>
     </g>
    </g>
    <g id="ytick_6">
     <g id="line2d_41">
      <path d="M 10.7 96.280208 
L 109.73772 96.280208 
" clip-path="url(#p4fda1b45e4)" style="fill: none; stroke: #d3d3d3; stroke-width: 0.5; stroke-linecap: square"/>
     </g>
     <g id="line2d_42">
      <g>
       <use xlink:href="#m057a46708c" x="10.7" y="96.280208" style="stroke: #000000; stroke-width: 0.8"/>
      </g>
     </g>
    </g>
    <g id="ytick_7">
     <g id="line2d_43">
      <path d="M 10.7 82.040976 
L 109.73772 82.040976 
" clip-path="url(#p4fda1b45e4)" style="fill: none; stroke: #d3d3d3; stroke-width: 0.5; stroke-linecap: square"/>
     </g>
     <g id="line2d_44">
      <g>
       <use xlink:href="#m057a46708c" x="10.7" y="82.040976" style="stroke: #000000; stroke-width: 0.8"/>
      </g>
     </g>
    </g>
   </g>
   <g id="line2d_45">
    <path d="M 15.201715 110.024333 
L 16.111152 109.978797 
L 17.020589 109.931199 
L 17.930026 109.881404 
L 18.839464 109.829242 
L 19.748901 109.774518 
L 20.658338 109.717028 
L 21.567776 109.656573 
L 22.477213 109.592979 
L 23.38665 109.526112 
L 24.296087 109.455895 
L 25.205525 109.382319 
L 26.114962 109.305446 
L 27.024399 109.225416 
L 27.933837 109.142439 
L 28.843274 109.056788 
L 29.752711 108.968785 
L 30.662148 108.878787 
L 31.571586 108.787172 
L 32.481023 108.694321 
L 33.39046 108.600611 
L 34.299898 108.506407 
L 35.209335 108.412063 
L 36.118772 108.317924 
L 37.028209 108.224341 
L 37.937647 108.131683 
L 38.847084 108.040355 
L 39.756521 107.950815 
L 40.665959 107.86359 
L 41.575396 107.779283 
L 42.484833 107.698577 
L 43.39427 107.62223 
L 44.303708 107.551055 
L 45.213145 107.4859 
L 46.122582 107.427612 
L 47.03202 107.377001 
L 47.941457 107.334798 
L 48.850894 107.301613 
L 49.760331 107.2779 
L 50.669769 107.263924 
L 51.579206 107.259744 
L 52.488643 107.2652 
L 53.398081 107.279918 
L 54.307518 107.303324 
L 55.216955 107.33467 
L 56.126392 107.373067 
L 57.03583 107.417528 
L 57.945267 107.467009 
L 58.854704 107.520455 
L 59.764142 107.576837 
L 60.673579 107.635194 
L 61.583016 107.694652 
L 62.492453 107.754454 
L 63.401891 107.813961 
L 64.311328 107.872665 
L 65.220765 107.930179 
L 66.130203 107.986232 
L 67.03964 108.040656 
L 67.949077 108.093371 
L 68.858514 108.144376 
L 69.767952 108.193731 
L 70.677389 108.241555 
L 71.586826 108.288014 
L 72.496264 108.33332 
L 73.405701 108.377731 
L 74.315138 108.421547 
L 75.224575 108.465114 
L 76.134013 108.508821 
L 77.04345 108.553096 
L 77.952887 108.598398 
L 78.862325 108.645202 
L 79.771762 108.693985 
L 80.681199 108.745203 
L 81.590636 108.799264 
L 82.500074 108.856504 
L 83.409511 108.917159 
L 84.318948 108.98134 
L 85.228386 109.049016 
L 86.137823 109.119999 
L 87.04726 109.19394 
L 87.956697 109.270333 
L 88.866135 109.348534 
L 89.775572 109.427779 
L 90.685009 109.507218 
L 91.594446 109.585955 
L 92.503884 109.663087 
L 93.413321 109.737745 
L 94.322758 109.809136 
L 95.232196 109.876578 
L 96.141633 109.939525 
L 97.05107 109.997588 
L 97.960507 110.050546 
L 98.869945 110.098342 
L 99.779382 110.141074 
L 100.688819 110.178976 
L 101.598257 110.212397 
L 102.507694 110.241765 
L 103.417131 110.267564 
L 104.326568 110.290297 
L 105.236006 110.310462 
" clip-path="url(#p4fda1b45e4)" style="fill: none; stroke: #595959; stroke-linecap: square"/>
   </g>
   <g id="line2d_46">
    <path d="M 15.201715 110.51944 
L 16.111152 110.51944 
L 17.020589 110.51944 
L 17.930026 110.51944 
L 18.839464 110.51944 
L 19.748901 110.51944 
L 20.658338 110.51944 
L 21.567776 110.51944 
L 22.477213 110.51944 
L 23.38665 110.51944 
L 24.296087 110.51944 
L 25.205525 110.51944 
L 26.114962 110.51944 
L 27.024399 110.51944 
L 27.933837 110.51944 
L 28.843274 110.51944 
L 29.752711 110.51944 
L 30.662148 110.51944 
L 31.571586 110.51944 
L 32.481023 110.51944 
L 33.39046 110.51944 
L 34.299898 110.51944 
L 35.209335 110.51944 
L 36.118772 110.51944 
L 37.028209 110.51944 
L 37.937647 110.51944 
L 38.847084 110.51944 
L 39.756521 110.51944 
L 40.665959 110.51944 
L 41.575396 110.51944 
L 42.484833 110.51944 
L 43.39427 110.51944 
L 44.303708 110.51944 
L 45.213145 110.51944 
L 46.122582 110.51944 
L 47.03202 110.519439 
L 47.941457 110.519251 
L 48.850894 110.500884 
L 49.760331 110.005475 
L 50.669769 106.312479 
L 51.579206 99.119227 
L 52.488643 95.474085 
L 53.398081 87.184466 
L 54.307518 75.597038 
L 55.216955 75.524352 
L 56.126392 84.194984 
L 57.03583 92.24488 
L 57.945267 98.22695 
L 58.854704 104.949357 
L 59.764142 109.07952 
L 60.673579 110.348296 
L 61.583016 110.512482 
L 62.492453 110.519357 
L 63.401891 110.51944 
L 64.311328 110.51944 
L 65.220765 110.51944 
L 66.130203 110.51944 
L 67.03964 110.51944 
L 67.949077 110.51944 
L 68.858514 110.51944 
L 69.767952 110.51944 
L 70.677389 110.51944 
L 71.586826 110.51944 
L 72.496264 110.51944 
L 73.405701 110.51944 
L 74.315138 110.51944 
L 75.224575 110.51944 
L 76.134013 110.51944 
L 77.04345 110.51944 
L 77.952887 110.51944 
L 78.862325 110.51944 
L 79.771762 110.51944 
L 80.681199 110.51944 
L 81.590636 110.51944 
L 82.500074 110.51944 
L 83.409511 110.51944 
L 84.318948 110.51944 
L 85.228386 110.51944 
L 86.137823 110.51944 
L 87.04726 110.51944 
L 87.956697 110.51944 
L 88.866135 110.51944 
L 89.775572 110.51944 
L 90.685009 110.51944 
L 91.594446 110.51944 
L 92.503884 110.51944 
L 93.413321 110.51944 
L 94.322758 110.51944 
L 95.232196 110.51944 
L 96.141633 110.51944 
L 97.05107 110.51944 
L 97.960507 110.51944 
L 98.869945 110.51944 
L 99.779382 110.51944 
L 100.688819 110.51944 
L 101.598257 110.51944 
L 102.507694 110.51944 
L 103.417131 110.51944 
L 104.326568 110.51944 
L 105.236006 110.51944 
" clip-path="url(#p4fda1b45e4)" style="fill: none; stroke-dasharray: 3.7,1.6; stroke-dashoffset: 0; stroke: #1f77b4"/>
   </g>
   <g id="patch_9">
    <path d="M 10.7 112.269194 
L 10.7 73.774597 
" style="fill: none; stroke: #000000; stroke-width: 0.5; stroke-linejoin: miter; stroke-linecap: square"/>
   </g>
   <g id="patch_10">
    <path d="M 10.7 112.269194 
L 109.73772 112.269194 
" style="fill: none; stroke: #000000; stroke-width: 0.5; stroke-linejoin: miter; stroke-linecap: square"/>
   </g>
   <g id="line2d_47">
    <path d="M 43.566236 110.203909 
L 43.712179 110.141688 
L 43.858122 110.068855 
L 44.004065 109.98395 
L 44.150009 109.88538 
L 44.295952 109.771417 
L 44.441895 109.640208 
L 44.587838 109.489771 
L 44.733781 109.318017 
L 44.879724 109.122752 
L 45.025667 108.901704 
L 45.171611 108.652542 
L 45.317554 108.372903 
L 45.463497 108.060426 
L 45.60944 107.71279 
L 45.755383 107.327752 
L 45.901326 106.903199 
L 46.047269 106.437194 
L 46.193212 105.928034 
L 46.339156 105.374302 
L 46.485099 104.774927 
L 46.631042 104.129245 
L 46.776985 103.43705 
L 46.922928 102.698654 
L 47.068871 101.914939 
L 47.214814 101.087396 
L 47.360758 100.218171 
L 47.506701 99.31009 
L 47.652644 98.366679 
L 47.798587 97.392175 
L 47.94453 96.391516 
L 48.090473 95.370326 
L 48.236416 94.334879 
L 48.382359 93.292054 
L 48.528303 92.249267 
L 48.674246 91.214399 
L 48.820189 90.195701 
L 48.966132 89.201695 
L 49.112075 88.241054 
L 49.258018 87.322485 
L 49.403961 86.454598 
L 49.549905 85.64577 
L 49.695848 84.904019 
L 49.841791 84.236864 
L 49.987734 83.651204 
L 50.133677 83.153197 
L 50.27962 82.748153 
L 50.425563 82.440441 
L 50.571506 82.233408 
L 50.71745 82.12932 
L 50.863393 82.12932 
L 51.009336 82.233408 
L 51.155279 82.440441 
L 51.301222 82.748153 
L 51.447165 83.153197 
L 51.593108 83.651204 
L 51.739051 84.236864 
L 51.884995 84.904019 
L 52.030938 85.64577 
L 52.176881 86.454598 
L 52.322824 87.322485 
L 52.468767 88.241054 
L 52.61471 89.201695 
L 52.760653 90.195701 
L 52.906597 91.214399 
L 53.05254 92.249267 
L 53.198483 93.292054 
L 53.344426 94.334879 
L 53.490369 95.370326 
L 53.636312 96.391516 
L 53.782255 97.392175 
L 53.928198 98.366679 
L 54.074142 99.31009 
L 54.220085 100.218171 
L 54.366028 101.087396 
L 54.511971 101.914939 
L 54.657914 102.698654 
L 54.803857 103.43705 
L 54.9498 104.129245 
L 55.095744 104.774927 
L 55.241687 105.374302 
L 55.38763 105.928034 
L 55.533573 106.437194 
L 55.679516 106.903199 
L 55.825459 107.327752 
L 55.971402 107.71279 
L 56.117345 108.060426 
L 56.263289 108.372903 
L 56.409232 108.652542 
L 56.555175 108.901704 
L 56.701118 109.122752 
L 56.847061 109.318017 
L 56.993004 109.489771 
L 57.138947 109.640208 
L 57.284891 109.771417 
L 57.430834 109.88538 
L 57.576777 109.98395 
L 57.72272 110.068855 
L 57.868663 110.141688 
L 58.014606 110.203909 
" clip-path="url(#p4fda1b45e4)" style="fill: none; stroke: #000000; stroke-linecap: square"/>
   </g>
   <g id="line2d_48">
    <path d="M 50.790421 112.269194 
L 50.790421 73.774597 
" clip-path="url(#p4fda1b45e4)" style="fill: none; stroke: #000000; stroke-linecap: square"/>
   </g>
  </g>
  <g id="axes_4">
   <g id="patch_11">
    <path d="M 119.71772 112.269194 
L 218.755441 112.269194 
L 218.755441 73.774597 
L 119.71772 73.774597 
z
" style="fill: #ffffff"/>
   </g>
   <g id="matplotlib.axis_7">
    <g id="xtick_12">
     <g id="line2d_49">
      <path d="M 129.504195 112.269194 
L 129.504195 73.774597 
" clip-path="url(#pd91d0de5cb)" style="fill: none; stroke: #d3d3d3; stroke-width: 0.5; stroke-linecap: square"/>
     </g>
     <g id="line2d_50">
      <g>
       <use xlink:href="#m1cea53fb00" x="129.504195" y="112.269194" style="stroke: #000000; stroke-width: 0.8"/>
      </g>
     </g>
     <g id="text_15">
      <!-- −20 -->
      <g transform="translate(123.172789 122.828257) scale(0.06 -0.06)">
       <use xlink:href="#DejaVuSerif-2212"/>
       <use xlink:href="#DejaVuSerif-32" x="83.789062"/>
       <use xlink:href="#DejaVuSerif-30" x="147.412109"/>
      </g>
     </g>
    </g>
    <g id="xtick_13">
     <g id="line2d_51">
      <path d="M 151.215789 112.269194 
L 151.215789 73.774597 
" clip-path="url(#pd91d0de5cb)" style="fill: none; stroke: #d3d3d3; stroke-width: 0.5; stroke-linecap: square"/>
     </g>
     <g id="line2d_52">
      <g>
       <use xlink:href="#m1cea53fb00" x="151.215789" y="112.269194" style="stroke: #000000; stroke-width: 0.8"/>
      </g>
     </g>
     <g id="text_16">
      <!-- 0 -->
      <g transform="translate(149.307039 122.828257) scale(0.06 -0.06)">
       <use xlink:href="#DejaVuSerif-30"/>
      </g>
     </g>
    </g>
    <g id="xtick_14">
     <g id="line2d_53">
      <path d="M 172.927383 112.269194 
L 172.927383 73.774597 
" clip-path="url(#pd91d0de5cb)" style="fill: none; stroke: #d3d3d3; stroke-width: 0.5; stroke-linecap: square"/>
     </g>
     <g id="line2d_54">
      <g>
       <use xlink:href="#m1cea53fb00" x="172.927383" y="112.269194" style="stroke: #000000; stroke-width: 0.8"/>
      </g>
     </g>
     <g id="text_17">
      <!-- 20 -->
      <g transform="translate(169.109883 122.828257) scale(0.06 -0.06)">
       <use xlink:href="#DejaVuSerif-32"/>
       <use xlink:href="#DejaVuSerif-30" x="63.623047"/>
      </g>
     </g>
    </g>
    <g id="xtick_15">
     <g id="line2d_55">
      <path d="M 194.638977 112.269194 
L 194.638977 73.774597 
" clip-path="url(#pd91d0de5cb)" style="fill: none; stroke: #d3d3d3; stroke-width: 0.5; stroke-linecap: square"/>
     </g>
     <g id="line2d_56">
      <g>
       <use xlink:href="#m1cea53fb00" x="194.638977" y="112.269194" style="stroke: #000000; stroke-width: 0.8"/>
      </g>
     </g>
     <g id="text_18">
      <!-- 40 -->
      <g transform="translate(190.821477 122.828257) scale(0.06 -0.06)">
       <defs>
        <path id="DejaVuSerif-34" d="M 2234 1581 
L 2234 4063 
L 641 1581 
L 2234 1581 
z
M 3609 0 
L 1484 0 
L 1484 331 
L 2234 331 
L 2234 1247 
L 197 1247 
L 197 1588 
L 2241 4750 
L 2859 4750 
L 2859 1581 
L 3750 1581 
L 3750 1247 
L 2859 1247 
L 2859 331 
L 3609 331 
L 3609 0 
z
" transform="scale(0.015625)"/>
       </defs>
       <use xlink:href="#DejaVuSerif-34"/>
       <use xlink:href="#DejaVuSerif-30" x="63.623047"/>
      </g>
     </g>
    </g>
    <g id="xtick_16">
     <g id="line2d_57">
      <path d="M 216.350571 112.269194 
L 216.350571 73.774597 
" clip-path="url(#pd91d0de5cb)" style="fill: none; stroke: #d3d3d3; stroke-width: 0.5; stroke-linecap: square"/>
     </g>
     <g id="line2d_58">
      <g>
       <use xlink:href="#m1cea53fb00" x="216.350571" y="112.269194" style="stroke: #000000; stroke-width: 0.8"/>
      </g>
     </g>
     <g id="text_19">
      <!-- 60 -->
      <g transform="translate(212.533071 122.828257) scale(0.06 -0.06)">
       <use xlink:href="#DejaVuSerif-36"/>
       <use xlink:href="#DejaVuSerif-30" x="63.623047"/>
      </g>
     </g>
    </g>
    <g id="text_20">
     <!-- Cloud base rate [m/h] -->
     <g transform="translate(136.105799 132.635132) scale(0.06 -0.06)">
      <use xlink:href="#DejaVuSerif-43"/>
      <use xlink:href="#DejaVuSerif-6c" x="76.513672"/>
      <use xlink:href="#DejaVuSerif-6f" x="108.496094"/>
      <use xlink:href="#DejaVuSerif-75" x="168.701172"/>
      <use xlink:href="#DejaVuSerif-64" x="233.105469"/>
      <use xlink:href="#DejaVuSerif-20" x="297.119141"/>
      <use xlink:href="#DejaVuSerif-62" x="328.90625"/>
      <use xlink:href="#DejaVuSerif-61" x="392.919922"/>
      <use xlink:href="#DejaVuSerif-73" x="452.539062"/>
      <use xlink:href="#DejaVuSerif-65" x="503.857422"/>
      <use xlink:href="#DejaVuSerif-20" x="563.037109"/>
      <use xlink:href="#DejaVuSerif-72" x="594.824219"/>
      <use xlink:href="#DejaVuSerif-61" x="642.626953"/>
      <use xlink:href="#DejaVuSerif-74" x="702.246094"/>
      <use xlink:href="#DejaVuSerif-65" x="742.431641"/>
      <use xlink:href="#DejaVuSerif-20" x="801.611328"/>
      <use xlink:href="#DejaVuSerif-5b" x="833.398438"/>
      <use xlink:href="#DejaVuSerif-6d" x="872.412109"/>
      <use xlink:href="#DejaVuSerif-2f" x="967.236328"/>
      <use xlink:href="#DejaVuSerif-68" x="1000.927734"/>
      <use xlink:href="#DejaVuSerif-5d" x="1065.332031"/>
     </g>
    </g>
   </g>
   <g id="matplotlib.axis_8">
    <g id="ytick_8">
     <g id="line2d_59">
      <path d="M 119.71772 110.51944 
L 218.755441 110.51944 
" clip-path="url(#pd91d0de5cb)" style="fill: none; stroke: #d3d3d3; stroke-width: 0.5; stroke-linecap: square"/>
     </g>
     <g id="line2d_60">
      <g>
       <use xlink:href="#m057a46708c" x="119.71772" y="110.51944" style="stroke: #000000; stroke-width: 0.8"/>
      </g>
     </g>
    </g>
    <g id="ytick_9">
     <g id="line2d_61">
      <path d="M 119.71772 97.140504 
L 218.755441 97.140504 
" clip-path="url(#pd91d0de5cb)" style="fill: none; stroke: #d3d3d3; stroke-width: 0.5; stroke-linecap: square"/>
     </g>
     <g id="line2d_62">
      <g>
       <use xlink:href="#m057a46708c" x="119.71772" y="97.140504" style="stroke: #000000; stroke-width: 0.8"/>
      </g>
     </g>
    </g>
    <g id="ytick_10">
     <g id="line2d_63">
      <path d="M 119.71772 83.761568 
L 218.755441 83.761568 
" clip-path="url(#pd91d0de5cb)" style="fill: none; stroke: #d3d3d3; stroke-width: 0.5; stroke-linecap: square"/>
     </g>
     <g id="line2d_64">
      <g>
       <use xlink:href="#m057a46708c" x="119.71772" y="83.761568" style="stroke: #000000; stroke-width: 0.8"/>
      </g>
     </g>
    </g>
   </g>
   <g id="line2d_65">
    <path d="M 124.219435 110.011954 
L 125.128872 109.967203 
L 126.038309 109.920848 
L 126.947747 109.872923 
L 127.857184 109.823438 
L 128.766621 109.772378 
L 129.676059 109.719697 
L 130.585496 109.665322 
L 131.494933 109.609153 
L 132.40437 109.551069 
L 133.313808 109.490933 
L 134.223245 109.428601 
L 135.132682 109.363939 
L 136.04212 109.296832 
L 136.951557 109.227206 
L 137.860994 109.155039 
L 138.770431 109.080383 
L 139.679869 109.003377 
L 140.589306 108.924259 
L 141.498743 108.843375 
L 142.408181 108.761182 
L 143.317618 108.678246 
L 144.227055 108.595235 
L 145.136492 108.512901 
L 146.04593 108.432064 
L 146.955367 108.353585 
L 147.864804 108.27834 
L 148.774242 108.207185 
L 149.683679 108.140932 
L 150.593116 108.080309 
L 151.502553 108.025942 
L 152.411991 107.978321 
L 153.321428 107.937791 
L 154.230865 107.904533 
L 155.140303 107.878561 
L 156.04974 107.859728 
L 156.959177 107.847735 
L 157.868614 107.84215 
L 158.778052 107.842435 
L 159.687489 107.847979 
L 160.596926 107.85813 
L 161.506364 107.872238 
L 162.415801 107.889685 
L 163.325238 107.909924 
L 164.234675 107.932506 
L 165.144113 107.957101 
L 166.05355 107.983509 
L 166.962987 108.011663 
L 167.872425 108.041617 
L 168.781862 108.073533 
L 169.691299 108.107649 
L 170.600736 108.144244 
L 171.510174 108.183604 
L 172.419611 108.225981 
L 173.329048 108.271557 
L 174.238486 108.320409 
L 175.147923 108.372494 
L 176.05736 108.427629 
L 176.966797 108.485491 
L 177.876235 108.54563 
L 178.785672 108.607487 
L 179.695109 108.670428 
L 180.604547 108.733776 
L 181.513984 108.796859 
L 182.423421 108.859046 
L 183.332858 108.919786 
L 184.242296 108.978646 
L 185.151733 109.035327 
L 186.06117 109.089683 
L 186.970608 109.141717 
L 187.880045 109.191577 
L 188.789482 109.239528 
L 189.698919 109.285929 
L 190.608357 109.331193 
L 191.517794 109.375749 
L 192.427231 109.420006 
L 193.336669 109.464314 
L 194.246106 109.508937 
L 195.155543 109.554029 
L 196.06498 109.599627 
L 196.974418 109.645642 
L 197.883855 109.691877 
L 198.793292 109.738036 
L 199.70273 109.783752 
L 200.612167 109.828616 
L 201.521604 109.872209 
L 202.431041 109.914131 
L 203.340479 109.954032 
L 204.249916 109.991634 
L 205.159353 110.026745 
L 206.068791 110.059275 
L 206.978228 110.089231 
L 207.887665 110.116714 
L 208.797102 110.141906 
L 209.70654 110.165052 
L 210.615977 110.186442 
L 211.525414 110.206383 
L 212.434852 110.225184 
L 213.344289 110.243131 
L 214.253726 110.260472 
" clip-path="url(#pd91d0de5cb)" style="fill: none; stroke: #595959; stroke-linecap: square"/>
   </g>
   <g id="line2d_66">
    <path d="M 124.219435 110.51944 
L 125.128872 110.51944 
L 126.038309 110.51944 
L 126.947747 110.51944 
L 127.857184 110.51944 
L 128.766621 110.51944 
L 129.676059 110.51944 
L 130.585496 110.51944 
L 131.494933 110.51944 
L 132.40437 110.51944 
L 133.313808 110.51944 
L 134.223245 110.51944 
L 135.132682 110.51944 
L 136.04212 110.51944 
L 136.951557 110.51944 
L 137.860994 110.51944 
L 138.770431 110.51944 
L 139.679869 110.51944 
L 140.589306 110.51944 
L 141.498743 110.51944 
L 142.408181 110.519438 
L 143.317618 110.519043 
L 144.227055 110.498211 
L 145.136492 110.22206 
L 146.04593 109.244763 
L 146.955367 106.954403 
L 147.864804 101.288258 
L 148.774242 96.175765 
L 149.683679 91.984588 
L 150.593116 84.548871 
L 151.502553 75.524352 
L 152.411991 82.565021 
L 153.321428 96.936243 
L 154.230865 104.905268 
L 155.140303 108.573595 
L 156.04974 109.2562 
L 156.959177 109.617937 
L 157.868614 110.324877 
L 158.778052 110.508552 
L 159.687489 110.519283 
L 160.596926 110.519439 
L 161.506364 110.51944 
L 162.415801 110.51944 
L 163.325238 110.51944 
L 164.234675 110.51944 
L 165.144113 110.51944 
L 166.05355 110.51944 
L 166.962987 110.51944 
L 167.872425 110.51944 
L 168.781862 110.51944 
L 169.691299 110.51944 
L 170.600736 110.51944 
L 171.510174 110.51944 
L 172.419611 110.51944 
L 173.329048 110.51944 
L 174.238486 110.51944 
L 175.147923 110.51944 
L 176.05736 110.51944 
L 176.966797 110.51944 
L 177.876235 110.51944 
L 178.785672 110.51944 
L 179.695109 110.51944 
L 180.604547 110.51944 
L 181.513984 110.51944 
L 182.423421 110.51944 
L 183.332858 110.51944 
L 184.242296 110.51944 
L 185.151733 110.51944 
L 186.06117 110.51944 
L 186.970608 110.51944 
L 187.880045 110.51944 
L 188.789482 110.51944 
L 189.698919 110.51944 
L 190.608357 110.51944 
L 191.517794 110.51944 
L 192.427231 110.51944 
L 193.336669 110.51944 
L 194.246106 110.51944 
L 195.155543 110.51944 
L 196.06498 110.51944 
L 196.974418 110.51944 
L 197.883855 110.51944 
L 198.793292 110.51944 
L 199.70273 110.51944 
L 200.612167 110.51944 
L 201.521604 110.51944 
L 202.431041 110.51944 
L 203.340479 110.51944 
L 204.249916 110.51944 
L 205.159353 110.51944 
L 206.068791 110.51944 
L 206.978228 110.51944 
L 207.887665 110.51944 
L 208.797102 110.51944 
L 209.70654 110.51944 
L 210.615977 110.51944 
L 211.525414 110.51944 
L 212.434852 110.51944 
L 213.344289 110.51944 
L 214.253726 110.51944 
" clip-path="url(#pd91d0de5cb)" style="fill: none; stroke-dasharray: 3.7,1.6; stroke-dashoffset: 0; stroke: #1f77b4"/>
   </g>
   <g id="patch_12">
    <path d="M 119.71772 112.269194 
L 119.71772 73.774597 
" style="fill: none; stroke: #000000; stroke-width: 0.5; stroke-linejoin: miter; stroke-linecap: square"/>
   </g>
   <g id="patch_13">
    <path d="M 119.71772 112.269194 
L 218.755441 112.269194 
" style="fill: none; stroke: #000000; stroke-width: 0.5; stroke-linejoin: miter; stroke-linecap: square"/>
   </g>
   <g id="line2d_67">
    <path d="M 142.531151 110.222973 
L 142.662737 110.164511 
L 142.794322 110.096078 
L 142.925908 110.016303 
L 143.057493 109.923688 
L 143.189079 109.816611 
L 143.320664 109.693328 
L 143.452249 109.551981 
L 143.583835 109.390603 
L 143.71542 109.207136 
L 143.847006 108.999443 
L 143.978591 108.765335 
L 144.110177 108.502591 
L 144.241762 108.208993 
L 144.373347 107.88236 
L 144.504933 107.520585 
L 144.636518 107.121682 
L 144.768104 106.683832 
L 144.899689 106.205434 
L 145.031274 105.685157 
L 145.16286 105.121995 
L 145.294445 104.515323 
L 145.426031 103.864949 
L 145.557616 103.171165 
L 145.689202 102.434799 
L 145.820787 101.657255 
L 145.952372 100.840546 
L 146.083958 99.987328 
L 146.215543 99.100916 
L 146.347129 98.185289 
L 146.478714 97.245087 
L 146.610299 96.285595 
L 146.741885 95.312707 
L 146.87347 94.332886 
L 147.005056 93.353101 
L 147.136641 92.380757 
L 147.268227 91.423607 
L 147.399812 90.489656 
L 147.531397 89.587054 
L 147.662983 88.723983 
L 147.794568 87.908531 
L 147.926154 87.148571 
L 148.057739 86.451634 
L 148.189324 85.824786 
L 148.32091 85.27451 
L 148.452495 84.806591 
L 148.584081 84.42602 
L 148.715666 84.136899 
L 148.847252 83.942374 
L 148.978837 83.844574 
L 149.110422 83.844574 
L 149.242008 83.942374 
L 149.373593 84.136899 
L 149.505179 84.42602 
L 149.636764 84.806591 
L 149.768349 85.27451 
L 149.899935 85.824786 
L 150.03152 86.451634 
L 150.163106 87.148571 
L 150.294691 87.908531 
L 150.426277 88.723983 
L 150.557862 89.587054 
L 150.689447 90.489656 
L 150.821033 91.423607 
L 150.952618 92.380757 
L 151.084204 93.353101 
L 151.215789 94.332886 
L 151.347375 95.312707 
L 151.47896 96.285595 
L 151.610545 97.245087 
L 151.742131 98.185289 
L 151.873716 99.100916 
L 152.005302 99.987328 
L 152.136887 100.840546 
L 152.268472 101.657255 
L 152.400058 102.434799 
L 152.531643 103.171165 
L 152.663229 103.864949 
L 152.794814 104.515323 
L 152.9264 105.121995 
L 153.057985 105.685157 
L 153.18957 106.205434 
L 153.321156 106.683832 
L 153.452741 107.121682 
L 153.584327 107.520585 
L 153.715912 107.88236 
L 153.847497 108.208993 
L 153.979083 108.502591 
L 154.110668 108.765335 
L 154.242254 108.999443 
L 154.373839 109.207136 
L 154.505425 109.390603 
L 154.63701 109.551981 
L 154.768595 109.693328 
L 154.900181 109.816611 
L 155.031766 109.923688 
L 155.163352 110.016303 
L 155.294937 110.096078 
L 155.426522 110.164511 
L 155.558108 110.222973 
" clip-path="url(#pd91d0de5cb)" style="fill: none; stroke: #000000; stroke-linecap: square"/>
   </g>
   <g id="line2d_68">
    <path d="M 149.04463 112.269194 
L 149.04463 73.774597 
" clip-path="url(#pd91d0de5cb)" style="fill: none; stroke: #000000; stroke-linecap: square"/>
   </g>
  </g>
  <g id="legend_1">
   <g id="patch_14">
    <path d="M 21.613663 162.762944 
L 86.889913 162.762944 
Q 88.089913 162.762944 88.089913 161.562944 
L 88.089913 144.549194 
Q 88.089913 143.349194 86.889913 143.349194 
L 21.613663 143.349194 
Q 20.413663 143.349194 20.413663 144.549194 
L 20.413663 161.562944 
Q 20.413663 162.762944 21.613663 162.762944 
z
" style="fill: #ffffff; stroke: #ffffff; stroke-width: 0.75; stroke-linejoin: miter"/>
   </g>
   <g id="line2d_69">
    <path d="M 22.813663 148.208257 
L 28.813663 148.208257 
L 34.813663 148.208257 
" style="fill: none; stroke: #000000; stroke-linecap: square"/>
   </g>
   <g id="text_21">
    <!-- Data likelihood -->
    <g transform="translate(39.613663 150.308257) scale(0.06 -0.06)">
     <defs>
      <path id="DejaVuSerif-44" d="M 1581 331 
L 2163 331 
Q 3072 331 3558 850 
Q 4044 1369 4044 2338 
Q 4044 3306 3559 3818 
Q 3075 4331 2163 4331 
L 1581 4331 
L 1581 331 
z
M 353 0 
L 353 331 
L 947 331 
L 947 4331 
L 353 4331 
L 353 4666 
L 2209 4666 
Q 3416 4666 4089 4050 
Q 4763 3434 4763 2338 
Q 4763 1238 4088 619 
Q 3413 0 2209 0 
L 353 0 
z
" transform="scale(0.015625)"/>
      <path id="DejaVuSerif-6b" d="M 1831 0 
L 219 0 
L 219 331 
L 738 331 
L 738 4531 
L 184 4531 
L 184 4863 
L 1313 4863 
L 1313 1697 
L 2713 2988 
L 2234 2988 
L 2234 3322 
L 3738 3322 
L 3738 2988 
L 3169 2988 
L 2181 2075 
L 3444 331 
L 3922 331 
L 3922 0 
L 2284 0 
L 2284 331 
L 2759 331 
L 1766 1697 
L 1313 1275 
L 1313 331 
L 1831 331 
L 1831 0 
z
" transform="scale(0.015625)"/>
     </defs>
     <use xlink:href="#DejaVuSerif-44"/>
     <use xlink:href="#DejaVuSerif-61" x="80.175781"/>
     <use xlink:href="#DejaVuSerif-74" x="139.794922"/>
     <use xlink:href="#DejaVuSerif-61" x="179.980469"/>
     <use xlink:href="#DejaVuSerif-20" x="239.599609"/>
     <use xlink:href="#DejaVuSerif-6c" x="271.386719"/>
     <use xlink:href="#DejaVuSerif-69" x="303.369141"/>
     <use xlink:href="#DejaVuSerif-6b" x="335.351562"/>
     <use xlink:href="#DejaVuSerif-65" x="395.947266"/>
     <use xlink:href="#DejaVuSerif-6c" x="455.126953"/>
     <use xlink:href="#DejaVuSerif-69" x="487.109375"/>
     <use xlink:href="#DejaVuSerif-68" x="519.091797"/>
     <use xlink:href="#DejaVuSerif-6f" x="583.496094"/>
     <use xlink:href="#DejaVuSerif-6f" x="643.701172"/>
     <use xlink:href="#DejaVuSerif-64" x="703.90625"/>
    </g>
   </g>
   <g id="line2d_70">
    <path d="M 22.813663 157.015132 
L 28.813663 157.015132 
L 34.813663 157.015132 
" style="fill: none; stroke: #595959; stroke-linecap: square"/>
   </g>
   <g id="text_22">
    <!-- Prior -->
    <g transform="translate(39.613663 159.115132) scale(0.06 -0.06)">
     <defs>
      <path id="DejaVuSerif-50" d="M 1581 2375 
L 2406 2375 
Q 2872 2375 3115 2626 
Q 3359 2878 3359 3353 
Q 3359 3831 3115 4081 
Q 2872 4331 2406 4331 
L 1581 4331 
L 1581 2375 
z
M 353 0 
L 353 331 
L 947 331 
L 947 4331 
L 353 4331 
L 353 4666 
L 2559 4666 
Q 3259 4666 3668 4311 
Q 4078 3956 4078 3353 
Q 4078 2753 3668 2397 
Q 3259 2041 2559 2041 
L 1581 2041 
L 1581 331 
L 2303 331 
L 2303 0 
L 353 0 
z
" transform="scale(0.015625)"/>
     </defs>
     <use xlink:href="#DejaVuSerif-50"/>
     <use xlink:href="#DejaVuSerif-72" x="67.285156"/>
     <use xlink:href="#DejaVuSerif-69" x="115.087891"/>
     <use xlink:href="#DejaVuSerif-6f" x="147.070312"/>
     <use xlink:href="#DejaVuSerif-72" x="207.275391"/>
    </g>
   </g>
  </g>
  <g id="legend_2">
   <g id="patch_15">
    <path d="M 118.146032 153.956069 
L 222.444782 153.956069 
Q 223.644782 153.956069 223.644782 152.756069 
L 223.644782 144.549194 
Q 223.644782 143.349194 222.444782 143.349194 
L 118.146032 143.349194 
Q 116.946032 143.349194 116.946032 144.549194 
L 116.946032 152.756069 
Q 116.946032 153.956069 118.146032 153.956069 
z
" style="fill: #ffffff; stroke: #ffffff; stroke-width: 0.75; stroke-linejoin: miter"/>
   </g>
   <g id="line2d_71">
    <path d="M 119.346032 148.208257 
L 125.346032 148.208257 
L 131.346032 148.208257 
" style="fill: none; stroke-dasharray: 3.7,1.6; stroke-dashoffset: 0; stroke: #1f77b4"/>
   </g>
   <g id="text_23">
    <!-- Posterior (linear prediction) -->
    <g transform="translate(136.146032 150.308257) scale(0.06 -0.06)">
     <defs>
      <path id="DejaVuSerif-28" d="M 2041 -997 
Q 1281 -656 893 83 
Q 506 822 506 1931 
Q 506 3044 893 3783 
Q 1281 4522 2041 4863 
L 2041 4556 
Q 1559 4225 1350 3623 
Q 1141 3022 1141 1931 
Q 1141 844 1350 242 
Q 1559 -359 2041 -691 
L 2041 -997 
z
" transform="scale(0.015625)"/>
      <path id="DejaVuSerif-6e" d="M 263 0 
L 263 331 
L 781 331 
L 781 2988 
L 231 2988 
L 231 3322 
L 1356 3322 
L 1356 2731 
Q 1516 3069 1770 3241 
Q 2025 3413 2363 3413 
Q 2913 3413 3172 3097 
Q 3431 2781 3431 2113 
L 3431 331 
L 3944 331 
L 3944 0 
L 2356 0 
L 2356 331 
L 2853 331 
L 2853 1931 
Q 2853 2541 2703 2767 
Q 2553 2994 2175 2994 
Q 1775 2994 1565 2701 
Q 1356 2409 1356 1850 
L 1356 331 
L 1856 331 
L 1856 0 
L 263 0 
z
" transform="scale(0.015625)"/>
      <path id="DejaVuSerif-63" d="M 3291 997 
Q 3169 466 2822 187 
Q 2475 -91 1925 -91 
Q 1200 -91 759 389 
Q 319 869 319 1663 
Q 319 2459 759 2936 
Q 1200 3413 1925 3413 
Q 2241 3413 2553 3339 
Q 2866 3266 3181 3116 
L 3181 2266 
L 2847 2266 
Q 2781 2703 2561 2903 
Q 2341 3103 1931 3103 
Q 1466 3103 1228 2742 
Q 991 2381 991 1663 
Q 991 944 1227 581 
Q 1463 219 1931 219 
Q 2303 219 2525 412 
Q 2747 606 2828 997 
L 3291 997 
z
" transform="scale(0.015625)"/>
      <path id="DejaVuSerif-29" d="M 453 -997 
L 453 -691 
Q 934 -359 1145 242 
Q 1356 844 1356 1931 
Q 1356 3022 1145 3623 
Q 934 4225 453 4556 
L 453 4863 
Q 1216 4522 1603 3783 
Q 1991 3044 1991 1931 
Q 1991 822 1603 83 
Q 1216 -656 453 -997 
z
" transform="scale(0.015625)"/>
     </defs>
     <use xlink:href="#DejaVuSerif-50"/>
     <use xlink:href="#DejaVuSerif-6f" x="63.285156"/>
     <use xlink:href="#DejaVuSerif-73" x="123.490234"/>
     <use xlink:href="#DejaVuSerif-74" x="174.808594"/>
     <use xlink:href="#DejaVuSerif-65" x="214.994141"/>
     <use xlink:href="#DejaVuSerif-72" x="274.173828"/>
     <use xlink:href="#DejaVuSerif-69" x="321.976562"/>
     <use xlink:href="#DejaVuSerif-6f" x="353.958984"/>
     <use xlink:href="#DejaVuSerif-72" x="414.164062"/>
     <use xlink:href="#DejaVuSerif-20" x="461.966797"/>
     <use xlink:href="#DejaVuSerif-28" x="493.753906"/>
     <use xlink:href="#DejaVuSerif-6c" x="532.767578"/>
     <use xlink:href="#DejaVuSerif-69" x="564.75"/>
     <use xlink:href="#DejaVuSerif-6e" x="596.732422"/>
     <use xlink:href="#DejaVuSerif-65" x="661.136719"/>
     <use xlink:href="#DejaVuSerif-61" x="720.316406"/>
     <use xlink:href="#DejaVuSerif-72" x="779.935547"/>
     <use xlink:href="#DejaVuSerif-20" x="827.738281"/>
     <use xlink:href="#DejaVuSerif-70" x="859.525391"/>
     <use xlink:href="#DejaVuSerif-72" x="923.539062"/>
     <use xlink:href="#DejaVuSerif-65" x="971.341797"/>
     <use xlink:href="#DejaVuSerif-64" x="1030.521484"/>
     <use xlink:href="#DejaVuSerif-69" x="1094.535156"/>
     <use xlink:href="#DejaVuSerif-63" x="1126.517578"/>
     <use xlink:href="#DejaVuSerif-74" x="1182.523438"/>
     <use xlink:href="#DejaVuSerif-69" x="1222.708984"/>
     <use xlink:href="#DejaVuSerif-6f" x="1254.691406"/>
     <use xlink:href="#DejaVuSerif-6e" x="1314.896484"/>
     <use xlink:href="#DejaVuSerif-29" x="1379.300781"/>
    </g>
   </g>
  </g>
 </g>
 <defs>
  <clipPath id="p22916f5380">
   <rect x="10.7" y="7.2" width="99.03772" height="38.494597"/>
  </clipPath>
  <clipPath id="p52059e1fcb">
   <rect x="119.71772" y="7.2" width="99.03772" height="38.494597"/>
  </clipPath>
  <clipPath id="p4fda1b45e4">
   <rect x="10.7" y="73.774597" width="99.03772" height="38.494597"/>
  </clipPath>
  <clipPath id="pd91d0de5cb">
   <rect x="119.71772" y="73.774597" width="99.03772" height="38.494597"/>
  </clipPath>
 </defs>
</svg>
