<?xml version="1.0" encoding="utf-8" standalone="no"?>
<!DOCTYPE svg PUBLIC "-//W3C//DTD SVG 1.1//EN"
  "http://www.w3.org/Graphics/SVG/1.1/DTD/svg11.dtd">
<svg xmlns:xlink="http://www.w3.org/1999/xlink" width="230.844782pt" height="169.962944pt" viewBox="0 0 230.844782 169.962944" xmlns="http://www.w3.org/2000/svg" version="1.1">
 <metadata>
  <rdf:RDF xmlns:dc="http://purl.org/dc/elements/1.1/" xmlns:cc="http://creativecommons.org/ns#" xmlns:rdf="http://www.w3.org/1999/02/22-rdf-syntax-ns#">
   <cc:Work>
    <dc:type rdf:resource="http://purl.org/dc/dcmitype/StillImage"/>
    <dc:date>2025-12-23T08:41:54.369678</dc:date>
    <dc:format>image/svg+xml</dc:format>
    <dc:creator>
     <cc:Agent>
      <dc:title>Matplotlib v3.7.0, https://matplotlib.org/</dc:title>
     </cc:Agent>
    </dc:creator>
   </cc:Work>
  </rdf:RDF>
 </metadata>
 <defs>
  <style type="text/css">*{stroke-linejoin: round; stroke-linecap: butt}</style>
 </defs>
 <g id="figure_1">
  <g id="patch_1">
   <path d="M 0 169.962944 
L 230.844782 169.962944 
L 230.844782 -0 
L 0 -0 
z
" style="fill: #ffffff"/>
  </g>
  <g id="axes_1">
   <g id="patch_2">
    <path d="M 10.7 45.694597 
L 110.442391 45.694597 
L 110.442391 7.2 
L 10.7 7.2 
z
" style="fill: #ffffff"/>
   </g>
   <g id="matplotlib.axis_1">
    <g id="xtick_1">
     <g id="line2d_1">
      <path d="M 17.575319 45.694597 
L 17.575319 7.2 
" clip-path="url(#pa709c5102a)" style="fill: none; stroke: #d3d3d3; stroke-width: 0.5; stroke-linecap: square"/>
     </g>
     <g id="line2d_2">
      <defs>
       <path id="mc2c322431c" d="M 0 0 
L 0 3.5 
" style="stroke: #000000; stroke-width: 0.8"/>
      </defs>
      <g>
       <use xlink:href="#mc2c322431c" x="17.575319" y="45.694597" style="stroke: #000000; stroke-width: 0.8"/>
      </g>
     </g>
     <g id="text_1">
      <!-- 700 -->
      <g transform="translate(11.849069 56.25366) scale(0.06 -0.06)">
       <defs>
        <path id="DejaVuSerif-37" d="M 3609 4347 
L 1784 0 
L 1319 0 
L 3059 4153 
L 903 4153 
L 903 3578 
L 538 3578 
L 538 4666 
L 3609 4666 
L 3609 4347 
z
" transform="scale(0.015625)"/>
        <path id="DejaVuSerif-30" d="M 2034 219 
Q 2513 219 2750 744 
Q 2988 1269 2988 2328 
Q 2988 3391 2750 3916 
Q 2513 4441 2034 4441 
Q 1556 4441 1318 3916 
Q 1081 3391 1081 2328 
Q 1081 1269 1318 744 
Q 1556 219 2034 219 
z
M 2034 -91 
Q 1275 -91 848 546 
Q 422 1184 422 2328 
Q 422 3475 848 4112 
Q 1275 4750 2034 4750 
Q 2797 4750 3222 4112 
Q 3647 3475 3647 2328 
Q 3647 1184 3222 546 
Q 2797 -91 2034 -91 
z
" transform="scale(0.015625)"/>
       </defs>
       <use xlink:href="#DejaVuSerif-37"/>
       <use xlink:href="#DejaVuSerif-30" x="63.623047"/>
       <use xlink:href="#DejaVuSerif-30" x="127.246094"/>
      </g>
     </g>
    </g>
    <g id="xtick_2">
     <g id="line2d_3">
      <path d="M 38.151342 45.694597 
L 38.151342 7.2 
" clip-path="url(#pa709c5102a)" style="fill: none; stroke: #d3d3d3; stroke-width: 0.5; stroke-linecap: square"/>
     </g>
     <g id="line2d_4">
      <g>
       <use xlink:href="#mc2c322431c" x="38.151342" y="45.694597" style="stroke: #000000; stroke-width: 0.8"/>
      </g>
     </g>
     <g id="text_2">
      <!-- 750 -->
      <g transform="translate(32.425092 56.25366) scale(0.06 -0.06)">
       <defs>
        <path id="DejaVuSerif-35" d="M 3219 4666 
L 3219 4153 
L 1081 4153 
L 1081 2816 
Q 1244 2928 1461 2984 
Q 1678 3041 1947 3041 
Q 2703 3041 3140 2622 
Q 3578 2203 3578 1478 
Q 3578 738 3136 323 
Q 2694 -91 1894 -91 
Q 1572 -91 1234 -12 
Q 897 66 544 225 
L 544 1131 
L 897 1131 
Q 925 688 1179 453 
Q 1434 219 1894 219 
Q 2388 219 2653 544 
Q 2919 869 2919 1478 
Q 2919 2084 2655 2407 
Q 2391 2731 1894 2731 
Q 1613 2731 1398 2631 
Q 1184 2531 1019 2322 
L 750 2322 
L 750 4666 
L 3219 4666 
z
" transform="scale(0.015625)"/>
       </defs>
       <use xlink:href="#DejaVuSerif-37"/>
       <use xlink:href="#DejaVuSerif-35" x="63.623047"/>
       <use xlink:href="#DejaVuSerif-30" x="127.246094"/>
      </g>
     </g>
    </g>
    <g id="xtick_3">
     <g id="line2d_5">
      <path d="M 58.727364 45.694597 
L 58.727364 7.2 
" clip-path="url(#pa709c5102a)" style="fill: none; stroke: #d3d3d3; stroke-width: 0.5; stroke-linecap: square"/>
     </g>
     <g id="line2d_6">
      <g>
       <use xlink:href="#mc2c322431c" x="58.727364" y="45.694597" style="stroke: #000000; stroke-width: 0.8"/>
      </g>
     </g>
     <g id="text_3">
      <!-- 800 -->
      <g transform="translate(53.001114 56.25366) scale(0.06 -0.06)">
       <defs>
        <path id="DejaVuSerif-38" d="M 2981 1275 
Q 2981 1775 2732 2051 
Q 2484 2328 2034 2328 
Q 1584 2328 1336 2051 
Q 1088 1775 1088 1275 
Q 1088 772 1336 495 
Q 1584 219 2034 219 
Q 2484 219 2732 495 
Q 2981 772 2981 1275 
z
M 2853 3541 
Q 2853 3966 2637 4203 
Q 2422 4441 2034 4441 
Q 1650 4441 1433 4203 
Q 1216 3966 1216 3541 
Q 1216 3113 1433 2875 
Q 1650 2638 2034 2638 
Q 2422 2638 2637 2875 
Q 2853 3113 2853 3541 
z
M 2516 2484 
Q 3047 2413 3344 2092 
Q 3641 1772 3641 1275 
Q 3641 619 3225 264 
Q 2809 -91 2034 -91 
Q 1263 -91 845 264 
Q 428 619 428 1275 
Q 428 1772 725 2092 
Q 1022 2413 1556 2484 
Q 1084 2569 832 2842 
Q 581 3116 581 3541 
Q 581 4103 968 4426 
Q 1356 4750 2034 4750 
Q 2713 4750 3100 4426 
Q 3488 4103 3488 3541 
Q 3488 3116 3236 2842 
Q 2984 2569 2516 2484 
z
" transform="scale(0.015625)"/>
       </defs>
       <use xlink:href="#DejaVuSerif-38"/>
       <use xlink:href="#DejaVuSerif-30" x="63.623047"/>
       <use xlink:href="#DejaVuSerif-30" x="127.246094"/>
      </g>
     </g>
    </g>
    <g id="xtick_4">
     <g id="line2d_7">
      <path d="M 79.303387 45.694597 
L 79.303387 7.2 
" clip-path="url(#pa709c5102a)" style="fill: none; stroke: #d3d3d3; stroke-width: 0.5; stroke-linecap: square"/>
     </g>
     <g id="line2d_8">
      <g>
       <use xlink:href="#mc2c322431c" x="79.303387" y="45.694597" style="stroke: #000000; stroke-width: 0.8"/>
      </g>
     </g>
     <g id="text_4">
      <!-- 850 -->
      <g transform="translate(73.577137 56.25366) scale(0.06 -0.06)">
       <use xlink:href="#DejaVuSerif-38"/>
       <use xlink:href="#DejaVuSerif-35" x="63.623047"/>
       <use xlink:href="#DejaVuSerif-30" x="127.246094"/>
      </g>
     </g>
    </g>
    <g id="xtick_5">
     <g id="line2d_9">
      <path d="M 99.87941 45.694597 
L 99.87941 7.2 
" clip-path="url(#pa709c5102a)" style="fill: none; stroke: #d3d3d3; stroke-width: 0.5; stroke-linecap: square"/>
     </g>
     <g id="line2d_10">
      <g>
       <use xlink:href="#mc2c322431c" x="99.87941" y="45.694597" style="stroke: #000000; stroke-width: 0.8"/>
      </g>
     </g>
     <g id="text_5">
      <!-- 900 -->
      <g transform="translate(94.15316 56.25366) scale(0.06 -0.06)">
       <defs>
        <path id="DejaVuSerif-39" d="M 2994 2091 
Q 2784 1856 2512 1740 
Q 2241 1625 1900 1625 
Q 1206 1625 804 2044 
Q 403 2463 403 3188 
Q 403 3897 839 4323 
Q 1275 4750 2003 4750 
Q 2794 4750 3217 4161 
Q 3641 3572 3641 2478 
Q 3641 1253 3137 581 
Q 2634 -91 1722 -91 
Q 1475 -91 1203 -44 
Q 931 3 647 97 
L 647 872 
L 997 872 
Q 1038 556 1241 387 
Q 1444 219 1784 219 
Q 2391 219 2687 676 
Q 2984 1134 2994 2091 
z
M 1978 4441 
Q 1534 4441 1298 4117 
Q 1063 3794 1063 3188 
Q 1063 2581 1298 2256 
Q 1534 1931 1978 1931 
Q 2422 1931 2658 2245 
Q 2894 2559 2894 3150 
Q 2894 3772 2656 4106 
Q 2419 4441 1978 4441 
z
" transform="scale(0.015625)"/>
       </defs>
       <use xlink:href="#DejaVuSerif-39"/>
       <use xlink:href="#DejaVuSerif-30" x="63.623047"/>
       <use xlink:href="#DejaVuSerif-30" x="127.246094"/>
      </g>
     </g>
    </g>
    <g id="text_6">
     <!-- Cloud top height [m] -->
     <g transform="translate(28.953539 66.060535) scale(0.06 -0.06)">
      <defs>
       <path id="DejaVuSerif-43" d="M 4513 1234 
Q 4306 581 3820 245 
Q 3334 -91 2591 -91 
Q 2134 -91 1743 65 
Q 1353 222 1050 525 
Q 700 875 529 1320 
Q 359 1766 359 2328 
Q 359 3416 987 4083 
Q 1616 4750 2644 4750 
Q 3025 4750 3456 4650 
Q 3888 4550 4384 4347 
L 4384 3272 
L 4031 3272 
Q 3916 3859 3567 4137 
Q 3219 4416 2591 4416 
Q 1844 4416 1459 3886 
Q 1075 3356 1075 2328 
Q 1075 1303 1459 773 
Q 1844 244 2591 244 
Q 3113 244 3450 492 
Q 3788 741 3938 1234 
L 4513 1234 
z
" transform="scale(0.015625)"/>
       <path id="DejaVuSerif-6c" d="M 1313 331 
L 1856 331 
L 1856 0 
L 184 0 
L 184 331 
L 738 331 
L 738 4531 
L 184 4531 
L 184 4863 
L 1313 4863 
L 1313 331 
z
" transform="scale(0.015625)"/>
       <path id="DejaVuSerif-6f" d="M 1925 219 
Q 2388 219 2623 584 
Q 2859 950 2859 1663 
Q 2859 2375 2623 2739 
Q 2388 3103 1925 3103 
Q 1463 3103 1227 2739 
Q 991 2375 991 1663 
Q 991 950 1228 584 
Q 1466 219 1925 219 
z
M 1925 -91 
Q 1200 -91 759 389 
Q 319 869 319 1663 
Q 319 2456 758 2934 
Q 1197 3413 1925 3413 
Q 2653 3413 3092 2934 
Q 3531 2456 3531 1663 
Q 3531 869 3092 389 
Q 2653 -91 1925 -91 
z
" transform="scale(0.015625)"/>
       <path id="DejaVuSerif-75" d="M 2266 3322 
L 3341 3322 
L 3341 331 
L 3884 331 
L 3884 0 
L 2766 0 
L 2766 588 
Q 2606 256 2353 82 
Q 2100 -91 1766 -91 
Q 1213 -91 952 223 
Q 691 538 691 1209 
L 691 2988 
L 172 2988 
L 172 3322 
L 1269 3322 
L 1269 1388 
Q 1269 781 1417 556 
Q 1566 331 1947 331 
Q 2347 331 2556 625 
Q 2766 919 2766 1478 
L 2766 2988 
L 2266 2988 
L 2266 3322 
z
" transform="scale(0.015625)"/>
       <path id="DejaVuSerif-64" d="M 3359 331 
L 3909 331 
L 3909 0 
L 2784 0 
L 2784 519 
Q 2616 206 2355 57 
Q 2094 -91 1709 -91 
Q 1097 -91 708 395 
Q 319 881 319 1663 
Q 319 2444 706 2928 
Q 1094 3413 1709 3413 
Q 2094 3413 2355 3264 
Q 2616 3116 2784 2803 
L 2784 4531 
L 2241 4531 
L 2241 4863 
L 3359 4863 
L 3359 331 
z
M 2784 1497 
L 2784 1825 
Q 2784 2422 2554 2737 
Q 2325 3053 1888 3053 
Q 1444 3053 1217 2703 
Q 991 2353 991 1663 
Q 991 975 1217 622 
Q 1444 269 1888 269 
Q 2325 269 2554 583 
Q 2784 897 2784 1497 
z
" transform="scale(0.015625)"/>
       <path id="DejaVuSerif-20" transform="scale(0.015625)"/>
       <path id="DejaVuSerif-74" d="M 691 2988 
L 184 2988 
L 184 3322 
L 691 3322 
L 691 4353 
L 1269 4353 
L 1269 3322 
L 2350 3322 
L 2350 2988 
L 1269 2988 
L 1269 878 
Q 1269 456 1350 337 
Q 1431 219 1650 219 
Q 1875 219 1978 351 
Q 2081 484 2088 781 
L 2522 781 
Q 2497 328 2275 118 
Q 2053 -91 1600 -91 
Q 1103 -91 897 129 
Q 691 350 691 878 
L 691 2988 
z
" transform="scale(0.015625)"/>
       <path id="DejaVuSerif-70" d="M 1313 1825 
L 1313 1497 
Q 1313 897 1542 583 
Q 1772 269 2209 269 
Q 2650 269 2876 622 
Q 3103 975 3103 1663 
Q 3103 2353 2876 2703 
Q 2650 3053 2209 3053 
Q 1772 3053 1542 2737 
Q 1313 2422 1313 1825 
z
M 738 2988 
L 184 2988 
L 184 3322 
L 1313 3322 
L 1313 2803 
Q 1481 3116 1742 3264 
Q 2003 3413 2388 3413 
Q 3000 3413 3387 2928 
Q 3775 2444 3775 1663 
Q 3775 881 3387 395 
Q 3000 -91 2388 -91 
Q 2003 -91 1742 57 
Q 1481 206 1313 519 
L 1313 -997 
L 1856 -997 
L 1856 -1331 
L 184 -1331 
L 184 -997 
L 738 -997 
L 738 2988 
z
" transform="scale(0.015625)"/>
       <path id="DejaVuSerif-68" d="M 263 0 
L 263 331 
L 781 331 
L 781 4531 
L 231 4531 
L 231 4863 
L 1356 4863 
L 1356 2731 
Q 1516 3069 1770 3241 
Q 2025 3413 2363 3413 
Q 2913 3413 3172 3097 
Q 3431 2781 3431 2113 
L 3431 331 
L 3944 331 
L 3944 0 
L 2356 0 
L 2356 331 
L 2853 331 
L 2853 1931 
Q 2853 2541 2704 2764 
Q 2556 2988 2175 2988 
Q 1775 2988 1565 2697 
Q 1356 2406 1356 1850 
L 1356 331 
L 1856 331 
L 1856 0 
L 263 0 
z
" transform="scale(0.015625)"/>
       <path id="DejaVuSerif-65" d="M 3469 1600 
L 991 1600 
L 991 1575 
Q 991 903 1244 561 
Q 1497 219 1991 219 
Q 2369 219 2611 417 
Q 2853 616 2950 1006 
L 3413 1006 
Q 3275 459 2904 184 
Q 2534 -91 1931 -91 
Q 1203 -91 761 389 
Q 319 869 319 1663 
Q 319 2450 753 2931 
Q 1188 3413 1894 3413 
Q 2647 3413 3050 2948 
Q 3453 2484 3469 1600 
z
M 2791 1931 
Q 2772 2513 2545 2808 
Q 2319 3103 1894 3103 
Q 1497 3103 1269 2806 
Q 1041 2509 991 1931 
L 2791 1931 
z
" transform="scale(0.015625)"/>
       <path id="DejaVuSerif-69" d="M 622 4353 
Q 622 4497 726 4603 
Q 831 4709 978 4709 
Q 1122 4709 1226 4603 
Q 1331 4497 1331 4353 
Q 1331 4206 1228 4103 
Q 1125 4000 978 4000 
Q 831 4000 726 4103 
Q 622 4206 622 4353 
z
M 1356 331 
L 1900 331 
L 1900 0 
L 231 0 
L 231 331 
L 781 331 
L 781 2988 
L 231 2988 
L 231 3322 
L 1356 3322 
L 1356 331 
z
" transform="scale(0.015625)"/>
       <path id="DejaVuSerif-67" d="M 3359 2988 
L 3359 72 
Q 3359 -644 2965 -1033 
Q 2572 -1422 1844 -1422 
Q 1516 -1422 1216 -1362 
Q 916 -1303 641 -1184 
L 641 -488 
L 941 -488 
Q 997 -813 1206 -963 
Q 1416 -1113 1806 -1113 
Q 2313 -1113 2548 -827 
Q 2784 -541 2784 72 
L 2784 519 
Q 2616 206 2355 57 
Q 2094 -91 1709 -91 
Q 1097 -91 708 395 
Q 319 881 319 1663 
Q 319 2444 706 2928 
Q 1094 3413 1709 3413 
Q 2094 3413 2355 3264 
Q 2616 3116 2784 2803 
L 2784 3322 
L 3909 3322 
L 3909 2988 
L 3359 2988 
z
M 2784 1825 
Q 2784 2422 2554 2737 
Q 2325 3053 1888 3053 
Q 1444 3053 1217 2703 
Q 991 2353 991 1663 
Q 991 975 1217 622 
Q 1444 269 1888 269 
Q 2325 269 2554 583 
Q 2784 897 2784 1497 
L 2784 1825 
z
" transform="scale(0.015625)"/>
       <path id="DejaVuSerif-5b" d="M 550 4863 
L 2003 4863 
L 2003 4531 
L 1147 4531 
L 1147 -513 
L 2003 -513 
L 2003 -844 
L 550 -844 
L 550 4863 
z
" transform="scale(0.015625)"/>
       <path id="DejaVuSerif-6d" d="M 3316 2675 
Q 3481 3041 3739 3227 
Q 3997 3413 4341 3413 
Q 4863 3413 5119 3089 
Q 5375 2766 5375 2113 
L 5375 331 
L 5894 331 
L 5894 0 
L 4300 0 
L 4300 331 
L 4800 331 
L 4800 2047 
Q 4800 2556 4650 2772 
Q 4500 2988 4153 2988 
Q 3769 2988 3567 2697 
Q 3366 2406 3366 1850 
L 3366 331 
L 3866 331 
L 3866 0 
L 2291 0 
L 2291 331 
L 2791 331 
L 2791 2069 
Q 2791 2566 2641 2777 
Q 2491 2988 2144 2988 
Q 1759 2988 1557 2697 
Q 1356 2406 1356 1850 
L 1356 331 
L 1856 331 
L 1856 0 
L 263 0 
L 263 331 
L 781 331 
L 781 2994 
L 231 2994 
L 231 3322 
L 1356 3322 
L 1356 2731 
Q 1516 3063 1762 3238 
Q 2009 3413 2322 3413 
Q 2709 3413 2968 3220 
Q 3228 3028 3316 2675 
z
" transform="scale(0.015625)"/>
       <path id="DejaVuSerif-5d" d="M 1947 4863 
L 1947 -844 
L 494 -844 
L 494 -513 
L 1350 -513 
L 1350 4531 
L 494 4531 
L 494 4863 
L 1947 4863 
z
" transform="scale(0.015625)"/>
      </defs>
      <use xlink:href="#DejaVuSerif-43"/>
      <use xlink:href="#DejaVuSerif-6c" x="76.513672"/>
      <use xlink:href="#DejaVuSerif-6f" x="108.496094"/>
      <use xlink:href="#DejaVuSerif-75" x="168.701172"/>
      <use xlink:href="#DejaVuSerif-64" x="233.105469"/>
      <use xlink:href="#DejaVuSerif-20" x="297.119141"/>
      <use xlink:href="#DejaVuSerif-74" x="328.90625"/>
      <use xlink:href="#DejaVuSerif-6f" x="369.091797"/>
      <use xlink:href="#DejaVuSerif-70" x="429.296875"/>
      <use xlink:href="#DejaVuSerif-20" x="493.310547"/>
      <use xlink:href="#DejaVuSerif-68" x="525.097656"/>
      <use xlink:href="#DejaVuSerif-65" x="589.501953"/>
      <use xlink:href="#DejaVuSerif-69" x="648.681641"/>
      <use xlink:href="#DejaVuSerif-67" x="680.664062"/>
      <use xlink:href="#DejaVuSerif-68" x="744.677734"/>
      <use xlink:href="#DejaVuSerif-74" x="809.082031"/>
      <use xlink:href="#DejaVuSerif-20" x="849.267578"/>
      <use xlink:href="#DejaVuSerif-5b" x="881.054688"/>
      <use xlink:href="#DejaVuSerif-6d" x="920.068359"/>
      <use xlink:href="#DejaVuSerif-5d" x="1014.892578"/>
     </g>
    </g>
   </g>
   <g id="matplotlib.axis_2">
    <g id="ytick_1">
     <g id="line2d_11">
      <path d="M 10.7 43.944843 
L 110.442391 43.944843 
" clip-path="url(#pa709c5102a)" style="fill: none; stroke: #d3d3d3; stroke-width: 0.5; stroke-linecap: square"/>
     </g>
     <g id="line2d_12">
      <defs>
       <path id="mc9350cb3d7" d="M 0 0 
L -3.5 0 
" style="stroke: #000000; stroke-width: 0.8"/>
      </defs>
      <g>
       <use xlink:href="#mc9350cb3d7" x="10.7" y="43.944843" style="stroke: #000000; stroke-width: 0.8"/>
      </g>
     </g>
    </g>
    <g id="ytick_2">
     <g id="line2d_13">
      <path d="M 10.7 24.027318 
L 110.442391 24.027318 
" clip-path="url(#pa709c5102a)" style="fill: none; stroke: #d3d3d3; stroke-width: 0.5; stroke-linecap: square"/>
     </g>
     <g id="line2d_14">
      <g>
       <use xlink:href="#mc9350cb3d7" x="10.7" y="24.027318" style="stroke: #000000; stroke-width: 0.8"/>
      </g>
     </g>
    </g>
   </g>
   <g id="line2d_15">
    <path d="M 15.233745 43.280907 
L 16.149653 43.226413 
L 17.065561 43.171005 
L 17.981469 43.114998 
L 18.897377 43.05871 
L 19.813285 43.002454 
L 20.729194 42.946533 
L 21.645102 42.891235 
L 22.56101 42.836833 
L 23.476918 42.783578 
L 24.392826 42.731698 
L 25.308734 42.681397 
L 26.224642 42.632853 
L 27.14055 42.586217 
L 28.056458 42.541613 
L 28.972366 42.499133 
L 29.888274 42.45884 
L 30.804183 42.420767 
L 31.720091 42.384911 
L 32.635999 42.351237 
L 33.551907 42.319678 
L 34.467815 42.290129 
L 35.383723 42.262455 
L 36.299631 42.23649 
L 37.215539 42.212041 
L 38.131447 42.188891 
L 39.047355 42.166808 
L 39.963263 42.145549 
L 40.879172 42.124873 
L 41.79508 42.104542 
L 42.710988 42.084339 
L 43.626896 42.06407 
L 44.542804 42.043577 
L 45.458712 42.022743 
L 46.37462 42.001496 
L 47.290528 41.979819 
L 48.206436 41.957745 
L 49.122344 41.935356 
L 50.038252 41.912786 
L 50.954161 41.890206 
L 51.870069 41.86782 
L 52.785977 41.845856 
L 53.701885 41.824549 
L 54.617793 41.804133 
L 55.533701 41.784825 
L 56.449609 41.766815 
L 57.365517 41.750255 
L 58.281425 41.735251 
L 59.197333 41.721858 
L 60.113241 41.710075 
L 61.02915 41.699852 
L 61.945058 41.691091 
L 62.860966 41.683657 
L 63.776874 41.677387 
L 64.692782 41.672108 
L 65.60869 41.66765 
L 66.524598 41.663862 
L 67.440506 41.660631 
L 68.356414 41.657892 
L 69.272322 41.655644 
L 70.18823 41.653956 
L 71.104139 41.652972 
L 72.020047 41.652913 
L 72.935955 41.654071 
L 73.851863 41.656802 
L 74.767771 41.661512 
L 75.683679 41.668641 
L 76.599587 41.678647 
L 77.515495 41.691984 
L 78.431403 41.709079 
L 79.347311 41.730317 
L 80.263219 41.75602 
L 81.179128 41.786431 
L 82.095036 41.821703 
L 83.010944 41.861888 
L 83.926852 41.906936 
L 84.84276 41.956696 
L 85.758668 42.010917 
L 86.674576 42.069258 
L 87.590484 42.131302 
L 88.506392 42.196568 
L 89.4223 42.26453 
L 90.338208 42.33463 
L 91.254117 42.406301 
L 92.170025 42.478979 
L 93.085933 42.552121 
L 94.001841 42.625214 
L 94.917749 42.697791 
L 95.833657 42.769432 
L 96.749565 42.839774 
L 97.665473 42.908509 
L 98.581381 42.975384 
L 99.497289 43.040199 
L 100.413197 43.1028 
L 101.329106 43.163078 
L 102.245014 43.220954 
L 103.160922 43.27638 
L 104.07683 43.329328 
L 104.992738 43.379788 
L 105.908646 43.427757 
" clip-path="url(#pa709c5102a)" style="fill: none; stroke: #595959; stroke-linecap: square"/>
   </g>
   <g id="line2d_16">
    <path d="M 15.233745 43.944843 
L 16.149653 43.944843 
L 17.065561 43.944843 
L 17.981469 43.944843 
L 18.897377 43.944843 
L 19.813285 43.944843 
L 20.729194 43.944843 
L 21.645102 43.944843 
L 22.56101 43.944843 
L 23.476918 43.944843 
L 24.392826 43.944843 
L 25.308734 43.944843 
L 26.224642 43.944843 
L 27.14055 43.944843 
L 28.056458 43.944843 
L 28.972366 43.944843 
L 29.888274 43.944843 
L 30.804183 43.944843 
L 31.720091 43.944843 
L 32.635999 43.944843 
L 33.551907 43.944843 
L 34.467815 43.944843 
L 35.383723 43.944843 
L 36.299631 43.944843 
L 37.215539 43.944843 
L 38.131447 43.944843 
L 39.047355 43.944843 
L 39.963263 43.944843 
L 40.879172 43.944843 
L 41.79508 43.944843 
L 42.710988 43.944843 
L 43.626896 43.944843 
L 44.542804 43.944843 
L 45.458712 43.944843 
L 46.37462 43.944843 
L 47.290528 43.944843 
L 48.206436 43.944843 
L 49.122344 43.944843 
L 50.038252 43.944843 
L 50.954161 43.944843 
L 51.870069 43.944843 
L 52.785977 43.944843 
L 53.701885 43.944843 
L 54.617793 43.944843 
L 55.533701 43.944843 
L 56.449609 43.944843 
L 57.365517 43.944843 
L 58.281425 43.944843 
L 59.197333 43.944843 
L 60.113241 43.944843 
L 61.02915 43.944843 
L 61.945058 43.944843 
L 62.860966 43.944843 
L 63.776874 43.944843 
L 64.692782 43.944843 
L 65.60869 43.944837 
L 66.524598 43.943922 
L 67.440506 43.903552 
L 68.356414 43.39356 
L 69.272322 41.614783 
L 70.18823 39.73215 
L 71.104139 36.592065 
L 72.020047 30.770522 
L 72.935955 23.553625 
L 73.851863 13.960696 
L 74.767771 8.949754 
L 75.683679 14.78631 
L 76.599587 25.657972 
L 77.515495 32.91731 
L 78.431403 38.408448 
L 79.347311 42.263647 
L 80.263219 43.702296 
L 81.179128 43.931788 
L 82.095036 43.944618 
L 83.010944 43.944842 
L 83.926852 43.944843 
L 84.84276 43.944843 
L 85.758668 43.944843 
L 86.674576 43.944843 
L 87.590484 43.944843 
L 88.506392 43.944843 
L 89.4223 43.944843 
L 90.338208 43.944843 
L 91.254117 43.944843 
L 92.170025 43.944843 
L 93.085933 43.944843 
L 94.001841 43.944843 
L 94.917749 43.944843 
L 95.833657 43.944843 
L 96.749565 43.944843 
L 97.665473 43.944843 
L 98.581381 43.944843 
L 99.497289 43.944843 
L 100.413197 43.944843 
L 101.329106 43.944843 
L 102.245014 43.944843 
L 103.160922 43.944843 
L 104.07683 43.944843 
L 104.992738 43.944843 
L 105.908646 43.944843 
" clip-path="url(#pa709c5102a)" style="fill: none; stroke-dasharray: 3.7,1.6; stroke-dashoffset: 0; stroke: #1f77b4"/>
   </g>
   <g id="patch_3">
    <path d="M 10.7 45.694597 
L 10.7 7.2 
" style="fill: none; stroke: #000000; stroke-width: 0.5; stroke-linejoin: miter; stroke-linecap: square"/>
   </g>
   <g id="patch_4">
    <path d="M 10.7 45.694597 
L 110.442391 45.694597 
" style="fill: none; stroke: #000000; stroke-width: 0.5; stroke-linejoin: miter; stroke-linecap: square"/>
   </g>
   <g id="line2d_17">
    <path d="M 69.015376 43.591757 
L 69.140079 43.52213 
L 69.264782 43.440628 
L 69.389485 43.345618 
L 69.514188 43.235315 
L 69.638891 43.107789 
L 69.763595 42.960962 
L 69.888298 42.792621 
L 70.013001 42.600423 
L 70.137704 42.381918 
L 70.262407 42.13456 
L 70.38711 41.855742 
L 70.511814 41.54282 
L 70.636517 41.193152 
L 70.76122 40.804138 
L 70.885923 40.373272 
L 71.010626 39.898188 
L 71.135329 39.376718 
L 71.260033 38.806956 
L 71.384736 38.187318 
L 71.509439 37.516604 
L 71.634142 36.794071 
L 71.758845 36.019489 
L 71.883548 35.193208 
L 72.008252 34.316213 
L 72.132955 33.390174 
L 72.257658 32.417492 
L 72.382361 31.401329 
L 72.507064 30.345631 
L 72.631767 29.255139 
L 72.756471 28.13538 
L 72.881174 26.992645 
L 73.005877 25.833957 
L 73.13058 24.667011 
L 73.255283 23.500109 
L 73.379987 22.342069 
L 73.50469 21.202124 
L 73.629393 20.089808 
L 73.754096 19.01483 
L 73.878799 17.986931 
L 74.003502 17.015745 
L 74.128206 16.110649 
L 74.252909 15.280612 
L 74.377612 14.534051 
L 74.502315 13.878684 
L 74.627018 13.321403 
L 74.751721 12.86815 
L 74.876425 12.523814 
L 75.001128 12.292139 
L 75.125831 12.175662 
L 75.250534 12.175662 
L 75.375237 12.292139 
L 75.49994 12.523814 
L 75.624644 12.86815 
L 75.749347 13.321403 
L 75.87405 13.878684 
L 75.998753 14.534051 
L 76.123456 15.280612 
L 76.248159 16.110649 
L 76.372863 17.015745 
L 76.497566 17.986931 
L 76.622269 19.01483 
L 76.746972 20.089808 
L 76.871675 21.202124 
L 76.996378 22.342069 
L 77.121082 23.500109 
L 77.245785 24.667011 
L 77.370488 25.833957 
L 77.495191 26.992645 
L 77.619894 28.13538 
L 77.744597 29.255139 
L 77.869301 30.345631 
L 77.994004 31.401329 
L 78.118707 32.417492 
L 78.24341 33.390174 
L 78.368113 34.316213 
L 78.492816 35.193208 
L 78.61752 36.019489 
L 78.742223 36.794071 
L 78.866926 37.516604 
L 78.991629 38.187318 
L 79.116332 38.806956 
L 79.241035 39.376718 
L 79.365739 39.898188 
L 79.490442 40.373272 
L 79.615145 40.804138 
L 79.739848 41.193152 
L 79.864551 41.54282 
L 79.989254 41.855742 
L 80.113958 42.13456 
L 80.238661 42.381918 
L 80.363364 42.600423 
L 80.488067 42.792621 
L 80.61277 42.960962 
L 80.737473 43.107789 
L 80.862177 43.235315 
L 80.98688 43.345618 
L 81.111583 43.440628 
L 81.236286 43.52213 
L 81.360989 43.591757 
" clip-path="url(#pa709c5102a)" style="fill: none; stroke: #000000; stroke-linecap: square"/>
   </g>
   <g id="line2d_18">
    <path d="M 75.188182 45.694597 
L 75.188182 7.2 
" clip-path="url(#pa709c5102a)" style="fill: none; stroke: #000000; stroke-linecap: square"/>
   </g>
  </g>
  <g id="axes_2">
   <g id="patch_5">
    <path d="M 120.422391 45.694597 
L 220.164782 45.694597 
L 220.164782 7.2 
L 120.422391 7.2 
z
" style="fill: #ffffff"/>
   </g>
   <g id="matplotlib.axis_3">
    <g id="xtick_6">
     <g id="line2d_19">
      <path d="M 146.657702 45.694597 
L 146.657702 7.2 
" clip-path="url(#p16abcf3a10)" style="fill: none; stroke: #d3d3d3; stroke-width: 0.5; stroke-linecap: square"/>
     </g>
     <g id="line2d_20">
      <g>
       <use xlink:href="#mc2c322431c" x="146.657702" y="45.694597" style="stroke: #000000; stroke-width: 0.8"/>
      </g>
     </g>
     <g id="text_7">
      <!-- −20 -->
      <g transform="translate(140.326296 56.25366) scale(0.06 -0.06)">
       <defs>
        <path id="DejaVuSerif-2212" d="M 678 2259 
L 4684 2259 
L 4684 1753 
L 678 1753 
L 678 2259 
z
" transform="scale(0.015625)"/>
        <path id="DejaVuSerif-32" d="M 819 3553 
L 469 3553 
L 469 4384 
Q 803 4563 1142 4656 
Q 1481 4750 1806 4750 
Q 2534 4750 2956 4397 
Q 3378 4044 3378 3438 
Q 3378 2753 2422 1800 
Q 2347 1728 2309 1691 
L 1131 513 
L 3078 513 
L 3078 1088 
L 3444 1088 
L 3444 0 
L 434 0 
L 434 341 
L 1850 1753 
Q 2319 2222 2519 2614 
Q 2719 3006 2719 3438 
Q 2719 3909 2473 4175 
Q 2228 4441 1797 4441 
Q 1350 4441 1106 4219 
Q 863 3997 819 3553 
z
" transform="scale(0.015625)"/>
       </defs>
       <use xlink:href="#DejaVuSerif-2212"/>
       <use xlink:href="#DejaVuSerif-32" x="83.789062"/>
       <use xlink:href="#DejaVuSerif-30" x="147.412109"/>
      </g>
     </g>
    </g>
    <g id="xtick_7">
     <g id="line2d_21">
      <path d="M 174.240178 45.694597 
L 174.240178 7.2 
" clip-path="url(#p16abcf3a10)" style="fill: none; stroke: #d3d3d3; stroke-width: 0.5; stroke-linecap: square"/>
     </g>
     <g id="line2d_22">
      <g>
       <use xlink:href="#mc2c322431c" x="174.240178" y="45.694597" style="stroke: #000000; stroke-width: 0.8"/>
      </g>
     </g>
     <g id="text_8">
      <!-- 0 -->
      <g transform="translate(172.331428 56.25366) scale(0.06 -0.06)">
       <use xlink:href="#DejaVuSerif-30"/>
      </g>
     </g>
    </g>
    <g id="xtick_8">
     <g id="line2d_23">
      <path d="M 201.822654 45.694597 
L 201.822654 7.2 
" clip-path="url(#p16abcf3a10)" style="fill: none; stroke: #d3d3d3; stroke-width: 0.5; stroke-linecap: square"/>
     </g>
     <g id="line2d_24">
      <g>
       <use xlink:href="#mc2c322431c" x="201.822654" y="45.694597" style="stroke: #000000; stroke-width: 0.8"/>
      </g>
     </g>
     <g id="text_9">
      <!-- 20 -->
      <g transform="translate(198.005154 56.25366) scale(0.06 -0.06)">
       <use xlink:href="#DejaVuSerif-32"/>
       <use xlink:href="#DejaVuSerif-30" x="63.623047"/>
      </g>
     </g>
    </g>
    <g id="text_10">
     <!-- Cloud top rate [m/h] -->
     <g transform="translate(139.254837 66.060535) scale(0.06 -0.06)">
      <defs>
       <path id="DejaVuSerif-72" d="M 3059 3328 
L 3059 2497 
L 2728 2497 
Q 2713 2744 2591 2866 
Q 2469 2988 2234 2988 
Q 1809 2988 1582 2694 
Q 1356 2400 1356 1850 
L 1356 331 
L 2022 331 
L 2022 0 
L 263 0 
L 263 331 
L 781 331 
L 781 2994 
L 231 2994 
L 231 3322 
L 1356 3322 
L 1356 2731 
Q 1525 3078 1790 3245 
Q 2056 3413 2438 3413 
Q 2578 3413 2733 3391 
Q 2888 3369 3059 3328 
z
" transform="scale(0.015625)"/>
       <path id="DejaVuSerif-61" d="M 2547 1044 
L 2547 1747 
L 1806 1747 
Q 1378 1747 1168 1562 
Q 959 1378 959 997 
Q 959 650 1171 447 
Q 1384 244 1747 244 
Q 2106 244 2326 466 
Q 2547 688 2547 1044 
z
M 3122 2075 
L 3122 331 
L 3634 331 
L 3634 0 
L 2547 0 
L 2547 359 
Q 2356 128 2106 18 
Q 1856 -91 1522 -91 
Q 969 -91 644 203 
Q 319 497 319 997 
Q 319 1513 691 1797 
Q 1063 2081 1741 2081 
L 2547 2081 
L 2547 2309 
Q 2547 2688 2317 2895 
Q 2088 3103 1672 3103 
Q 1328 3103 1125 2947 
Q 922 2791 872 2484 
L 575 2484 
L 575 3156 
Q 875 3284 1158 3348 
Q 1441 3413 1709 3413 
Q 2400 3413 2761 3070 
Q 3122 2728 3122 2075 
z
" transform="scale(0.015625)"/>
       <path id="DejaVuSerif-2f" d="M 1656 4666 
L 2156 4666 
L 500 -594 
L 0 -594 
L 1656 4666 
z
" transform="scale(0.015625)"/>
      </defs>
      <use xlink:href="#DejaVuSerif-43"/>
      <use xlink:href="#DejaVuSerif-6c" x="76.513672"/>
      <use xlink:href="#DejaVuSerif-6f" x="108.496094"/>
      <use xlink:href="#DejaVuSerif-75" x="168.701172"/>
      <use xlink:href="#DejaVuSerif-64" x="233.105469"/>
      <use xlink:href="#DejaVuSerif-20" x="297.119141"/>
      <use xlink:href="#DejaVuSerif-74" x="328.90625"/>
      <use xlink:href="#DejaVuSerif-6f" x="369.091797"/>
      <use xlink:href="#DejaVuSerif-70" x="429.296875"/>
      <use xlink:href="#DejaVuSerif-20" x="493.310547"/>
      <use xlink:href="#DejaVuSerif-72" x="525.097656"/>
      <use xlink:href="#DejaVuSerif-61" x="572.900391"/>
      <use xlink:href="#DejaVuSerif-74" x="632.519531"/>
      <use xlink:href="#DejaVuSerif-65" x="672.705078"/>
      <use xlink:href="#DejaVuSerif-20" x="731.884766"/>
      <use xlink:href="#DejaVuSerif-5b" x="763.671875"/>
      <use xlink:href="#DejaVuSerif-6d" x="802.685547"/>
      <use xlink:href="#DejaVuSerif-2f" x="897.509766"/>
      <use xlink:href="#DejaVuSerif-68" x="931.201172"/>
      <use xlink:href="#DejaVuSerif-5d" x="995.605469"/>
     </g>
    </g>
   </g>
   <g id="matplotlib.axis_4">
    <g id="ytick_3">
     <g id="line2d_25">
      <path d="M 120.422391 43.944843 
L 220.164782 43.944843 
" clip-path="url(#p16abcf3a10)" style="fill: none; stroke: #d3d3d3; stroke-width: 0.5; stroke-linecap: square"/>
     </g>
     <g id="line2d_26">
      <g>
       <use xlink:href="#mc9350cb3d7" x="120.422391" y="43.944843" style="stroke: #000000; stroke-width: 0.8"/>
      </g>
     </g>
    </g>
    <g id="ytick_4">
     <g id="line2d_27">
      <path d="M 120.422391 31.014324 
L 220.164782 31.014324 
" clip-path="url(#p16abcf3a10)" style="fill: none; stroke: #d3d3d3; stroke-width: 0.5; stroke-linecap: square"/>
     </g>
     <g id="line2d_28">
      <g>
       <use xlink:href="#mc9350cb3d7" x="120.422391" y="31.014324" style="stroke: #000000; stroke-width: 0.8"/>
      </g>
     </g>
    </g>
    <g id="ytick_5">
     <g id="line2d_29">
      <path d="M 120.422391 18.083804 
L 220.164782 18.083804 
" clip-path="url(#p16abcf3a10)" style="fill: none; stroke: #d3d3d3; stroke-width: 0.5; stroke-linecap: square"/>
     </g>
     <g id="line2d_30">
      <g>
       <use xlink:href="#mc9350cb3d7" x="120.422391" y="18.083804" style="stroke: #000000; stroke-width: 0.8"/>
      </g>
     </g>
    </g>
   </g>
   <g id="line2d_31">
    <path d="M 124.956136 43.732094 
L 125.872044 43.716152 
L 126.787952 43.699342 
L 127.70386 43.681439 
L 128.619768 43.66221 
L 129.535677 43.641424 
L 130.451585 43.618877 
L 131.367493 43.5944 
L 132.283401 43.567876 
L 133.199309 43.539247 
L 134.115217 43.508516 
L 135.031125 43.475744 
L 135.947033 43.441046 
L 136.862941 43.404574 
L 137.778849 43.3665 
L 138.694757 43.327005 
L 139.610666 43.286252 
L 140.526574 43.24437 
L 141.442482 43.201444 
L 142.35839 43.157499 
L 143.274298 43.112494 
L 144.190206 43.066325 
L 145.106114 43.018826 
L 146.022022 42.969783 
L 146.93793 42.918945 
L 147.853838 42.866047 
L 148.769746 42.810828 
L 149.685655 42.753054 
L 150.601563 42.692542 
L 151.517471 42.629178 
L 152.433379 42.562936 
L 153.349287 42.493892 
L 154.265195 42.422228 
L 155.181103 42.348238 
L 156.097011 42.272317 
L 157.012919 42.194953 
L 157.928827 42.116708 
L 158.844735 42.038191 
L 159.760644 41.960028 
L 160.676552 41.882838 
L 161.59246 41.80719 
L 162.508368 41.733581 
L 163.424276 41.662405 
L 164.340184 41.593928 
L 165.256092 41.528276 
L 166.172 41.465427 
L 167.087908 41.405206 
L 168.003816 41.347298 
L 168.919724 41.291264 
L 169.835633 41.23656 
L 170.751541 41.182573 
L 171.667449 41.12865 
L 172.583357 41.074137 
L 173.499265 41.018425 
L 174.415173 40.960985 
L 175.331081 40.901414 
L 176.246989 40.839472 
L 177.162897 40.775124 
L 178.078805 40.708567 
L 178.994713 40.640259 
L 179.910621 40.570932 
L 180.82653 40.5016 
L 181.742438 40.433554 
L 182.658346 40.36834 
L 183.574254 40.307724 
L 184.490162 40.253646 
L 185.40607 40.208153 
L 186.321978 40.173328 
L 187.237886 40.151205 
L 188.153794 40.143676 
L 189.069702 40.152404 
L 189.98561 40.178731 
L 190.901519 40.223601 
L 191.817427 40.287498 
L 192.733335 40.370394 
L 193.649243 40.471729 
L 194.565151 40.590413 
L 195.481059 40.724856 
L 196.396967 40.873016 
L 197.312875 41.032481 
L 198.228783 41.200566 
L 199.144691 41.374418 
L 200.060599 41.551138 
L 200.976508 41.727894 
L 201.892416 41.902031 
L 202.808324 42.07117 
L 203.724232 42.233279 
L 204.64014 42.386734 
L 205.556048 42.530342 
L 206.471956 42.663349 
L 207.387864 42.785418 
L 208.303772 42.896595 
L 209.21968 42.997246 
L 210.135588 43.087997 
L 211.051497 43.169656 
L 211.967405 43.243147 
L 212.883313 43.309436 
L 213.799221 43.369478 
L 214.715129 43.42416 
L 215.631037 43.474273 
" clip-path="url(#p16abcf3a10)" style="fill: none; stroke: #595959; stroke-linecap: square"/>
   </g>
   <g id="line2d_32">
    <path d="M 124.956136 43.944843 
L 125.872044 43.944843 
L 126.787952 43.944843 
L 127.70386 43.944843 
L 128.619768 43.944843 
L 129.535677 43.944843 
L 130.451585 43.944843 
L 131.367493 43.944843 
L 132.283401 43.944843 
L 133.199309 43.944843 
L 134.115217 43.944843 
L 135.031125 43.944843 
L 135.947033 43.944843 
L 136.862941 43.944843 
L 137.778849 43.944843 
L 138.694757 43.944843 
L 139.610666 43.944843 
L 140.526574 43.944843 
L 141.442482 43.944843 
L 142.35839 43.944843 
L 143.274298 43.944843 
L 144.190206 43.944843 
L 145.106114 43.944843 
L 146.022022 43.944843 
L 146.93793 43.944843 
L 147.853838 43.944843 
L 148.769746 43.944843 
L 149.685655 43.944843 
L 150.601563 43.944843 
L 151.517471 43.944843 
L 152.433379 43.944843 
L 153.349287 43.944843 
L 154.265195 43.944843 
L 155.181103 43.944843 
L 156.097011 43.944843 
L 157.012919 43.944843 
L 157.928827 43.944843 
L 158.844735 43.944843 
L 159.760644 43.944843 
L 160.676552 43.944843 
L 161.59246 43.944843 
L 162.508368 43.944843 
L 163.424276 43.944843 
L 164.340184 43.944843 
L 165.256092 43.944843 
L 166.172 43.944843 
L 167.087908 43.944843 
L 168.003816 43.944843 
L 168.919724 43.944843 
L 169.835633 43.944843 
L 170.751541 43.944843 
L 171.667449 43.944843 
L 172.583357 43.944843 
L 173.499265 43.944843 
L 174.415173 43.944839 
L 175.331081 43.944509 
L 176.246989 43.931731 
L 177.162897 43.742934 
L 178.078805 42.641579 
L 178.994713 39.940345 
L 179.910621 36.608061 
L 180.82653 32.21263 
L 181.742438 23.804969 
L 182.658346 13.623804 
L 183.574254 8.949754 
L 184.490162 13.96864 
L 185.40607 21.681702 
L 186.321978 28.168364 
L 187.237886 35.813942 
L 188.153794 40.924793 
L 189.069702 41.520614 
L 189.98561 41.802585 
L 190.901519 43.14488 
L 191.817427 43.831694 
L 192.733335 43.938838 
L 193.649243 43.944724 
L 194.565151 43.944842 
L 195.481059 43.944843 
L 196.396967 43.944843 
L 197.312875 43.944843 
L 198.228783 43.944843 
L 199.144691 43.944843 
L 200.060599 43.944843 
L 200.976508 43.944843 
L 201.892416 43.944843 
L 202.808324 43.944843 
L 203.724232 43.944843 
L 204.64014 43.944843 
L 205.556048 43.944843 
L 206.471956 43.944843 
L 207.387864 43.944843 
L 208.303772 43.944843 
L 209.21968 43.944843 
L 210.135588 43.944843 
L 211.051497 43.944843 
L 211.967405 43.944843 
L 212.883313 43.944843 
L 213.799221 43.944843 
L 214.715129 43.944843 
L 215.631037 43.944843 
" clip-path="url(#p16abcf3a10)" style="fill: none; stroke-dasharray: 3.7,1.6; stroke-dashoffset: 0; stroke: #1f77b4"/>
   </g>
   <g id="patch_6">
    <path d="M 120.422391 45.694597 
L 120.422391 7.2 
" style="fill: none; stroke: #000000; stroke-width: 0.5; stroke-linejoin: miter; stroke-linecap: square"/>
   </g>
   <g id="patch_7">
    <path d="M 120.422391 45.694597 
L 220.164782 45.694597 
" style="fill: none; stroke: #000000; stroke-width: 0.5; stroke-linejoin: miter; stroke-linecap: square"/>
   </g>
   <g id="line2d_33">
    <path d="M 176.826035 43.63921 
L 176.982754 43.578941 
L 177.139472 43.508393 
L 177.296191 43.426151 
L 177.452909 43.330673 
L 177.609628 43.220285 
L 177.766347 43.093192 
L 177.923065 42.947475 
L 178.079784 42.781108 
L 178.236503 42.591968 
L 178.393221 42.377855 
L 178.54994 42.136509 
L 178.706658 41.865642 
L 178.863377 41.562967 
L 179.020096 41.226236 
L 179.176814 40.853276 
L 179.333533 40.442041 
L 179.490251 39.990655 
L 179.64697 39.497467 
L 179.803689 38.961105 
L 179.960407 38.380533 
L 180.117126 37.755105 
L 180.273844 37.084624 
L 180.430563 36.369392 
L 180.587282 35.610261 
L 180.744 34.808678 
L 180.900719 33.96672 
L 181.057438 33.087125 
L 181.214156 32.173309 
L 181.370875 31.229374 
L 181.527593 30.260106 
L 181.684312 29.27095 
L 181.841031 28.267984 
L 181.997749 27.257872 
L 182.154468 26.247796 
L 182.311186 25.245392 
L 182.467905 24.25865 
L 182.624624 23.295825 
L 182.781342 22.36532 
L 182.938061 21.475566 
L 183.094779 20.634903 
L 183.251498 19.851449 
L 183.408217 19.132966 
L 183.564935 18.486739 
L 183.721654 17.919451 
L 183.878373 17.437066 
L 184.035091 17.044728 
L 184.19181 16.746669 
L 184.348528 16.546131 
L 184.505247 16.445307 
L 184.661966 16.445307 
L 184.818684 16.546131 
L 184.975403 16.746669 
L 185.132121 17.044728 
L 185.28884 17.437066 
L 185.445559 17.919451 
L 185.602277 18.486739 
L 185.758996 19.132966 
L 185.915714 19.851449 
L 186.072433 20.634903 
L 186.229152 21.475566 
L 186.38587 22.36532 
L 186.542589 23.295825 
L 186.699308 24.25865 
L 186.856026 25.245392 
L 187.012745 26.247796 
L 187.169463 27.257872 
L 187.326182 28.267984 
L 187.482901 29.27095 
L 187.639619 30.260106 
L 187.796338 31.229374 
L 187.953056 32.173309 
L 188.109775 33.087125 
L 188.266494 33.96672 
L 188.423212 34.808678 
L 188.579931 35.610261 
L 188.736649 36.369392 
L 188.893368 37.084624 
L 189.050087 37.755105 
L 189.206805 38.380533 
L 189.363524 38.961105 
L 189.520243 39.497467 
L 189.676961 39.990655 
L 189.83368 40.442041 
L 189.990398 40.853276 
L 190.147117 41.226236 
L 190.303836 41.562967 
L 190.460554 41.865642 
L 190.617273 42.136509 
L 190.773991 42.377855 
L 190.93071 42.591968 
L 191.087429 42.781108 
L 191.244147 42.947475 
L 191.400866 43.093192 
L 191.557584 43.220285 
L 191.714303 43.330673 
L 191.871022 43.426151 
L 192.02774 43.508393 
L 192.184459 43.578941 
L 192.341178 43.63921 
" clip-path="url(#p16abcf3a10)" style="fill: none; stroke: #000000; stroke-linecap: square"/>
   </g>
   <g id="line2d_34">
    <path d="M 184.583606 45.694597 
L 184.583606 7.2 
" clip-path="url(#p16abcf3a10)" style="fill: none; stroke: #000000; stroke-linecap: square"/>
   </g>
  </g>
  <g id="axes_3">
   <g id="patch_8">
    <path d="M 10.7 112.269194 
L 110.442391 112.269194 
L 110.442391 73.774597 
L 10.7 73.774597 
z
" style="fill: #ffffff"/>
   </g>
   <g id="matplotlib.axis_5">
    <g id="xtick_9">
     <g id="line2d_35">
      <path d="M 25.303939 112.269194 
L 25.303939 73.774597 
" clip-path="url(#p0719a80bb7)" style="fill: none; stroke: #d3d3d3; stroke-width: 0.5; stroke-linecap: square"/>
     </g>
     <g id="line2d_36">
      <g>
       <use xlink:href="#mc2c322431c" x="25.303939" y="112.269194" style="stroke: #000000; stroke-width: 0.8"/>
      </g>
     </g>
     <g id="text_11">
      <!-- 500 -->
      <g transform="translate(19.577689 122.828257) scale(0.06 -0.06)">
       <use xlink:href="#DejaVuSerif-35"/>
       <use xlink:href="#DejaVuSerif-30" x="63.623047"/>
       <use xlink:href="#DejaVuSerif-30" x="127.246094"/>
      </g>
     </g>
    </g>
    <g id="xtick_10">
     <g id="line2d_37">
      <path d="M 50.479425 112.269194 
L 50.479425 73.774597 
" clip-path="url(#p0719a80bb7)" style="fill: none; stroke: #d3d3d3; stroke-width: 0.5; stroke-linecap: square"/>
     </g>
     <g id="line2d_38">
      <g>
       <use xlink:href="#mc2c322431c" x="50.479425" y="112.269194" style="stroke: #000000; stroke-width: 0.8"/>
      </g>
     </g>
     <g id="text_12">
      <!-- 600 -->
      <g transform="translate(44.753175 122.828257) scale(0.06 -0.06)">
       <defs>
        <path id="DejaVuSerif-36" d="M 2094 219 
Q 2534 219 2771 542 
Q 3009 866 3009 1472 
Q 3009 2078 2771 2401 
Q 2534 2725 2094 2725 
Q 1647 2725 1412 2412 
Q 1178 2100 1178 1509 
Q 1178 888 1415 553 
Q 1653 219 2094 219 
z
M 1075 2569 
Q 1288 2803 1556 2918 
Q 1825 3034 2163 3034 
Q 2859 3034 3264 2615 
Q 3669 2197 3669 1472 
Q 3669 763 3233 336 
Q 2797 -91 2069 -91 
Q 1278 -91 853 498 
Q 428 1088 428 2181 
Q 428 3406 931 4078 
Q 1434 4750 2350 4750 
Q 2597 4750 2869 4703 
Q 3141 4656 3425 4563 
L 3425 3794 
L 3072 3794 
Q 3034 4109 2831 4275 
Q 2628 4441 2284 4441 
Q 1678 4441 1381 3981 
Q 1084 3522 1075 2569 
z
" transform="scale(0.015625)"/>
       </defs>
       <use xlink:href="#DejaVuSerif-36"/>
       <use xlink:href="#DejaVuSerif-30" x="63.623047"/>
       <use xlink:href="#DejaVuSerif-30" x="127.246094"/>
      </g>
     </g>
    </g>
    <g id="xtick_11">
     <g id="line2d_39">
      <path d="M 75.65491 112.269194 
L 75.65491 73.774597 
" clip-path="url(#p0719a80bb7)" style="fill: none; stroke: #d3d3d3; stroke-width: 0.5; stroke-linecap: square"/>
     </g>
     <g id="line2d_40">
      <g>
       <use xlink:href="#mc2c322431c" x="75.65491" y="112.269194" style="stroke: #000000; stroke-width: 0.8"/>
      </g>
     </g>
     <g id="text_13">
      <!-- 700 -->
      <g transform="translate(69.92866 122.828257) scale(0.06 -0.06)">
       <use xlink:href="#DejaVuSerif-37"/>
       <use xlink:href="#DejaVuSerif-30" x="63.623047"/>
       <use xlink:href="#DejaVuSerif-30" x="127.246094"/>
      </g>
     </g>
    </g>
    <g id="xtick_12">
     <g id="line2d_41">
      <path d="M 100.830396 112.269194 
L 100.830396 73.774597 
" clip-path="url(#p0719a80bb7)" style="fill: none; stroke: #d3d3d3; stroke-width: 0.5; stroke-linecap: square"/>
     </g>
     <g id="line2d_42">
      <g>
       <use xlink:href="#mc2c322431c" x="100.830396" y="112.269194" style="stroke: #000000; stroke-width: 0.8"/>
      </g>
     </g>
     <g id="text_14">
      <!-- 800 -->
      <g transform="translate(95.104146 122.828257) scale(0.06 -0.06)">
       <use xlink:href="#DejaVuSerif-38"/>
       <use xlink:href="#DejaVuSerif-30" x="63.623047"/>
       <use xlink:href="#DejaVuSerif-30" x="127.246094"/>
      </g>
     </g>
    </g>
    <g id="text_15">
     <!-- Cloud base height [m] -->
     <g transform="translate(26.861508 132.635132) scale(0.06 -0.06)">
      <defs>
       <path id="DejaVuSerif-62" d="M 738 331 
L 738 4531 
L 184 4531 
L 184 4863 
L 1313 4863 
L 1313 2803 
Q 1481 3116 1742 3264 
Q 2003 3413 2388 3413 
Q 3000 3413 3387 2928 
Q 3775 2444 3775 1663 
Q 3775 881 3387 395 
Q 3000 -91 2388 -91 
Q 2003 -91 1742 57 
Q 1481 206 1313 519 
L 1313 0 
L 184 0 
L 184 331 
L 738 331 
z
M 1313 1497 
Q 1313 897 1542 583 
Q 1772 269 2209 269 
Q 2650 269 2876 622 
Q 3103 975 3103 1663 
Q 3103 2353 2876 2703 
Q 2650 3053 2209 3053 
Q 1772 3053 1542 2737 
Q 1313 2422 1313 1825 
L 1313 1497 
z
" transform="scale(0.015625)"/>
       <path id="DejaVuSerif-73" d="M 359 184 
L 359 959 
L 691 959 
Q 703 588 923 403 
Q 1144 219 1575 219 
Q 1963 219 2166 364 
Q 2369 509 2369 788 
Q 2369 1006 2220 1140 
Q 2072 1275 1594 1428 
L 1178 1569 
Q 750 1706 558 1912 
Q 366 2119 366 2438 
Q 366 2894 700 3153 
Q 1034 3413 1625 3413 
Q 1888 3413 2178 3344 
Q 2469 3275 2778 3144 
L 2778 2419 
L 2447 2419 
Q 2434 2741 2221 2922 
Q 2009 3103 1644 3103 
Q 1281 3103 1095 2975 
Q 909 2847 909 2591 
Q 909 2381 1050 2254 
Q 1191 2128 1613 1997 
L 2069 1856 
Q 2541 1709 2748 1489 
Q 2956 1269 2956 922 
Q 2956 450 2595 179 
Q 2234 -91 1600 -91 
Q 1278 -91 972 -22 
Q 666 47 359 184 
z
" transform="scale(0.015625)"/>
      </defs>
      <use xlink:href="#DejaVuSerif-43"/>
      <use xlink:href="#DejaVuSerif-6c" x="76.513672"/>
      <use xlink:href="#DejaVuSerif-6f" x="108.496094"/>
      <use xlink:href="#DejaVuSerif-75" x="168.701172"/>
      <use xlink:href="#DejaVuSerif-64" x="233.105469"/>
      <use xlink:href="#DejaVuSerif-20" x="297.119141"/>
      <use xlink:href="#DejaVuSerif-62" x="328.90625"/>
      <use xlink:href="#DejaVuSerif-61" x="392.919922"/>
      <use xlink:href="#DejaVuSerif-73" x="452.539062"/>
      <use xlink:href="#DejaVuSerif-65" x="503.857422"/>
      <use xlink:href="#DejaVuSerif-20" x="563.037109"/>
      <use xlink:href="#DejaVuSerif-68" x="594.824219"/>
      <use xlink:href="#DejaVuSerif-65" x="659.228516"/>
      <use xlink:href="#DejaVuSerif-69" x="718.408203"/>
      <use xlink:href="#DejaVuSerif-67" x="750.390625"/>
      <use xlink:href="#DejaVuSerif-68" x="814.404297"/>
      <use xlink:href="#DejaVuSerif-74" x="878.808594"/>
      <use xlink:href="#DejaVuSerif-20" x="918.994141"/>
      <use xlink:href="#DejaVuSerif-5b" x="950.78125"/>
      <use xlink:href="#DejaVuSerif-6d" x="989.794922"/>
      <use xlink:href="#DejaVuSerif-5d" x="1084.619141"/>
     </g>
    </g>
   </g>
   <g id="matplotlib.axis_6">
    <g id="ytick_6">
     <g id="line2d_43">
      <path d="M 10.7 110.51944 
L 110.442391 110.51944 
" clip-path="url(#p0719a80bb7)" style="fill: none; stroke: #d3d3d3; stroke-width: 0.5; stroke-linecap: square"/>
     </g>
     <g id="line2d_44">
      <g>
       <use xlink:href="#mc9350cb3d7" x="10.7" y="110.51944" style="stroke: #000000; stroke-width: 0.8"/>
      </g>
     </g>
    </g>
    <g id="ytick_7">
     <g id="line2d_45">
      <path d="M 10.7 90.155801 
L 110.442391 90.155801 
" clip-path="url(#p0719a80bb7)" style="fill: none; stroke: #d3d3d3; stroke-width: 0.5; stroke-linecap: square"/>
     </g>
     <g id="line2d_46">
      <g>
       <use xlink:href="#mc9350cb3d7" x="10.7" y="90.155801" style="stroke: #000000; stroke-width: 0.8"/>
      </g>
     </g>
    </g>
   </g>
   <g id="line2d_47">
    <path d="M 20.391638 109.800832 
L 21.255446 109.722874 
L 22.119254 109.640172 
L 22.983062 109.552737 
L 23.84687 109.460632 
L 24.710678 109.36399 
L 25.574487 109.263022 
L 26.438295 109.158019 
L 27.302103 109.049351 
L 28.165911 108.937453 
L 29.029719 108.822796 
L 29.893527 108.705857 
L 30.757336 108.587073 
L 31.621144 108.466802 
L 32.484952 108.345273 
L 33.34876 108.222548 
L 34.212568 108.098499 
L 35.076376 107.972795 
L 35.940185 107.844915 
L 36.803993 107.714181 
L 37.667801 107.579813 
L 38.531609 107.441007 
L 39.395417 107.297027 
L 40.259225 107.147306 
L 41.123034 106.991543 
L 41.986842 106.829798 
L 42.85065 106.662554 
L 43.714458 106.490772 
L 44.578266 106.315893 
L 45.442074 106.139816 
L 46.305883 105.964842 
L 47.169691 105.793579 
L 48.033499 105.628831 
L 48.897307 105.473469 
L 49.761115 105.330299 
L 50.624923 105.201936 
L 51.488732 105.090696 
L 52.35254 104.998507 
L 53.216348 104.926853 
L 54.080156 104.876736 
L 54.943964 104.848679 
L 55.807772 104.842733 
L 56.671581 104.858513 
L 57.535389 104.895235 
L 58.399197 104.95176 
L 59.263005 105.026636 
L 60.126813 105.118135 
L 60.990621 105.224293 
L 61.85443 105.342939 
L 62.718238 105.471741 
L 63.582046 105.608244 
L 64.445854 105.749928 
L 65.309662 105.894269 
L 66.17347 106.03882 
L 67.037279 106.181293 
L 67.901087 106.319651 
L 68.764895 106.452188 
L 69.628703 106.57761 
L 70.492511 106.695091 
L 71.356319 106.804307 
L 72.220128 106.905441 
L 73.083936 106.999158 
L 73.947744 107.086551 
L 74.811552 107.169056 
L 75.67536 107.248357 
L 76.539168 107.326262 
L 77.402977 107.404592 
L 78.266785 107.485064 
L 79.130593 107.569186 
L 79.994401 107.658177 
L 80.858209 107.752908 
L 81.722017 107.853864 
L 82.585826 107.961136 
L 83.449634 108.074439 
L 84.313442 108.193146 
L 85.17725 108.316338 
L 86.041058 108.442869 
L 86.904866 108.571435 
L 87.768675 108.70064 
L 88.632483 108.829066 
L 89.496291 108.955329 
L 90.360099 109.078135 
L 91.223907 109.196313 
L 92.087715 109.308858 
L 92.951524 109.414942 
L 93.815332 109.513934 
L 94.67914 109.605402 
L 95.542948 109.689111 
L 96.406756 109.765019 
L 97.270564 109.833261 
L 98.134373 109.894135 
L 98.998181 109.94808 
L 99.861989 109.995654 
L 100.725797 110.037507 
L 101.589605 110.074347 
L 102.453413 110.106918 
L 103.317221 110.135961 
L 104.18103 110.16219 
L 105.044838 110.18626 
L 105.908646 110.208749 
" clip-path="url(#p0719a80bb7)" style="fill: none; stroke: #595959; stroke-linecap: square"/>
   </g>
   <g id="line2d_48">
    <path d="M 20.391638 110.51944 
L 21.255446 110.51944 
L 22.119254 110.51944 
L 22.983062 110.51944 
L 23.84687 110.51944 
L 24.710678 110.51944 
L 25.574487 110.51944 
L 26.438295 110.51944 
L 27.302103 110.51944 
L 28.165911 110.51944 
L 29.029719 110.51944 
L 29.893527 110.51944 
L 30.757336 110.51944 
L 31.621144 110.51944 
L 32.484952 110.51944 
L 33.34876 110.51944 
L 34.212568 110.51944 
L 35.076376 110.51944 
L 35.940185 110.51944 
L 36.803993 110.51944 
L 37.667801 110.51944 
L 38.531609 110.51944 
L 39.395417 110.51944 
L 40.259225 110.51944 
L 41.123034 110.51944 
L 41.986842 110.51944 
L 42.85065 110.51944 
L 43.714458 110.519433 
L 44.578266 110.519245 
L 45.442074 110.516144 
L 46.305883 110.486247 
L 47.169691 110.316495 
L 48.033499 109.740231 
L 48.897307 108.525361 
L 49.761115 106.797312 
L 50.624923 104.901889 
L 51.488732 103.116743 
L 52.35254 101.374737 
L 53.216348 98.300287 
L 54.080156 92.095099 
L 54.943964 84.105264 
L 55.807772 78.185152 
L 56.671581 75.744241 
L 57.535389 75.524352 
L 58.399197 77.53931 
L 59.263005 82.576216 
L 60.126813 89.697135 
L 60.990621 96.866205 
L 61.85443 102.64659 
L 62.718238 106.762436 
L 63.582046 109.209252 
L 64.445854 110.219937 
L 65.309662 110.477169 
L 66.17347 110.515854 
L 67.037279 110.519259 
L 67.901087 110.519434 
L 68.764895 110.51944 
L 69.628703 110.51944 
L 70.492511 110.51944 
L 71.356319 110.51944 
L 72.220128 110.51944 
L 73.083936 110.51944 
L 73.947744 110.51944 
L 74.811552 110.51944 
L 75.67536 110.51944 
L 76.539168 110.51944 
L 77.402977 110.51944 
L 78.266785 110.51944 
L 79.130593 110.51944 
L 79.994401 110.51944 
L 80.858209 110.51944 
L 81.722017 110.51944 
L 82.585826 110.51944 
L 83.449634 110.51944 
L 84.313442 110.51944 
L 85.17725 110.51944 
L 86.041058 110.51944 
L 86.904866 110.51944 
L 87.768675 110.51944 
L 88.632483 110.51944 
L 89.496291 110.51944 
L 90.360099 110.51944 
L 91.223907 110.51944 
L 92.087715 110.51944 
L 92.951524 110.51944 
L 93.815332 110.51944 
L 94.67914 110.51944 
L 95.542948 110.51944 
L 96.406756 110.51944 
L 97.270564 110.51944 
L 98.134373 110.51944 
L 98.998181 110.51944 
L 99.861989 110.51944 
L 100.725797 110.51944 
L 101.589605 110.51944 
L 102.453413 110.51944 
L 103.317221 110.51944 
L 104.18103 110.51944 
L 105.044838 110.51944 
L 105.908646 110.51944 
" clip-path="url(#p0719a80bb7)" style="fill: none; stroke-dasharray: 3.7,1.6; stroke-dashoffset: 0; stroke: #1f77b4"/>
   </g>
   <g id="patch_9">
    <path d="M 10.7 112.269194 
L 10.7 73.774597 
" style="fill: none; stroke: #000000; stroke-width: 0.5; stroke-linejoin: miter; stroke-linecap: square"/>
   </g>
   <g id="patch_10">
    <path d="M 10.7 112.269194 
L 110.442391 112.269194 
" style="fill: none; stroke: #000000; stroke-width: 0.5; stroke-linejoin: miter; stroke-linecap: square"/>
   </g>
   <g id="line2d_49">
    <path d="M 15.233745 110.406629 
L 15.84406 110.384383 
L 16.454375 110.358344 
L 17.064689 110.327988 
L 17.675004 110.292746 
L 18.285319 110.252002 
L 18.895634 110.205091 
L 19.505949 110.151306 
L 20.116263 110.089899 
L 20.726578 110.020086 
L 21.336893 109.941056 
L 21.947208 109.851973 
L 22.557523 109.751995 
L 23.167837 109.640276 
L 23.778152 109.515987 
L 24.388467 109.378325 
L 24.998782 109.226536 
L 25.609097 109.059927 
L 26.219411 108.877888 
L 26.829726 108.679914 
L 27.440041 108.465622 
L 28.050356 108.234773 
L 28.660671 107.987294 
L 29.270985 107.723298 
L 29.8813 107.443098 
L 30.491615 107.14723 
L 31.10193 106.836458 
L 31.712245 106.511795 
L 32.322559 106.1745 
L 32.932874 105.826088 
L 33.543189 105.468326 
L 34.153504 105.103223 
L 34.763819 104.733023 
L 35.374133 104.360184 
L 35.984448 103.98736 
L 36.594763 103.617366 
L 37.205078 103.253155 
L 37.815393 102.897771 
L 38.425707 102.554316 
L 39.036022 102.225902 
L 39.646337 101.915609 
L 40.256652 101.626432 
L 40.866967 101.361235 
L 41.477281 101.122709 
L 42.087596 100.91332 
L 42.697911 100.735269 
L 43.308226 100.590455 
L 43.918541 100.48044 
L 44.528855 100.40642 
L 45.13917 100.369206 
L 45.749485 100.369206 
L 46.3598 100.40642 
L 46.970115 100.48044 
L 47.58043 100.590455 
L 48.190744 100.735269 
L 48.801059 100.91332 
L 49.411374 101.122709 
L 50.021689 101.361235 
L 50.632004 101.626432 
L 51.242318 101.915609 
L 51.852633 102.225902 
L 52.462948 102.554316 
L 53.073263 102.897771 
L 53.683578 103.253155 
L 54.293892 103.617366 
L 54.904207 103.98736 
L 55.514522 104.360184 
L 56.124837 104.733023 
L 56.735152 105.103223 
L 57.345466 105.468326 
L 57.955781 105.826088 
L 58.566096 106.1745 
L 59.176411 106.511795 
L 59.786726 106.836458 
L 60.39704 107.14723 
L 61.007355 107.443098 
L 61.61767 107.723298 
L 62.227985 107.987294 
L 62.8383 108.234773 
L 63.448614 108.465622 
L 64.058929 108.679914 
L 64.669244 108.877888 
L 65.279559 109.059927 
L 65.889874 109.226536 
L 66.500188 109.378325 
L 67.110503 109.515987 
L 67.720818 109.640276 
L 68.331133 109.751995 
L 68.941448 109.851973 
L 69.551762 109.941056 
L 70.162077 110.020086 
L 70.772392 110.089899 
L 71.382707 110.151306 
L 71.993022 110.205091 
L 72.603336 110.252002 
L 73.213651 110.292746 
L 73.823966 110.327988 
L 74.434281 110.358344 
L 75.044596 110.384383 
L 75.65491 110.406629 
" clip-path="url(#p0719a80bb7)" style="fill: none; stroke: #000000; stroke-linecap: square"/>
   </g>
   <g id="line2d_50">
    <path d="M 45.444328 112.269194 
L 45.444328 73.774597 
" clip-path="url(#p0719a80bb7)" style="fill: none; stroke: #000000; stroke-linecap: square"/>
   </g>
  </g>
  <g id="axes_4">
   <g id="patch_11">
    <path d="M 120.422391 112.269194 
L 220.164782 112.269194 
L 220.164782 73.774597 
L 120.422391 73.774597 
z
" style="fill: #ffffff"/>
   </g>
   <g id="matplotlib.axis_7">
    <g id="xtick_13">
     <g id="line2d_51">
      <path d="M 126.33334 112.269194 
L 126.33334 73.774597 
" clip-path="url(#p5713843595)" style="fill: none; stroke: #d3d3d3; stroke-width: 0.5; stroke-linecap: square"/>
     </g>
     <g id="line2d_52">
      <g>
       <use xlink:href="#mc2c322431c" x="126.33334" y="112.269194" style="stroke: #000000; stroke-width: 0.8"/>
      </g>
     </g>
     <g id="text_16">
      <!-- −25 -->
      <g transform="translate(120.001934 122.828257) scale(0.06 -0.06)">
       <use xlink:href="#DejaVuSerif-2212"/>
       <use xlink:href="#DejaVuSerif-32" x="83.789062"/>
       <use xlink:href="#DejaVuSerif-35" x="147.412109"/>
      </g>
     </g>
    </g>
    <g id="xtick_14">
     <g id="line2d_53">
      <path d="M 150.441716 112.269194 
L 150.441716 73.774597 
" clip-path="url(#p5713843595)" style="fill: none; stroke: #d3d3d3; stroke-width: 0.5; stroke-linecap: square"/>
     </g>
     <g id="line2d_54">
      <g>
       <use xlink:href="#mc2c322431c" x="150.441716" y="112.269194" style="stroke: #000000; stroke-width: 0.8"/>
      </g>
     </g>
     <g id="text_17">
      <!-- 0 -->
      <g transform="translate(148.532966 122.828257) scale(0.06 -0.06)">
       <use xlink:href="#DejaVuSerif-30"/>
      </g>
     </g>
    </g>
    <g id="xtick_15">
     <g id="line2d_55">
      <path d="M 174.550091 112.269194 
L 174.550091 73.774597 
" clip-path="url(#p5713843595)" style="fill: none; stroke: #d3d3d3; stroke-width: 0.5; stroke-linecap: square"/>
     </g>
     <g id="line2d_56">
      <g>
       <use xlink:href="#mc2c322431c" x="174.550091" y="112.269194" style="stroke: #000000; stroke-width: 0.8"/>
      </g>
     </g>
     <g id="text_18">
      <!-- 25 -->
      <g transform="translate(170.732591 122.828257) scale(0.06 -0.06)">
       <use xlink:href="#DejaVuSerif-32"/>
       <use xlink:href="#DejaVuSerif-35" x="63.623047"/>
      </g>
     </g>
    </g>
    <g id="xtick_16">
     <g id="line2d_57">
      <path d="M 198.658466 112.269194 
L 198.658466 73.774597 
" clip-path="url(#p5713843595)" style="fill: none; stroke: #d3d3d3; stroke-width: 0.5; stroke-linecap: square"/>
     </g>
     <g id="line2d_58">
      <g>
       <use xlink:href="#mc2c322431c" x="198.658466" y="112.269194" style="stroke: #000000; stroke-width: 0.8"/>
      </g>
     </g>
     <g id="text_19">
      <!-- 50 -->
      <g transform="translate(194.840966 122.828257) scale(0.06 -0.06)">
       <use xlink:href="#DejaVuSerif-35"/>
       <use xlink:href="#DejaVuSerif-30" x="63.623047"/>
      </g>
     </g>
    </g>
    <g id="text_20">
     <!-- Cloud base rate [m/h] -->
     <g transform="translate(137.162805 132.635132) scale(0.06 -0.06)">
      <use xlink:href="#DejaVuSerif-43"/>
      <use xlink:href="#DejaVuSerif-6c" x="76.513672"/>
      <use xlink:href="#DejaVuSerif-6f" x="108.496094"/>
      <use xlink:href="#DejaVuSerif-75" x="168.701172"/>
      <use xlink:href="#DejaVuSerif-64" x="233.105469"/>
      <use xlink:href="#DejaVuSerif-20" x="297.119141"/>
      <use xlink:href="#DejaVuSerif-62" x="328.90625"/>
      <use xlink:href="#DejaVuSerif-61" x="392.919922"/>
      <use xlink:href="#DejaVuSerif-73" x="452.539062"/>
      <use xlink:href="#DejaVuSerif-65" x="503.857422"/>
      <use xlink:href="#DejaVuSerif-20" x="563.037109"/>
      <use xlink:href="#DejaVuSerif-72" x="594.824219"/>
      <use xlink:href="#DejaVuSerif-61" x="642.626953"/>
      <use xlink:href="#DejaVuSerif-74" x="702.246094"/>
      <use xlink:href="#DejaVuSerif-65" x="742.431641"/>
      <use xlink:href="#DejaVuSerif-20" x="801.611328"/>
      <use xlink:href="#DejaVuSerif-5b" x="833.398438"/>
      <use xlink:href="#DejaVuSerif-6d" x="872.412109"/>
      <use xlink:href="#DejaVuSerif-2f" x="967.236328"/>
      <use xlink:href="#DejaVuSerif-68" x="1000.927734"/>
      <use xlink:href="#DejaVuSerif-5d" x="1065.332031"/>
     </g>
    </g>
   </g>
   <g id="matplotlib.axis_8">
    <g id="ytick_8">
     <g id="line2d_59">
      <path d="M 120.422391 110.51944 
L 220.164782 110.51944 
" clip-path="url(#p5713843595)" style="fill: none; stroke: #d3d3d3; stroke-width: 0.5; stroke-linecap: square"/>
     </g>
     <g id="line2d_60">
      <g>
       <use xlink:href="#mc9350cb3d7" x="120.422391" y="110.51944" style="stroke: #000000; stroke-width: 0.8"/>
      </g>
     </g>
    </g>
    <g id="ytick_9">
     <g id="line2d_61">
      <path d="M 120.422391 93.300105 
L 220.164782 93.300105 
" clip-path="url(#p5713843595)" style="fill: none; stroke: #d3d3d3; stroke-width: 0.5; stroke-linecap: square"/>
     </g>
     <g id="line2d_62">
      <g>
       <use xlink:href="#mc9350cb3d7" x="120.422391" y="93.300105" style="stroke: #000000; stroke-width: 0.8"/>
      </g>
     </g>
    </g>
    <g id="ytick_10">
     <g id="line2d_63">
      <path d="M 120.422391 76.08077 
L 220.164782 76.08077 
" clip-path="url(#p5713843595)" style="fill: none; stroke: #d3d3d3; stroke-width: 0.5; stroke-linecap: square"/>
     </g>
     <g id="line2d_64">
      <g>
       <use xlink:href="#mc9350cb3d7" x="120.422391" y="76.08077" style="stroke: #000000; stroke-width: 0.8"/>
      </g>
     </g>
    </g>
   </g>
   <g id="line2d_65">
    <path d="M 124.956136 109.718836 
L 125.872044 109.644669 
L 126.787952 109.567467 
L 127.70386 109.487265 
L 128.619768 109.404071 
L 129.535677 109.317875 
L 130.451585 109.228661 
L 131.367493 109.136426 
L 132.283401 109.041199 
L 133.199309 108.943068 
L 134.115217 108.842211 
L 135.031125 108.738916 
L 135.947033 108.633609 
L 136.862941 108.52687 
L 137.778849 108.419447 
L 138.694757 108.312252 
L 139.610666 108.20635 
L 140.526574 108.102942 
L 141.442482 108.00332 
L 142.35839 107.90883 
L 143.274298 107.820812 
L 144.190206 107.740541 
L 145.106114 107.669167 
L 146.022022 107.607654 
L 146.93793 107.556731 
L 147.853838 107.516845 
L 148.769746 107.488141 
L 149.685655 107.470448 
L 150.601563 107.463289 
L 151.517471 107.465906 
L 152.433379 107.477301 
L 153.349287 107.496294 
L 154.265195 107.521589 
L 155.181103 107.551842 
L 156.097011 107.585736 
L 157.012919 107.622044 
L 157.928827 107.659691 
L 158.844735 107.697798 
L 159.760644 107.735713 
L 160.676552 107.773023 
L 161.59246 107.809555 
L 162.508368 107.845354 
L 163.424276 107.880652 
L 164.340184 107.915827 
L 165.256092 107.951352 
L 166.172 107.987744 
L 167.087908 108.025517 
L 168.003816 108.065131 
L 168.919724 108.106959 
L 169.835633 108.151259 
L 170.751541 108.198157 
L 171.667449 108.247647 
L 172.583357 108.299591 
L 173.499265 108.353743 
L 174.415173 108.409767 
L 175.331081 108.467266 
L 176.246989 108.525811 
L 177.162897 108.584967 
L 178.078805 108.644323 
L 178.994713 108.703506 
L 179.910621 108.762197 
L 180.82653 108.820138 
L 181.742438 108.877135 
L 182.658346 108.933052 
L 183.574254 108.987803 
L 184.490162 109.041342 
L 185.40607 109.093657 
L 186.321978 109.144749 
L 187.237886 109.194634 
L 188.153794 109.243331 
L 189.069702 109.290855 
L 189.98561 109.337223 
L 190.901519 109.38245 
L 191.817427 109.42655 
L 192.733335 109.469542 
L 193.649243 109.511452 
L 194.565151 109.552314 
L 195.481059 109.592171 
L 196.396967 109.631076 
L 197.312875 109.669086 
L 198.228783 109.706265 
L 199.144691 109.742672 
L 200.060599 109.778364 
L 200.976508 109.813384 
L 201.892416 109.847764 
L 202.808324 109.881518 
L 203.724232 109.914643 
L 204.64014 109.947118 
L 205.556048 109.978908 
L 206.471956 110.009968 
L 207.387864 110.040243 
L 208.303772 110.069678 
L 209.21968 110.098219 
L 210.135588 110.125817 
L 211.051497 110.152435 
L 211.967405 110.178047 
L 212.883313 110.202636 
L 213.799221 110.226199 
L 214.715129 110.248743 
L 215.631037 110.27028 
" clip-path="url(#p5713843595)" style="fill: none; stroke: #595959; stroke-linecap: square"/>
   </g>
   <g id="line2d_66">
    <path d="M 124.956136 110.51944 
L 125.872044 110.51944 
L 126.787952 110.51944 
L 127.70386 110.51944 
L 128.619768 110.51944 
L 129.535677 110.51944 
L 130.451585 110.51944 
L 131.367493 110.51944 
L 132.283401 110.51944 
L 133.199309 110.51944 
L 134.115217 110.51944 
L 135.031125 110.51944 
L 135.947033 110.51944 
L 136.862941 110.51944 
L 137.778849 110.51944 
L 138.694757 110.51944 
L 139.610666 110.51944 
L 140.526574 110.51944 
L 141.442482 110.51941 
L 142.35839 110.515044 
L 143.274298 110.361182 
L 144.190206 109.032935 
L 145.106114 106.187946 
L 146.022022 103.800915 
L 146.93793 96.964538 
L 147.853838 82.873429 
L 148.769746 75.524352 
L 149.685655 78.171394 
L 150.601563 83.170692 
L 151.517471 91.11032 
L 152.433379 101.179542 
L 153.349287 107.765723 
L 154.265195 109.49432 
L 155.181103 110.348736 
L 156.097011 110.512343 
L 157.012919 110.51937 
L 157.928827 110.51944 
L 158.844735 110.51944 
L 159.760644 110.51944 
L 160.676552 110.51944 
L 161.59246 110.51944 
L 162.508368 110.51944 
L 163.424276 110.51944 
L 164.340184 110.51944 
L 165.256092 110.51944 
L 166.172 110.51944 
L 167.087908 110.51944 
L 168.003816 110.51944 
L 168.919724 110.51944 
L 169.835633 110.51944 
L 170.751541 110.51944 
L 171.667449 110.51944 
L 172.583357 110.51944 
L 173.499265 110.51944 
L 174.415173 110.51944 
L 175.331081 110.51944 
L 176.246989 110.51944 
L 177.162897 110.51944 
L 178.078805 110.51944 
L 178.994713 110.51944 
L 179.910621 110.51944 
L 180.82653 110.51944 
L 181.742438 110.51944 
L 182.658346 110.51944 
L 183.574254 110.51944 
L 184.490162 110.51944 
L 185.40607 110.51944 
L 186.321978 110.51944 
L 187.237886 110.51944 
L 188.153794 110.51944 
L 189.069702 110.51944 
L 189.98561 110.51944 
L 190.901519 110.51944 
L 191.817427 110.51944 
L 192.733335 110.51944 
L 193.649243 110.51944 
L 194.565151 110.51944 
L 195.481059 110.51944 
L 196.396967 110.51944 
L 197.312875 110.51944 
L 198.228783 110.51944 
L 199.144691 110.51944 
L 200.060599 110.51944 
L 200.976508 110.51944 
L 201.892416 110.51944 
L 202.808324 110.51944 
L 203.724232 110.51944 
L 204.64014 110.51944 
L 205.556048 110.51944 
L 206.471956 110.51944 
L 207.387864 110.51944 
L 208.303772 110.51944 
L 209.21968 110.51944 
L 210.135588 110.51944 
L 211.051497 110.51944 
L 211.967405 110.51944 
L 212.883313 110.51944 
L 213.799221 110.51944 
L 214.715129 110.51944 
L 215.631037 110.51944 
" clip-path="url(#p5713843595)" style="fill: none; stroke-dasharray: 3.7,1.6; stroke-dashoffset: 0; stroke: #1f77b4"/>
   </g>
   <g id="patch_12">
    <path d="M 120.422391 112.269194 
L 120.422391 73.774597 
" style="fill: none; stroke: #000000; stroke-width: 0.5; stroke-linejoin: miter; stroke-linecap: square"/>
   </g>
   <g id="patch_13">
    <path d="M 120.422391 112.269194 
L 220.164782 112.269194 
" style="fill: none; stroke: #000000; stroke-width: 0.5; stroke-linejoin: miter; stroke-linecap: square"/>
   </g>
   <g id="line2d_67">
    <path d="M 142.727035 110.137872 
L 142.843924 110.062629 
L 142.960814 109.974553 
L 143.077703 109.871879 
L 143.194592 109.752679 
L 143.311481 109.614865 
L 143.42837 109.456195 
L 143.545259 109.274274 
L 143.662148 109.066573 
L 143.779037 108.830442 
L 143.895926 108.563131 
L 144.012815 108.261822 
L 144.129705 107.923658 
L 144.246594 107.545784 
L 144.363483 107.125391 
L 144.480372 106.659769 
L 144.597261 106.146362 
L 144.71415 105.582828 
L 144.831039 104.967107 
L 144.947928 104.297485 
L 145.064817 103.572669 
L 145.181706 102.791852 
L 145.298595 101.954789 
L 145.415485 101.061856 
L 145.532374 100.114118 
L 145.649263 99.11338 
L 145.766152 98.062237 
L 145.883041 96.964105 
L 145.99993 95.82325 
L 146.116819 94.644793 
L 146.233708 93.434709 
L 146.350597 92.199795 
L 146.467486 90.947642 
L 146.584375 89.686565 
L 146.701265 88.425535 
L 146.818154 87.174081 
L 146.935043 85.942182 
L 147.051932 84.740142 
L 147.168821 83.578451 
L 147.28571 82.467636 
L 147.402599 81.41811 
L 147.519488 80.440005 
L 147.636377 79.543013 
L 147.753266 78.73623 
L 147.870155 78.027999 
L 147.987045 77.425765 
L 148.103934 76.93595 
L 148.220823 76.563838 
L 148.337712 76.313475 
L 148.454601 76.187602 
L 148.57149 76.187602 
L 148.688379 76.313475 
L 148.805268 76.563838 
L 148.922157 76.93595 
L 149.039046 77.425765 
L 149.155935 78.027999 
L 149.272825 78.73623 
L 149.389714 79.543013 
L 149.506603 80.440005 
L 149.623492 81.41811 
L 149.740381 82.467636 
L 149.85727 83.578451 
L 149.974159 84.740142 
L 150.091048 85.942182 
L 150.207937 87.174081 
L 150.324826 88.425535 
L 150.441716 89.686565 
L 150.558605 90.947642 
L 150.675494 92.199795 
L 150.792383 93.434709 
L 150.909272 94.644793 
L 151.026161 95.82325 
L 151.14305 96.964105 
L 151.259939 98.062237 
L 151.376828 99.11338 
L 151.493717 100.114118 
L 151.610606 101.061856 
L 151.727496 101.954789 
L 151.844385 102.791852 
L 151.961274 103.572669 
L 152.078163 104.297485 
L 152.195052 104.967107 
L 152.311941 105.582828 
L 152.42883 106.146362 
L 152.545719 106.659769 
L 152.662608 107.125391 
L 152.779497 107.545784 
L 152.896386 107.923658 
L 153.013276 108.261822 
L 153.130165 108.563131 
L 153.247054 108.830442 
L 153.363943 109.066573 
L 153.480832 109.274274 
L 153.597721 109.456195 
L 153.71461 109.614865 
L 153.831499 109.752679 
L 153.948388 109.871879 
L 154.065277 109.974553 
L 154.182166 110.062629 
L 154.299056 110.137872 
" clip-path="url(#p5713843595)" style="fill: none; stroke: #000000; stroke-linecap: square"/>
   </g>
   <g id="line2d_68">
    <path d="M 148.513045 112.269194 
L 148.513045 73.774597 
" clip-path="url(#p5713843595)" style="fill: none; stroke: #000000; stroke-linecap: square"/>
   </g>
  </g>
  <g id="legend_1">
   <g id="patch_14">
    <path d="M 21.613663 162.762944 
L 86.889913 162.762944 
Q 88.089913 162.762944 88.089913 161.562944 
L 88.089913 144.549194 
Q 88.089913 143.349194 86.889913 143.349194 
L 21.613663 143.349194 
Q 20.413663 143.349194 20.413663 144.549194 
L 20.413663 161.562944 
Q 20.413663 162.762944 21.613663 162.762944 
z
" style="fill: #ffffff; stroke: #ffffff; stroke-width: 0.75; stroke-linejoin: miter"/>
   </g>
   <g id="line2d_69">
    <path d="M 22.813663 148.208257 
L 28.813663 148.208257 
L 34.813663 148.208257 
" style="fill: none; stroke: #000000; stroke-linecap: square"/>
   </g>
   <g id="text_21">
    <!-- Data likelihood -->
    <g transform="translate(39.613663 150.308257) scale(0.06 -0.06)">
     <defs>
      <path id="DejaVuSerif-44" d="M 1581 331 
L 2163 331 
Q 3072 331 3558 850 
Q 4044 1369 4044 2338 
Q 4044 3306 3559 3818 
Q 3075 4331 2163 4331 
L 1581 4331 
L 1581 331 
z
M 353 0 
L 353 331 
L 947 331 
L 947 4331 
L 353 4331 
L 353 4666 
L 2209 4666 
Q 3416 4666 4089 4050 
Q 4763 3434 4763 2338 
Q 4763 1238 4088 619 
Q 3413 0 2209 0 
L 353 0 
z
" transform="scale(0.015625)"/>
      <path id="DejaVuSerif-6b" d="M 1831 0 
L 219 0 
L 219 331 
L 738 331 
L 738 4531 
L 184 4531 
L 184 4863 
L 1313 4863 
L 1313 1697 
L 2713 2988 
L 2234 2988 
L 2234 3322 
L 3738 3322 
L 3738 2988 
L 3169 2988 
L 2181 2075 
L 3444 331 
L 3922 331 
L 3922 0 
L 2284 0 
L 2284 331 
L 2759 331 
L 1766 1697 
L 1313 1275 
L 1313 331 
L 1831 331 
L 1831 0 
z
" transform="scale(0.015625)"/>
     </defs>
     <use xlink:href="#DejaVuSerif-44"/>
     <use xlink:href="#DejaVuSerif-61" x="80.175781"/>
     <use xlink:href="#DejaVuSerif-74" x="139.794922"/>
     <use xlink:href="#DejaVuSerif-61" x="179.980469"/>
     <use xlink:href="#DejaVuSerif-20" x="239.599609"/>
     <use xlink:href="#DejaVuSerif-6c" x="271.386719"/>
     <use xlink:href="#DejaVuSerif-69" x="303.369141"/>
     <use xlink:href="#DejaVuSerif-6b" x="335.351562"/>
     <use xlink:href="#DejaVuSerif-65" x="395.947266"/>
     <use xlink:href="#DejaVuSerif-6c" x="455.126953"/>
     <use xlink:href="#DejaVuSerif-69" x="487.109375"/>
     <use xlink:href="#DejaVuSerif-68" x="519.091797"/>
     <use xlink:href="#DejaVuSerif-6f" x="583.496094"/>
     <use xlink:href="#DejaVuSerif-6f" x="643.701172"/>
     <use xlink:href="#DejaVuSerif-64" x="703.90625"/>
    </g>
   </g>
   <g id="line2d_70">
    <path d="M 22.813663 157.015132 
L 28.813663 157.015132 
L 34.813663 157.015132 
" style="fill: none; stroke: #595959; stroke-linecap: square"/>
   </g>
   <g id="text_22">
    <!-- Prior -->
    <g transform="translate(39.613663 159.115132) scale(0.06 -0.06)">
     <defs>
      <path id="DejaVuSerif-50" d="M 1581 2375 
L 2406 2375 
Q 2872 2375 3115 2626 
Q 3359 2878 3359 3353 
Q 3359 3831 3115 4081 
Q 2872 4331 2406 4331 
L 1581 4331 
L 1581 2375 
z
M 353 0 
L 353 331 
L 947 331 
L 947 4331 
L 353 4331 
L 353 4666 
L 2559 4666 
Q 3259 4666 3668 4311 
Q 4078 3956 4078 3353 
Q 4078 2753 3668 2397 
Q 3259 2041 2559 2041 
L 1581 2041 
L 1581 331 
L 2303 331 
L 2303 0 
L 353 0 
z
" transform="scale(0.015625)"/>
     </defs>
     <use xlink:href="#DejaVuSerif-50"/>
     <use xlink:href="#DejaVuSerif-72" x="67.285156"/>
     <use xlink:href="#DejaVuSerif-69" x="115.087891"/>
     <use xlink:href="#DejaVuSerif-6f" x="147.070312"/>
     <use xlink:href="#DejaVuSerif-72" x="207.275391"/>
    </g>
   </g>
  </g>
  <g id="legend_2">
   <g id="patch_15">
    <path d="M 118.146032 153.956069 
L 222.444782 153.956069 
Q 223.644782 153.956069 223.644782 152.756069 
L 223.644782 144.549194 
Q 223.644782 143.349194 222.444782 143.349194 
L 118.146032 143.349194 
Q 116.946032 143.349194 116.946032 144.549194 
L 116.946032 152.756069 
Q 116.946032 153.956069 118.146032 153.956069 
z
" style="fill: #ffffff; stroke: #ffffff; stroke-width: 0.75; stroke-linejoin: miter"/>
   </g>
   <g id="line2d_71">
    <path d="M 119.346032 148.208257 
L 125.346032 148.208257 
L 131.346032 148.208257 
" style="fill: none; stroke-dasharray: 3.7,1.6; stroke-dashoffset: 0; stroke: #1f77b4"/>
   </g>
   <g id="text_23">
    <!-- Posterior (linear prediction) -->
    <g transform="translate(136.146032 150.308257) scale(0.06 -0.06)">
     <defs>
      <path id="DejaVuSerif-28" d="M 2041 -997 
Q 1281 -656 893 83 
Q 506 822 506 1931 
Q 506 3044 893 3783 
Q 1281 4522 2041 4863 
L 2041 4556 
Q 1559 4225 1350 3623 
Q 1141 3022 1141 1931 
Q 1141 844 1350 242 
Q 1559 -359 2041 -691 
L 2041 -997 
z
" transform="scale(0.015625)"/>
      <path id="DejaVuSerif-6e" d="M 263 0 
L 263 331 
L 781 331 
L 781 2988 
L 231 2988 
L 231 3322 
L 1356 3322 
L 1356 2731 
Q 1516 3069 1770 3241 
Q 2025 3413 2363 3413 
Q 2913 3413 3172 3097 
Q 3431 2781 3431 2113 
L 3431 331 
L 3944 331 
L 3944 0 
L 2356 0 
L 2356 331 
L 2853 331 
L 2853 1931 
Q 2853 2541 2703 2767 
Q 2553 2994 2175 2994 
Q 1775 2994 1565 2701 
Q 1356 2409 1356 1850 
L 1356 331 
L 1856 331 
L 1856 0 
L 263 0 
z
" transform="scale(0.015625)"/>
      <path id="DejaVuSerif-63" d="M 3291 997 
Q 3169 466 2822 187 
Q 2475 -91 1925 -91 
Q 1200 -91 759 389 
Q 319 869 319 1663 
Q 319 2459 759 2936 
Q 1200 3413 1925 3413 
Q 2241 3413 2553 3339 
Q 2866 3266 3181 3116 
L 3181 2266 
L 2847 2266 
Q 2781 2703 2561 2903 
Q 2341 3103 1931 3103 
Q 1466 3103 1228 2742 
Q 991 2381 991 1663 
Q 991 944 1227 581 
Q 1463 219 1931 219 
Q 2303 219 2525 412 
Q 2747 606 2828 997 
L 3291 997 
z
" transform="scale(0.015625)"/>
      <path id="DejaVuSerif-29" d="M 453 -997 
L 453 -691 
Q 934 -359 1145 242 
Q 1356 844 1356 1931 
Q 1356 3022 1145 3623 
Q 934 4225 453 4556 
L 453 4863 
Q 1216 4522 1603 3783 
Q 1991 3044 1991 1931 
Q 1991 822 1603 83 
Q 1216 -656 453 -997 
z
" transform="scale(0.015625)"/>
     </defs>
     <use xlink:href="#DejaVuSerif-50"/>
     <use xlink:href="#DejaVuSerif-6f" x="63.285156"/>
     <use xlink:href="#DejaVuSerif-73" x="123.490234"/>
     <use xlink:href="#DejaVuSerif-74" x="174.808594"/>
     <use xlink:href="#DejaVuSerif-65" x="214.994141"/>
     <use xlink:href="#DejaVuSerif-72" x="274.173828"/>
     <use xlink:href="#DejaVuSerif-69" x="321.976562"/>
     <use xlink:href="#DejaVuSerif-6f" x="353.958984"/>
     <use xlink:href="#DejaVuSerif-72" x="414.164062"/>
     <use xlink:href="#DejaVuSerif-20" x="461.966797"/>
     <use xlink:href="#DejaVuSerif-28" x="493.753906"/>
     <use xlink:href="#DejaVuSerif-6c" x="532.767578"/>
     <use xlink:href="#DejaVuSerif-69" x="564.75"/>
     <use xlink:href="#DejaVuSerif-6e" x="596.732422"/>
     <use xlink:href="#DejaVuSerif-65" x="661.136719"/>
     <use xlink:href="#DejaVuSerif-61" x="720.316406"/>
     <use xlink:href="#DejaVuSerif-72" x="779.935547"/>
     <use xlink:href="#DejaVuSerif-20" x="827.738281"/>
     <use xlink:href="#DejaVuSerif-70" x="859.525391"/>
     <use xlink:href="#DejaVuSerif-72" x="923.539062"/>
     <use xlink:href="#DejaVuSerif-65" x="971.341797"/>
     <use xlink:href="#DejaVuSerif-64" x="1030.521484"/>
     <use xlink:href="#DejaVuSerif-69" x="1094.535156"/>
     <use xlink:href="#DejaVuSerif-63" x="1126.517578"/>
     <use xlink:href="#DejaVuSerif-74" x="1182.523438"/>
     <use xlink:href="#DejaVuSerif-69" x="1222.708984"/>
     <use xlink:href="#DejaVuSerif-6f" x="1254.691406"/>
     <use xlink:href="#DejaVuSerif-6e" x="1314.896484"/>
     <use xlink:href="#DejaVuSerif-29" x="1379.300781"/>
    </g>
   </g>
  </g>
 </g>
 <defs>
  <clipPath id="pa709c5102a">
   <rect x="10.7" y="7.2" width="99.742391" height="38.494597"/>
  </clipPath>
  <clipPath id="p16abcf3a10">
   <rect x="120.422391" y="7.2" width="99.742391" height="38.494597"/>
  </clipPath>
  <clipPath id="p0719a80bb7">
   <rect x="10.7" y="73.774597" width="99.742391" height="38.494597"/>
  </clipPath>
  <clipPath id="p5713843595">
   <rect x="120.422391" y="73.774597" width="99.742391" height="38.494597"/>
  </clipPath>
 </defs>
</svg>
