<?xml version="1.0" encoding="utf-8" standalone="no"?>
<!DOCTYPE svg PUBLIC "-//W3C//DTD SVG 1.1//EN"
  "http://www.w3.org/Graphics/SVG/1.1/DTD/svg11.dtd">
<svg xmlns:xlink="http://www.w3.org/1999/xlink" width="230.844782pt" height="169.962944pt" viewBox="0 0 230.844782 169.962944" xmlns="http://www.w3.org/2000/svg" version="1.1">
 <metadata>
  <rdf:RDF xmlns:dc="http://purl.org/dc/elements/1.1/" xmlns:cc="http://creativecommons.org/ns#" xmlns:rdf="http://www.w3.org/1999/02/22-rdf-syntax-ns#">
   <cc:Work>
    <dc:type rdf:resource="http://purl.org/dc/dcmitype/StillImage"/>
    <dc:date>2025-12-23T08:26:22.071148</dc:date>
    <dc:format>image/svg+xml</dc:format>
    <dc:creator>
     <cc:Agent>
      <dc:title>Matplotlib v3.7.0, https://matplotlib.org/</dc:title>
     </cc:Agent>
    </dc:creator>
   </cc:Work>
  </rdf:RDF>
 </metadata>
 <defs>
  <style type="text/css">*{stroke-linejoin: round; stroke-linecap: butt}</style>
 </defs>
 <g id="figure_1">
  <g id="patch_1">
   <path d="M 0 169.962944 
L 230.844782 169.962944 
L 230.844782 -0 
L 0 -0 
z
" style="fill: #ffffff"/>
  </g>
  <g id="axes_1">
   <g id="patch_2">
    <path d="M 10.7 45.694597 
L 109.73772 45.694597 
L 109.73772 7.2 
L 10.7 7.2 
z
" style="fill: #ffffff"/>
   </g>
   <g id="matplotlib.axis_1">
    <g id="xtick_1">
     <g id="line2d_1">
      <path d="M 30.18047 45.694597 
L 30.18047 7.2 
" clip-path="url(#p63a7d94e9f)" style="fill: none; stroke: #d3d3d3; stroke-width: 0.5; stroke-linecap: square"/>
     </g>
     <g id="line2d_2">
      <defs>
       <path id="md7122041da" d="M 0 0 
L 0 3.5 
" style="stroke: #000000; stroke-width: 0.8"/>
      </defs>
      <g>
       <use xlink:href="#md7122041da" x="30.18047" y="45.694597" style="stroke: #000000; stroke-width: 0.8"/>
      </g>
     </g>
     <g id="text_1">
      <!-- 750 -->
      <g transform="translate(24.45422 56.25366) scale(0.06 -0.06)">
       <defs>
        <path id="DejaVuSerif-37" d="M 3609 4347 
L 1784 0 
L 1319 0 
L 3059 4153 
L 903 4153 
L 903 3578 
L 538 3578 
L 538 4666 
L 3609 4666 
L 3609 4347 
z
" transform="scale(0.015625)"/>
        <path id="DejaVuSerif-35" d="M 3219 4666 
L 3219 4153 
L 1081 4153 
L 1081 2816 
Q 1244 2928 1461 2984 
Q 1678 3041 1947 3041 
Q 2703 3041 3140 2622 
Q 3578 2203 3578 1478 
Q 3578 738 3136 323 
Q 2694 -91 1894 -91 
Q 1572 -91 1234 -12 
Q 897 66 544 225 
L 544 1131 
L 897 1131 
Q 925 688 1179 453 
Q 1434 219 1894 219 
Q 2388 219 2653 544 
Q 2919 869 2919 1478 
Q 2919 2084 2655 2407 
Q 2391 2731 1894 2731 
Q 1613 2731 1398 2631 
Q 1184 2531 1019 2322 
L 750 2322 
L 750 4666 
L 3219 4666 
z
" transform="scale(0.015625)"/>
        <path id="DejaVuSerif-30" d="M 2034 219 
Q 2513 219 2750 744 
Q 2988 1269 2988 2328 
Q 2988 3391 2750 3916 
Q 2513 4441 2034 4441 
Q 1556 4441 1318 3916 
Q 1081 3391 1081 2328 
Q 1081 1269 1318 744 
Q 1556 219 2034 219 
z
M 2034 -91 
Q 1275 -91 848 546 
Q 422 1184 422 2328 
Q 422 3475 848 4112 
Q 1275 4750 2034 4750 
Q 2797 4750 3222 4112 
Q 3647 3475 3647 2328 
Q 3647 1184 3222 546 
Q 2797 -91 2034 -91 
z
" transform="scale(0.015625)"/>
       </defs>
       <use xlink:href="#DejaVuSerif-37"/>
       <use xlink:href="#DejaVuSerif-35" x="63.623047"/>
       <use xlink:href="#DejaVuSerif-30" x="127.246094"/>
      </g>
     </g>
    </g>
    <g id="xtick_2">
     <g id="line2d_3">
      <path d="M 50.845436 45.694597 
L 50.845436 7.2 
" clip-path="url(#p63a7d94e9f)" style="fill: none; stroke: #d3d3d3; stroke-width: 0.5; stroke-linecap: square"/>
     </g>
     <g id="line2d_4">
      <g>
       <use xlink:href="#md7122041da" x="50.845436" y="45.694597" style="stroke: #000000; stroke-width: 0.8"/>
      </g>
     </g>
     <g id="text_2">
      <!-- 800 -->
      <g transform="translate(45.119186 56.25366) scale(0.06 -0.06)">
       <defs>
        <path id="DejaVuSerif-38" d="M 2981 1275 
Q 2981 1775 2732 2051 
Q 2484 2328 2034 2328 
Q 1584 2328 1336 2051 
Q 1088 1775 1088 1275 
Q 1088 772 1336 495 
Q 1584 219 2034 219 
Q 2484 219 2732 495 
Q 2981 772 2981 1275 
z
M 2853 3541 
Q 2853 3966 2637 4203 
Q 2422 4441 2034 4441 
Q 1650 4441 1433 4203 
Q 1216 3966 1216 3541 
Q 1216 3113 1433 2875 
Q 1650 2638 2034 2638 
Q 2422 2638 2637 2875 
Q 2853 3113 2853 3541 
z
M 2516 2484 
Q 3047 2413 3344 2092 
Q 3641 1772 3641 1275 
Q 3641 619 3225 264 
Q 2809 -91 2034 -91 
Q 1263 -91 845 264 
Q 428 619 428 1275 
Q 428 1772 725 2092 
Q 1022 2413 1556 2484 
Q 1084 2569 832 2842 
Q 581 3116 581 3541 
Q 581 4103 968 4426 
Q 1356 4750 2034 4750 
Q 2713 4750 3100 4426 
Q 3488 4103 3488 3541 
Q 3488 3116 3236 2842 
Q 2984 2569 2516 2484 
z
" transform="scale(0.015625)"/>
       </defs>
       <use xlink:href="#DejaVuSerif-38"/>
       <use xlink:href="#DejaVuSerif-30" x="63.623047"/>
       <use xlink:href="#DejaVuSerif-30" x="127.246094"/>
      </g>
     </g>
    </g>
    <g id="xtick_3">
     <g id="line2d_5">
      <path d="M 71.510403 45.694597 
L 71.510403 7.2 
" clip-path="url(#p63a7d94e9f)" style="fill: none; stroke: #d3d3d3; stroke-width: 0.5; stroke-linecap: square"/>
     </g>
     <g id="line2d_6">
      <g>
       <use xlink:href="#md7122041da" x="71.510403" y="45.694597" style="stroke: #000000; stroke-width: 0.8"/>
      </g>
     </g>
     <g id="text_3">
      <!-- 850 -->
      <g transform="translate(65.784153 56.25366) scale(0.06 -0.06)">
       <use xlink:href="#DejaVuSerif-38"/>
       <use xlink:href="#DejaVuSerif-35" x="63.623047"/>
       <use xlink:href="#DejaVuSerif-30" x="127.246094"/>
      </g>
     </g>
    </g>
    <g id="xtick_4">
     <g id="line2d_7">
      <path d="M 92.17537 45.694597 
L 92.17537 7.2 
" clip-path="url(#p63a7d94e9f)" style="fill: none; stroke: #d3d3d3; stroke-width: 0.5; stroke-linecap: square"/>
     </g>
     <g id="line2d_8">
      <g>
       <use xlink:href="#md7122041da" x="92.17537" y="45.694597" style="stroke: #000000; stroke-width: 0.8"/>
      </g>
     </g>
     <g id="text_4">
      <!-- 900 -->
      <g transform="translate(86.44912 56.25366) scale(0.06 -0.06)">
       <defs>
        <path id="DejaVuSerif-39" d="M 2994 2091 
Q 2784 1856 2512 1740 
Q 2241 1625 1900 1625 
Q 1206 1625 804 2044 
Q 403 2463 403 3188 
Q 403 3897 839 4323 
Q 1275 4750 2003 4750 
Q 2794 4750 3217 4161 
Q 3641 3572 3641 2478 
Q 3641 1253 3137 581 
Q 2634 -91 1722 -91 
Q 1475 -91 1203 -44 
Q 931 3 647 97 
L 647 872 
L 997 872 
Q 1038 556 1241 387 
Q 1444 219 1784 219 
Q 2391 219 2687 676 
Q 2984 1134 2994 2091 
z
M 1978 4441 
Q 1534 4441 1298 4117 
Q 1063 3794 1063 3188 
Q 1063 2581 1298 2256 
Q 1534 1931 1978 1931 
Q 2422 1931 2658 2245 
Q 2894 2559 2894 3150 
Q 2894 3772 2656 4106 
Q 2419 4441 1978 4441 
z
" transform="scale(0.015625)"/>
       </defs>
       <use xlink:href="#DejaVuSerif-39"/>
       <use xlink:href="#DejaVuSerif-30" x="63.623047"/>
       <use xlink:href="#DejaVuSerif-30" x="127.246094"/>
      </g>
     </g>
    </g>
    <g id="text_5">
     <!-- Cloud top height [m] -->
     <g transform="translate(28.601204 66.060535) scale(0.06 -0.06)">
      <defs>
       <path id="DejaVuSerif-43" d="M 4513 1234 
Q 4306 581 3820 245 
Q 3334 -91 2591 -91 
Q 2134 -91 1743 65 
Q 1353 222 1050 525 
Q 700 875 529 1320 
Q 359 1766 359 2328 
Q 359 3416 987 4083 
Q 1616 4750 2644 4750 
Q 3025 4750 3456 4650 
Q 3888 4550 4384 4347 
L 4384 3272 
L 4031 3272 
Q 3916 3859 3567 4137 
Q 3219 4416 2591 4416 
Q 1844 4416 1459 3886 
Q 1075 3356 1075 2328 
Q 1075 1303 1459 773 
Q 1844 244 2591 244 
Q 3113 244 3450 492 
Q 3788 741 3938 1234 
L 4513 1234 
z
" transform="scale(0.015625)"/>
       <path id="DejaVuSerif-6c" d="M 1313 331 
L 1856 331 
L 1856 0 
L 184 0 
L 184 331 
L 738 331 
L 738 4531 
L 184 4531 
L 184 4863 
L 1313 4863 
L 1313 331 
z
" transform="scale(0.015625)"/>
       <path id="DejaVuSerif-6f" d="M 1925 219 
Q 2388 219 2623 584 
Q 2859 950 2859 1663 
Q 2859 2375 2623 2739 
Q 2388 3103 1925 3103 
Q 1463 3103 1227 2739 
Q 991 2375 991 1663 
Q 991 950 1228 584 
Q 1466 219 1925 219 
z
M 1925 -91 
Q 1200 -91 759 389 
Q 319 869 319 1663 
Q 319 2456 758 2934 
Q 1197 3413 1925 3413 
Q 2653 3413 3092 2934 
Q 3531 2456 3531 1663 
Q 3531 869 3092 389 
Q 2653 -91 1925 -91 
z
" transform="scale(0.015625)"/>
       <path id="DejaVuSerif-75" d="M 2266 3322 
L 3341 3322 
L 3341 331 
L 3884 331 
L 3884 0 
L 2766 0 
L 2766 588 
Q 2606 256 2353 82 
Q 2100 -91 1766 -91 
Q 1213 -91 952 223 
Q 691 538 691 1209 
L 691 2988 
L 172 2988 
L 172 3322 
L 1269 3322 
L 1269 1388 
Q 1269 781 1417 556 
Q 1566 331 1947 331 
Q 2347 331 2556 625 
Q 2766 919 2766 1478 
L 2766 2988 
L 2266 2988 
L 2266 3322 
z
" transform="scale(0.015625)"/>
       <path id="DejaVuSerif-64" d="M 3359 331 
L 3909 331 
L 3909 0 
L 2784 0 
L 2784 519 
Q 2616 206 2355 57 
Q 2094 -91 1709 -91 
Q 1097 -91 708 395 
Q 319 881 319 1663 
Q 319 2444 706 2928 
Q 1094 3413 1709 3413 
Q 2094 3413 2355 3264 
Q 2616 3116 2784 2803 
L 2784 4531 
L 2241 4531 
L 2241 4863 
L 3359 4863 
L 3359 331 
z
M 2784 1497 
L 2784 1825 
Q 2784 2422 2554 2737 
Q 2325 3053 1888 3053 
Q 1444 3053 1217 2703 
Q 991 2353 991 1663 
Q 991 975 1217 622 
Q 1444 269 1888 269 
Q 2325 269 2554 583 
Q 2784 897 2784 1497 
z
" transform="scale(0.015625)"/>
       <path id="DejaVuSerif-20" transform="scale(0.015625)"/>
       <path id="DejaVuSerif-74" d="M 691 2988 
L 184 2988 
L 184 3322 
L 691 3322 
L 691 4353 
L 1269 4353 
L 1269 3322 
L 2350 3322 
L 2350 2988 
L 1269 2988 
L 1269 878 
Q 1269 456 1350 337 
Q 1431 219 1650 219 
Q 1875 219 1978 351 
Q 2081 484 2088 781 
L 2522 781 
Q 2497 328 2275 118 
Q 2053 -91 1600 -91 
Q 1103 -91 897 129 
Q 691 350 691 878 
L 691 2988 
z
" transform="scale(0.015625)"/>
       <path id="DejaVuSerif-70" d="M 1313 1825 
L 1313 1497 
Q 1313 897 1542 583 
Q 1772 269 2209 269 
Q 2650 269 2876 622 
Q 3103 975 3103 1663 
Q 3103 2353 2876 2703 
Q 2650 3053 2209 3053 
Q 1772 3053 1542 2737 
Q 1313 2422 1313 1825 
z
M 738 2988 
L 184 2988 
L 184 3322 
L 1313 3322 
L 1313 2803 
Q 1481 3116 1742 3264 
Q 2003 3413 2388 3413 
Q 3000 3413 3387 2928 
Q 3775 2444 3775 1663 
Q 3775 881 3387 395 
Q 3000 -91 2388 -91 
Q 2003 -91 1742 57 
Q 1481 206 1313 519 
L 1313 -997 
L 1856 -997 
L 1856 -1331 
L 184 -1331 
L 184 -997 
L 738 -997 
L 738 2988 
z
" transform="scale(0.015625)"/>
       <path id="DejaVuSerif-68" d="M 263 0 
L 263 331 
L 781 331 
L 781 4531 
L 231 4531 
L 231 4863 
L 1356 4863 
L 1356 2731 
Q 1516 3069 1770 3241 
Q 2025 3413 2363 3413 
Q 2913 3413 3172 3097 
Q 3431 2781 3431 2113 
L 3431 331 
L 3944 331 
L 3944 0 
L 2356 0 
L 2356 331 
L 2853 331 
L 2853 1931 
Q 2853 2541 2704 2764 
Q 2556 2988 2175 2988 
Q 1775 2988 1565 2697 
Q 1356 2406 1356 1850 
L 1356 331 
L 1856 331 
L 1856 0 
L 263 0 
z
" transform="scale(0.015625)"/>
       <path id="DejaVuSerif-65" d="M 3469 1600 
L 991 1600 
L 991 1575 
Q 991 903 1244 561 
Q 1497 219 1991 219 
Q 2369 219 2611 417 
Q 2853 616 2950 1006 
L 3413 1006 
Q 3275 459 2904 184 
Q 2534 -91 1931 -91 
Q 1203 -91 761 389 
Q 319 869 319 1663 
Q 319 2450 753 2931 
Q 1188 3413 1894 3413 
Q 2647 3413 3050 2948 
Q 3453 2484 3469 1600 
z
M 2791 1931 
Q 2772 2513 2545 2808 
Q 2319 3103 1894 3103 
Q 1497 3103 1269 2806 
Q 1041 2509 991 1931 
L 2791 1931 
z
" transform="scale(0.015625)"/>
       <path id="DejaVuSerif-69" d="M 622 4353 
Q 622 4497 726 4603 
Q 831 4709 978 4709 
Q 1122 4709 1226 4603 
Q 1331 4497 1331 4353 
Q 1331 4206 1228 4103 
Q 1125 4000 978 4000 
Q 831 4000 726 4103 
Q 622 4206 622 4353 
z
M 1356 331 
L 1900 331 
L 1900 0 
L 231 0 
L 231 331 
L 781 331 
L 781 2988 
L 231 2988 
L 231 3322 
L 1356 3322 
L 1356 331 
z
" transform="scale(0.015625)"/>
       <path id="DejaVuSerif-67" d="M 3359 2988 
L 3359 72 
Q 3359 -644 2965 -1033 
Q 2572 -1422 1844 -1422 
Q 1516 -1422 1216 -1362 
Q 916 -1303 641 -1184 
L 641 -488 
L 941 -488 
Q 997 -813 1206 -963 
Q 1416 -1113 1806 -1113 
Q 2313 -1113 2548 -827 
Q 2784 -541 2784 72 
L 2784 519 
Q 2616 206 2355 57 
Q 2094 -91 1709 -91 
Q 1097 -91 708 395 
Q 319 881 319 1663 
Q 319 2444 706 2928 
Q 1094 3413 1709 3413 
Q 2094 3413 2355 3264 
Q 2616 3116 2784 2803 
L 2784 3322 
L 3909 3322 
L 3909 2988 
L 3359 2988 
z
M 2784 1825 
Q 2784 2422 2554 2737 
Q 2325 3053 1888 3053 
Q 1444 3053 1217 2703 
Q 991 2353 991 1663 
Q 991 975 1217 622 
Q 1444 269 1888 269 
Q 2325 269 2554 583 
Q 2784 897 2784 1497 
L 2784 1825 
z
" transform="scale(0.015625)"/>
       <path id="DejaVuSerif-5b" d="M 550 4863 
L 2003 4863 
L 2003 4531 
L 1147 4531 
L 1147 -513 
L 2003 -513 
L 2003 -844 
L 550 -844 
L 550 4863 
z
" transform="scale(0.015625)"/>
       <path id="DejaVuSerif-6d" d="M 3316 2675 
Q 3481 3041 3739 3227 
Q 3997 3413 4341 3413 
Q 4863 3413 5119 3089 
Q 5375 2766 5375 2113 
L 5375 331 
L 5894 331 
L 5894 0 
L 4300 0 
L 4300 331 
L 4800 331 
L 4800 2047 
Q 4800 2556 4650 2772 
Q 4500 2988 4153 2988 
Q 3769 2988 3567 2697 
Q 3366 2406 3366 1850 
L 3366 331 
L 3866 331 
L 3866 0 
L 2291 0 
L 2291 331 
L 2791 331 
L 2791 2069 
Q 2791 2566 2641 2777 
Q 2491 2988 2144 2988 
Q 1759 2988 1557 2697 
Q 1356 2406 1356 1850 
L 1356 331 
L 1856 331 
L 1856 0 
L 263 0 
L 263 331 
L 781 331 
L 781 2994 
L 231 2994 
L 231 3322 
L 1356 3322 
L 1356 2731 
Q 1516 3063 1762 3238 
Q 2009 3413 2322 3413 
Q 2709 3413 2968 3220 
Q 3228 3028 3316 2675 
z
" transform="scale(0.015625)"/>
       <path id="DejaVuSerif-5d" d="M 1947 4863 
L 1947 -844 
L 494 -844 
L 494 -513 
L 1350 -513 
L 1350 4531 
L 494 4531 
L 494 4863 
L 1947 4863 
z
" transform="scale(0.015625)"/>
      </defs>
      <use xlink:href="#DejaVuSerif-43"/>
      <use xlink:href="#DejaVuSerif-6c" x="76.513672"/>
      <use xlink:href="#DejaVuSerif-6f" x="108.496094"/>
      <use xlink:href="#DejaVuSerif-75" x="168.701172"/>
      <use xlink:href="#DejaVuSerif-64" x="233.105469"/>
      <use xlink:href="#DejaVuSerif-20" x="297.119141"/>
      <use xlink:href="#DejaVuSerif-74" x="328.90625"/>
      <use xlink:href="#DejaVuSerif-6f" x="369.091797"/>
      <use xlink:href="#DejaVuSerif-70" x="429.296875"/>
      <use xlink:href="#DejaVuSerif-20" x="493.310547"/>
      <use xlink:href="#DejaVuSerif-68" x="525.097656"/>
      <use xlink:href="#DejaVuSerif-65" x="589.501953"/>
      <use xlink:href="#DejaVuSerif-69" x="648.681641"/>
      <use xlink:href="#DejaVuSerif-67" x="680.664062"/>
      <use xlink:href="#DejaVuSerif-68" x="744.677734"/>
      <use xlink:href="#DejaVuSerif-74" x="809.082031"/>
      <use xlink:href="#DejaVuSerif-20" x="849.267578"/>
      <use xlink:href="#DejaVuSerif-5b" x="881.054688"/>
      <use xlink:href="#DejaVuSerif-6d" x="920.068359"/>
      <use xlink:href="#DejaVuSerif-5d" x="1014.892578"/>
     </g>
    </g>
   </g>
   <g id="matplotlib.axis_2">
    <g id="ytick_1">
     <g id="line2d_9">
      <path d="M 10.7 43.944843 
L 109.73772 43.944843 
" clip-path="url(#p63a7d94e9f)" style="fill: none; stroke: #d3d3d3; stroke-width: 0.5; stroke-linecap: square"/>
     </g>
     <g id="line2d_10">
      <defs>
       <path id="m149eea6fb2" d="M 0 0 
L -3.5 0 
" style="stroke: #000000; stroke-width: 0.8"/>
      </defs>
      <g>
       <use xlink:href="#m149eea6fb2" x="10.7" y="43.944843" style="stroke: #000000; stroke-width: 0.8"/>
      </g>
     </g>
    </g>
    <g id="ytick_2">
     <g id="line2d_11">
      <path d="M 10.7 31.106394 
L 109.73772 31.106394 
" clip-path="url(#p63a7d94e9f)" style="fill: none; stroke: #d3d3d3; stroke-width: 0.5; stroke-linecap: square"/>
     </g>
     <g id="line2d_12">
      <g>
       <use xlink:href="#m149eea6fb2" x="10.7" y="31.106394" style="stroke: #000000; stroke-width: 0.8"/>
      </g>
     </g>
    </g>
    <g id="ytick_3">
     <g id="line2d_13">
      <path d="M 10.7 18.267945 
L 109.73772 18.267945 
" clip-path="url(#p63a7d94e9f)" style="fill: none; stroke: #d3d3d3; stroke-width: 0.5; stroke-linecap: square"/>
     </g>
     <g id="line2d_14">
      <g>
       <use xlink:href="#m149eea6fb2" x="10.7" y="18.267945" style="stroke: #000000; stroke-width: 0.8"/>
      </g>
     </g>
    </g>
   </g>
   <g id="line2d_15">
    <path d="M 15.201715 42.374098 
L 16.111152 42.211411 
L 17.020589 42.039744 
L 17.930026 41.859642 
L 18.839464 41.671812 
L 19.748901 41.477128 
L 20.658338 41.276623 
L 21.567776 41.071487 
L 22.477213 40.863045 
L 23.38665 40.65274 
L 24.296087 40.442103 
L 25.205525 40.232718 
L 26.114962 40.026189 
L 27.024399 39.824092 
L 27.933837 39.627937 
L 28.843274 39.439117 
L 29.752711 39.258873 
L 30.662148 39.088251 
L 31.571586 38.928067 
L 32.481023 38.778882 
L 33.39046 38.640985 
L 34.299898 38.514382 
L 35.209335 38.398801 
L 36.118772 38.293702 
L 37.028209 38.198303 
L 37.937647 38.11161 
L 38.847084 38.032461 
L 39.756521 37.959575 
L 40.665959 37.891601 
L 41.575396 37.827173 
L 42.484833 37.764968 
L 43.39427 37.703752 
L 44.303708 37.642429 
L 45.213145 37.580075 
L 46.122582 37.515973 
L 47.03202 37.449628 
L 47.941457 37.380777 
L 48.850894 37.309388 
L 49.760331 37.235644 
L 50.669769 37.159927 
L 51.579206 37.082785 
L 52.488643 37.004898 
L 53.398081 36.92704 
L 54.307518 36.850036 
L 55.216955 36.774721 
L 56.126392 36.701898 
L 57.03583 36.632309 
L 57.945267 36.566595 
L 58.854704 36.50528 
L 59.764142 36.448755 
L 60.673579 36.397266 
L 61.583016 36.350924 
L 62.492453 36.309713 
L 63.401891 36.273515 
L 64.311328 36.242133 
L 65.220765 36.215332 
L 66.130203 36.192874 
L 67.03964 36.174561 
L 67.949077 36.160276 
L 68.858514 36.150017 
L 69.767952 36.14393 
L 70.677389 36.142328 
L 71.586826 36.145708 
L 72.496264 36.154747 
L 73.405701 36.170291 
L 74.315138 36.193332 
L 75.224575 36.224974 
L 76.134013 36.266387 
L 77.04345 36.318756 
L 77.952887 36.38323 
L 78.862325 36.460858 
L 79.771762 36.552546 
L 80.681199 36.658998 
L 81.590636 36.78068 
L 82.500074 36.917789 
L 83.409511 37.070233 
L 84.318948 37.237624 
L 85.228386 37.419282 
L 86.137823 37.614253 
L 87.04726 37.821336 
L 87.956697 38.039124 
L 88.866135 38.266041 
L 89.775572 38.500396 
L 90.685009 38.74043 
L 91.594446 38.984365 
L 92.503884 39.230455 
L 93.413321 39.477023 
L 94.322758 39.722501 
L 95.232196 39.965453 
L 96.141633 40.204602 
L 97.05107 40.438835 
L 97.960507 40.667209 
L 98.869945 40.888949 
L 99.779382 41.103434 
L 100.688819 41.310185 
L 101.598257 41.508848 
L 102.507694 41.699171 
L 103.417131 41.880987 
L 104.326568 42.054195 
L 105.236006 42.218743 
" clip-path="url(#p63a7d94e9f)" style="fill: none; stroke: #595959; stroke-linecap: square"/>
   </g>
   <g id="line2d_16">
    <path d="M 15.201715 43.944843 
L 16.111152 43.944843 
L 17.020589 43.944843 
L 17.930026 43.944843 
L 18.839464 43.944843 
L 19.748901 43.944843 
L 20.658338 43.944843 
L 21.567776 43.944843 
L 22.477213 43.944843 
L 23.38665 43.944843 
L 24.296087 43.944843 
L 25.205525 43.944843 
L 26.114962 43.944843 
L 27.024399 43.944843 
L 27.933837 43.944843 
L 28.843274 43.944843 
L 29.752711 43.944843 
L 30.662148 43.944843 
L 31.571586 43.944843 
L 32.481023 43.944843 
L 33.39046 43.944843 
L 34.299898 43.944843 
L 35.209335 43.944843 
L 36.118772 43.944843 
L 37.028209 43.944841 
L 37.937647 43.944835 
L 38.847084 43.944802 
L 39.756521 43.944648 
L 40.665959 43.94403 
L 41.575396 43.94185 
L 42.484833 43.935131 
L 43.39427 43.917041 
L 44.303708 43.874588 
L 45.213145 43.787932 
L 46.122582 43.63438 
L 47.03202 43.398381 
L 47.941457 43.082624 
L 48.850894 42.708322 
L 49.760331 42.293836 
L 50.669769 41.815044 
L 51.579206 41.170154 
L 52.488643 40.179032 
L 53.398081 38.633991 
L 54.307518 36.393013 
L 55.216955 33.480313 
L 56.126392 30.142294 
L 57.03583 26.810242 
L 57.945267 23.956084 
L 58.854704 21.887516 
L 59.764142 20.581312 
L 60.673579 19.660472 
L 61.583016 18.564549 
L 62.492453 16.85623 
L 63.401891 14.502173 
L 64.311328 11.943597 
L 65.220765 9.887772 
L 66.130203 8.949754 
L 67.03964 9.389548 
L 67.949077 11.099301 
L 68.858514 13.774968 
L 69.767952 17.07976 
L 70.677389 20.691076 
L 71.586826 24.29164 
L 72.496264 27.611203 
L 73.405701 30.516198 
L 74.315138 33.044331 
L 75.224575 35.321764 
L 76.134013 37.425244 
L 77.04345 39.307626 
L 77.952887 40.837796 
L 78.862325 41.90314 
L 79.771762 42.488864 
L 80.681199 42.691284 
L 81.590636 42.676755 
L 82.500074 42.618935 
L 83.409511 42.642358 
L 84.318948 42.792005 
L 85.228386 43.039039 
L 86.137823 43.316172 
L 87.04726 43.560043 
L 87.956697 43.737237 
L 88.866135 43.846132 
L 89.775572 43.903482 
L 90.685009 43.929571 
L 91.594446 43.939873 
L 92.503884 43.943418 
L 93.413321 43.944483 
L 94.322758 43.944763 
L 95.232196 43.944827 
L 96.141633 43.94484 
L 97.05107 43.944842 
L 97.960507 43.944843 
L 98.869945 43.944843 
L 99.779382 43.944843 
L 100.688819 43.944843 
L 101.598257 43.944843 
L 102.507694 43.944843 
L 103.417131 43.944843 
L 104.326568 43.944843 
L 105.236006 43.944843 
" clip-path="url(#p63a7d94e9f)" style="fill: none; stroke-dasharray: 3.7,1.6; stroke-dashoffset: 0; stroke: #1f77b4"/>
   </g>
   <g id="patch_3">
    <path d="M 10.7 45.694597 
L 10.7 7.2 
" style="fill: none; stroke: #000000; stroke-width: 0.5; stroke-linejoin: miter; stroke-linecap: square"/>
   </g>
   <g id="patch_4">
    <path d="M 10.7 45.694597 
L 109.73772 45.694597 
" style="fill: none; stroke: #000000; stroke-width: 0.5; stroke-linejoin: miter; stroke-linecap: square"/>
   </g>
   <g id="line2d_17">
    <path d="M 42.57945 43.660352 
L 43.080419 43.604252 
L 43.581388 43.538584 
L 44.082356 43.462032 
L 44.583325 43.373158 
L 45.084294 43.270407 
L 45.585263 43.152105 
L 46.086232 43.016468 
L 46.587201 42.861609 
L 47.08817 42.685554 
L 47.589139 42.486252 
L 48.090108 42.261601 
L 48.591076 42.009471 
L 49.092045 41.727734 
L 49.593014 41.414297 
L 50.093983 41.067137 
L 50.594952 40.684349 
L 51.095921 40.264187 
L 51.59689 39.805116 
L 52.097859 39.305857 
L 52.598828 38.765446 
L 53.099796 38.183282 
L 53.600765 37.559182 
L 54.101734 36.893426 
L 54.602703 36.186808 
L 55.103672 35.440675 
L 55.604641 34.65696 
L 56.10561 33.838211 
L 56.606579 32.987609 
L 57.107548 32.108971 
L 57.608516 31.206752 
L 58.109485 30.286021 
L 58.610454 29.352437 
L 59.111423 28.412199 
L 59.612392 27.471996 
L 60.113361 26.538933 
L 60.61433 25.62045 
L 61.115299 24.724229 
L 61.616268 23.858091 
L 62.117236 23.029886 
L 62.618205 22.247377 
L 63.119174 21.518118 
L 63.620143 20.849336 
L 64.121112 20.247812 
L 64.622081 19.719766 
L 65.12305 19.270751 
L 65.624019 18.905553 
L 66.124988 18.628113 
L 66.625956 18.441446 
L 67.126925 18.347598 
L 67.627894 18.347598 
L 68.128863 18.441446 
L 68.629832 18.628113 
L 69.130801 18.905553 
L 69.63177 19.270751 
L 70.132739 19.719766 
L 70.633708 20.247812 
L 71.134676 20.849336 
L 71.635645 21.518118 
L 72.136614 22.247377 
L 72.637583 23.029886 
L 73.138552 23.858091 
L 73.639521 24.724229 
L 74.14049 25.62045 
L 74.641459 26.538933 
L 75.142428 27.471996 
L 75.643396 28.412199 
L 76.144365 29.352437 
L 76.645334 30.286021 
L 77.146303 31.206752 
L 77.647272 32.108971 
L 78.148241 32.987609 
L 78.64921 33.838211 
L 79.150179 34.65696 
L 79.651148 35.440675 
L 80.152116 36.186808 
L 80.653085 36.893426 
L 81.154054 37.559182 
L 81.655023 38.183282 
L 82.155992 38.765446 
L 82.656961 39.305857 
L 83.15793 39.805116 
L 83.658899 40.264187 
L 84.159868 40.684349 
L 84.660837 41.067137 
L 85.161805 41.414297 
L 85.662774 41.727734 
L 86.163743 42.009471 
L 86.664712 42.261601 
L 87.165681 42.486252 
L 87.66665 42.685554 
L 88.167619 42.861609 
L 88.668588 43.016468 
L 89.169557 43.152105 
L 89.670525 43.270407 
L 90.171494 43.373158 
L 90.672463 43.462032 
L 91.173432 43.538584 
L 91.674401 43.604252 
L 92.17537 43.660352 
" clip-path="url(#p63a7d94e9f)" style="fill: none; stroke: #000000; stroke-linecap: square"/>
   </g>
   <g id="line2d_18">
    <path d="M 67.37741 45.694597 
L 67.37741 7.2 
" clip-path="url(#p63a7d94e9f)" style="fill: none; stroke: #000000; stroke-linecap: square"/>
   </g>
  </g>
  <g id="axes_2">
   <g id="patch_5">
    <path d="M 119.71772 45.694597 
L 218.755441 45.694597 
L 218.755441 7.2 
L 119.71772 7.2 
z
" style="fill: #ffffff"/>
   </g>
   <g id="matplotlib.axis_3">
    <g id="xtick_5">
     <g id="line2d_19">
      <path d="M 133.700362 45.694597 
L 133.700362 7.2 
" clip-path="url(#p6eb1880213)" style="fill: none; stroke: #d3d3d3; stroke-width: 0.5; stroke-linecap: square"/>
     </g>
     <g id="line2d_20">
      <g>
       <use xlink:href="#md7122041da" x="133.700362" y="45.694597" style="stroke: #000000; stroke-width: 0.8"/>
      </g>
     </g>
     <g id="text_6">
      <!-- −20 -->
      <g transform="translate(127.368956 56.25366) scale(0.06 -0.06)">
       <defs>
        <path id="DejaVuSerif-2212" d="M 678 2259 
L 4684 2259 
L 4684 1753 
L 678 1753 
L 678 2259 
z
" transform="scale(0.015625)"/>
        <path id="DejaVuSerif-32" d="M 819 3553 
L 469 3553 
L 469 4384 
Q 803 4563 1142 4656 
Q 1481 4750 1806 4750 
Q 2534 4750 2956 4397 
Q 3378 4044 3378 3438 
Q 3378 2753 2422 1800 
Q 2347 1728 2309 1691 
L 1131 513 
L 3078 513 
L 3078 1088 
L 3444 1088 
L 3444 0 
L 434 0 
L 434 341 
L 1850 1753 
Q 2319 2222 2519 2614 
Q 2719 3006 2719 3438 
Q 2719 3909 2473 4175 
Q 2228 4441 1797 4441 
Q 1350 4441 1106 4219 
Q 863 3997 819 3553 
z
" transform="scale(0.015625)"/>
       </defs>
       <use xlink:href="#DejaVuSerif-2212"/>
       <use xlink:href="#DejaVuSerif-32" x="83.789062"/>
       <use xlink:href="#DejaVuSerif-30" x="147.412109"/>
      </g>
     </g>
    </g>
    <g id="xtick_6">
     <g id="line2d_21">
      <path d="M 165.921708 45.694597 
L 165.921708 7.2 
" clip-path="url(#p6eb1880213)" style="fill: none; stroke: #d3d3d3; stroke-width: 0.5; stroke-linecap: square"/>
     </g>
     <g id="line2d_22">
      <g>
       <use xlink:href="#md7122041da" x="165.921708" y="45.694597" style="stroke: #000000; stroke-width: 0.8"/>
      </g>
     </g>
     <g id="text_7">
      <!-- 0 -->
      <g transform="translate(164.012958 56.25366) scale(0.06 -0.06)">
       <use xlink:href="#DejaVuSerif-30"/>
      </g>
     </g>
    </g>
    <g id="xtick_7">
     <g id="line2d_23">
      <path d="M 198.143053 45.694597 
L 198.143053 7.2 
" clip-path="url(#p6eb1880213)" style="fill: none; stroke: #d3d3d3; stroke-width: 0.5; stroke-linecap: square"/>
     </g>
     <g id="line2d_24">
      <g>
       <use xlink:href="#md7122041da" x="198.143053" y="45.694597" style="stroke: #000000; stroke-width: 0.8"/>
      </g>
     </g>
     <g id="text_8">
      <!-- 20 -->
      <g transform="translate(194.325553 56.25366) scale(0.06 -0.06)">
       <use xlink:href="#DejaVuSerif-32"/>
       <use xlink:href="#DejaVuSerif-30" x="63.623047"/>
      </g>
     </g>
    </g>
    <g id="text_9">
     <!-- Cloud top rate [m/h] -->
     <g transform="translate(138.19783 66.060535) scale(0.06 -0.06)">
      <defs>
       <path id="DejaVuSerif-72" d="M 3059 3328 
L 3059 2497 
L 2728 2497 
Q 2713 2744 2591 2866 
Q 2469 2988 2234 2988 
Q 1809 2988 1582 2694 
Q 1356 2400 1356 1850 
L 1356 331 
L 2022 331 
L 2022 0 
L 263 0 
L 263 331 
L 781 331 
L 781 2994 
L 231 2994 
L 231 3322 
L 1356 3322 
L 1356 2731 
Q 1525 3078 1790 3245 
Q 2056 3413 2438 3413 
Q 2578 3413 2733 3391 
Q 2888 3369 3059 3328 
z
" transform="scale(0.015625)"/>
       <path id="DejaVuSerif-61" d="M 2547 1044 
L 2547 1747 
L 1806 1747 
Q 1378 1747 1168 1562 
Q 959 1378 959 997 
Q 959 650 1171 447 
Q 1384 244 1747 244 
Q 2106 244 2326 466 
Q 2547 688 2547 1044 
z
M 3122 2075 
L 3122 331 
L 3634 331 
L 3634 0 
L 2547 0 
L 2547 359 
Q 2356 128 2106 18 
Q 1856 -91 1522 -91 
Q 969 -91 644 203 
Q 319 497 319 997 
Q 319 1513 691 1797 
Q 1063 2081 1741 2081 
L 2547 2081 
L 2547 2309 
Q 2547 2688 2317 2895 
Q 2088 3103 1672 3103 
Q 1328 3103 1125 2947 
Q 922 2791 872 2484 
L 575 2484 
L 575 3156 
Q 875 3284 1158 3348 
Q 1441 3413 1709 3413 
Q 2400 3413 2761 3070 
Q 3122 2728 3122 2075 
z
" transform="scale(0.015625)"/>
       <path id="DejaVuSerif-2f" d="M 1656 4666 
L 2156 4666 
L 500 -594 
L 0 -594 
L 1656 4666 
z
" transform="scale(0.015625)"/>
      </defs>
      <use xlink:href="#DejaVuSerif-43"/>
      <use xlink:href="#DejaVuSerif-6c" x="76.513672"/>
      <use xlink:href="#DejaVuSerif-6f" x="108.496094"/>
      <use xlink:href="#DejaVuSerif-75" x="168.701172"/>
      <use xlink:href="#DejaVuSerif-64" x="233.105469"/>
      <use xlink:href="#DejaVuSerif-20" x="297.119141"/>
      <use xlink:href="#DejaVuSerif-74" x="328.90625"/>
      <use xlink:href="#DejaVuSerif-6f" x="369.091797"/>
      <use xlink:href="#DejaVuSerif-70" x="429.296875"/>
      <use xlink:href="#DejaVuSerif-20" x="493.310547"/>
      <use xlink:href="#DejaVuSerif-72" x="525.097656"/>
      <use xlink:href="#DejaVuSerif-61" x="572.900391"/>
      <use xlink:href="#DejaVuSerif-74" x="632.519531"/>
      <use xlink:href="#DejaVuSerif-65" x="672.705078"/>
      <use xlink:href="#DejaVuSerif-20" x="731.884766"/>
      <use xlink:href="#DejaVuSerif-5b" x="763.671875"/>
      <use xlink:href="#DejaVuSerif-6d" x="802.685547"/>
      <use xlink:href="#DejaVuSerif-2f" x="897.509766"/>
      <use xlink:href="#DejaVuSerif-68" x="931.201172"/>
      <use xlink:href="#DejaVuSerif-5d" x="995.605469"/>
     </g>
    </g>
   </g>
   <g id="matplotlib.axis_4">
    <g id="ytick_4">
     <g id="line2d_25">
      <path d="M 119.71772 43.944843 
L 218.755441 43.944843 
" clip-path="url(#p6eb1880213)" style="fill: none; stroke: #d3d3d3; stroke-width: 0.5; stroke-linecap: square"/>
     </g>
     <g id="line2d_26">
      <g>
       <use xlink:href="#m149eea6fb2" x="119.71772" y="43.944843" style="stroke: #000000; stroke-width: 0.8"/>
      </g>
     </g>
    </g>
    <g id="ytick_5">
     <g id="line2d_27">
      <path d="M 119.71772 19.801896 
L 218.755441 19.801896 
" clip-path="url(#p6eb1880213)" style="fill: none; stroke: #d3d3d3; stroke-width: 0.5; stroke-linecap: square"/>
     </g>
     <g id="line2d_28">
      <g>
       <use xlink:href="#m149eea6fb2" x="119.71772" y="19.801896" style="stroke: #000000; stroke-width: 0.8"/>
      </g>
     </g>
    </g>
   </g>
   <g id="line2d_29">
    <path d="M 124.219435 42.689995 
L 125.107358 42.564627 
L 125.995282 42.42946 
L 126.883205 42.28373 
L 127.771129 42.126749 
L 128.659052 41.957958 
L 129.546976 41.776968 
L 130.434899 41.583586 
L 131.322823 41.377834 
L 132.210746 41.159941 
L 133.09867 40.93032 
L 133.986593 40.689533 
L 134.874517 40.438239 
L 135.76244 40.177138 
L 136.650364 39.906917 
L 137.538287 39.628207 
L 138.426211 39.341553 
L 139.314134 39.047408 
L 140.202058 38.746149 
L 141.089981 38.438122 
L 141.977905 38.123703 
L 142.865829 37.803378 
L 143.753752 37.477822 
L 144.641676 37.147981 
L 145.529599 36.815125 
L 146.417523 36.48088 
L 147.305446 36.147221 
L 148.19337 35.816418 
L 149.081293 35.490942 
L 149.969217 35.173327 
L 150.85714 34.866013 
L 151.745064 34.571158 
L 152.632987 34.290461 
L 153.520911 34.025005 
L 154.408834 33.775128 
L 155.296758 33.540361 
L 156.184681 33.319415 
L 157.072605 33.110252 
L 157.960528 32.910214 
L 158.848452 32.716219 
L 159.736375 32.524999 
L 160.624299 32.333366 
L 161.512222 32.138481 
L 162.400146 31.938108 
L 163.288069 31.730819 
L 164.175993 31.516146 
L 165.063916 31.294657 
L 165.95184 31.067956 
L 166.839763 30.838605 
L 167.727687 30.609977 
L 168.61561 30.386054 
L 169.503534 30.171188 
L 170.391457 29.969852 
L 171.279381 29.786387 
L 172.167304 29.624781 
L 173.055228 29.488487 
L 173.943151 29.380294 
L 174.831075 29.302253 
L 175.718998 29.255664 
L 176.606922 29.241116 
L 177.494845 29.258576 
L 178.382769 29.307505 
L 179.270692 29.386998 
L 180.158616 29.495933 
L 181.046539 29.633111 
L 181.934463 29.797374 
L 182.822386 29.987706 
L 183.71031 30.203291 
L 184.598233 30.44354 
L 185.486157 30.708076 
L 186.37408 30.996695 
L 187.262004 31.309279 
L 188.149927 31.645709 
L 189.037851 32.005743 
L 189.925774 32.388905 
L 190.813698 32.794369 
L 191.701621 33.22087 
L 192.589545 33.666629 
L 193.477468 34.129317 
L 194.365392 34.606056 
L 195.253315 35.093453 
L 196.141239 35.587685 
L 197.029162 36.084606 
L 197.917086 36.579889 
L 198.805009 37.069186 
L 199.692933 37.548293 
L 200.580856 38.013314 
L 201.46878 38.460809 
L 202.356703 38.88791 
L 203.244627 39.292415 
L 204.13255 39.672828 
L 205.020474 40.028373 
L 205.908397 40.358951 
L 206.796321 40.66508 
L 207.684244 40.947787 
L 208.572168 41.208492 
L 209.460091 41.448882 
L 210.348015 41.670776 
L 211.235938 41.87601 
L 212.123862 42.06633 
" clip-path="url(#p6eb1880213)" style="fill: none; stroke: #595959; stroke-linecap: square"/>
   </g>
   <g id="line2d_30">
    <path d="M 124.219435 43.944843 
L 125.107358 43.944843 
L 125.995282 43.944843 
L 126.883205 43.944843 
L 127.771129 43.944843 
L 128.659052 43.944843 
L 129.546976 43.944843 
L 130.434899 43.944843 
L 131.322823 43.944843 
L 132.210746 43.944843 
L 133.09867 43.944843 
L 133.986593 43.944843 
L 134.874517 43.944843 
L 135.76244 43.944843 
L 136.650364 43.944843 
L 137.538287 43.944842 
L 138.426211 43.944842 
L 139.314134 43.944838 
L 140.202058 43.944823 
L 141.089981 43.944772 
L 141.977905 43.944605 
L 142.865829 43.944104 
L 143.753752 43.942719 
L 144.641676 43.939198 
L 145.529599 43.930972 
L 146.417523 43.913319 
L 147.305446 43.878571 
L 148.19337 43.815915 
L 149.081293 43.71259 
L 149.969217 43.557004 
L 150.85714 43.343354 
L 151.745064 43.075731 
L 152.632987 42.768473 
L 153.520911 42.439926 
L 154.408834 42.09958 
L 155.296758 41.732823 
L 156.184681 41.290841 
L 157.072605 40.692797 
L 157.960528 39.842656 
L 158.848452 38.656092 
L 159.736375 37.087665 
L 160.624299 35.147625 
L 161.512222 32.901864 
L 162.400146 30.455141 
L 163.288069 27.923913 
L 164.175993 25.408353 
L 165.063916 22.972967 
L 165.95184 20.642254 
L 166.839763 18.41325 
L 167.727687 16.281168 
L 168.61561 14.268422 
L 169.503534 12.442924 
L 170.391457 10.912372 
L 171.279381 9.79016 
L 172.167304 9.143725 
L 173.055228 8.949754 
L 173.943151 9.082798 
L 174.831075 9.350274 
L 175.718998 9.563921 
L 176.606922 9.61836 
L 177.494845 9.542613 
L 178.382769 9.50192 
L 179.270692 9.748003 
L 180.158616 10.536111 
L 181.046539 12.039237 
L 181.934463 14.290257 
L 182.822386 17.17158 
L 183.71031 20.453172 
L 184.598233 23.861218 
L 185.486157 27.14951 
L 186.37408 30.148374 
L 187.262004 32.778903 
L 188.149927 35.036186 
L 189.037851 36.956237 
L 189.925774 38.583735 
L 190.813698 39.95243 
L 191.701621 41.081188 
L 192.589545 41.981098 
L 193.477468 42.665679 
L 194.365392 43.157555 
L 195.253315 43.488956 
L 196.141239 43.697309 
L 197.029162 43.819148 
L 197.917086 43.885278 
L 198.805009 43.918544 
L 199.692933 43.93404 
L 200.580856 43.940718 
L 201.46878 43.94338 
L 202.356703 43.944362 
L 203.244627 43.944696 
L 204.13255 43.944801 
L 205.020474 43.944832 
L 205.908397 43.94484 
L 206.796321 43.944842 
L 207.684244 43.944843 
L 208.572168 43.944843 
L 209.460091 43.944843 
L 210.348015 43.944843 
L 211.235938 43.944843 
L 212.123862 43.944843 
" clip-path="url(#p6eb1880213)" style="fill: none; stroke-dasharray: 3.7,1.6; stroke-dashoffset: 0; stroke: #1f77b4"/>
   </g>
   <g id="patch_6">
    <path d="M 119.71772 45.694597 
L 119.71772 7.2 
" style="fill: none; stroke: #000000; stroke-width: 0.5; stroke-linejoin: miter; stroke-linecap: square"/>
   </g>
   <g id="patch_7">
    <path d="M 119.71772 45.694597 
L 218.755441 45.694597 
" style="fill: none; stroke: #000000; stroke-width: 0.5; stroke-linejoin: miter; stroke-linecap: square"/>
   </g>
   <g id="line2d_31">
    <path d="M 141.755699 43.659515 
L 142.488002 43.60325 
L 143.220305 43.537389 
L 143.952609 43.460611 
L 144.684912 43.371476 
L 145.417215 43.268422 
L 146.149519 43.149771 
L 146.881822 43.013735 
L 147.614125 42.858421 
L 148.346429 42.681847 
L 149.078732 42.481958 
L 149.811035 42.256646 
L 150.543338 42.003775 
L 151.275642 41.721208 
L 152.007945 41.406848 
L 152.740248 41.058666 
L 153.472552 40.674752 
L 154.204855 40.253354 
L 154.937158 39.792931 
L 155.669462 39.292202 
L 156.401765 38.750201 
L 157.134068 38.166323 
L 157.866372 37.540386 
L 158.598675 36.87267 
L 159.330978 36.163973 
L 160.063281 35.415643 
L 160.795585 34.629621 
L 161.527888 33.808463 
L 162.260191 32.955356 
L 162.992495 32.074133 
L 163.724798 31.169258 
L 164.457101 30.245817 
L 165.189405 29.309484 
L 165.921708 28.366479 
L 166.654011 27.423509 
L 167.386315 26.487699 
L 168.118618 25.566512 
L 168.850921 24.667653 
L 169.583224 23.798966 
L 170.315528 22.968324 
L 171.047831 22.183511 
L 171.780134 21.452105 
L 172.512438 20.781355 
L 173.244741 20.178061 
L 173.977044 19.648461 
L 174.709348 19.198123 
L 175.441651 18.831851 
L 176.173954 18.553594 
L 176.906257 18.366378 
L 177.638561 18.272253 
L 178.370864 18.272253 
L 179.103167 18.366378 
L 179.835471 18.553594 
L 180.567774 18.831851 
L 181.300077 19.198123 
L 182.032381 19.648461 
L 182.764684 20.178061 
L 183.496987 20.781355 
L 184.229291 21.452105 
L 184.961594 22.183511 
L 185.693897 22.968324 
L 186.4262 23.798966 
L 187.158504 24.667653 
L 187.890807 25.566512 
L 188.62311 26.487699 
L 189.355414 27.423509 
L 190.087717 28.366479 
L 190.82002 29.309484 
L 191.552324 30.245817 
L 192.284627 31.169258 
L 193.01693 32.074133 
L 193.749234 32.955356 
L 194.481537 33.808463 
L 195.21384 34.629621 
L 195.946143 35.415643 
L 196.678447 36.163973 
L 197.41075 36.87267 
L 198.143053 37.540386 
L 198.875357 38.166323 
L 199.60766 38.750201 
L 200.339963 39.292202 
L 201.072267 39.792931 
L 201.80457 40.253354 
L 202.536873 40.674752 
L 203.269177 41.058666 
L 204.00148 41.406848 
L 204.733783 41.721208 
L 205.466086 42.003775 
L 206.19839 42.256646 
L 206.930693 42.481958 
L 207.662996 42.681847 
L 208.3953 42.858421 
L 209.127603 43.013735 
L 209.859906 43.149771 
L 210.59221 43.268422 
L 211.324513 43.371476 
L 212.056816 43.460611 
L 212.789119 43.537389 
L 213.521423 43.60325 
L 214.253726 43.659515 
" clip-path="url(#p6eb1880213)" style="fill: none; stroke: #000000; stroke-linecap: square"/>
   </g>
   <g id="line2d_32">
    <path d="M 178.004712 45.694597 
L 178.004712 7.2 
" clip-path="url(#p6eb1880213)" style="fill: none; stroke: #000000; stroke-linecap: square"/>
   </g>
  </g>
  <g id="axes_3">
   <g id="patch_8">
    <path d="M 10.7 112.269194 
L 109.73772 112.269194 
L 109.73772 73.774597 
L 10.7 73.774597 
z
" style="fill: #ffffff"/>
   </g>
   <g id="matplotlib.axis_5">
    <g id="xtick_8">
     <g id="line2d_33">
      <path d="M 31.525928 112.269194 
L 31.525928 73.774597 
" clip-path="url(#p05f402ecac)" style="fill: none; stroke: #d3d3d3; stroke-width: 0.5; stroke-linecap: square"/>
     </g>
     <g id="line2d_34">
      <g>
       <use xlink:href="#md7122041da" x="31.525928" y="112.269194" style="stroke: #000000; stroke-width: 0.8"/>
      </g>
     </g>
     <g id="text_10">
      <!-- 500 -->
      <g transform="translate(25.799678 122.828257) scale(0.06 -0.06)">
       <use xlink:href="#DejaVuSerif-35"/>
       <use xlink:href="#DejaVuSerif-30" x="63.623047"/>
       <use xlink:href="#DejaVuSerif-30" x="127.246094"/>
      </g>
     </g>
    </g>
    <g id="xtick_9">
     <g id="line2d_35">
      <path d="M 55.606545 112.269194 
L 55.606545 73.774597 
" clip-path="url(#p05f402ecac)" style="fill: none; stroke: #d3d3d3; stroke-width: 0.5; stroke-linecap: square"/>
     </g>
     <g id="line2d_36">
      <g>
       <use xlink:href="#md7122041da" x="55.606545" y="112.269194" style="stroke: #000000; stroke-width: 0.8"/>
      </g>
     </g>
     <g id="text_11">
      <!-- 600 -->
      <g transform="translate(49.880295 122.828257) scale(0.06 -0.06)">
       <defs>
        <path id="DejaVuSerif-36" d="M 2094 219 
Q 2534 219 2771 542 
Q 3009 866 3009 1472 
Q 3009 2078 2771 2401 
Q 2534 2725 2094 2725 
Q 1647 2725 1412 2412 
Q 1178 2100 1178 1509 
Q 1178 888 1415 553 
Q 1653 219 2094 219 
z
M 1075 2569 
Q 1288 2803 1556 2918 
Q 1825 3034 2163 3034 
Q 2859 3034 3264 2615 
Q 3669 2197 3669 1472 
Q 3669 763 3233 336 
Q 2797 -91 2069 -91 
Q 1278 -91 853 498 
Q 428 1088 428 2181 
Q 428 3406 931 4078 
Q 1434 4750 2350 4750 
Q 2597 4750 2869 4703 
Q 3141 4656 3425 4563 
L 3425 3794 
L 3072 3794 
Q 3034 4109 2831 4275 
Q 2628 4441 2284 4441 
Q 1678 4441 1381 3981 
Q 1084 3522 1075 2569 
z
" transform="scale(0.015625)"/>
       </defs>
       <use xlink:href="#DejaVuSerif-36"/>
       <use xlink:href="#DejaVuSerif-30" x="63.623047"/>
       <use xlink:href="#DejaVuSerif-30" x="127.246094"/>
      </g>
     </g>
    </g>
    <g id="xtick_10">
     <g id="line2d_37">
      <path d="M 79.687162 112.269194 
L 79.687162 73.774597 
" clip-path="url(#p05f402ecac)" style="fill: none; stroke: #d3d3d3; stroke-width: 0.5; stroke-linecap: square"/>
     </g>
     <g id="line2d_38">
      <g>
       <use xlink:href="#md7122041da" x="79.687162" y="112.269194" style="stroke: #000000; stroke-width: 0.8"/>
      </g>
     </g>
     <g id="text_12">
      <!-- 700 -->
      <g transform="translate(73.960912 122.828257) scale(0.06 -0.06)">
       <use xlink:href="#DejaVuSerif-37"/>
       <use xlink:href="#DejaVuSerif-30" x="63.623047"/>
       <use xlink:href="#DejaVuSerif-30" x="127.246094"/>
      </g>
     </g>
    </g>
    <g id="xtick_11">
     <g id="line2d_39">
      <path d="M 103.767778 112.269194 
L 103.767778 73.774597 
" clip-path="url(#p05f402ecac)" style="fill: none; stroke: #d3d3d3; stroke-width: 0.5; stroke-linecap: square"/>
     </g>
     <g id="line2d_40">
      <g>
       <use xlink:href="#md7122041da" x="103.767778" y="112.269194" style="stroke: #000000; stroke-width: 0.8"/>
      </g>
     </g>
     <g id="text_13">
      <!-- 800 -->
      <g transform="translate(98.041528 122.828257) scale(0.06 -0.06)">
       <use xlink:href="#DejaVuSerif-38"/>
       <use xlink:href="#DejaVuSerif-30" x="63.623047"/>
       <use xlink:href="#DejaVuSerif-30" x="127.246094"/>
      </g>
     </g>
    </g>
    <g id="text_14">
     <!-- Cloud base height [m] -->
     <g transform="translate(26.509173 132.635132) scale(0.06 -0.06)">
      <defs>
       <path id="DejaVuSerif-62" d="M 738 331 
L 738 4531 
L 184 4531 
L 184 4863 
L 1313 4863 
L 1313 2803 
Q 1481 3116 1742 3264 
Q 2003 3413 2388 3413 
Q 3000 3413 3387 2928 
Q 3775 2444 3775 1663 
Q 3775 881 3387 395 
Q 3000 -91 2388 -91 
Q 2003 -91 1742 57 
Q 1481 206 1313 519 
L 1313 0 
L 184 0 
L 184 331 
L 738 331 
z
M 1313 1497 
Q 1313 897 1542 583 
Q 1772 269 2209 269 
Q 2650 269 2876 622 
Q 3103 975 3103 1663 
Q 3103 2353 2876 2703 
Q 2650 3053 2209 3053 
Q 1772 3053 1542 2737 
Q 1313 2422 1313 1825 
L 1313 1497 
z
" transform="scale(0.015625)"/>
       <path id="DejaVuSerif-73" d="M 359 184 
L 359 959 
L 691 959 
Q 703 588 923 403 
Q 1144 219 1575 219 
Q 1963 219 2166 364 
Q 2369 509 2369 788 
Q 2369 1006 2220 1140 
Q 2072 1275 1594 1428 
L 1178 1569 
Q 750 1706 558 1912 
Q 366 2119 366 2438 
Q 366 2894 700 3153 
Q 1034 3413 1625 3413 
Q 1888 3413 2178 3344 
Q 2469 3275 2778 3144 
L 2778 2419 
L 2447 2419 
Q 2434 2741 2221 2922 
Q 2009 3103 1644 3103 
Q 1281 3103 1095 2975 
Q 909 2847 909 2591 
Q 909 2381 1050 2254 
Q 1191 2128 1613 1997 
L 2069 1856 
Q 2541 1709 2748 1489 
Q 2956 1269 2956 922 
Q 2956 450 2595 179 
Q 2234 -91 1600 -91 
Q 1278 -91 972 -22 
Q 666 47 359 184 
z
" transform="scale(0.015625)"/>
      </defs>
      <use xlink:href="#DejaVuSerif-43"/>
      <use xlink:href="#DejaVuSerif-6c" x="76.513672"/>
      <use xlink:href="#DejaVuSerif-6f" x="108.496094"/>
      <use xlink:href="#DejaVuSerif-75" x="168.701172"/>
      <use xlink:href="#DejaVuSerif-64" x="233.105469"/>
      <use xlink:href="#DejaVuSerif-20" x="297.119141"/>
      <use xlink:href="#DejaVuSerif-62" x="328.90625"/>
      <use xlink:href="#DejaVuSerif-61" x="392.919922"/>
      <use xlink:href="#DejaVuSerif-73" x="452.539062"/>
      <use xlink:href="#DejaVuSerif-65" x="503.857422"/>
      <use xlink:href="#DejaVuSerif-20" x="563.037109"/>
      <use xlink:href="#DejaVuSerif-68" x="594.824219"/>
      <use xlink:href="#DejaVuSerif-65" x="659.228516"/>
      <use xlink:href="#DejaVuSerif-69" x="718.408203"/>
      <use xlink:href="#DejaVuSerif-67" x="750.390625"/>
      <use xlink:href="#DejaVuSerif-68" x="814.404297"/>
      <use xlink:href="#DejaVuSerif-74" x="878.808594"/>
      <use xlink:href="#DejaVuSerif-20" x="918.994141"/>
      <use xlink:href="#DejaVuSerif-5b" x="950.78125"/>
      <use xlink:href="#DejaVuSerif-6d" x="989.794922"/>
      <use xlink:href="#DejaVuSerif-5d" x="1084.619141"/>
     </g>
    </g>
   </g>
   <g id="matplotlib.axis_6">
    <g id="ytick_6">
     <g id="line2d_41">
      <path d="M 10.7 110.51944 
L 109.73772 110.51944 
" clip-path="url(#p05f402ecac)" style="fill: none; stroke: #d3d3d3; stroke-width: 0.5; stroke-linecap: square"/>
     </g>
     <g id="line2d_42">
      <g>
       <use xlink:href="#m149eea6fb2" x="10.7" y="110.51944" style="stroke: #000000; stroke-width: 0.8"/>
      </g>
     </g>
    </g>
    <g id="ytick_7">
     <g id="line2d_43">
      <path d="M 10.7 88.54182 
L 109.73772 88.54182 
" clip-path="url(#p05f402ecac)" style="fill: none; stroke: #d3d3d3; stroke-width: 0.5; stroke-linecap: square"/>
     </g>
     <g id="line2d_44">
      <g>
       <use xlink:href="#m149eea6fb2" x="10.7" y="88.54182" style="stroke: #000000; stroke-width: 0.8"/>
      </g>
     </g>
    </g>
   </g>
   <g id="line2d_45">
    <path d="M 15.201715 109.755265 
L 16.111152 109.684982 
L 17.020589 109.611516 
L 17.930026 109.53466 
L 18.839464 109.45415 
L 19.748901 109.369687 
L 20.658338 109.280953 
L 21.567776 109.187644 
L 22.477213 109.089489 
L 23.38665 108.986283 
L 24.296087 108.877906 
L 25.205525 108.764344 
L 26.114962 108.645695 
L 27.024399 108.522172 
L 27.933837 108.394101 
L 28.843274 108.261902 
L 29.752711 108.126073 
L 30.662148 107.987166 
L 31.571586 107.845762 
L 32.481023 107.70245 
L 33.39046 107.557813 
L 34.299898 107.412414 
L 35.209335 107.266798 
L 36.118772 107.121499 
L 37.028209 106.977058 
L 37.937647 106.834044 
L 38.847084 106.693083 
L 39.756521 106.554882 
L 40.665959 106.420254 
L 41.575396 106.290129 
L 42.484833 106.165564 
L 43.39427 106.047725 
L 44.303708 105.93787 
L 45.213145 105.837306 
L 46.122582 105.747342 
L 47.03202 105.669226 
L 47.941457 105.604088 
L 48.850894 105.552868 
L 49.760331 105.516267 
L 50.669769 105.494696 
L 51.579206 105.488244 
L 52.488643 105.496665 
L 53.398081 105.519382 
L 54.307518 105.555508 
L 55.216955 105.60389 
L 56.126392 105.663154 
L 57.03583 105.731778 
L 57.945267 105.808149 
L 58.854704 105.89064 
L 59.764142 105.977664 
L 60.673579 106.067734 
L 61.583016 106.159506 
L 62.492453 106.251807 
L 63.401891 106.343654 
L 64.311328 106.434261 
L 65.220765 106.523032 
L 66.130203 106.609547 
L 67.03964 106.693547 
L 67.949077 106.774911 
L 68.858514 106.853634 
L 69.767952 106.929812 
L 70.677389 107.003626 
L 71.586826 107.075334 
L 72.496264 107.145262 
L 73.405701 107.213807 
L 74.315138 107.281435 
L 75.224575 107.348679 
L 76.134013 107.416139 
L 77.04345 107.484476 
L 77.952887 107.554397 
L 78.862325 107.626637 
L 79.771762 107.701932 
L 80.681199 107.780984 
L 81.590636 107.864425 
L 82.500074 107.952772 
L 83.409511 108.04639 
L 84.318948 108.145451 
L 85.228386 108.249906 
L 86.137823 108.359465 
L 87.04726 108.473589 
L 87.956697 108.591499 
L 88.866135 108.712199 
L 89.775572 108.834509 
L 90.685009 108.95712 
L 91.594446 109.078648 
L 92.503884 109.197697 
L 93.413321 109.312929 
L 94.322758 109.423118 
L 95.232196 109.527211 
L 96.141633 109.624367 
L 97.05107 109.713985 
L 97.960507 109.795724 
L 98.869945 109.869495 
L 99.779382 109.935449 
L 100.688819 109.99395 
L 101.598257 110.045532 
L 102.507694 110.090861 
L 103.417131 110.130681 
L 104.326568 110.165768 
L 105.236006 110.196893 
" clip-path="url(#p05f402ecac)" style="fill: none; stroke: #595959; stroke-linecap: square"/>
   </g>
   <g id="line2d_46">
    <path d="M 15.201715 110.51944 
L 16.111152 110.51944 
L 17.020589 110.51944 
L 17.930026 110.51944 
L 18.839464 110.51944 
L 19.748901 110.51944 
L 20.658338 110.51944 
L 21.567776 110.51944 
L 22.477213 110.51944 
L 23.38665 110.51944 
L 24.296087 110.51944 
L 25.205525 110.51944 
L 26.114962 110.51944 
L 27.024399 110.51944 
L 27.933837 110.51944 
L 28.843274 110.51944 
L 29.752711 110.51944 
L 30.662148 110.51944 
L 31.571586 110.51944 
L 32.481023 110.51944 
L 33.39046 110.51944 
L 34.299898 110.51944 
L 35.209335 110.51944 
L 36.118772 110.51944 
L 37.028209 110.51944 
L 37.937647 110.51944 
L 38.847084 110.51944 
L 39.756521 110.51944 
L 40.665959 110.51944 
L 41.575396 110.51944 
L 42.484833 110.51944 
L 43.39427 110.51944 
L 44.303708 110.51944 
L 45.213145 110.519429 
L 46.122582 110.519164 
L 47.03202 110.515367 
L 47.941457 110.483507 
L 48.850894 110.329811 
L 49.760331 109.920744 
L 50.669769 109.387809 
L 51.579206 109.22703 
L 52.488643 109.521269 
L 53.398081 109.415569 
L 54.307518 107.728336 
L 55.216955 104.058075 
L 56.126392 99.665229 
L 57.03583 96.229525 
L 57.945267 93.317065 
L 58.854704 88.837126 
L 59.764142 82.642692 
L 60.673579 77.417783 
L 61.583016 75.524352 
L 62.492453 77.512096 
L 63.401891 82.097055 
L 64.311328 87.658568 
L 65.220765 94.086514 
L 66.130203 100.863851 
L 67.03964 106.225557 
L 67.949077 109.163908 
L 68.858514 110.232076 
L 69.767952 110.480177 
L 70.677389 110.51607 
L 71.586826 110.519261 
L 72.496264 110.519434 
L 73.405701 110.51944 
L 74.315138 110.51944 
L 75.224575 110.51944 
L 76.134013 110.51944 
L 77.04345 110.51944 
L 77.952887 110.51944 
L 78.862325 110.51944 
L 79.771762 110.51944 
L 80.681199 110.51944 
L 81.590636 110.51944 
L 82.500074 110.51944 
L 83.409511 110.51944 
L 84.318948 110.51944 
L 85.228386 110.51944 
L 86.137823 110.51944 
L 87.04726 110.51944 
L 87.956697 110.51944 
L 88.866135 110.51944 
L 89.775572 110.51944 
L 90.685009 110.51944 
L 91.594446 110.51944 
L 92.503884 110.51944 
L 93.413321 110.51944 
L 94.322758 110.51944 
L 95.232196 110.51944 
L 96.141633 110.51944 
L 97.05107 110.51944 
L 97.960507 110.51944 
L 98.869945 110.51944 
L 99.779382 110.51944 
L 100.688819 110.51944 
L 101.598257 110.51944 
L 102.507694 110.51944 
L 103.417131 110.51944 
L 104.326568 110.51944 
L 105.236006 110.51944 
" clip-path="url(#p05f402ecac)" style="fill: none; stroke-dasharray: 3.7,1.6; stroke-dashoffset: 0; stroke: #1f77b4"/>
   </g>
   <g id="patch_9">
    <path d="M 10.7 112.269194 
L 10.7 73.774597 
" style="fill: none; stroke: #000000; stroke-width: 0.5; stroke-linejoin: miter; stroke-linecap: square"/>
   </g>
   <g id="patch_10">
    <path d="M 10.7 112.269194 
L 109.73772 112.269194 
" style="fill: none; stroke: #000000; stroke-width: 0.5; stroke-linejoin: miter; stroke-linecap: square"/>
   </g>
   <g id="line2d_47">
    <path d="M 21.893681 110.397688 
L 22.477453 110.373679 
L 23.061226 110.345576 
L 23.644998 110.312814 
L 24.228771 110.274779 
L 24.812543 110.230805 
L 25.396316 110.180176 
L 25.980088 110.122128 
L 26.563861 110.055854 
L 27.147634 109.980508 
L 27.731406 109.895214 
L 28.315179 109.799071 
L 28.898951 109.691169 
L 29.482724 109.570595 
L 30.066496 109.436455 
L 30.650269 109.287883 
L 31.234041 109.124063 
L 31.817814 108.944249 
L 32.401586 108.747782 
L 32.985359 108.534117 
L 33.569131 108.30284 
L 34.152904 108.053694 
L 34.736676 107.786601 
L 35.320449 107.501681 
L 35.904222 107.199274 
L 36.487994 106.879955 
L 37.071767 106.544552 
L 37.655539 106.194157 
L 38.239312 105.830129 
L 38.823084 105.454103 
L 39.406857 105.067985 
L 39.990629 104.673944 
L 40.574402 104.274403 
L 41.158174 103.872014 
L 41.741947 103.46964 
L 42.325719 103.070322 
L 42.909492 102.677244 
L 43.493264 102.293693 
L 44.077037 101.923016 
L 44.66081 101.568574 
L 45.244582 101.233687 
L 45.828355 100.92159 
L 46.412127 100.635375 
L 46.9959 100.377944 
L 47.579672 100.151959 
L 48.163445 99.959796 
L 48.747217 99.803504 
L 49.33099 99.684769 
L 49.914762 99.604883 
L 50.498535 99.564719 
L 51.082307 99.564719 
L 51.66608 99.604883 
L 52.249852 99.684769 
L 52.833625 99.803504 
L 53.417398 99.959796 
L 54.00117 100.151959 
L 54.584943 100.377944 
L 55.168715 100.635375 
L 55.752488 100.92159 
L 56.33626 101.233687 
L 56.920033 101.568574 
L 57.503805 101.923016 
L 58.087578 102.293693 
L 58.67135 102.677244 
L 59.255123 103.070322 
L 59.838895 103.46964 
L 60.422668 103.872014 
L 61.00644 104.274403 
L 61.590213 104.673944 
L 62.173986 105.067985 
L 62.757758 105.454103 
L 63.341531 105.830129 
L 63.925303 106.194157 
L 64.509076 106.544552 
L 65.092848 106.879955 
L 65.676621 107.199274 
L 66.260393 107.501681 
L 66.844166 107.786601 
L 67.427938 108.053694 
L 68.011711 108.30284 
L 68.595483 108.534117 
L 69.179256 108.747782 
L 69.763028 108.944249 
L 70.346801 109.124063 
L 70.930574 109.287883 
L 71.514346 109.436455 
L 72.098119 109.570595 
L 72.681891 109.691169 
L 73.265664 109.799071 
L 73.849436 109.895214 
L 74.433209 109.980508 
L 75.016981 110.055854 
L 75.600754 110.122128 
L 76.184526 110.180176 
L 76.768299 110.230805 
L 77.352071 110.274779 
L 77.935844 110.312814 
L 78.519616 110.345576 
L 79.103389 110.373679 
L 79.687162 110.397688 
" clip-path="url(#p05f402ecac)" style="fill: none; stroke: #000000; stroke-linecap: square"/>
   </g>
   <g id="line2d_48">
    <path d="M 50.790421 112.269194 
L 50.790421 73.774597 
" clip-path="url(#p05f402ecac)" style="fill: none; stroke: #000000; stroke-linecap: square"/>
   </g>
  </g>
  <g id="axes_4">
   <g id="patch_11">
    <path d="M 119.71772 112.269194 
L 218.755441 112.269194 
L 218.755441 73.774597 
L 119.71772 73.774597 
z
" style="fill: #ffffff"/>
   </g>
   <g id="matplotlib.axis_7">
    <g id="xtick_12">
     <g id="line2d_49">
      <path d="M 129.504195 112.269194 
L 129.504195 73.774597 
" clip-path="url(#p6817c5c62b)" style="fill: none; stroke: #d3d3d3; stroke-width: 0.5; stroke-linecap: square"/>
     </g>
     <g id="line2d_50">
      <g>
       <use xlink:href="#md7122041da" x="129.504195" y="112.269194" style="stroke: #000000; stroke-width: 0.8"/>
      </g>
     </g>
     <g id="text_15">
      <!-- −20 -->
      <g transform="translate(123.172789 122.828257) scale(0.06 -0.06)">
       <use xlink:href="#DejaVuSerif-2212"/>
       <use xlink:href="#DejaVuSerif-32" x="83.789062"/>
       <use xlink:href="#DejaVuSerif-30" x="147.412109"/>
      </g>
     </g>
    </g>
    <g id="xtick_13">
     <g id="line2d_51">
      <path d="M 151.215789 112.269194 
L 151.215789 73.774597 
" clip-path="url(#p6817c5c62b)" style="fill: none; stroke: #d3d3d3; stroke-width: 0.5; stroke-linecap: square"/>
     </g>
     <g id="line2d_52">
      <g>
       <use xlink:href="#md7122041da" x="151.215789" y="112.269194" style="stroke: #000000; stroke-width: 0.8"/>
      </g>
     </g>
     <g id="text_16">
      <!-- 0 -->
      <g transform="translate(149.307039 122.828257) scale(0.06 -0.06)">
       <use xlink:href="#DejaVuSerif-30"/>
      </g>
     </g>
    </g>
    <g id="xtick_14">
     <g id="line2d_53">
      <path d="M 172.927383 112.269194 
L 172.927383 73.774597 
" clip-path="url(#p6817c5c62b)" style="fill: none; stroke: #d3d3d3; stroke-width: 0.5; stroke-linecap: square"/>
     </g>
     <g id="line2d_54">
      <g>
       <use xlink:href="#md7122041da" x="172.927383" y="112.269194" style="stroke: #000000; stroke-width: 0.8"/>
      </g>
     </g>
     <g id="text_17">
      <!-- 20 -->
      <g transform="translate(169.109883 122.828257) scale(0.06 -0.06)">
       <use xlink:href="#DejaVuSerif-32"/>
       <use xlink:href="#DejaVuSerif-30" x="63.623047"/>
      </g>
     </g>
    </g>
    <g id="xtick_15">
     <g id="line2d_55">
      <path d="M 194.638977 112.269194 
L 194.638977 73.774597 
" clip-path="url(#p6817c5c62b)" style="fill: none; stroke: #d3d3d3; stroke-width: 0.5; stroke-linecap: square"/>
     </g>
     <g id="line2d_56">
      <g>
       <use xlink:href="#md7122041da" x="194.638977" y="112.269194" style="stroke: #000000; stroke-width: 0.8"/>
      </g>
     </g>
     <g id="text_18">
      <!-- 40 -->
      <g transform="translate(190.821477 122.828257) scale(0.06 -0.06)">
       <defs>
        <path id="DejaVuSerif-34" d="M 2234 1581 
L 2234 4063 
L 641 1581 
L 2234 1581 
z
M 3609 0 
L 1484 0 
L 1484 331 
L 2234 331 
L 2234 1247 
L 197 1247 
L 197 1588 
L 2241 4750 
L 2859 4750 
L 2859 1581 
L 3750 1581 
L 3750 1247 
L 2859 1247 
L 2859 331 
L 3609 331 
L 3609 0 
z
" transform="scale(0.015625)"/>
       </defs>
       <use xlink:href="#DejaVuSerif-34"/>
       <use xlink:href="#DejaVuSerif-30" x="63.623047"/>
      </g>
     </g>
    </g>
    <g id="xtick_16">
     <g id="line2d_57">
      <path d="M 216.350571 112.269194 
L 216.350571 73.774597 
" clip-path="url(#p6817c5c62b)" style="fill: none; stroke: #d3d3d3; stroke-width: 0.5; stroke-linecap: square"/>
     </g>
     <g id="line2d_58">
      <g>
       <use xlink:href="#md7122041da" x="216.350571" y="112.269194" style="stroke: #000000; stroke-width: 0.8"/>
      </g>
     </g>
     <g id="text_19">
      <!-- 60 -->
      <g transform="translate(212.533071 122.828257) scale(0.06 -0.06)">
       <use xlink:href="#DejaVuSerif-36"/>
       <use xlink:href="#DejaVuSerif-30" x="63.623047"/>
      </g>
     </g>
    </g>
    <g id="text_20">
     <!-- Cloud base rate [m/h] -->
     <g transform="translate(136.105799 132.635132) scale(0.06 -0.06)">
      <use xlink:href="#DejaVuSerif-43"/>
      <use xlink:href="#DejaVuSerif-6c" x="76.513672"/>
      <use xlink:href="#DejaVuSerif-6f" x="108.496094"/>
      <use xlink:href="#DejaVuSerif-75" x="168.701172"/>
      <use xlink:href="#DejaVuSerif-64" x="233.105469"/>
      <use xlink:href="#DejaVuSerif-20" x="297.119141"/>
      <use xlink:href="#DejaVuSerif-62" x="328.90625"/>
      <use xlink:href="#DejaVuSerif-61" x="392.919922"/>
      <use xlink:href="#DejaVuSerif-73" x="452.539062"/>
      <use xlink:href="#DejaVuSerif-65" x="503.857422"/>
      <use xlink:href="#DejaVuSerif-20" x="563.037109"/>
      <use xlink:href="#DejaVuSerif-72" x="594.824219"/>
      <use xlink:href="#DejaVuSerif-61" x="642.626953"/>
      <use xlink:href="#DejaVuSerif-74" x="702.246094"/>
      <use xlink:href="#DejaVuSerif-65" x="742.431641"/>
      <use xlink:href="#DejaVuSerif-20" x="801.611328"/>
      <use xlink:href="#DejaVuSerif-5b" x="833.398438"/>
      <use xlink:href="#DejaVuSerif-6d" x="872.412109"/>
      <use xlink:href="#DejaVuSerif-2f" x="967.236328"/>
      <use xlink:href="#DejaVuSerif-68" x="1000.927734"/>
      <use xlink:href="#DejaVuSerif-5d" x="1065.332031"/>
     </g>
    </g>
   </g>
   <g id="matplotlib.axis_8">
    <g id="ytick_8">
     <g id="line2d_59">
      <path d="M 119.71772 110.51944 
L 218.755441 110.51944 
" clip-path="url(#p6817c5c62b)" style="fill: none; stroke: #d3d3d3; stroke-width: 0.5; stroke-linecap: square"/>
     </g>
     <g id="line2d_60">
      <g>
       <use xlink:href="#m149eea6fb2" x="119.71772" y="110.51944" style="stroke: #000000; stroke-width: 0.8"/>
      </g>
     </g>
    </g>
    <g id="ytick_9">
     <g id="line2d_61">
      <path d="M 119.71772 94.958627 
L 218.755441 94.958627 
" clip-path="url(#p6817c5c62b)" style="fill: none; stroke: #d3d3d3; stroke-width: 0.5; stroke-linecap: square"/>
     </g>
     <g id="line2d_62">
      <g>
       <use xlink:href="#m149eea6fb2" x="119.71772" y="94.958627" style="stroke: #000000; stroke-width: 0.8"/>
      </g>
     </g>
    </g>
    <g id="ytick_10">
     <g id="line2d_63">
      <path d="M 119.71772 79.397814 
L 218.755441 79.397814 
" clip-path="url(#p6817c5c62b)" style="fill: none; stroke: #d3d3d3; stroke-width: 0.5; stroke-linecap: square"/>
     </g>
     <g id="line2d_64">
      <g>
       <use xlink:href="#m149eea6fb2" x="119.71772" y="79.397814" style="stroke: #000000; stroke-width: 0.8"/>
      </g>
     </g>
    </g>
   </g>
   <g id="line2d_65">
    <path d="M 124.219435 109.929192 
L 125.128872 109.877143 
L 126.038309 109.823228 
L 126.947747 109.767487 
L 127.857184 109.709932 
L 128.766621 109.650545 
L 129.676059 109.589272 
L 130.585496 109.52603 
L 131.494933 109.460701 
L 132.40437 109.393144 
L 133.313808 109.3232 
L 134.223245 109.250704 
L 135.132682 109.175496 
L 136.04212 109.097446 
L 136.951557 109.016464 
L 137.860994 108.932528 
L 138.770431 108.845697 
L 139.679869 108.756133 
L 140.589306 108.664112 
L 141.498743 108.570037 
L 142.408181 108.47444 
L 143.317618 108.377979 
L 144.227055 108.28143 
L 145.136492 108.185668 
L 146.04593 108.091648 
L 146.955367 108.000371 
L 147.864804 107.912854 
L 148.774242 107.830096 
L 149.683679 107.753037 
L 150.593116 107.682528 
L 151.502553 107.619294 
L 152.411991 107.563908 
L 153.321428 107.516768 
L 154.230865 107.478086 
L 155.140303 107.447879 
L 156.04974 107.425975 
L 156.959177 107.412026 
L 157.868614 107.405529 
L 158.778052 107.405861 
L 159.687489 107.412309 
L 160.596926 107.424116 
L 161.506364 107.440524 
L 162.415801 107.460816 
L 163.325238 107.484356 
L 164.234675 107.510621 
L 165.144113 107.539228 
L 166.05355 107.569942 
L 166.962987 107.602687 
L 167.872425 107.637526 
L 168.781862 107.674648 
L 169.691299 107.714327 
L 170.600736 107.75689 
L 171.510174 107.802669 
L 172.419611 107.851957 
L 173.329048 107.904965 
L 174.238486 107.961785 
L 175.147923 108.022364 
L 176.05736 108.08649 
L 176.966797 108.153788 
L 177.876235 108.223735 
L 178.785672 108.29568 
L 179.695109 108.368885 
L 180.604547 108.442565 
L 181.513984 108.515936 
L 182.423421 108.588264 
L 183.332858 108.65891 
L 184.242296 108.727369 
L 185.151733 108.793294 
L 186.06117 108.856514 
L 186.970608 108.917034 
L 187.880045 108.975025 
L 188.789482 109.030796 
L 189.698919 109.084764 
L 190.608357 109.13741 
L 191.517794 109.189233 
L 192.427231 109.240707 
L 193.336669 109.292241 
L 194.246106 109.344141 
L 195.155543 109.396587 
L 196.06498 109.449621 
L 196.974418 109.503141 
L 197.883855 109.556916 
L 198.793292 109.610602 
L 199.70273 109.663774 
L 200.612167 109.715954 
L 201.521604 109.766657 
L 202.431041 109.815416 
L 203.340479 109.861824 
L 204.249916 109.905558 
L 205.159353 109.946395 
L 206.068791 109.98423 
L 206.978228 110.019071 
L 207.887665 110.051036 
L 208.797102 110.080336 
L 209.70654 110.107258 
L 210.615977 110.132135 
L 211.525414 110.155329 
L 212.434852 110.177196 
L 213.344289 110.19807 
L 214.253726 110.218239 
" clip-path="url(#p6817c5c62b)" style="fill: none; stroke: #595959; stroke-linecap: square"/>
   </g>
   <g id="line2d_66">
    <path d="M 124.219435 110.51944 
L 125.128872 110.51944 
L 126.038309 110.51944 
L 126.947747 110.51944 
L 127.857184 110.51944 
L 128.766621 110.51944 
L 129.676059 110.51944 
L 130.585496 110.51944 
L 131.494933 110.51944 
L 132.40437 110.51944 
L 133.313808 110.51944 
L 134.223245 110.51944 
L 135.132682 110.51944 
L 136.04212 110.51944 
L 136.951557 110.51944 
L 137.860994 110.51944 
L 138.770431 110.51944 
L 139.679869 110.51944 
L 140.589306 110.519439 
L 141.498743 110.519309 
L 142.408181 110.51192 
L 143.317618 110.37711 
L 144.227055 109.54216 
L 145.136492 107.364668 
L 146.04593 103.5013 
L 146.955367 97.8549 
L 147.864804 92.165451 
L 148.774242 85.857619 
L 149.683679 77.46915 
L 150.593116 75.524352 
L 151.502553 86.195425 
L 152.411991 97.58426 
L 153.321428 103.579839 
L 154.230865 106.284879 
L 155.140303 108.614624 
L 156.04974 110.160463 
L 156.959177 110.496224 
L 157.868614 110.518951 
L 158.778052 110.519437 
L 159.687489 110.51944 
L 160.596926 110.51944 
L 161.506364 110.51944 
L 162.415801 110.51944 
L 163.325238 110.51944 
L 164.234675 110.51944 
L 165.144113 110.51944 
L 166.05355 110.51944 
L 166.962987 110.51944 
L 167.872425 110.51944 
L 168.781862 110.51944 
L 169.691299 110.51944 
L 170.600736 110.51944 
L 171.510174 110.51944 
L 172.419611 110.51944 
L 173.329048 110.51944 
L 174.238486 110.51944 
L 175.147923 110.51944 
L 176.05736 110.51944 
L 176.966797 110.51944 
L 177.876235 110.51944 
L 178.785672 110.51944 
L 179.695109 110.51944 
L 180.604547 110.51944 
L 181.513984 110.51944 
L 182.423421 110.51944 
L 183.332858 110.51944 
L 184.242296 110.51944 
L 185.151733 110.51944 
L 186.06117 110.51944 
L 186.970608 110.51944 
L 187.880045 110.51944 
L 188.789482 110.51944 
L 189.698919 110.51944 
L 190.608357 110.51944 
L 191.517794 110.51944 
L 192.427231 110.51944 
L 193.336669 110.51944 
L 194.246106 110.51944 
L 195.155543 110.51944 
L 196.06498 110.51944 
L 196.974418 110.51944 
L 197.883855 110.51944 
L 198.793292 110.51944 
L 199.70273 110.51944 
L 200.612167 110.51944 
L 201.521604 110.51944 
L 202.431041 110.51944 
L 203.340479 110.51944 
L 204.249916 110.51944 
L 205.159353 110.51944 
L 206.068791 110.51944 
L 206.978228 110.51944 
L 207.887665 110.51944 
L 208.797102 110.51944 
L 209.70654 110.51944 
L 210.615977 110.51944 
L 211.525414 110.51944 
L 212.434852 110.51944 
L 213.344289 110.51944 
L 214.253726 110.51944 
" clip-path="url(#p6817c5c62b)" style="fill: none; stroke-dasharray: 3.7,1.6; stroke-dashoffset: 0; stroke: #1f77b4"/>
   </g>
   <g id="patch_12">
    <path d="M 119.71772 112.269194 
L 119.71772 73.774597 
" style="fill: none; stroke: #000000; stroke-width: 0.5; stroke-linejoin: miter; stroke-linecap: square"/>
   </g>
   <g id="patch_13">
    <path d="M 119.71772 112.269194 
L 218.755441 112.269194 
" style="fill: none; stroke: #000000; stroke-width: 0.5; stroke-linejoin: miter; stroke-linecap: square"/>
   </g>
   <g id="line2d_67">
    <path d="M 142.531151 110.174624 
L 142.662737 110.106628 
L 142.794322 110.027035 
L 142.925908 109.93425 
L 143.057493 109.826531 
L 143.189079 109.701992 
L 143.320664 109.558604 
L 143.452249 109.394205 
L 143.583835 109.206509 
L 143.71542 108.993122 
L 143.847006 108.751558 
L 143.978591 108.47927 
L 144.110177 108.173677 
L 144.241762 107.832199 
L 144.373347 107.452297 
L 144.504933 107.031523 
L 144.636518 106.567566 
L 144.768104 106.05831 
L 144.899689 105.501893 
L 145.031274 104.896768 
L 145.16286 104.241764 
L 145.294445 103.536154 
L 145.426031 102.779714 
L 145.557616 101.972786 
L 145.689202 101.116332 
L 145.820787 100.211983 
L 145.952372 99.262083 
L 146.083958 98.26972 
L 146.215543 97.238749 
L 146.347129 96.173799 
L 146.478714 95.080266 
L 146.610299 93.964297 
L 146.741885 92.832747 
L 146.87347 91.693134 
L 147.005056 90.553563 
L 147.136641 89.422646 
L 147.268227 88.309401 
L 147.399812 87.223138 
L 147.531397 86.173338 
L 147.662983 85.169514 
L 147.794568 84.221076 
L 147.926154 83.337179 
L 148.057739 82.526583 
L 148.189324 81.797508 
L 148.32091 81.157491 
L 148.452495 80.613263 
L 148.584081 80.170626 
L 148.715666 79.834355 
L 148.847252 79.608106 
L 148.978837 79.494357 
L 149.110422 79.494357 
L 149.242008 79.608106 
L 149.373593 79.834355 
L 149.505179 80.170626 
L 149.636764 80.613263 
L 149.768349 81.157491 
L 149.899935 81.797508 
L 150.03152 82.526583 
L 150.163106 83.337179 
L 150.294691 84.221076 
L 150.426277 85.169514 
L 150.557862 86.173338 
L 150.689447 87.223138 
L 150.821033 88.309401 
L 150.952618 89.422646 
L 151.084204 90.553563 
L 151.215789 91.693134 
L 151.347375 92.832747 
L 151.47896 93.964297 
L 151.610545 95.080266 
L 151.742131 96.173799 
L 151.873716 97.238749 
L 152.005302 98.26972 
L 152.136887 99.262083 
L 152.268472 100.211983 
L 152.400058 101.116332 
L 152.531643 101.972786 
L 152.663229 102.779714 
L 152.794814 103.536154 
L 152.9264 104.241764 
L 153.057985 104.896768 
L 153.18957 105.501893 
L 153.321156 106.05831 
L 153.452741 106.567566 
L 153.584327 107.031523 
L 153.715912 107.452297 
L 153.847497 107.832199 
L 153.979083 108.173677 
L 154.110668 108.47927 
L 154.242254 108.751558 
L 154.373839 108.993122 
L 154.505425 109.206509 
L 154.63701 109.394205 
L 154.768595 109.558604 
L 154.900181 109.701992 
L 155.031766 109.826531 
L 155.163352 109.93425 
L 155.294937 110.027035 
L 155.426522 110.106628 
L 155.558108 110.174624 
" clip-path="url(#p6817c5c62b)" style="fill: none; stroke: #000000; stroke-linecap: square"/>
   </g>
   <g id="line2d_68">
    <path d="M 149.04463 112.269194 
L 149.04463 73.774597 
" clip-path="url(#p6817c5c62b)" style="fill: none; stroke: #000000; stroke-linecap: square"/>
   </g>
  </g>
  <g id="legend_1">
   <g id="patch_14">
    <path d="M 21.613663 162.762944 
L 86.889913 162.762944 
Q 88.089913 162.762944 88.089913 161.562944 
L 88.089913 144.549194 
Q 88.089913 143.349194 86.889913 143.349194 
L 21.613663 143.349194 
Q 20.413663 143.349194 20.413663 144.549194 
L 20.413663 161.562944 
Q 20.413663 162.762944 21.613663 162.762944 
z
" style="fill: #ffffff; stroke: #ffffff; stroke-width: 0.75; stroke-linejoin: miter"/>
   </g>
   <g id="line2d_69">
    <path d="M 22.813663 148.208257 
L 28.813663 148.208257 
L 34.813663 148.208257 
" style="fill: none; stroke: #000000; stroke-linecap: square"/>
   </g>
   <g id="text_21">
    <!-- Data likelihood -->
    <g transform="translate(39.613663 150.308257) scale(0.06 -0.06)">
     <defs>
      <path id="DejaVuSerif-44" d="M 1581 331 
L 2163 331 
Q 3072 331 3558 850 
Q 4044 1369 4044 2338 
Q 4044 3306 3559 3818 
Q 3075 4331 2163 4331 
L 1581 4331 
L 1581 331 
z
M 353 0 
L 353 331 
L 947 331 
L 947 4331 
L 353 4331 
L 353 4666 
L 2209 4666 
Q 3416 4666 4089 4050 
Q 4763 3434 4763 2338 
Q 4763 1238 4088 619 
Q 3413 0 2209 0 
L 353 0 
z
" transform="scale(0.015625)"/>
      <path id="DejaVuSerif-6b" d="M 1831 0 
L 219 0 
L 219 331 
L 738 331 
L 738 4531 
L 184 4531 
L 184 4863 
L 1313 4863 
L 1313 1697 
L 2713 2988 
L 2234 2988 
L 2234 3322 
L 3738 3322 
L 3738 2988 
L 3169 2988 
L 2181 2075 
L 3444 331 
L 3922 331 
L 3922 0 
L 2284 0 
L 2284 331 
L 2759 331 
L 1766 1697 
L 1313 1275 
L 1313 331 
L 1831 331 
L 1831 0 
z
" transform="scale(0.015625)"/>
     </defs>
     <use xlink:href="#DejaVuSerif-44"/>
     <use xlink:href="#DejaVuSerif-61" x="80.175781"/>
     <use xlink:href="#DejaVuSerif-74" x="139.794922"/>
     <use xlink:href="#DejaVuSerif-61" x="179.980469"/>
     <use xlink:href="#DejaVuSerif-20" x="239.599609"/>
     <use xlink:href="#DejaVuSerif-6c" x="271.386719"/>
     <use xlink:href="#DejaVuSerif-69" x="303.369141"/>
     <use xlink:href="#DejaVuSerif-6b" x="335.351562"/>
     <use xlink:href="#DejaVuSerif-65" x="395.947266"/>
     <use xlink:href="#DejaVuSerif-6c" x="455.126953"/>
     <use xlink:href="#DejaVuSerif-69" x="487.109375"/>
     <use xlink:href="#DejaVuSerif-68" x="519.091797"/>
     <use xlink:href="#DejaVuSerif-6f" x="583.496094"/>
     <use xlink:href="#DejaVuSerif-6f" x="643.701172"/>
     <use xlink:href="#DejaVuSerif-64" x="703.90625"/>
    </g>
   </g>
   <g id="line2d_70">
    <path d="M 22.813663 157.015132 
L 28.813663 157.015132 
L 34.813663 157.015132 
" style="fill: none; stroke: #595959; stroke-linecap: square"/>
   </g>
   <g id="text_22">
    <!-- Prior -->
    <g transform="translate(39.613663 159.115132) scale(0.06 -0.06)">
     <defs>
      <path id="DejaVuSerif-50" d="M 1581 2375 
L 2406 2375 
Q 2872 2375 3115 2626 
Q 3359 2878 3359 3353 
Q 3359 3831 3115 4081 
Q 2872 4331 2406 4331 
L 1581 4331 
L 1581 2375 
z
M 353 0 
L 353 331 
L 947 331 
L 947 4331 
L 353 4331 
L 353 4666 
L 2559 4666 
Q 3259 4666 3668 4311 
Q 4078 3956 4078 3353 
Q 4078 2753 3668 2397 
Q 3259 2041 2559 2041 
L 1581 2041 
L 1581 331 
L 2303 331 
L 2303 0 
L 353 0 
z
" transform="scale(0.015625)"/>
     </defs>
     <use xlink:href="#DejaVuSerif-50"/>
     <use xlink:href="#DejaVuSerif-72" x="67.285156"/>
     <use xlink:href="#DejaVuSerif-69" x="115.087891"/>
     <use xlink:href="#DejaVuSerif-6f" x="147.070312"/>
     <use xlink:href="#DejaVuSerif-72" x="207.275391"/>
    </g>
   </g>
  </g>
  <g id="legend_2">
   <g id="patch_15">
    <path d="M 118.146032 153.956069 
L 222.444782 153.956069 
Q 223.644782 153.956069 223.644782 152.756069 
L 223.644782 144.549194 
Q 223.644782 143.349194 222.444782 143.349194 
L 118.146032 143.349194 
Q 116.946032 143.349194 116.946032 144.549194 
L 116.946032 152.756069 
Q 116.946032 153.956069 118.146032 153.956069 
z
" style="fill: #ffffff; stroke: #ffffff; stroke-width: 0.75; stroke-linejoin: miter"/>
   </g>
   <g id="line2d_71">
    <path d="M 119.346032 148.208257 
L 125.346032 148.208257 
L 131.346032 148.208257 
" style="fill: none; stroke-dasharray: 3.7,1.6; stroke-dashoffset: 0; stroke: #1f77b4"/>
   </g>
   <g id="text_23">
    <!-- Posterior (linear prediction) -->
    <g transform="translate(136.146032 150.308257) scale(0.06 -0.06)">
     <defs>
      <path id="DejaVuSerif-28" d="M 2041 -997 
Q 1281 -656 893 83 
Q 506 822 506 1931 
Q 506 3044 893 3783 
Q 1281 4522 2041 4863 
L 2041 4556 
Q 1559 4225 1350 3623 
Q 1141 3022 1141 1931 
Q 1141 844 1350 242 
Q 1559 -359 2041 -691 
L 2041 -997 
z
" transform="scale(0.015625)"/>
      <path id="DejaVuSerif-6e" d="M 263 0 
L 263 331 
L 781 331 
L 781 2988 
L 231 2988 
L 231 3322 
L 1356 3322 
L 1356 2731 
Q 1516 3069 1770 3241 
Q 2025 3413 2363 3413 
Q 2913 3413 3172 3097 
Q 3431 2781 3431 2113 
L 3431 331 
L 3944 331 
L 3944 0 
L 2356 0 
L 2356 331 
L 2853 331 
L 2853 1931 
Q 2853 2541 2703 2767 
Q 2553 2994 2175 2994 
Q 1775 2994 1565 2701 
Q 1356 2409 1356 1850 
L 1356 331 
L 1856 331 
L 1856 0 
L 263 0 
z
" transform="scale(0.015625)"/>
      <path id="DejaVuSerif-63" d="M 3291 997 
Q 3169 466 2822 187 
Q 2475 -91 1925 -91 
Q 1200 -91 759 389 
Q 319 869 319 1663 
Q 319 2459 759 2936 
Q 1200 3413 1925 3413 
Q 2241 3413 2553 3339 
Q 2866 3266 3181 3116 
L 3181 2266 
L 2847 2266 
Q 2781 2703 2561 2903 
Q 2341 3103 1931 3103 
Q 1466 3103 1228 2742 
Q 991 2381 991 1663 
Q 991 944 1227 581 
Q 1463 219 1931 219 
Q 2303 219 2525 412 
Q 2747 606 2828 997 
L 3291 997 
z
" transform="scale(0.015625)"/>
      <path id="DejaVuSerif-29" d="M 453 -997 
L 453 -691 
Q 934 -359 1145 242 
Q 1356 844 1356 1931 
Q 1356 3022 1145 3623 
Q 934 4225 453 4556 
L 453 4863 
Q 1216 4522 1603 3783 
Q 1991 3044 1991 1931 
Q 1991 822 1603 83 
Q 1216 -656 453 -997 
z
" transform="scale(0.015625)"/>
     </defs>
     <use xlink:href="#DejaVuSerif-50"/>
     <use xlink:href="#DejaVuSerif-6f" x="63.285156"/>
     <use xlink:href="#DejaVuSerif-73" x="123.490234"/>
     <use xlink:href="#DejaVuSerif-74" x="174.808594"/>
     <use xlink:href="#DejaVuSerif-65" x="214.994141"/>
     <use xlink:href="#DejaVuSerif-72" x="274.173828"/>
     <use xlink:href="#DejaVuSerif-69" x="321.976562"/>
     <use xlink:href="#DejaVuSerif-6f" x="353.958984"/>
     <use xlink:href="#DejaVuSerif-72" x="414.164062"/>
     <use xlink:href="#DejaVuSerif-20" x="461.966797"/>
     <use xlink:href="#DejaVuSerif-28" x="493.753906"/>
     <use xlink:href="#DejaVuSerif-6c" x="532.767578"/>
     <use xlink:href="#DejaVuSerif-69" x="564.75"/>
     <use xlink:href="#DejaVuSerif-6e" x="596.732422"/>
     <use xlink:href="#DejaVuSerif-65" x="661.136719"/>
     <use xlink:href="#DejaVuSerif-61" x="720.316406"/>
     <use xlink:href="#DejaVuSerif-72" x="779.935547"/>
     <use xlink:href="#DejaVuSerif-20" x="827.738281"/>
     <use xlink:href="#DejaVuSerif-70" x="859.525391"/>
     <use xlink:href="#DejaVuSerif-72" x="923.539062"/>
     <use xlink:href="#DejaVuSerif-65" x="971.341797"/>
     <use xlink:href="#DejaVuSerif-64" x="1030.521484"/>
     <use xlink:href="#DejaVuSerif-69" x="1094.535156"/>
     <use xlink:href="#DejaVuSerif-63" x="1126.517578"/>
     <use xlink:href="#DejaVuSerif-74" x="1182.523438"/>
     <use xlink:href="#DejaVuSerif-69" x="1222.708984"/>
     <use xlink:href="#DejaVuSerif-6f" x="1254.691406"/>
     <use xlink:href="#DejaVuSerif-6e" x="1314.896484"/>
     <use xlink:href="#DejaVuSerif-29" x="1379.300781"/>
    </g>
   </g>
  </g>
 </g>
 <defs>
  <clipPath id="p63a7d94e9f">
   <rect x="10.7" y="7.2" width="99.03772" height="38.494597"/>
  </clipPath>
  <clipPath id="p6eb1880213">
   <rect x="119.71772" y="7.2" width="99.03772" height="38.494597"/>
  </clipPath>
  <clipPath id="p05f402ecac">
   <rect x="10.7" y="73.774597" width="99.03772" height="38.494597"/>
  </clipPath>
  <clipPath id="p6817c5c62b">
   <rect x="119.71772" y="73.774597" width="99.03772" height="38.494597"/>
  </clipPath>
 </defs>
</svg>
