<?xml version="1.0" encoding="utf-8" standalone="no"?>
<!DOCTYPE svg PUBLIC "-//W3C//DTD SVG 1.1//EN"
  "http://www.w3.org/Graphics/SVG/1.1/DTD/svg11.dtd">
<svg xmlns:xlink="http://www.w3.org/1999/xlink" width="230.844782pt" height="169.962944pt" viewBox="0 0 230.844782 169.962944" xmlns="http://www.w3.org/2000/svg" version="1.1">
 <metadata>
  <rdf:RDF xmlns:dc="http://purl.org/dc/elements/1.1/" xmlns:cc="http://creativecommons.org/ns#" xmlns:rdf="http://www.w3.org/1999/02/22-rdf-syntax-ns#">
   <cc:Work>
    <dc:type rdf:resource="http://purl.org/dc/dcmitype/StillImage"/>
    <dc:date>2025-12-17T09:16:53.384546</dc:date>
    <dc:format>image/svg+xml</dc:format>
    <dc:creator>
     <cc:Agent>
      <dc:title>Matplotlib v3.7.0, https://matplotlib.org/</dc:title>
     </cc:Agent>
    </dc:creator>
   </cc:Work>
  </rdf:RDF>
 </metadata>
 <defs>
  <style type="text/css">*{stroke-linejoin: round; stroke-linecap: butt}</style>
 </defs>
 <g id="figure_1">
  <g id="patch_1">
   <path d="M 0 169.962944 
L 230.844782 169.962944 
L 230.844782 -0 
L 0 -0 
z
" style="fill: #ffffff"/>
  </g>
  <g id="axes_1">
   <g id="patch_2">
    <path d="M 10.7 45.694597 
L 109.73772 45.694597 
L 109.73772 7.2 
L 10.7 7.2 
z
" style="fill: #ffffff"/>
   </g>
   <g id="matplotlib.axis_1">
    <g id="xtick_1">
     <g id="line2d_1">
      <path d="M 30.18047 45.694597 
L 30.18047 7.2 
" clip-path="url(#p8728279a95)" style="fill: none; stroke: #d3d3d3; stroke-width: 0.5; stroke-linecap: square"/>
     </g>
     <g id="line2d_2">
      <defs>
       <path id="ma2fdc05242" d="M 0 0 
L 0 3.5 
" style="stroke: #000000; stroke-width: 0.8"/>
      </defs>
      <g>
       <use xlink:href="#ma2fdc05242" x="30.18047" y="45.694597" style="stroke: #000000; stroke-width: 0.8"/>
      </g>
     </g>
     <g id="text_1">
      <!-- 750 -->
      <g transform="translate(24.45422 56.25366) scale(0.06 -0.06)">
       <defs>
        <path id="DejaVuSerif-37" d="M 3609 4347 
L 1784 0 
L 1319 0 
L 3059 4153 
L 903 4153 
L 903 3578 
L 538 3578 
L 538 4666 
L 3609 4666 
L 3609 4347 
z
" transform="scale(0.015625)"/>
        <path id="DejaVuSerif-35" d="M 3219 4666 
L 3219 4153 
L 1081 4153 
L 1081 2816 
Q 1244 2928 1461 2984 
Q 1678 3041 1947 3041 
Q 2703 3041 3140 2622 
Q 3578 2203 3578 1478 
Q 3578 738 3136 323 
Q 2694 -91 1894 -91 
Q 1572 -91 1234 -12 
Q 897 66 544 225 
L 544 1131 
L 897 1131 
Q 925 688 1179 453 
Q 1434 219 1894 219 
Q 2388 219 2653 544 
Q 2919 869 2919 1478 
Q 2919 2084 2655 2407 
Q 2391 2731 1894 2731 
Q 1613 2731 1398 2631 
Q 1184 2531 1019 2322 
L 750 2322 
L 750 4666 
L 3219 4666 
z
" transform="scale(0.015625)"/>
        <path id="DejaVuSerif-30" d="M 2034 219 
Q 2513 219 2750 744 
Q 2988 1269 2988 2328 
Q 2988 3391 2750 3916 
Q 2513 4441 2034 4441 
Q 1556 4441 1318 3916 
Q 1081 3391 1081 2328 
Q 1081 1269 1318 744 
Q 1556 219 2034 219 
z
M 2034 -91 
Q 1275 -91 848 546 
Q 422 1184 422 2328 
Q 422 3475 848 4112 
Q 1275 4750 2034 4750 
Q 2797 4750 3222 4112 
Q 3647 3475 3647 2328 
Q 3647 1184 3222 546 
Q 2797 -91 2034 -91 
z
" transform="scale(0.015625)"/>
       </defs>
       <use xlink:href="#DejaVuSerif-37"/>
       <use xlink:href="#DejaVuSerif-35" x="63.623047"/>
       <use xlink:href="#DejaVuSerif-30" x="127.246094"/>
      </g>
     </g>
    </g>
    <g id="xtick_2">
     <g id="line2d_3">
      <path d="M 50.845436 45.694597 
L 50.845436 7.2 
" clip-path="url(#p8728279a95)" style="fill: none; stroke: #d3d3d3; stroke-width: 0.5; stroke-linecap: square"/>
     </g>
     <g id="line2d_4">
      <g>
       <use xlink:href="#ma2fdc05242" x="50.845436" y="45.694597" style="stroke: #000000; stroke-width: 0.8"/>
      </g>
     </g>
     <g id="text_2">
      <!-- 800 -->
      <g transform="translate(45.119186 56.25366) scale(0.06 -0.06)">
       <defs>
        <path id="DejaVuSerif-38" d="M 2981 1275 
Q 2981 1775 2732 2051 
Q 2484 2328 2034 2328 
Q 1584 2328 1336 2051 
Q 1088 1775 1088 1275 
Q 1088 772 1336 495 
Q 1584 219 2034 219 
Q 2484 219 2732 495 
Q 2981 772 2981 1275 
z
M 2853 3541 
Q 2853 3966 2637 4203 
Q 2422 4441 2034 4441 
Q 1650 4441 1433 4203 
Q 1216 3966 1216 3541 
Q 1216 3113 1433 2875 
Q 1650 2638 2034 2638 
Q 2422 2638 2637 2875 
Q 2853 3113 2853 3541 
z
M 2516 2484 
Q 3047 2413 3344 2092 
Q 3641 1772 3641 1275 
Q 3641 619 3225 264 
Q 2809 -91 2034 -91 
Q 1263 -91 845 264 
Q 428 619 428 1275 
Q 428 1772 725 2092 
Q 1022 2413 1556 2484 
Q 1084 2569 832 2842 
Q 581 3116 581 3541 
Q 581 4103 968 4426 
Q 1356 4750 2034 4750 
Q 2713 4750 3100 4426 
Q 3488 4103 3488 3541 
Q 3488 3116 3236 2842 
Q 2984 2569 2516 2484 
z
" transform="scale(0.015625)"/>
       </defs>
       <use xlink:href="#DejaVuSerif-38"/>
       <use xlink:href="#DejaVuSerif-30" x="63.623047"/>
       <use xlink:href="#DejaVuSerif-30" x="127.246094"/>
      </g>
     </g>
    </g>
    <g id="xtick_3">
     <g id="line2d_5">
      <path d="M 71.510403 45.694597 
L 71.510403 7.2 
" clip-path="url(#p8728279a95)" style="fill: none; stroke: #d3d3d3; stroke-width: 0.5; stroke-linecap: square"/>
     </g>
     <g id="line2d_6">
      <g>
       <use xlink:href="#ma2fdc05242" x="71.510403" y="45.694597" style="stroke: #000000; stroke-width: 0.8"/>
      </g>
     </g>
     <g id="text_3">
      <!-- 850 -->
      <g transform="translate(65.784153 56.25366) scale(0.06 -0.06)">
       <use xlink:href="#DejaVuSerif-38"/>
       <use xlink:href="#DejaVuSerif-35" x="63.623047"/>
       <use xlink:href="#DejaVuSerif-30" x="127.246094"/>
      </g>
     </g>
    </g>
    <g id="xtick_4">
     <g id="line2d_7">
      <path d="M 92.17537 45.694597 
L 92.17537 7.2 
" clip-path="url(#p8728279a95)" style="fill: none; stroke: #d3d3d3; stroke-width: 0.5; stroke-linecap: square"/>
     </g>
     <g id="line2d_8">
      <g>
       <use xlink:href="#ma2fdc05242" x="92.17537" y="45.694597" style="stroke: #000000; stroke-width: 0.8"/>
      </g>
     </g>
     <g id="text_4">
      <!-- 900 -->
      <g transform="translate(86.44912 56.25366) scale(0.06 -0.06)">
       <defs>
        <path id="DejaVuSerif-39" d="M 2994 2091 
Q 2784 1856 2512 1740 
Q 2241 1625 1900 1625 
Q 1206 1625 804 2044 
Q 403 2463 403 3188 
Q 403 3897 839 4323 
Q 1275 4750 2003 4750 
Q 2794 4750 3217 4161 
Q 3641 3572 3641 2478 
Q 3641 1253 3137 581 
Q 2634 -91 1722 -91 
Q 1475 -91 1203 -44 
Q 931 3 647 97 
L 647 872 
L 997 872 
Q 1038 556 1241 387 
Q 1444 219 1784 219 
Q 2391 219 2687 676 
Q 2984 1134 2994 2091 
z
M 1978 4441 
Q 1534 4441 1298 4117 
Q 1063 3794 1063 3188 
Q 1063 2581 1298 2256 
Q 1534 1931 1978 1931 
Q 2422 1931 2658 2245 
Q 2894 2559 2894 3150 
Q 2894 3772 2656 4106 
Q 2419 4441 1978 4441 
z
" transform="scale(0.015625)"/>
       </defs>
       <use xlink:href="#DejaVuSerif-39"/>
       <use xlink:href="#DejaVuSerif-30" x="63.623047"/>
       <use xlink:href="#DejaVuSerif-30" x="127.246094"/>
      </g>
     </g>
    </g>
    <g id="text_5">
     <!-- Cloud top height [m] -->
     <g transform="translate(28.601204 66.060535) scale(0.06 -0.06)">
      <defs>
       <path id="DejaVuSerif-43" d="M 4513 1234 
Q 4306 581 3820 245 
Q 3334 -91 2591 -91 
Q 2134 -91 1743 65 
Q 1353 222 1050 525 
Q 700 875 529 1320 
Q 359 1766 359 2328 
Q 359 3416 987 4083 
Q 1616 4750 2644 4750 
Q 3025 4750 3456 4650 
Q 3888 4550 4384 4347 
L 4384 3272 
L 4031 3272 
Q 3916 3859 3567 4137 
Q 3219 4416 2591 4416 
Q 1844 4416 1459 3886 
Q 1075 3356 1075 2328 
Q 1075 1303 1459 773 
Q 1844 244 2591 244 
Q 3113 244 3450 492 
Q 3788 741 3938 1234 
L 4513 1234 
z
" transform="scale(0.015625)"/>
       <path id="DejaVuSerif-6c" d="M 1313 331 
L 1856 331 
L 1856 0 
L 184 0 
L 184 331 
L 738 331 
L 738 4531 
L 184 4531 
L 184 4863 
L 1313 4863 
L 1313 331 
z
" transform="scale(0.015625)"/>
       <path id="DejaVuSerif-6f" d="M 1925 219 
Q 2388 219 2623 584 
Q 2859 950 2859 1663 
Q 2859 2375 2623 2739 
Q 2388 3103 1925 3103 
Q 1463 3103 1227 2739 
Q 991 2375 991 1663 
Q 991 950 1228 584 
Q 1466 219 1925 219 
z
M 1925 -91 
Q 1200 -91 759 389 
Q 319 869 319 1663 
Q 319 2456 758 2934 
Q 1197 3413 1925 3413 
Q 2653 3413 3092 2934 
Q 3531 2456 3531 1663 
Q 3531 869 3092 389 
Q 2653 -91 1925 -91 
z
" transform="scale(0.015625)"/>
       <path id="DejaVuSerif-75" d="M 2266 3322 
L 3341 3322 
L 3341 331 
L 3884 331 
L 3884 0 
L 2766 0 
L 2766 588 
Q 2606 256 2353 82 
Q 2100 -91 1766 -91 
Q 1213 -91 952 223 
Q 691 538 691 1209 
L 691 2988 
L 172 2988 
L 172 3322 
L 1269 3322 
L 1269 1388 
Q 1269 781 1417 556 
Q 1566 331 1947 331 
Q 2347 331 2556 625 
Q 2766 919 2766 1478 
L 2766 2988 
L 2266 2988 
L 2266 3322 
z
" transform="scale(0.015625)"/>
       <path id="DejaVuSerif-64" d="M 3359 331 
L 3909 331 
L 3909 0 
L 2784 0 
L 2784 519 
Q 2616 206 2355 57 
Q 2094 -91 1709 -91 
Q 1097 -91 708 395 
Q 319 881 319 1663 
Q 319 2444 706 2928 
Q 1094 3413 1709 3413 
Q 2094 3413 2355 3264 
Q 2616 3116 2784 2803 
L 2784 4531 
L 2241 4531 
L 2241 4863 
L 3359 4863 
L 3359 331 
z
M 2784 1497 
L 2784 1825 
Q 2784 2422 2554 2737 
Q 2325 3053 1888 3053 
Q 1444 3053 1217 2703 
Q 991 2353 991 1663 
Q 991 975 1217 622 
Q 1444 269 1888 269 
Q 2325 269 2554 583 
Q 2784 897 2784 1497 
z
" transform="scale(0.015625)"/>
       <path id="DejaVuSerif-20" transform="scale(0.015625)"/>
       <path id="DejaVuSerif-74" d="M 691 2988 
L 184 2988 
L 184 3322 
L 691 3322 
L 691 4353 
L 1269 4353 
L 1269 3322 
L 2350 3322 
L 2350 2988 
L 1269 2988 
L 1269 878 
Q 1269 456 1350 337 
Q 1431 219 1650 219 
Q 1875 219 1978 351 
Q 2081 484 2088 781 
L 2522 781 
Q 2497 328 2275 118 
Q 2053 -91 1600 -91 
Q 1103 -91 897 129 
Q 691 350 691 878 
L 691 2988 
z
" transform="scale(0.015625)"/>
       <path id="DejaVuSerif-70" d="M 1313 1825 
L 1313 1497 
Q 1313 897 1542 583 
Q 1772 269 2209 269 
Q 2650 269 2876 622 
Q 3103 975 3103 1663 
Q 3103 2353 2876 2703 
Q 2650 3053 2209 3053 
Q 1772 3053 1542 2737 
Q 1313 2422 1313 1825 
z
M 738 2988 
L 184 2988 
L 184 3322 
L 1313 3322 
L 1313 2803 
Q 1481 3116 1742 3264 
Q 2003 3413 2388 3413 
Q 3000 3413 3387 2928 
Q 3775 2444 3775 1663 
Q 3775 881 3387 395 
Q 3000 -91 2388 -91 
Q 2003 -91 1742 57 
Q 1481 206 1313 519 
L 1313 -997 
L 1856 -997 
L 1856 -1331 
L 184 -1331 
L 184 -997 
L 738 -997 
L 738 2988 
z
" transform="scale(0.015625)"/>
       <path id="DejaVuSerif-68" d="M 263 0 
L 263 331 
L 781 331 
L 781 4531 
L 231 4531 
L 231 4863 
L 1356 4863 
L 1356 2731 
Q 1516 3069 1770 3241 
Q 2025 3413 2363 3413 
Q 2913 3413 3172 3097 
Q 3431 2781 3431 2113 
L 3431 331 
L 3944 331 
L 3944 0 
L 2356 0 
L 2356 331 
L 2853 331 
L 2853 1931 
Q 2853 2541 2704 2764 
Q 2556 2988 2175 2988 
Q 1775 2988 1565 2697 
Q 1356 2406 1356 1850 
L 1356 331 
L 1856 331 
L 1856 0 
L 263 0 
z
" transform="scale(0.015625)"/>
       <path id="DejaVuSerif-65" d="M 3469 1600 
L 991 1600 
L 991 1575 
Q 991 903 1244 561 
Q 1497 219 1991 219 
Q 2369 219 2611 417 
Q 2853 616 2950 1006 
L 3413 1006 
Q 3275 459 2904 184 
Q 2534 -91 1931 -91 
Q 1203 -91 761 389 
Q 319 869 319 1663 
Q 319 2450 753 2931 
Q 1188 3413 1894 3413 
Q 2647 3413 3050 2948 
Q 3453 2484 3469 1600 
z
M 2791 1931 
Q 2772 2513 2545 2808 
Q 2319 3103 1894 3103 
Q 1497 3103 1269 2806 
Q 1041 2509 991 1931 
L 2791 1931 
z
" transform="scale(0.015625)"/>
       <path id="DejaVuSerif-69" d="M 622 4353 
Q 622 4497 726 4603 
Q 831 4709 978 4709 
Q 1122 4709 1226 4603 
Q 1331 4497 1331 4353 
Q 1331 4206 1228 4103 
Q 1125 4000 978 4000 
Q 831 4000 726 4103 
Q 622 4206 622 4353 
z
M 1356 331 
L 1900 331 
L 1900 0 
L 231 0 
L 231 331 
L 781 331 
L 781 2988 
L 231 2988 
L 231 3322 
L 1356 3322 
L 1356 331 
z
" transform="scale(0.015625)"/>
       <path id="DejaVuSerif-67" d="M 3359 2988 
L 3359 72 
Q 3359 -644 2965 -1033 
Q 2572 -1422 1844 -1422 
Q 1516 -1422 1216 -1362 
Q 916 -1303 641 -1184 
L 641 -488 
L 941 -488 
Q 997 -813 1206 -963 
Q 1416 -1113 1806 -1113 
Q 2313 -1113 2548 -827 
Q 2784 -541 2784 72 
L 2784 519 
Q 2616 206 2355 57 
Q 2094 -91 1709 -91 
Q 1097 -91 708 395 
Q 319 881 319 1663 
Q 319 2444 706 2928 
Q 1094 3413 1709 3413 
Q 2094 3413 2355 3264 
Q 2616 3116 2784 2803 
L 2784 3322 
L 3909 3322 
L 3909 2988 
L 3359 2988 
z
M 2784 1825 
Q 2784 2422 2554 2737 
Q 2325 3053 1888 3053 
Q 1444 3053 1217 2703 
Q 991 2353 991 1663 
Q 991 975 1217 622 
Q 1444 269 1888 269 
Q 2325 269 2554 583 
Q 2784 897 2784 1497 
L 2784 1825 
z
" transform="scale(0.015625)"/>
       <path id="DejaVuSerif-5b" d="M 550 4863 
L 2003 4863 
L 2003 4531 
L 1147 4531 
L 1147 -513 
L 2003 -513 
L 2003 -844 
L 550 -844 
L 550 4863 
z
" transform="scale(0.015625)"/>
       <path id="DejaVuSerif-6d" d="M 3316 2675 
Q 3481 3041 3739 3227 
Q 3997 3413 4341 3413 
Q 4863 3413 5119 3089 
Q 5375 2766 5375 2113 
L 5375 331 
L 5894 331 
L 5894 0 
L 4300 0 
L 4300 331 
L 4800 331 
L 4800 2047 
Q 4800 2556 4650 2772 
Q 4500 2988 4153 2988 
Q 3769 2988 3567 2697 
Q 3366 2406 3366 1850 
L 3366 331 
L 3866 331 
L 3866 0 
L 2291 0 
L 2291 331 
L 2791 331 
L 2791 2069 
Q 2791 2566 2641 2777 
Q 2491 2988 2144 2988 
Q 1759 2988 1557 2697 
Q 1356 2406 1356 1850 
L 1356 331 
L 1856 331 
L 1856 0 
L 263 0 
L 263 331 
L 781 331 
L 781 2994 
L 231 2994 
L 231 3322 
L 1356 3322 
L 1356 2731 
Q 1516 3063 1762 3238 
Q 2009 3413 2322 3413 
Q 2709 3413 2968 3220 
Q 3228 3028 3316 2675 
z
" transform="scale(0.015625)"/>
       <path id="DejaVuSerif-5d" d="M 1947 4863 
L 1947 -844 
L 494 -844 
L 494 -513 
L 1350 -513 
L 1350 4531 
L 494 4531 
L 494 4863 
L 1947 4863 
z
" transform="scale(0.015625)"/>
      </defs>
      <use xlink:href="#DejaVuSerif-43"/>
      <use xlink:href="#DejaVuSerif-6c" x="76.513672"/>
      <use xlink:href="#DejaVuSerif-6f" x="108.496094"/>
      <use xlink:href="#DejaVuSerif-75" x="168.701172"/>
      <use xlink:href="#DejaVuSerif-64" x="233.105469"/>
      <use xlink:href="#DejaVuSerif-20" x="297.119141"/>
      <use xlink:href="#DejaVuSerif-74" x="328.90625"/>
      <use xlink:href="#DejaVuSerif-6f" x="369.091797"/>
      <use xlink:href="#DejaVuSerif-70" x="429.296875"/>
      <use xlink:href="#DejaVuSerif-20" x="493.310547"/>
      <use xlink:href="#DejaVuSerif-68" x="525.097656"/>
      <use xlink:href="#DejaVuSerif-65" x="589.501953"/>
      <use xlink:href="#DejaVuSerif-69" x="648.681641"/>
      <use xlink:href="#DejaVuSerif-67" x="680.664062"/>
      <use xlink:href="#DejaVuSerif-68" x="744.677734"/>
      <use xlink:href="#DejaVuSerif-74" x="809.082031"/>
      <use xlink:href="#DejaVuSerif-20" x="849.267578"/>
      <use xlink:href="#DejaVuSerif-5b" x="881.054688"/>
      <use xlink:href="#DejaVuSerif-6d" x="920.068359"/>
      <use xlink:href="#DejaVuSerif-5d" x="1014.892578"/>
     </g>
    </g>
   </g>
   <g id="matplotlib.axis_2">
    <g id="ytick_1">
     <g id="line2d_9">
      <path d="M 10.7 43.944843 
L 109.73772 43.944843 
" clip-path="url(#p8728279a95)" style="fill: none; stroke: #d3d3d3; stroke-width: 0.5; stroke-linecap: square"/>
     </g>
     <g id="line2d_10">
      <defs>
       <path id="macddaaa182" d="M 0 0 
L -3.5 0 
" style="stroke: #000000; stroke-width: 0.8"/>
      </defs>
      <g>
       <use xlink:href="#macddaaa182" x="10.7" y="43.944843" style="stroke: #000000; stroke-width: 0.8"/>
      </g>
     </g>
    </g>
    <g id="ytick_2">
     <g id="line2d_11">
      <path d="M 10.7 22.578861 
L 109.73772 22.578861 
" clip-path="url(#p8728279a95)" style="fill: none; stroke: #d3d3d3; stroke-width: 0.5; stroke-linecap: square"/>
     </g>
     <g id="line2d_12">
      <g>
       <use xlink:href="#macddaaa182" x="10.7" y="22.578861" style="stroke: #000000; stroke-width: 0.8"/>
      </g>
     </g>
    </g>
   </g>
   <g id="line2d_13">
    <path d="M 15.201715 42.637811 
L 16.111152 42.502438 
L 17.020589 42.359593 
L 17.930026 42.209728 
L 18.839464 42.053433 
L 19.748901 41.891434 
L 20.658338 41.724593 
L 21.567776 41.553897 
L 22.477213 41.380451 
L 23.38665 41.205454 
L 24.296087 41.030181 
L 25.205525 40.85595 
L 26.114962 40.684095 
L 27.024399 40.515929 
L 27.933837 40.352705 
L 28.843274 40.195587 
L 29.752711 40.045605 
L 30.662148 39.903628 
L 31.571586 39.770337 
L 32.481023 39.646199 
L 33.39046 39.531454 
L 34.299898 39.426107 
L 35.209335 39.329931 
L 36.118772 39.242477 
L 37.028209 39.163094 
L 37.937647 39.090956 
L 38.847084 39.025096 
L 39.756521 38.964447 
L 40.665959 38.907885 
L 41.575396 38.854274 
L 42.484833 38.802513 
L 43.39427 38.751574 
L 44.303708 38.700546 
L 45.213145 38.648661 
L 46.122582 38.595321 
L 47.03202 38.540115 
L 47.941457 38.482824 
L 48.850894 38.42342 
L 49.760331 38.362057 
L 50.669769 38.299052 
L 51.579206 38.234861 
L 52.488643 38.170051 
L 53.398081 38.105265 
L 54.307518 38.041189 
L 55.216955 37.978518 
L 56.126392 37.917922 
L 57.03583 37.860016 
L 57.945267 37.805335 
L 58.854704 37.754315 
L 59.764142 37.707279 
L 60.673579 37.664435 
L 61.583016 37.625873 
L 62.492453 37.591582 
L 63.401891 37.561461 
L 64.311328 37.535347 
L 65.220765 37.513046 
L 66.130203 37.494358 
L 67.03964 37.47912 
L 67.949077 37.467234 
L 68.858514 37.458697 
L 69.767952 37.453632 
L 70.677389 37.452299 
L 71.586826 37.455111 
L 72.496264 37.462632 
L 73.405701 37.475567 
L 74.315138 37.49474 
L 75.224575 37.521069 
L 76.134013 37.555529 
L 77.04345 37.599106 
L 77.952887 37.652755 
L 78.862325 37.717351 
L 79.771762 37.793645 
L 80.681199 37.882224 
L 81.590636 37.983477 
L 82.500074 38.097567 
L 83.409511 38.224417 
L 84.318948 38.363705 
L 85.228386 38.514864 
L 86.137823 38.677101 
L 87.04726 38.849417 
L 87.956697 39.03064 
L 88.866135 39.21946 
L 89.775572 39.414469 
L 90.685009 39.614203 
L 91.594446 39.817184 
L 92.503884 40.021957 
L 93.413321 40.227129 
L 94.322758 40.431393 
L 95.232196 40.633556 
L 96.141633 40.832554 
L 97.05107 41.027462 
L 97.960507 41.217494 
L 98.869945 41.402006 
L 99.779382 41.58048 
L 100.688819 41.75252 
L 101.598257 41.917829 
L 102.507694 42.076199 
L 103.417131 42.22749 
L 104.326568 42.371618 
L 105.236006 42.50854 
" clip-path="url(#p8728279a95)" style="fill: none; stroke: #595959; stroke-linecap: square"/>
   </g>
   <g id="line2d_14">
    <path d="M 15.201715 43.944843 
L 16.111152 43.944843 
L 17.020589 43.944843 
L 17.930026 43.944843 
L 18.839464 43.944843 
L 19.748901 43.944843 
L 20.658338 43.944843 
L 21.567776 43.944843 
L 22.477213 43.944843 
L 23.38665 43.944843 
L 24.296087 43.944843 
L 25.205525 43.944843 
L 26.114962 43.944843 
L 27.024399 43.944843 
L 27.933837 43.944843 
L 28.843274 43.944843 
L 29.752711 43.944843 
L 30.662148 43.944843 
L 31.571586 43.944843 
L 32.481023 43.944843 
L 33.39046 43.944843 
L 34.299898 43.944843 
L 35.209335 43.944843 
L 36.118772 43.944843 
L 37.028209 43.944843 
L 37.937647 43.944843 
L 38.847084 43.944843 
L 39.756521 43.944843 
L 40.665959 43.944843 
L 41.575396 43.944843 
L 42.484833 43.944843 
L 43.39427 43.944842 
L 44.303708 43.94483 
L 45.213145 43.944724 
L 46.122582 43.943923 
L 47.03202 43.939141 
L 47.941457 43.916369 
L 48.850894 43.829428 
L 49.760331 43.561276 
L 50.669769 42.885207 
L 51.579206 41.468948 
L 52.488643 38.954959 
L 53.398081 35.102827 
L 54.307518 29.953919 
L 55.216955 23.970091 
L 56.126392 18.033969 
L 57.03583 13.174568 
L 57.945267 10.104934 
L 58.854704 8.949754 
L 59.764142 9.381936 
L 60.673579 10.882866 
L 61.583016 12.808924 
L 62.492453 14.436503 
L 63.401891 15.28718 
L 64.311328 15.602779 
L 65.220765 16.452644 
L 66.130203 19.059709 
L 67.03964 23.680525 
L 67.949077 29.152261 
L 68.858514 33.759921 
L 69.767952 36.603554 
L 70.677389 38.083349 
L 71.586826 39.178609 
L 72.496264 40.459879 
L 73.405701 41.816733 
L 74.315138 42.89244 
L 75.224575 43.528161 
L 76.134013 43.813302 
L 77.04345 43.911785 
L 77.952887 43.938233 
L 78.862325 43.943792 
L 79.771762 43.94471 
L 80.681199 43.944829 
L 81.590636 43.944842 
L 82.500074 43.944843 
L 83.409511 43.944843 
L 84.318948 43.944843 
L 85.228386 43.944843 
L 86.137823 43.944843 
L 87.04726 43.944843 
L 87.956697 43.944843 
L 88.866135 43.944843 
L 89.775572 43.944843 
L 90.685009 43.944843 
L 91.594446 43.944843 
L 92.503884 43.944843 
L 93.413321 43.944843 
L 94.322758 43.944843 
L 95.232196 43.944843 
L 96.141633 43.944843 
L 97.05107 43.944843 
L 97.960507 43.944843 
L 98.869945 43.944843 
L 99.779382 43.944843 
L 100.688819 43.944843 
L 101.598257 43.944843 
L 102.507694 43.944843 
L 103.417131 43.944843 
L 104.326568 43.944843 
L 105.236006 43.944843 
" clip-path="url(#p8728279a95)" style="fill: none; stroke-dasharray: 3.7,1.6; stroke-dashoffset: 0; stroke: #1f77b4"/>
   </g>
   <g id="patch_3">
    <path d="M 10.7 45.694597 
L 10.7 7.2 
" style="fill: none; stroke: #000000; stroke-width: 0.5; stroke-linejoin: miter; stroke-linecap: square"/>
   </g>
   <g id="patch_4">
    <path d="M 10.7 45.694597 
L 109.73772 45.694597 
" style="fill: none; stroke: #000000; stroke-width: 0.5; stroke-linejoin: miter; stroke-linecap: square"/>
   </g>
   <g id="line2d_15">
    <path d="M 42.57945 43.708116 
L 43.080419 43.661434 
L 43.581388 43.606791 
L 44.082356 43.543091 
L 44.583325 43.469139 
L 45.084294 43.383639 
L 45.585263 43.285198 
L 46.086232 43.172333 
L 46.587201 43.043474 
L 47.08817 42.896977 
L 47.589139 42.731136 
L 48.090108 42.544202 
L 48.591076 42.334402 
L 49.092045 42.099967 
L 49.593014 41.839152 
L 50.093983 41.550277 
L 50.594952 41.231756 
L 51.095921 40.882136 
L 51.59689 40.500138 
L 52.097859 40.0847 
L 52.598828 39.635019 
L 53.099796 39.150595 
L 53.600765 38.631276 
L 54.101734 38.077294 
L 54.602703 37.489311 
L 55.103672 36.868447 
L 55.604641 36.21631 
L 56.10561 35.535022 
L 56.606579 34.827228 
L 57.107548 34.096106 
L 57.608516 33.345361 
L 58.109485 32.579212 
L 58.610454 31.802368 
L 59.111423 31.019987 
L 59.612392 30.237636 
L 60.113361 29.461225 
L 60.61433 28.696947 
L 61.115299 27.951193 
L 61.616268 27.230472 
L 62.117236 26.541315 
L 62.618205 25.890182 
L 63.119174 25.283359 
L 63.620143 24.72686 
L 64.121112 24.226326 
L 64.622081 23.786934 
L 65.12305 23.413304 
L 65.624019 23.10942 
L 66.124988 22.878559 
L 66.625956 22.723233 
L 67.126925 22.64514 
L 67.627894 22.64514 
L 68.128863 22.723233 
L 68.629832 22.878559 
L 69.130801 23.10942 
L 69.63177 23.413304 
L 70.132739 23.786934 
L 70.633708 24.226326 
L 71.134676 24.72686 
L 71.635645 25.283359 
L 72.136614 25.890182 
L 72.637583 26.541315 
L 73.138552 27.230472 
L 73.639521 27.951193 
L 74.14049 28.696947 
L 74.641459 29.461225 
L 75.142428 30.237636 
L 75.643396 31.019987 
L 76.144365 31.802368 
L 76.645334 32.579212 
L 77.146303 33.345361 
L 77.647272 34.096106 
L 78.148241 34.827228 
L 78.64921 35.535022 
L 79.150179 36.21631 
L 79.651148 36.868447 
L 80.152116 37.489311 
L 80.653085 38.077294 
L 81.154054 38.631276 
L 81.655023 39.150595 
L 82.155992 39.635019 
L 82.656961 40.0847 
L 83.15793 40.500138 
L 83.658899 40.882136 
L 84.159868 41.231756 
L 84.660837 41.550277 
L 85.161805 41.839152 
L 85.662774 42.099967 
L 86.163743 42.334402 
L 86.664712 42.544202 
L 87.165681 42.731136 
L 87.66665 42.896977 
L 88.167619 43.043474 
L 88.668588 43.172333 
L 89.169557 43.285198 
L 89.670525 43.383639 
L 90.171494 43.469139 
L 90.672463 43.543091 
L 91.173432 43.606791 
L 91.674401 43.661434 
L 92.17537 43.708116 
" clip-path="url(#p8728279a95)" style="fill: none; stroke: #000000; stroke-linecap: square"/>
   </g>
   <g id="line2d_16">
    <path d="M 67.37741 45.694597 
L 67.37741 7.2 
" clip-path="url(#p8728279a95)" style="fill: none; stroke: #000000; stroke-linecap: square"/>
   </g>
  </g>
  <g id="axes_2">
   <g id="patch_5">
    <path d="M 119.71772 45.694597 
L 218.755441 45.694597 
L 218.755441 7.2 
L 119.71772 7.2 
z
" style="fill: #ffffff"/>
   </g>
   <g id="matplotlib.axis_3">
    <g id="xtick_5">
     <g id="line2d_17">
      <path d="M 133.700362 45.694597 
L 133.700362 7.2 
" clip-path="url(#pde1a219256)" style="fill: none; stroke: #d3d3d3; stroke-width: 0.5; stroke-linecap: square"/>
     </g>
     <g id="line2d_18">
      <g>
       <use xlink:href="#ma2fdc05242" x="133.700362" y="45.694597" style="stroke: #000000; stroke-width: 0.8"/>
      </g>
     </g>
     <g id="text_6">
      <!-- −20 -->
      <g transform="translate(127.368956 56.25366) scale(0.06 -0.06)">
       <defs>
        <path id="DejaVuSerif-2212" d="M 678 2259 
L 4684 2259 
L 4684 1753 
L 678 1753 
L 678 2259 
z
" transform="scale(0.015625)"/>
        <path id="DejaVuSerif-32" d="M 819 3553 
L 469 3553 
L 469 4384 
Q 803 4563 1142 4656 
Q 1481 4750 1806 4750 
Q 2534 4750 2956 4397 
Q 3378 4044 3378 3438 
Q 3378 2753 2422 1800 
Q 2347 1728 2309 1691 
L 1131 513 
L 3078 513 
L 3078 1088 
L 3444 1088 
L 3444 0 
L 434 0 
L 434 341 
L 1850 1753 
Q 2319 2222 2519 2614 
Q 2719 3006 2719 3438 
Q 2719 3909 2473 4175 
Q 2228 4441 1797 4441 
Q 1350 4441 1106 4219 
Q 863 3997 819 3553 
z
" transform="scale(0.015625)"/>
       </defs>
       <use xlink:href="#DejaVuSerif-2212"/>
       <use xlink:href="#DejaVuSerif-32" x="83.789062"/>
       <use xlink:href="#DejaVuSerif-30" x="147.412109"/>
      </g>
     </g>
    </g>
    <g id="xtick_6">
     <g id="line2d_19">
      <path d="M 165.921708 45.694597 
L 165.921708 7.2 
" clip-path="url(#pde1a219256)" style="fill: none; stroke: #d3d3d3; stroke-width: 0.5; stroke-linecap: square"/>
     </g>
     <g id="line2d_20">
      <g>
       <use xlink:href="#ma2fdc05242" x="165.921708" y="45.694597" style="stroke: #000000; stroke-width: 0.8"/>
      </g>
     </g>
     <g id="text_7">
      <!-- 0 -->
      <g transform="translate(164.012958 56.25366) scale(0.06 -0.06)">
       <use xlink:href="#DejaVuSerif-30"/>
      </g>
     </g>
    </g>
    <g id="xtick_7">
     <g id="line2d_21">
      <path d="M 198.143053 45.694597 
L 198.143053 7.2 
" clip-path="url(#pde1a219256)" style="fill: none; stroke: #d3d3d3; stroke-width: 0.5; stroke-linecap: square"/>
     </g>
     <g id="line2d_22">
      <g>
       <use xlink:href="#ma2fdc05242" x="198.143053" y="45.694597" style="stroke: #000000; stroke-width: 0.8"/>
      </g>
     </g>
     <g id="text_8">
      <!-- 20 -->
      <g transform="translate(194.325553 56.25366) scale(0.06 -0.06)">
       <use xlink:href="#DejaVuSerif-32"/>
       <use xlink:href="#DejaVuSerif-30" x="63.623047"/>
      </g>
     </g>
    </g>
    <g id="text_9">
     <!-- Cloud top rate [m/h] -->
     <g transform="translate(138.19783 66.060535) scale(0.06 -0.06)">
      <defs>
       <path id="DejaVuSerif-72" d="M 3059 3328 
L 3059 2497 
L 2728 2497 
Q 2713 2744 2591 2866 
Q 2469 2988 2234 2988 
Q 1809 2988 1582 2694 
Q 1356 2400 1356 1850 
L 1356 331 
L 2022 331 
L 2022 0 
L 263 0 
L 263 331 
L 781 331 
L 781 2994 
L 231 2994 
L 231 3322 
L 1356 3322 
L 1356 2731 
Q 1525 3078 1790 3245 
Q 2056 3413 2438 3413 
Q 2578 3413 2733 3391 
Q 2888 3369 3059 3328 
z
" transform="scale(0.015625)"/>
       <path id="DejaVuSerif-61" d="M 2547 1044 
L 2547 1747 
L 1806 1747 
Q 1378 1747 1168 1562 
Q 959 1378 959 997 
Q 959 650 1171 447 
Q 1384 244 1747 244 
Q 2106 244 2326 466 
Q 2547 688 2547 1044 
z
M 3122 2075 
L 3122 331 
L 3634 331 
L 3634 0 
L 2547 0 
L 2547 359 
Q 2356 128 2106 18 
Q 1856 -91 1522 -91 
Q 969 -91 644 203 
Q 319 497 319 997 
Q 319 1513 691 1797 
Q 1063 2081 1741 2081 
L 2547 2081 
L 2547 2309 
Q 2547 2688 2317 2895 
Q 2088 3103 1672 3103 
Q 1328 3103 1125 2947 
Q 922 2791 872 2484 
L 575 2484 
L 575 3156 
Q 875 3284 1158 3348 
Q 1441 3413 1709 3413 
Q 2400 3413 2761 3070 
Q 3122 2728 3122 2075 
z
" transform="scale(0.015625)"/>
       <path id="DejaVuSerif-2f" d="M 1656 4666 
L 2156 4666 
L 500 -594 
L 0 -594 
L 1656 4666 
z
" transform="scale(0.015625)"/>
      </defs>
      <use xlink:href="#DejaVuSerif-43"/>
      <use xlink:href="#DejaVuSerif-6c" x="76.513672"/>
      <use xlink:href="#DejaVuSerif-6f" x="108.496094"/>
      <use xlink:href="#DejaVuSerif-75" x="168.701172"/>
      <use xlink:href="#DejaVuSerif-64" x="233.105469"/>
      <use xlink:href="#DejaVuSerif-20" x="297.119141"/>
      <use xlink:href="#DejaVuSerif-74" x="328.90625"/>
      <use xlink:href="#DejaVuSerif-6f" x="369.091797"/>
      <use xlink:href="#DejaVuSerif-70" x="429.296875"/>
      <use xlink:href="#DejaVuSerif-20" x="493.310547"/>
      <use xlink:href="#DejaVuSerif-72" x="525.097656"/>
      <use xlink:href="#DejaVuSerif-61" x="572.900391"/>
      <use xlink:href="#DejaVuSerif-74" x="632.519531"/>
      <use xlink:href="#DejaVuSerif-65" x="672.705078"/>
      <use xlink:href="#DejaVuSerif-20" x="731.884766"/>
      <use xlink:href="#DejaVuSerif-5b" x="763.671875"/>
      <use xlink:href="#DejaVuSerif-6d" x="802.685547"/>
      <use xlink:href="#DejaVuSerif-2f" x="897.509766"/>
      <use xlink:href="#DejaVuSerif-68" x="931.201172"/>
      <use xlink:href="#DejaVuSerif-5d" x="995.605469"/>
     </g>
    </g>
   </g>
   <g id="matplotlib.axis_4">
    <g id="ytick_3">
     <g id="line2d_23">
      <path d="M 119.71772 43.944843 
L 218.755441 43.944843 
" clip-path="url(#pde1a219256)" style="fill: none; stroke: #d3d3d3; stroke-width: 0.5; stroke-linecap: square"/>
     </g>
     <g id="line2d_24">
      <g>
       <use xlink:href="#macddaaa182" x="119.71772" y="43.944843" style="stroke: #000000; stroke-width: 0.8"/>
      </g>
     </g>
    </g>
    <g id="ytick_4">
     <g id="line2d_25">
      <path d="M 119.71772 23.651821 
L 218.755441 23.651821 
" clip-path="url(#pde1a219256)" style="fill: none; stroke: #d3d3d3; stroke-width: 0.5; stroke-linecap: square"/>
     </g>
     <g id="line2d_26">
      <g>
       <use xlink:href="#macddaaa182" x="119.71772" y="23.651821" style="stroke: #000000; stroke-width: 0.8"/>
      </g>
     </g>
    </g>
   </g>
   <g id="line2d_27">
    <path d="M 124.219435 42.890098 
L 125.107358 42.784721 
L 125.995282 42.671109 
L 126.883205 42.548617 
L 127.771129 42.416669 
L 128.659052 42.274795 
L 129.546976 42.122665 
L 130.434899 41.960121 
L 131.322823 41.787179 
L 132.210746 41.604032 
L 133.09867 41.411027 
L 133.986593 41.208637 
L 134.874517 40.997415 
L 135.76244 40.77795 
L 136.650364 40.55082 
L 137.538287 40.316554 
L 138.426211 40.075611 
L 139.314134 39.828371 
L 140.202058 39.575152 
L 141.089981 39.316244 
L 141.977905 39.051964 
L 142.865829 38.782719 
L 143.753752 38.509078 
L 144.641676 38.231834 
L 145.529599 37.952056 
L 146.417523 37.671112 
L 147.305446 37.390659 
L 148.19337 37.112608 
L 149.081293 36.839032 
L 149.969217 36.572066 
L 150.85714 36.313757 
L 151.745064 36.065921 
L 152.632987 35.829985 
L 153.520911 35.60686 
L 154.408834 35.396829 
L 155.296758 35.199499 
L 156.184681 35.013786 
L 157.072605 34.837976 
L 157.960528 34.669837 
L 158.848452 34.506778 
L 159.736375 34.34605 
L 160.624299 34.184976 
L 161.512222 34.021168 
L 162.400146 33.852747 
L 163.288069 33.678514 
L 164.175993 33.498073 
L 165.063916 33.311903 
L 165.95184 33.121353 
L 166.839763 32.928575 
L 167.727687 32.736405 
L 168.61561 32.548189 
L 169.503534 32.367587 
L 170.391457 32.198357 
L 171.279381 32.044148 
L 172.167304 31.908312 
L 173.055228 31.793752 
L 173.943151 31.702812 
L 174.831075 31.637216 
L 175.718998 31.598056 
L 176.606922 31.585828 
L 177.494845 31.600504 
L 178.382769 31.64163 
L 179.270692 31.708447 
L 180.158616 31.800011 
L 181.046539 31.915314 
L 181.934463 32.053383 
L 182.822386 32.213364 
L 183.71031 32.394571 
L 184.598233 32.596508 
L 185.486157 32.818861 
L 186.37408 33.061455 
L 187.262004 33.324194 
L 188.149927 33.606975 
L 189.037851 33.909597 
L 189.925774 34.231658 
L 190.813698 34.572466 
L 191.701621 34.930955 
L 192.589545 35.305632 
L 193.477468 35.694538 
L 194.365392 36.095254 
L 195.253315 36.504929 
L 196.141239 36.920349 
L 197.029162 37.338029 
L 197.917086 37.754332 
L 198.805009 38.165604 
L 199.692933 38.568311 
L 200.580856 38.959178 
L 201.46878 39.335314 
L 202.356703 39.694308 
L 203.244627 40.034309 
L 204.13255 40.35406 
L 205.020474 40.652908 
L 205.908397 40.930771 
L 206.796321 41.188084 
L 207.684244 41.425708 
L 208.572168 41.644841 
L 209.460091 41.846897 
L 210.348015 42.033408 
L 211.235938 42.205914 
L 212.123862 42.365884 
" clip-path="url(#pde1a219256)" style="fill: none; stroke: #595959; stroke-linecap: square"/>
   </g>
   <g id="line2d_28">
    <path d="M 124.219435 43.944843 
L 125.107358 43.944843 
L 125.995282 43.944843 
L 126.883205 43.944843 
L 127.771129 43.944843 
L 128.659052 43.944843 
L 129.546976 43.944843 
L 130.434899 43.944843 
L 131.322823 43.944843 
L 132.210746 43.944843 
L 133.09867 43.944842 
L 133.986593 43.94484 
L 134.874517 43.944834 
L 135.76244 43.944811 
L 136.650364 43.944737 
L 137.538287 43.944516 
L 138.426211 43.943905 
L 139.314134 43.942337 
L 140.202058 43.938615 
L 141.089981 43.930442 
L 141.977905 43.913868 
L 142.865829 43.882862 
L 143.753752 43.829465 
L 144.641676 43.745037 
L 145.529599 43.622938 
L 146.417523 43.462343 
L 147.305446 43.271913 
L 148.19337 43.071345 
L 149.081293 42.888859 
L 149.969217 42.754077 
L 150.85714 42.687788 
L 151.745064 42.691964 
L 152.632987 42.743687 
L 153.520911 42.795417 
L 154.408834 42.781897 
L 155.296758 42.6324 
L 156.184681 42.286316 
L 157.072605 41.709677 
L 157.960528 40.909157 
L 158.848452 39.938459 
L 159.736375 38.891386 
L 160.624299 37.878378 
L 161.512222 36.989246 
L 162.400146 36.25218 
L 163.288069 35.604127 
L 164.175993 34.887043 
L 165.063916 33.877614 
L 165.95184 32.346835 
L 166.839763 30.134051 
L 167.727687 27.212256 
L 168.61561 23.72113 
L 169.503534 19.95309 
L 170.391457 16.293293 
L 171.279381 13.131345 
L 172.167304 10.772948 
L 173.055228 9.379179 
L 173.943151 8.949754 
L 174.831075 9.350078 
L 175.718998 10.36739 
L 176.606922 11.774219 
L 177.494845 13.37886 
L 178.382769 15.050704 
L 179.270692 16.719122 
L 180.158616 18.354381 
L 181.046539 19.944383 
L 181.934463 21.479949 
L 182.822386 22.954357 
L 183.71031 24.373529 
L 184.598233 25.766537 
L 185.486157 27.185882 
L 186.37408 28.693292 
L 187.262004 30.335623 
L 188.149927 32.121678 
L 189.037851 34.010918 
L 189.925774 35.919488 
L 190.813698 37.741104 
L 191.701621 39.374285 
L 192.589545 40.745825 
L 193.477468 41.823287 
L 194.365392 42.614595 
L 195.253315 43.157716 
L 196.141239 43.506015 
L 197.029162 43.714661 
L 197.917086 43.831385 
L 198.805009 43.89235 
L 199.692933 43.922068 
L 200.580856 43.935585 
L 201.46878 43.94132 
L 202.356703 43.943589 
L 203.244627 43.944425 
L 204.13255 43.944713 
L 205.020474 43.944805 
L 205.908397 43.944832 
L 206.796321 43.94484 
L 207.684244 43.944842 
L 208.572168 43.944843 
L 209.460091 43.944843 
L 210.348015 43.944843 
L 211.235938 43.944843 
L 212.123862 43.944843 
" clip-path="url(#pde1a219256)" style="fill: none; stroke-dasharray: 3.7,1.6; stroke-dashoffset: 0; stroke: #1f77b4"/>
   </g>
   <g id="patch_6">
    <path d="M 119.71772 45.694597 
L 119.71772 7.2 
" style="fill: none; stroke: #000000; stroke-width: 0.5; stroke-linejoin: miter; stroke-linecap: square"/>
   </g>
   <g id="patch_7">
    <path d="M 119.71772 45.694597 
L 218.755441 45.694597 
" style="fill: none; stroke: #000000; stroke-width: 0.5; stroke-linejoin: miter; stroke-linecap: square"/>
   </g>
   <g id="line2d_29">
    <path d="M 141.755699 43.705014 
L 142.488002 43.657721 
L 143.220305 43.602363 
L 143.952609 43.537828 
L 144.684912 43.462907 
L 145.417215 43.376286 
L 146.149519 43.276557 
L 146.881822 43.162213 
L 147.614125 43.031666 
L 148.346429 42.883249 
L 149.078732 42.715235 
L 149.811035 42.525852 
L 150.543338 42.313305 
L 151.275642 42.075798 
L 152.007945 41.811566 
L 152.740248 41.518907 
L 153.472552 41.196213 
L 154.204855 40.842012 
L 154.937158 40.45501 
L 155.669462 40.03413 
L 156.401765 39.578558 
L 157.134068 39.087788 
L 157.866372 38.561665 
L 158.598675 38.000426 
L 159.330978 37.40474 
L 160.063281 36.775742 
L 160.795585 36.115062 
L 161.527888 35.424848 
L 162.260191 34.707781 
L 162.992495 33.967081 
L 163.724798 33.206501 
L 164.457101 32.430315 
L 165.189405 31.643294 
L 165.921708 30.850664 
L 166.654011 30.058063 
L 167.386315 29.271481 
L 168.118618 28.49719 
L 168.850921 27.741667 
L 169.583224 27.011504 
L 170.315528 26.313318 
L 171.047831 25.653655 
L 171.780134 25.038882 
L 172.512438 24.475092 
L 173.244741 23.968001 
L 173.977044 23.522853 
L 174.709348 23.144329 
L 175.441651 22.836463 
L 176.173954 22.602578 
L 176.906257 22.445216 
L 177.638561 22.366101 
L 178.370864 22.366101 
L 179.103167 22.445216 
L 179.835471 22.602578 
L 180.567774 22.836463 
L 181.300077 23.144329 
L 182.032381 23.522853 
L 182.764684 23.968001 
L 183.496987 24.475092 
L 184.229291 25.038882 
L 184.961594 25.653655 
L 185.693897 26.313318 
L 186.4262 27.011504 
L 187.158504 27.741667 
L 187.890807 28.49719 
L 188.62311 29.271481 
L 189.355414 30.058063 
L 190.087717 30.850664 
L 190.82002 31.643294 
L 191.552324 32.430315 
L 192.284627 33.206501 
L 193.01693 33.967081 
L 193.749234 34.707781 
L 194.481537 35.424848 
L 195.21384 36.115062 
L 195.946143 36.775742 
L 196.678447 37.40474 
L 197.41075 38.000426 
L 198.143053 38.561665 
L 198.875357 39.087788 
L 199.60766 39.578558 
L 200.339963 40.03413 
L 201.072267 40.45501 
L 201.80457 40.842012 
L 202.536873 41.196213 
L 203.269177 41.518907 
L 204.00148 41.811566 
L 204.733783 42.075798 
L 205.466086 42.313305 
L 206.19839 42.525852 
L 206.930693 42.715235 
L 207.662996 42.883249 
L 208.3953 43.031666 
L 209.127603 43.162213 
L 209.859906 43.276557 
L 210.59221 43.376286 
L 211.324513 43.462907 
L 212.056816 43.537828 
L 212.789119 43.602363 
L 213.521423 43.657721 
L 214.253726 43.705014 
" clip-path="url(#pde1a219256)" style="fill: none; stroke: #000000; stroke-linecap: square"/>
   </g>
   <g id="line2d_30">
    <path d="M 178.004712 45.694597 
L 178.004712 7.2 
" clip-path="url(#pde1a219256)" style="fill: none; stroke: #000000; stroke-linecap: square"/>
   </g>
  </g>
  <g id="axes_3">
   <g id="patch_8">
    <path d="M 10.7 112.269194 
L 109.73772 112.269194 
L 109.73772 73.774597 
L 10.7 73.774597 
z
" style="fill: #ffffff"/>
   </g>
   <g id="matplotlib.axis_5">
    <g id="xtick_8">
     <g id="line2d_31">
      <path d="M 31.525928 112.269194 
L 31.525928 73.774597 
" clip-path="url(#pe93d5a74c9)" style="fill: none; stroke: #d3d3d3; stroke-width: 0.5; stroke-linecap: square"/>
     </g>
     <g id="line2d_32">
      <g>
       <use xlink:href="#ma2fdc05242" x="31.525928" y="112.269194" style="stroke: #000000; stroke-width: 0.8"/>
      </g>
     </g>
     <g id="text_10">
      <!-- 500 -->
      <g transform="translate(25.799678 122.828257) scale(0.06 -0.06)">
       <use xlink:href="#DejaVuSerif-35"/>
       <use xlink:href="#DejaVuSerif-30" x="63.623047"/>
       <use xlink:href="#DejaVuSerif-30" x="127.246094"/>
      </g>
     </g>
    </g>
    <g id="xtick_9">
     <g id="line2d_33">
      <path d="M 55.606545 112.269194 
L 55.606545 73.774597 
" clip-path="url(#pe93d5a74c9)" style="fill: none; stroke: #d3d3d3; stroke-width: 0.5; stroke-linecap: square"/>
     </g>
     <g id="line2d_34">
      <g>
       <use xlink:href="#ma2fdc05242" x="55.606545" y="112.269194" style="stroke: #000000; stroke-width: 0.8"/>
      </g>
     </g>
     <g id="text_11">
      <!-- 600 -->
      <g transform="translate(49.880295 122.828257) scale(0.06 -0.06)">
       <defs>
        <path id="DejaVuSerif-36" d="M 2094 219 
Q 2534 219 2771 542 
Q 3009 866 3009 1472 
Q 3009 2078 2771 2401 
Q 2534 2725 2094 2725 
Q 1647 2725 1412 2412 
Q 1178 2100 1178 1509 
Q 1178 888 1415 553 
Q 1653 219 2094 219 
z
M 1075 2569 
Q 1288 2803 1556 2918 
Q 1825 3034 2163 3034 
Q 2859 3034 3264 2615 
Q 3669 2197 3669 1472 
Q 3669 763 3233 336 
Q 2797 -91 2069 -91 
Q 1278 -91 853 498 
Q 428 1088 428 2181 
Q 428 3406 931 4078 
Q 1434 4750 2350 4750 
Q 2597 4750 2869 4703 
Q 3141 4656 3425 4563 
L 3425 3794 
L 3072 3794 
Q 3034 4109 2831 4275 
Q 2628 4441 2284 4441 
Q 1678 4441 1381 3981 
Q 1084 3522 1075 2569 
z
" transform="scale(0.015625)"/>
       </defs>
       <use xlink:href="#DejaVuSerif-36"/>
       <use xlink:href="#DejaVuSerif-30" x="63.623047"/>
       <use xlink:href="#DejaVuSerif-30" x="127.246094"/>
      </g>
     </g>
    </g>
    <g id="xtick_10">
     <g id="line2d_35">
      <path d="M 79.687162 112.269194 
L 79.687162 73.774597 
" clip-path="url(#pe93d5a74c9)" style="fill: none; stroke: #d3d3d3; stroke-width: 0.5; stroke-linecap: square"/>
     </g>
     <g id="line2d_36">
      <g>
       <use xlink:href="#ma2fdc05242" x="79.687162" y="112.269194" style="stroke: #000000; stroke-width: 0.8"/>
      </g>
     </g>
     <g id="text_12">
      <!-- 700 -->
      <g transform="translate(73.960912 122.828257) scale(0.06 -0.06)">
       <use xlink:href="#DejaVuSerif-37"/>
       <use xlink:href="#DejaVuSerif-30" x="63.623047"/>
       <use xlink:href="#DejaVuSerif-30" x="127.246094"/>
      </g>
     </g>
    </g>
    <g id="xtick_11">
     <g id="line2d_37">
      <path d="M 103.767778 112.269194 
L 103.767778 73.774597 
" clip-path="url(#pe93d5a74c9)" style="fill: none; stroke: #d3d3d3; stroke-width: 0.5; stroke-linecap: square"/>
     </g>
     <g id="line2d_38">
      <g>
       <use xlink:href="#ma2fdc05242" x="103.767778" y="112.269194" style="stroke: #000000; stroke-width: 0.8"/>
      </g>
     </g>
     <g id="text_13">
      <!-- 800 -->
      <g transform="translate(98.041528 122.828257) scale(0.06 -0.06)">
       <use xlink:href="#DejaVuSerif-38"/>
       <use xlink:href="#DejaVuSerif-30" x="63.623047"/>
       <use xlink:href="#DejaVuSerif-30" x="127.246094"/>
      </g>
     </g>
    </g>
    <g id="text_14">
     <!-- Cloud base height [m] -->
     <g transform="translate(26.509173 132.635132) scale(0.06 -0.06)">
      <defs>
       <path id="DejaVuSerif-62" d="M 738 331 
L 738 4531 
L 184 4531 
L 184 4863 
L 1313 4863 
L 1313 2803 
Q 1481 3116 1742 3264 
Q 2003 3413 2388 3413 
Q 3000 3413 3387 2928 
Q 3775 2444 3775 1663 
Q 3775 881 3387 395 
Q 3000 -91 2388 -91 
Q 2003 -91 1742 57 
Q 1481 206 1313 519 
L 1313 0 
L 184 0 
L 184 331 
L 738 331 
z
M 1313 1497 
Q 1313 897 1542 583 
Q 1772 269 2209 269 
Q 2650 269 2876 622 
Q 3103 975 3103 1663 
Q 3103 2353 2876 2703 
Q 2650 3053 2209 3053 
Q 1772 3053 1542 2737 
Q 1313 2422 1313 1825 
L 1313 1497 
z
" transform="scale(0.015625)"/>
       <path id="DejaVuSerif-73" d="M 359 184 
L 359 959 
L 691 959 
Q 703 588 923 403 
Q 1144 219 1575 219 
Q 1963 219 2166 364 
Q 2369 509 2369 788 
Q 2369 1006 2220 1140 
Q 2072 1275 1594 1428 
L 1178 1569 
Q 750 1706 558 1912 
Q 366 2119 366 2438 
Q 366 2894 700 3153 
Q 1034 3413 1625 3413 
Q 1888 3413 2178 3344 
Q 2469 3275 2778 3144 
L 2778 2419 
L 2447 2419 
Q 2434 2741 2221 2922 
Q 2009 3103 1644 3103 
Q 1281 3103 1095 2975 
Q 909 2847 909 2591 
Q 909 2381 1050 2254 
Q 1191 2128 1613 1997 
L 2069 1856 
Q 2541 1709 2748 1489 
Q 2956 1269 2956 922 
Q 2956 450 2595 179 
Q 2234 -91 1600 -91 
Q 1278 -91 972 -22 
Q 666 47 359 184 
z
" transform="scale(0.015625)"/>
      </defs>
      <use xlink:href="#DejaVuSerif-43"/>
      <use xlink:href="#DejaVuSerif-6c" x="76.513672"/>
      <use xlink:href="#DejaVuSerif-6f" x="108.496094"/>
      <use xlink:href="#DejaVuSerif-75" x="168.701172"/>
      <use xlink:href="#DejaVuSerif-64" x="233.105469"/>
      <use xlink:href="#DejaVuSerif-20" x="297.119141"/>
      <use xlink:href="#DejaVuSerif-62" x="328.90625"/>
      <use xlink:href="#DejaVuSerif-61" x="392.919922"/>
      <use xlink:href="#DejaVuSerif-73" x="452.539062"/>
      <use xlink:href="#DejaVuSerif-65" x="503.857422"/>
      <use xlink:href="#DejaVuSerif-20" x="563.037109"/>
      <use xlink:href="#DejaVuSerif-68" x="594.824219"/>
      <use xlink:href="#DejaVuSerif-65" x="659.228516"/>
      <use xlink:href="#DejaVuSerif-69" x="718.408203"/>
      <use xlink:href="#DejaVuSerif-67" x="750.390625"/>
      <use xlink:href="#DejaVuSerif-68" x="814.404297"/>
      <use xlink:href="#DejaVuSerif-74" x="878.808594"/>
      <use xlink:href="#DejaVuSerif-20" x="918.994141"/>
      <use xlink:href="#DejaVuSerif-5b" x="950.78125"/>
      <use xlink:href="#DejaVuSerif-6d" x="989.794922"/>
      <use xlink:href="#DejaVuSerif-5d" x="1084.619141"/>
     </g>
    </g>
   </g>
   <g id="matplotlib.axis_6">
    <g id="ytick_5">
     <g id="line2d_39">
      <path d="M 10.7 110.51944 
L 109.73772 110.51944 
" clip-path="url(#pe93d5a74c9)" style="fill: none; stroke: #d3d3d3; stroke-width: 0.5; stroke-linecap: square"/>
     </g>
     <g id="line2d_40">
      <g>
       <use xlink:href="#macddaaa182" x="10.7" y="110.51944" style="stroke: #000000; stroke-width: 0.8"/>
      </g>
     </g>
    </g>
    <g id="ytick_6">
     <g id="line2d_41">
      <path d="M 10.7 97.568828 
L 109.73772 97.568828 
" clip-path="url(#pe93d5a74c9)" style="fill: none; stroke: #d3d3d3; stroke-width: 0.5; stroke-linecap: square"/>
     </g>
     <g id="line2d_42">
      <g>
       <use xlink:href="#macddaaa182" x="10.7" y="97.568828" style="stroke: #000000; stroke-width: 0.8"/>
      </g>
     </g>
    </g>
    <g id="ytick_7">
     <g id="line2d_43">
      <path d="M 10.7 84.618215 
L 109.73772 84.618215 
" clip-path="url(#pe93d5a74c9)" style="fill: none; stroke: #d3d3d3; stroke-width: 0.5; stroke-linecap: square"/>
     </g>
     <g id="line2d_44">
      <g>
       <use xlink:href="#macddaaa182" x="10.7" y="84.618215" style="stroke: #000000; stroke-width: 0.8"/>
      </g>
     </g>
    </g>
   </g>
   <g id="line2d_45">
    <path d="M 15.201715 110.069139 
L 16.111152 110.027724 
L 17.020589 109.984433 
L 17.930026 109.939145 
L 18.839464 109.891703 
L 19.748901 109.841932 
L 20.658338 109.789645 
L 21.567776 109.734661 
L 22.477213 109.676822 
L 23.38665 109.616006 
L 24.296087 109.552144 
L 25.205525 109.485226 
L 26.114962 109.41531 
L 27.024399 109.342523 
L 27.933837 109.267055 
L 28.843274 109.189155 
L 29.752711 109.109116 
L 30.662148 109.027263 
L 31.571586 108.943938 
L 32.481023 108.85949 
L 33.39046 108.774261 
L 34.299898 108.688583 
L 35.209335 108.602776 
L 36.118772 108.517157 
L 37.028209 108.432043 
L 37.937647 108.34777 
L 38.847084 108.264707 
L 39.756521 108.18327 
L 40.665959 108.103938 
L 41.575396 108.027261 
L 42.484833 107.953859 
L 43.39427 107.884421 
L 44.303708 107.819687 
L 45.213145 107.760429 
L 46.122582 107.707416 
L 47.03202 107.661385 
L 47.941457 107.623002 
L 48.850894 107.59282 
L 49.760331 107.571252 
L 50.669769 107.558541 
L 51.579206 107.554739 
L 52.488643 107.559701 
L 53.398081 107.573087 
L 54.307518 107.594375 
L 55.216955 107.622885 
L 56.126392 107.657807 
L 57.03583 107.698245 
L 57.945267 107.743248 
L 58.854704 107.791856 
L 59.764142 107.843136 
L 60.673579 107.896212 
L 61.583016 107.950289 
L 62.492453 108.004679 
L 63.401891 108.058801 
L 64.311328 108.112193 
L 65.220765 108.164502 
L 66.130203 108.215482 
L 67.03964 108.264981 
L 67.949077 108.312925 
L 68.858514 108.359314 
L 69.767952 108.404203 
L 70.677389 108.447699 
L 71.586826 108.489953 
L 72.496264 108.531159 
L 73.405701 108.571551 
L 74.315138 108.611401 
L 75.224575 108.651026 
L 76.134013 108.690778 
L 77.04345 108.731046 
L 77.952887 108.772248 
L 78.862325 108.814816 
L 79.771762 108.859185 
L 80.681199 108.905768 
L 81.590636 108.954936 
L 82.500074 109.006996 
L 83.409511 109.062162 
L 84.318948 109.120535 
L 85.228386 109.182086 
L 86.137823 109.246645 
L 87.04726 109.313894 
L 87.956697 109.383375 
L 88.866135 109.454498 
L 89.775572 109.526572 
L 90.685009 109.598822 
L 91.594446 109.670433 
L 92.503884 109.740585 
L 93.413321 109.808487 
L 94.322758 109.873417 
L 95.232196 109.934756 
L 96.141633 109.992006 
L 97.05107 110.044815 
L 97.960507 110.09298 
L 98.869945 110.136451 
L 99.779382 110.175315 
L 100.688819 110.209788 
L 101.598257 110.240183 
L 102.507694 110.266894 
L 103.417131 110.290358 
L 104.326568 110.311034 
L 105.236006 110.329374 
" clip-path="url(#pe93d5a74c9)" style="fill: none; stroke: #595959; stroke-linecap: square"/>
   </g>
   <g id="line2d_46">
    <path d="M 15.201715 110.51944 
L 16.111152 110.51944 
L 17.020589 110.51944 
L 17.930026 110.51944 
L 18.839464 110.51944 
L 19.748901 110.51944 
L 20.658338 110.51944 
L 21.567776 110.51944 
L 22.477213 110.51944 
L 23.38665 110.51944 
L 24.296087 110.51944 
L 25.205525 110.51944 
L 26.114962 110.51944 
L 27.024399 110.51944 
L 27.933837 110.51944 
L 28.843274 110.51944 
L 29.752711 110.51944 
L 30.662148 110.51944 
L 31.571586 110.51944 
L 32.481023 110.51944 
L 33.39046 110.51944 
L 34.299898 110.51944 
L 35.209335 110.51944 
L 36.118772 110.51944 
L 37.028209 110.51944 
L 37.937647 110.51944 
L 38.847084 110.51944 
L 39.756521 110.51944 
L 40.665959 110.51944 
L 41.575396 110.51944 
L 42.484833 110.51944 
L 43.39427 110.51944 
L 44.303708 110.51944 
L 45.213145 110.51944 
L 46.122582 110.51944 
L 47.03202 110.51944 
L 47.941457 110.519413 
L 48.850894 110.51563 
L 49.760331 110.395241 
L 50.669769 109.465899 
L 51.579206 106.666302 
L 52.488643 100.528594 
L 53.398081 95.3014 
L 54.307518 86.496594 
L 55.216955 75.524352 
L 56.126392 77.284179 
L 57.03583 85.161085 
L 57.945267 95.708009 
L 58.854704 105.073036 
L 59.764142 108.819627 
L 60.673579 109.2643 
L 61.583016 110.154922 
L 62.492453 110.495308 
L 63.401891 110.519084 
L 64.311328 110.519439 
L 65.220765 110.51944 
L 66.130203 110.51944 
L 67.03964 110.51944 
L 67.949077 110.51944 
L 68.858514 110.51944 
L 69.767952 110.51944 
L 70.677389 110.51944 
L 71.586826 110.51944 
L 72.496264 110.51944 
L 73.405701 110.51944 
L 74.315138 110.51944 
L 75.224575 110.51944 
L 76.134013 110.51944 
L 77.04345 110.51944 
L 77.952887 110.51944 
L 78.862325 110.51944 
L 79.771762 110.51944 
L 80.681199 110.51944 
L 81.590636 110.51944 
L 82.500074 110.51944 
L 83.409511 110.51944 
L 84.318948 110.51944 
L 85.228386 110.51944 
L 86.137823 110.51944 
L 87.04726 110.51944 
L 87.956697 110.51944 
L 88.866135 110.51944 
L 89.775572 110.51944 
L 90.685009 110.51944 
L 91.594446 110.51944 
L 92.503884 110.51944 
L 93.413321 110.51944 
L 94.322758 110.51944 
L 95.232196 110.51944 
L 96.141633 110.51944 
L 97.05107 110.51944 
L 97.960507 110.51944 
L 98.869945 110.51944 
L 99.779382 110.51944 
L 100.688819 110.51944 
L 101.598257 110.51944 
L 102.507694 110.51944 
L 103.417131 110.51944 
L 104.326568 110.51944 
L 105.236006 110.51944 
" clip-path="url(#pe93d5a74c9)" style="fill: none; stroke-dasharray: 3.7,1.6; stroke-dashoffset: 0; stroke: #1f77b4"/>
   </g>
   <g id="patch_9">
    <path d="M 10.7 112.269194 
L 10.7 73.774597 
" style="fill: none; stroke: #000000; stroke-width: 0.5; stroke-linejoin: miter; stroke-linecap: square"/>
   </g>
   <g id="patch_10">
    <path d="M 10.7 112.269194 
L 109.73772 112.269194 
" style="fill: none; stroke: #000000; stroke-width: 0.5; stroke-linejoin: miter; stroke-linecap: square"/>
   </g>
   <g id="line2d_47">
    <path d="M 43.566236 110.232464 
L 43.712179 110.175874 
L 43.858122 110.109632 
L 44.004065 110.032411 
L 44.150009 109.942761 
L 44.295952 109.839112 
L 44.441895 109.719776 
L 44.587838 109.582954 
L 44.733781 109.426743 
L 44.879724 109.249149 
L 45.025667 109.048106 
L 45.171611 108.821492 
L 45.317554 108.56716 
L 45.463497 108.282962 
L 45.60944 107.966786 
L 45.755383 107.616593 
L 45.901326 107.230461 
L 46.047269 106.806628 
L 46.193212 106.343546 
L 46.339156 105.839926 
L 46.485099 105.294793 
L 46.631042 104.707544 
L 46.776985 104.077991 
L 46.922928 103.406418 
L 47.068871 102.693627 
L 47.214814 101.940975 
L 47.360758 101.150413 
L 47.506701 100.324511 
L 47.652644 99.466478 
L 47.798587 98.580164 
L 47.94453 97.670063 
L 48.090473 96.741288 
L 48.236416 95.799547 
L 48.382359 94.851095 
L 48.528303 93.902678 
L 48.674246 92.961463 
L 48.820189 92.034955 
L 48.966132 91.130905 
L 49.112075 90.2572 
L 49.258018 89.421759 
L 49.403961 88.632414 
L 49.549905 87.896783 
L 49.695848 87.222159 
L 49.841791 86.61538 
L 49.987734 86.082721 
L 50.133677 85.629782 
L 50.27962 85.261394 
L 50.425563 84.98153 
L 50.571506 84.793233 
L 50.71745 84.698564 
L 50.863393 84.698564 
L 51.009336 84.793233 
L 51.155279 84.98153 
L 51.301222 85.261394 
L 51.447165 85.629782 
L 51.593108 86.082721 
L 51.739051 86.61538 
L 51.884995 87.222159 
L 52.030938 87.896783 
L 52.176881 88.632414 
L 52.322824 89.421759 
L 52.468767 90.2572 
L 52.61471 91.130905 
L 52.760653 92.034955 
L 52.906597 92.961463 
L 53.05254 93.902678 
L 53.198483 94.851095 
L 53.344426 95.799547 
L 53.490369 96.741288 
L 53.636312 97.670063 
L 53.782255 98.580164 
L 53.928198 99.466478 
L 54.074142 100.324511 
L 54.220085 101.150413 
L 54.366028 101.940975 
L 54.511971 102.693627 
L 54.657914 103.406418 
L 54.803857 104.077991 
L 54.9498 104.707544 
L 55.095744 105.294793 
L 55.241687 105.839926 
L 55.38763 106.343546 
L 55.533573 106.806628 
L 55.679516 107.230461 
L 55.825459 107.616593 
L 55.971402 107.966786 
L 56.117345 108.282962 
L 56.263289 108.56716 
L 56.409232 108.821492 
L 56.555175 109.048106 
L 56.701118 109.249149 
L 56.847061 109.426743 
L 56.993004 109.582954 
L 57.138947 109.719776 
L 57.284891 109.839112 
L 57.430834 109.942761 
L 57.576777 110.032411 
L 57.72272 110.109632 
L 57.868663 110.175874 
L 58.014606 110.232464 
" clip-path="url(#pe93d5a74c9)" style="fill: none; stroke: #000000; stroke-linecap: square"/>
   </g>
   <g id="line2d_48">
    <path d="M 50.790421 112.269194 
L 50.790421 73.774597 
" clip-path="url(#pe93d5a74c9)" style="fill: none; stroke: #000000; stroke-linecap: square"/>
   </g>
  </g>
  <g id="axes_4">
   <g id="patch_11">
    <path d="M 119.71772 112.269194 
L 218.755441 112.269194 
L 218.755441 73.774597 
L 119.71772 73.774597 
z
" style="fill: #ffffff"/>
   </g>
   <g id="matplotlib.axis_7">
    <g id="xtick_12">
     <g id="line2d_49">
      <path d="M 129.504195 112.269194 
L 129.504195 73.774597 
" clip-path="url(#p4062b871ce)" style="fill: none; stroke: #d3d3d3; stroke-width: 0.5; stroke-linecap: square"/>
     </g>
     <g id="line2d_50">
      <g>
       <use xlink:href="#ma2fdc05242" x="129.504195" y="112.269194" style="stroke: #000000; stroke-width: 0.8"/>
      </g>
     </g>
     <g id="text_15">
      <!-- −20 -->
      <g transform="translate(123.172789 122.828257) scale(0.06 -0.06)">
       <use xlink:href="#DejaVuSerif-2212"/>
       <use xlink:href="#DejaVuSerif-32" x="83.789062"/>
       <use xlink:href="#DejaVuSerif-30" x="147.412109"/>
      </g>
     </g>
    </g>
    <g id="xtick_13">
     <g id="line2d_51">
      <path d="M 151.215789 112.269194 
L 151.215789 73.774597 
" clip-path="url(#p4062b871ce)" style="fill: none; stroke: #d3d3d3; stroke-width: 0.5; stroke-linecap: square"/>
     </g>
     <g id="line2d_52">
      <g>
       <use xlink:href="#ma2fdc05242" x="151.215789" y="112.269194" style="stroke: #000000; stroke-width: 0.8"/>
      </g>
     </g>
     <g id="text_16">
      <!-- 0 -->
      <g transform="translate(149.307039 122.828257) scale(0.06 -0.06)">
       <use xlink:href="#DejaVuSerif-30"/>
      </g>
     </g>
    </g>
    <g id="xtick_14">
     <g id="line2d_53">
      <path d="M 172.927383 112.269194 
L 172.927383 73.774597 
" clip-path="url(#p4062b871ce)" style="fill: none; stroke: #d3d3d3; stroke-width: 0.5; stroke-linecap: square"/>
     </g>
     <g id="line2d_54">
      <g>
       <use xlink:href="#ma2fdc05242" x="172.927383" y="112.269194" style="stroke: #000000; stroke-width: 0.8"/>
      </g>
     </g>
     <g id="text_17">
      <!-- 20 -->
      <g transform="translate(169.109883 122.828257) scale(0.06 -0.06)">
       <use xlink:href="#DejaVuSerif-32"/>
       <use xlink:href="#DejaVuSerif-30" x="63.623047"/>
      </g>
     </g>
    </g>
    <g id="xtick_15">
     <g id="line2d_55">
      <path d="M 194.638977 112.269194 
L 194.638977 73.774597 
" clip-path="url(#p4062b871ce)" style="fill: none; stroke: #d3d3d3; stroke-width: 0.5; stroke-linecap: square"/>
     </g>
     <g id="line2d_56">
      <g>
       <use xlink:href="#ma2fdc05242" x="194.638977" y="112.269194" style="stroke: #000000; stroke-width: 0.8"/>
      </g>
     </g>
     <g id="text_18">
      <!-- 40 -->
      <g transform="translate(190.821477 122.828257) scale(0.06 -0.06)">
       <defs>
        <path id="DejaVuSerif-34" d="M 2234 1581 
L 2234 4063 
L 641 1581 
L 2234 1581 
z
M 3609 0 
L 1484 0 
L 1484 331 
L 2234 331 
L 2234 1247 
L 197 1247 
L 197 1588 
L 2241 4750 
L 2859 4750 
L 2859 1581 
L 3750 1581 
L 3750 1247 
L 2859 1247 
L 2859 331 
L 3609 331 
L 3609 0 
z
" transform="scale(0.015625)"/>
       </defs>
       <use xlink:href="#DejaVuSerif-34"/>
       <use xlink:href="#DejaVuSerif-30" x="63.623047"/>
      </g>
     </g>
    </g>
    <g id="xtick_16">
     <g id="line2d_57">
      <path d="M 216.350571 112.269194 
L 216.350571 73.774597 
" clip-path="url(#p4062b871ce)" style="fill: none; stroke: #d3d3d3; stroke-width: 0.5; stroke-linecap: square"/>
     </g>
     <g id="line2d_58">
      <g>
       <use xlink:href="#ma2fdc05242" x="216.350571" y="112.269194" style="stroke: #000000; stroke-width: 0.8"/>
      </g>
     </g>
     <g id="text_19">
      <!-- 60 -->
      <g transform="translate(212.533071 122.828257) scale(0.06 -0.06)">
       <use xlink:href="#DejaVuSerif-36"/>
       <use xlink:href="#DejaVuSerif-30" x="63.623047"/>
      </g>
     </g>
    </g>
    <g id="text_20">
     <!-- Cloud base rate [m/h] -->
     <g transform="translate(136.105799 132.635132) scale(0.06 -0.06)">
      <use xlink:href="#DejaVuSerif-43"/>
      <use xlink:href="#DejaVuSerif-6c" x="76.513672"/>
      <use xlink:href="#DejaVuSerif-6f" x="108.496094"/>
      <use xlink:href="#DejaVuSerif-75" x="168.701172"/>
      <use xlink:href="#DejaVuSerif-64" x="233.105469"/>
      <use xlink:href="#DejaVuSerif-20" x="297.119141"/>
      <use xlink:href="#DejaVuSerif-62" x="328.90625"/>
      <use xlink:href="#DejaVuSerif-61" x="392.919922"/>
      <use xlink:href="#DejaVuSerif-73" x="452.539062"/>
      <use xlink:href="#DejaVuSerif-65" x="503.857422"/>
      <use xlink:href="#DejaVuSerif-20" x="563.037109"/>
      <use xlink:href="#DejaVuSerif-72" x="594.824219"/>
      <use xlink:href="#DejaVuSerif-61" x="642.626953"/>
      <use xlink:href="#DejaVuSerif-74" x="702.246094"/>
      <use xlink:href="#DejaVuSerif-65" x="742.431641"/>
      <use xlink:href="#DejaVuSerif-20" x="801.611328"/>
      <use xlink:href="#DejaVuSerif-5b" x="833.398438"/>
      <use xlink:href="#DejaVuSerif-6d" x="872.412109"/>
      <use xlink:href="#DejaVuSerif-2f" x="967.236328"/>
      <use xlink:href="#DejaVuSerif-68" x="1000.927734"/>
      <use xlink:href="#DejaVuSerif-5d" x="1065.332031"/>
     </g>
    </g>
   </g>
   <g id="matplotlib.axis_8">
    <g id="ytick_8">
     <g id="line2d_59">
      <path d="M 119.71772 110.51944 
L 218.755441 110.51944 
" clip-path="url(#p4062b871ce)" style="fill: none; stroke: #d3d3d3; stroke-width: 0.5; stroke-linecap: square"/>
     </g>
     <g id="line2d_60">
      <g>
       <use xlink:href="#macddaaa182" x="119.71772" y="110.51944" style="stroke: #000000; stroke-width: 0.8"/>
      </g>
     </g>
    </g>
    <g id="ytick_9">
     <g id="line2d_61">
      <path d="M 119.71772 92.967447 
L 218.755441 92.967447 
" clip-path="url(#p4062b871ce)" style="fill: none; stroke: #d3d3d3; stroke-width: 0.5; stroke-linecap: square"/>
     </g>
     <g id="line2d_62">
      <g>
       <use xlink:href="#macddaaa182" x="119.71772" y="92.967447" style="stroke: #000000; stroke-width: 0.8"/>
      </g>
     </g>
    </g>
    <g id="ytick_10">
     <g id="line2d_63">
      <path d="M 119.71772 75.415455 
L 218.755441 75.415455 
" clip-path="url(#p4062b871ce)" style="fill: none; stroke: #d3d3d3; stroke-width: 0.5; stroke-linecap: square"/>
     </g>
     <g id="line2d_64">
      <g>
       <use xlink:href="#macddaaa182" x="119.71772" y="75.415455" style="stroke: #000000; stroke-width: 0.8"/>
      </g>
     </g>
    </g>
   </g>
   <g id="line2d_65">
    <path d="M 124.219435 109.853663 
L 125.128872 109.794954 
L 126.038309 109.73414 
L 126.947747 109.671266 
L 127.857184 109.606347 
L 128.766621 109.53936 
L 129.676059 109.470247 
L 130.585496 109.398912 
L 131.494933 109.325223 
L 132.40437 109.249022 
L 133.313808 109.170128 
L 134.223245 109.088355 
L 135.132682 109.003524 
L 136.04212 108.915486 
L 136.951557 108.824142 
L 137.860994 108.729465 
L 138.770431 108.631523 
L 139.679869 108.530498 
L 140.589306 108.426702 
L 141.498743 108.320589 
L 142.408181 108.212759 
L 143.317618 108.103955 
L 144.227055 107.995051 
L 145.136492 107.887036 
L 146.04593 107.780985 
L 146.955367 107.678028 
L 147.864804 107.579312 
L 148.774242 107.485964 
L 149.683679 107.399045 
L 150.593116 107.319514 
L 151.502553 107.248188 
L 152.411991 107.185715 
L 153.321428 107.132543 
L 154.230865 107.088911 
L 155.140303 107.054838 
L 156.04974 107.030131 
L 156.959177 107.014397 
L 157.868614 107.00707 
L 158.778052 107.007444 
L 159.687489 107.014717 
L 160.596926 107.028035 
L 161.506364 107.046543 
L 162.415801 107.069431 
L 163.325238 107.095983 
L 164.234675 107.12561 
L 165.144113 107.157876 
L 166.05355 107.192521 
L 166.962987 107.229456 
L 167.872425 107.268753 
L 168.781862 107.310625 
L 169.691299 107.355381 
L 170.600736 107.403391 
L 171.510174 107.455028 
L 172.419611 107.510623 
L 173.329048 107.570414 
L 174.238486 107.634504 
L 175.147923 107.702835 
L 176.05736 107.775167 
L 176.966797 107.851077 
L 177.876235 107.929974 
L 178.785672 108.011125 
L 179.695109 108.093698 
L 180.604547 108.176806 
L 181.513984 108.259565 
L 182.423421 108.341148 
L 183.332858 108.420834 
L 184.242296 108.498053 
L 185.151733 108.572414 
L 186.06117 108.643724 
L 186.970608 108.711988 
L 187.880045 108.7774 
L 188.789482 108.840308 
L 189.698919 108.901181 
L 190.608357 108.960563 
L 191.517794 109.019018 
L 192.427231 109.077079 
L 193.336669 109.135208 
L 194.246106 109.193749 
L 195.155543 109.252906 
L 196.06498 109.312725 
L 196.974418 109.373094 
L 197.883855 109.43375 
L 198.793292 109.494306 
L 199.70273 109.554282 
L 200.612167 109.613139 
L 201.521604 109.67033 
L 202.431041 109.725328 
L 203.340479 109.777675 
L 204.249916 109.827004 
L 205.159353 109.873068 
L 206.068791 109.915744 
L 206.978228 109.955044 
L 207.887665 109.991099 
L 208.797102 110.024148 
L 209.70654 110.054514 
L 210.615977 110.082575 
L 211.525414 110.108737 
L 212.434852 110.133402 
L 213.344289 110.156947 
L 214.253726 110.179697 
" clip-path="url(#p4062b871ce)" style="fill: none; stroke: #595959; stroke-linecap: square"/>
   </g>
   <g id="line2d_66">
    <path d="M 124.219435 110.51944 
L 125.128872 110.51944 
L 126.038309 110.51944 
L 126.947747 110.51944 
L 127.857184 110.51944 
L 128.766621 110.51944 
L 129.676059 110.51944 
L 130.585496 110.51944 
L 131.494933 110.51944 
L 132.40437 110.51944 
L 133.313808 110.51944 
L 134.223245 110.51944 
L 135.132682 110.51944 
L 136.04212 110.51944 
L 136.951557 110.51944 
L 137.860994 110.51944 
L 138.770431 110.51944 
L 139.679869 110.51944 
L 140.589306 110.519439 
L 141.498743 110.519398 
L 142.408181 110.517543 
L 143.317618 110.480997 
L 144.227055 110.168978 
L 145.136492 109.008412 
L 146.04593 106.933245 
L 146.955367 103.940119 
L 147.864804 98.860182 
L 148.774242 93.37814 
L 149.683679 90.871293 
L 150.593116 88.928545 
L 151.502553 84.012904 
L 152.411991 78.458692 
L 153.321428 78.531938 
L 154.230865 88.899031 
L 155.140303 101.268517 
L 156.04974 107.336901 
L 156.959177 108.898903 
L 157.868614 109.634146 
L 158.778052 110.261198 
L 159.687489 110.485951 
L 160.596926 110.517563 
L 161.506364 110.519395 
L 162.415801 110.519439 
L 163.325238 110.51944 
L 164.234675 110.51944 
L 165.144113 110.51944 
L 166.05355 110.51944 
L 166.962987 110.51944 
L 167.872425 110.51944 
L 168.781862 110.51944 
L 169.691299 110.51944 
L 170.600736 110.51944 
L 171.510174 110.51944 
L 172.419611 110.51944 
L 173.329048 110.51944 
L 174.238486 110.51944 
L 175.147923 110.51944 
L 176.05736 110.51944 
L 176.966797 110.51944 
L 177.876235 110.51944 
L 178.785672 110.51944 
L 179.695109 110.51944 
L 180.604547 110.51944 
L 181.513984 110.51944 
L 182.423421 110.51944 
L 183.332858 110.51944 
L 184.242296 110.51944 
L 185.151733 110.51944 
L 186.06117 110.51944 
L 186.970608 110.51944 
L 187.880045 110.51944 
L 188.789482 110.51944 
L 189.698919 110.51944 
L 190.608357 110.51944 
L 191.517794 110.51944 
L 192.427231 110.51944 
L 193.336669 110.51944 
L 194.246106 110.51944 
L 195.155543 110.51944 
L 196.06498 110.51944 
L 196.974418 110.51944 
L 197.883855 110.51944 
L 198.793292 110.51944 
L 199.70273 110.51944 
L 200.612167 110.51944 
L 201.521604 110.51944 
L 202.431041 110.51944 
L 203.340479 110.51944 
L 204.249916 110.51944 
L 205.159353 110.51944 
L 206.068791 110.51944 
L 206.978228 110.51944 
L 207.887665 110.51944 
L 208.797102 110.51944 
L 209.70654 110.51944 
L 210.615977 110.51944 
L 211.525414 110.51944 
L 212.434852 110.51944 
L 213.344289 110.51944 
L 214.253726 110.51944 
" clip-path="url(#p4062b871ce)" style="fill: none; stroke-dasharray: 3.7,1.6; stroke-dashoffset: 0; stroke: #1f77b4"/>
   </g>
   <g id="patch_12">
    <path d="M 119.71772 112.269194 
L 119.71772 73.774597 
" style="fill: none; stroke: #000000; stroke-width: 0.5; stroke-linejoin: miter; stroke-linecap: square"/>
   </g>
   <g id="patch_13">
    <path d="M 119.71772 112.269194 
L 218.755441 112.269194 
" style="fill: none; stroke: #000000; stroke-width: 0.5; stroke-linejoin: miter; stroke-linecap: square"/>
   </g>
   <g id="line2d_67">
    <path d="M 142.531151 110.130501 
L 142.662737 110.053804 
L 142.794322 109.964027 
L 142.925908 109.859369 
L 143.057493 109.737866 
L 143.189079 109.59739 
L 143.320664 109.435654 
L 143.452249 109.250219 
L 143.583835 109.038505 
L 143.71542 108.797812 
L 143.847006 108.525338 
L 143.978591 108.218208 
L 144.110177 107.873511 
L 144.241762 107.488336 
L 144.373347 107.059822 
L 144.504933 106.585205 
L 144.636518 106.061879 
L 144.768104 105.487459 
L 144.899689 104.859842 
L 145.031274 104.177284 
L 145.16286 103.438465 
L 145.294445 102.642564 
L 145.426031 101.78933 
L 145.557616 100.879147 
L 145.689202 99.913099 
L 145.820787 98.893029 
L 145.952372 97.821578 
L 146.083958 96.702232 
L 146.215543 95.539337 
L 146.347129 94.338114 
L 146.478714 93.104652 
L 146.610299 91.845881 
L 146.741885 90.569538 
L 146.87347 89.284098 
L 147.005056 87.998706 
L 147.136641 86.723076 
L 147.268227 85.467379 
L 147.399812 84.242116 
L 147.531397 83.057982 
L 147.662983 81.925708 
L 147.794568 80.855906 
L 147.926154 79.858905 
L 148.057739 78.944585 
L 148.189324 78.122216 
L 148.32091 77.400302 
L 148.452495 76.786434 
L 148.584081 76.287157 
L 148.715666 75.907855 
L 148.847252 75.652656 
L 148.978837 75.524352 
L 149.110422 75.524352 
L 149.242008 75.652656 
L 149.373593 75.907855 
L 149.505179 76.287157 
L 149.636764 76.786434 
L 149.768349 77.400302 
L 149.899935 78.122216 
L 150.03152 78.944585 
L 150.163106 79.858905 
L 150.294691 80.855906 
L 150.426277 81.925708 
L 150.557862 83.057982 
L 150.689447 84.242116 
L 150.821033 85.467379 
L 150.952618 86.723076 
L 151.084204 87.998706 
L 151.215789 89.284098 
L 151.347375 90.569538 
L 151.47896 91.845881 
L 151.610545 93.104652 
L 151.742131 94.338114 
L 151.873716 95.539337 
L 152.005302 96.702232 
L 152.136887 97.821578 
L 152.268472 98.893029 
L 152.400058 99.913099 
L 152.531643 100.879147 
L 152.663229 101.78933 
L 152.794814 102.642564 
L 152.9264 103.438465 
L 153.057985 104.177284 
L 153.18957 104.859842 
L 153.321156 105.487459 
L 153.452741 106.061879 
L 153.584327 106.585205 
L 153.715912 107.059822 
L 153.847497 107.488336 
L 153.979083 107.873511 
L 154.110668 108.218208 
L 154.242254 108.525338 
L 154.373839 108.797812 
L 154.505425 109.038505 
L 154.63701 109.250219 
L 154.768595 109.435654 
L 154.900181 109.59739 
L 155.031766 109.737866 
L 155.163352 109.859369 
L 155.294937 109.964027 
L 155.426522 110.053804 
L 155.558108 110.130501 
" clip-path="url(#p4062b871ce)" style="fill: none; stroke: #000000; stroke-linecap: square"/>
   </g>
   <g id="line2d_68">
    <path d="M 149.04463 112.269194 
L 149.04463 73.774597 
" clip-path="url(#p4062b871ce)" style="fill: none; stroke: #000000; stroke-linecap: square"/>
   </g>
  </g>
  <g id="legend_1">
   <g id="patch_14">
    <path d="M 21.613663 162.762944 
L 86.889913 162.762944 
Q 88.089913 162.762944 88.089913 161.562944 
L 88.089913 144.549194 
Q 88.089913 143.349194 86.889913 143.349194 
L 21.613663 143.349194 
Q 20.413663 143.349194 20.413663 144.549194 
L 20.413663 161.562944 
Q 20.413663 162.762944 21.613663 162.762944 
z
" style="fill: #ffffff; stroke: #ffffff; stroke-width: 0.75; stroke-linejoin: miter"/>
   </g>
   <g id="line2d_69">
    <path d="M 22.813663 148.208257 
L 28.813663 148.208257 
L 34.813663 148.208257 
" style="fill: none; stroke: #000000; stroke-linecap: square"/>
   </g>
   <g id="text_21">
    <!-- Data likelihood -->
    <g transform="translate(39.613663 150.308257) scale(0.06 -0.06)">
     <defs>
      <path id="DejaVuSerif-44" d="M 1581 331 
L 2163 331 
Q 3072 331 3558 850 
Q 4044 1369 4044 2338 
Q 4044 3306 3559 3818 
Q 3075 4331 2163 4331 
L 1581 4331 
L 1581 331 
z
M 353 0 
L 353 331 
L 947 331 
L 947 4331 
L 353 4331 
L 353 4666 
L 2209 4666 
Q 3416 4666 4089 4050 
Q 4763 3434 4763 2338 
Q 4763 1238 4088 619 
Q 3413 0 2209 0 
L 353 0 
z
" transform="scale(0.015625)"/>
      <path id="DejaVuSerif-6b" d="M 1831 0 
L 219 0 
L 219 331 
L 738 331 
L 738 4531 
L 184 4531 
L 184 4863 
L 1313 4863 
L 1313 1697 
L 2713 2988 
L 2234 2988 
L 2234 3322 
L 3738 3322 
L 3738 2988 
L 3169 2988 
L 2181 2075 
L 3444 331 
L 3922 331 
L 3922 0 
L 2284 0 
L 2284 331 
L 2759 331 
L 1766 1697 
L 1313 1275 
L 1313 331 
L 1831 331 
L 1831 0 
z
" transform="scale(0.015625)"/>
     </defs>
     <use xlink:href="#DejaVuSerif-44"/>
     <use xlink:href="#DejaVuSerif-61" x="80.175781"/>
     <use xlink:href="#DejaVuSerif-74" x="139.794922"/>
     <use xlink:href="#DejaVuSerif-61" x="179.980469"/>
     <use xlink:href="#DejaVuSerif-20" x="239.599609"/>
     <use xlink:href="#DejaVuSerif-6c" x="271.386719"/>
     <use xlink:href="#DejaVuSerif-69" x="303.369141"/>
     <use xlink:href="#DejaVuSerif-6b" x="335.351562"/>
     <use xlink:href="#DejaVuSerif-65" x="395.947266"/>
     <use xlink:href="#DejaVuSerif-6c" x="455.126953"/>
     <use xlink:href="#DejaVuSerif-69" x="487.109375"/>
     <use xlink:href="#DejaVuSerif-68" x="519.091797"/>
     <use xlink:href="#DejaVuSerif-6f" x="583.496094"/>
     <use xlink:href="#DejaVuSerif-6f" x="643.701172"/>
     <use xlink:href="#DejaVuSerif-64" x="703.90625"/>
    </g>
   </g>
   <g id="line2d_70">
    <path d="M 22.813663 157.015132 
L 28.813663 157.015132 
L 34.813663 157.015132 
" style="fill: none; stroke: #595959; stroke-linecap: square"/>
   </g>
   <g id="text_22">
    <!-- Prior -->
    <g transform="translate(39.613663 159.115132) scale(0.06 -0.06)">
     <defs>
      <path id="DejaVuSerif-50" d="M 1581 2375 
L 2406 2375 
Q 2872 2375 3115 2626 
Q 3359 2878 3359 3353 
Q 3359 3831 3115 4081 
Q 2872 4331 2406 4331 
L 1581 4331 
L 1581 2375 
z
M 353 0 
L 353 331 
L 947 331 
L 947 4331 
L 353 4331 
L 353 4666 
L 2559 4666 
Q 3259 4666 3668 4311 
Q 4078 3956 4078 3353 
Q 4078 2753 3668 2397 
Q 3259 2041 2559 2041 
L 1581 2041 
L 1581 331 
L 2303 331 
L 2303 0 
L 353 0 
z
" transform="scale(0.015625)"/>
     </defs>
     <use xlink:href="#DejaVuSerif-50"/>
     <use xlink:href="#DejaVuSerif-72" x="67.285156"/>
     <use xlink:href="#DejaVuSerif-69" x="115.087891"/>
     <use xlink:href="#DejaVuSerif-6f" x="147.070312"/>
     <use xlink:href="#DejaVuSerif-72" x="207.275391"/>
    </g>
   </g>
  </g>
  <g id="legend_2">
   <g id="patch_15">
    <path d="M 118.146032 153.956069 
L 222.444782 153.956069 
Q 223.644782 153.956069 223.644782 152.756069 
L 223.644782 144.549194 
Q 223.644782 143.349194 222.444782 143.349194 
L 118.146032 143.349194 
Q 116.946032 143.349194 116.946032 144.549194 
L 116.946032 152.756069 
Q 116.946032 153.956069 118.146032 153.956069 
z
" style="fill: #ffffff; stroke: #ffffff; stroke-width: 0.75; stroke-linejoin: miter"/>
   </g>
   <g id="line2d_71">
    <path d="M 119.346032 148.208257 
L 125.346032 148.208257 
L 131.346032 148.208257 
" style="fill: none; stroke-dasharray: 3.7,1.6; stroke-dashoffset: 0; stroke: #1f77b4"/>
   </g>
   <g id="text_23">
    <!-- Posterior (linear prediction) -->
    <g transform="translate(136.146032 150.308257) scale(0.06 -0.06)">
     <defs>
      <path id="DejaVuSerif-28" d="M 2041 -997 
Q 1281 -656 893 83 
Q 506 822 506 1931 
Q 506 3044 893 3783 
Q 1281 4522 2041 4863 
L 2041 4556 
Q 1559 4225 1350 3623 
Q 1141 3022 1141 1931 
Q 1141 844 1350 242 
Q 1559 -359 2041 -691 
L 2041 -997 
z
" transform="scale(0.015625)"/>
      <path id="DejaVuSerif-6e" d="M 263 0 
L 263 331 
L 781 331 
L 781 2988 
L 231 2988 
L 231 3322 
L 1356 3322 
L 1356 2731 
Q 1516 3069 1770 3241 
Q 2025 3413 2363 3413 
Q 2913 3413 3172 3097 
Q 3431 2781 3431 2113 
L 3431 331 
L 3944 331 
L 3944 0 
L 2356 0 
L 2356 331 
L 2853 331 
L 2853 1931 
Q 2853 2541 2703 2767 
Q 2553 2994 2175 2994 
Q 1775 2994 1565 2701 
Q 1356 2409 1356 1850 
L 1356 331 
L 1856 331 
L 1856 0 
L 263 0 
z
" transform="scale(0.015625)"/>
      <path id="DejaVuSerif-63" d="M 3291 997 
Q 3169 466 2822 187 
Q 2475 -91 1925 -91 
Q 1200 -91 759 389 
Q 319 869 319 1663 
Q 319 2459 759 2936 
Q 1200 3413 1925 3413 
Q 2241 3413 2553 3339 
Q 2866 3266 3181 3116 
L 3181 2266 
L 2847 2266 
Q 2781 2703 2561 2903 
Q 2341 3103 1931 3103 
Q 1466 3103 1228 2742 
Q 991 2381 991 1663 
Q 991 944 1227 581 
Q 1463 219 1931 219 
Q 2303 219 2525 412 
Q 2747 606 2828 997 
L 3291 997 
z
" transform="scale(0.015625)"/>
      <path id="DejaVuSerif-29" d="M 453 -997 
L 453 -691 
Q 934 -359 1145 242 
Q 1356 844 1356 1931 
Q 1356 3022 1145 3623 
Q 934 4225 453 4556 
L 453 4863 
Q 1216 4522 1603 3783 
Q 1991 3044 1991 1931 
Q 1991 822 1603 83 
Q 1216 -656 453 -997 
z
" transform="scale(0.015625)"/>
     </defs>
     <use xlink:href="#DejaVuSerif-50"/>
     <use xlink:href="#DejaVuSerif-6f" x="63.285156"/>
     <use xlink:href="#DejaVuSerif-73" x="123.490234"/>
     <use xlink:href="#DejaVuSerif-74" x="174.808594"/>
     <use xlink:href="#DejaVuSerif-65" x="214.994141"/>
     <use xlink:href="#DejaVuSerif-72" x="274.173828"/>
     <use xlink:href="#DejaVuSerif-69" x="321.976562"/>
     <use xlink:href="#DejaVuSerif-6f" x="353.958984"/>
     <use xlink:href="#DejaVuSerif-72" x="414.164062"/>
     <use xlink:href="#DejaVuSerif-20" x="461.966797"/>
     <use xlink:href="#DejaVuSerif-28" x="493.753906"/>
     <use xlink:href="#DejaVuSerif-6c" x="532.767578"/>
     <use xlink:href="#DejaVuSerif-69" x="564.75"/>
     <use xlink:href="#DejaVuSerif-6e" x="596.732422"/>
     <use xlink:href="#DejaVuSerif-65" x="661.136719"/>
     <use xlink:href="#DejaVuSerif-61" x="720.316406"/>
     <use xlink:href="#DejaVuSerif-72" x="779.935547"/>
     <use xlink:href="#DejaVuSerif-20" x="827.738281"/>
     <use xlink:href="#DejaVuSerif-70" x="859.525391"/>
     <use xlink:href="#DejaVuSerif-72" x="923.539062"/>
     <use xlink:href="#DejaVuSerif-65" x="971.341797"/>
     <use xlink:href="#DejaVuSerif-64" x="1030.521484"/>
     <use xlink:href="#DejaVuSerif-69" x="1094.535156"/>
     <use xlink:href="#DejaVuSerif-63" x="1126.517578"/>
     <use xlink:href="#DejaVuSerif-74" x="1182.523438"/>
     <use xlink:href="#DejaVuSerif-69" x="1222.708984"/>
     <use xlink:href="#DejaVuSerif-6f" x="1254.691406"/>
     <use xlink:href="#DejaVuSerif-6e" x="1314.896484"/>
     <use xlink:href="#DejaVuSerif-29" x="1379.300781"/>
    </g>
   </g>
  </g>
 </g>
 <defs>
  <clipPath id="p8728279a95">
   <rect x="10.7" y="7.2" width="99.03772" height="38.494597"/>
  </clipPath>
  <clipPath id="pde1a219256">
   <rect x="119.71772" y="7.2" width="99.03772" height="38.494597"/>
  </clipPath>
  <clipPath id="pe93d5a74c9">
   <rect x="10.7" y="73.774597" width="99.03772" height="38.494597"/>
  </clipPath>
  <clipPath id="p4062b871ce">
   <rect x="119.71772" y="73.774597" width="99.03772" height="38.494597"/>
  </clipPath>
 </defs>
</svg>
